<svg id="圖層_1" data-name="圖層 1" xmlns="http://www.w3.org/2000/svg" viewBox="0 0 200 200"><defs><style>.cls-1{fill:#fff;}.cls-2{fill:#231815;}.cls-3{fill:none;stroke:#231815;stroke-linecap:round;stroke-linejoin:round;stroke-width:0;}</style></defs><title>logo</title><path class="cls-1" d="M52.91,116.83a2.69,2.69,0,0,1,.71-.49c.25-.14.49-.19.55-.05-.12-.29-.12-.29.34-.79.08.19.57-.13.89-.32a4.45,4.45,0,0,0-1.47.53,2.31,2.31,0,0,1-1.34.76,2.46,2.46,0,0,0-1.33.74A3.93,3.93,0,0,0,52.91,116.83Z"/><path class="cls-1" d="M56.66,116.45l0-.16-1.12.82C55.78,116.88,56.55,116.34,56.66,116.45Z"/><path class="cls-2" d="M60.17,113.72c0,.26.67-.09.79.08-.31-.33.78-.79,1.2-1.24l-.06-.42a24,24,0,0,0-2.64,2l.35-.19Z"/><path class="cls-1" d="M61.21,113.2l.15-.43C61.15,113,60.59,113.56,61.21,113.2Z"/><path class="cls-1" d="M59.77,112.79c-.74.58.53-.24-.15.42C59.83,113,60.1,112.71,59.77,112.79Z"/><polygon class="cls-2" points="63.26 110.63 61.84 112.16 62.58 111.69 63.26 110.63"/><path class="cls-2" d="M63.85,111.1c-.2.18-.6.38-.4,0,.74-.3.81-.9,1.48-1.2l-.41.53c.26.15.82-1.15,1.15-.74.42-.87-.8.12-.11-.85a15.79,15.79,0,0,1-2.17,1.82,4.54,4.54,0,0,0,.67-.38c-.47.45-1,1.17-1.56,1.71C63,112,63.25,111.4,63.85,111.1Z"/><path class="cls-2" d="M66.36,108.94c.54-.45,1.4-1.1,1.31-1.53-.76.24-.65.59-.81.93-.21.08-.76.53-.68.18C66.32,108.52,66,109,66.36,108.94Z"/><path class="cls-2" d="M68.55,107.29l.1-.29.11-.29-.24.24-.18-.18a1.11,1.11,0,0,1-.52,1C68.24,107.69,68.21,107.44,68.55,107.29Z"/><path class="cls-2" d="M67.69,105.78a2.67,2.67,0,0,0,1.14-.8,7.4,7.4,0,0,0-1.72,1.39v-.09s-.13.15-.28.36a6.26,6.26,0,0,0-.45.76C66.85,106.7,68.25,106.15,67.69,105.78Z"/><path class="cls-2" d="M66.84,106.37l.35-.51Z"/><path class="cls-2" d="M70.31,106.06l-.49.21-.48.24.28-.05S70.31,106.06,70.31,106.06Z"/><path class="cls-2" d="M68.65,105.84c.78-.45-.56,0,.15-.42.17-.16-1.05.7-1,.89C68,106.22,68.41,105.65,68.65,105.84Z"/><path class="cls-2" d="M70.93,105.76l.69-.6Z"/><path class="cls-2" d="M73,105.15l.12-.21c.42,0,.88-.14,1.33-.12a1.2,1.2,0,0,1,1.07.31c-.09-.25.45-.4-.26-.6-.13.1-.38.08-.35.23-.3,0-.24-.2-.45-.26-.27.11-.61.13-.93.22a1.83,1.83,0,0,0-.82.29.62.62,0,0,1,.41-.08,1.25,1.25,0,0,1-.9.22c-.22,0-.39,0-.47.29C72,105.17,72.61,105.36,73,105.15Z"/><path class="cls-2" d="M72.58,103.94l-.8.19c.17-.31,1-.34,1-.56-.09-.16-.93,0-.66-.16.07.59-1.1.39-.47.87-.94.46-.43-.21-1.45.27l-.13.42A12.16,12.16,0,0,1,72.58,103.94Z"/><path class="cls-2" d="M75.83,103.88s.36.29.35.3-.14-.32-.14-.32a2.65,2.65,0,0,1,1.76,1.58,4.85,4.85,0,0,0,.73,1.5c1,.85,1.09,2.19,1.78,3.31.52.44-.18-.6-.08-.73.49-.06.08.66.56.74.32-.09-.32-1.33-.42-1.93-.28-.41-.37-.35-.61-.39.1-.2-.11-.67,0-.88-.79-.73-.73-1.53-1.78-2.11-.05-.21.12-.08.27.07s.25.33.13.19a2.56,2.56,0,0,0-.22-.21l-.24-.2,0,.07c-.4-.18-.89-.51-1.41-.77a11.54,11.54,0,0,0-1.33-.57c.46.15.7.4.18.4,0,0-.39-.36-.39-.34l-.53.23-.5.24a2.17,2.17,0,0,1,1.14-.06C75.43,104.06,75.68,104.11,75.83,103.88Z"/><path class="cls-2" d="M74.63,103.23c-.68-.05-.63.06-.6.17s0,.11-.05.15a3.14,3.14,0,0,1-.59.1l.22,0a2.65,2.65,0,0,1,.5-.06l.75,0Z"/><path class="cls-1" d="M79.32,107l.13.59C79.65,107.1,78.68,106.64,79.32,107Z"/><polygon class="cls-1" points="80.38 108.81 79.91 108.73 80.35 109.09 80.38 108.81"/><path class="cls-2" d="M80.9,110.68c.38.26.26-.25,0-.65C81.08,110.43,81.06,110.71,80.9,110.68Z"/><path class="cls-1" d="M82.37,113.68c-.41-.35-.25-.18-.08.06s.4.53,0,.41C82.49,114.11,83,114.27,82.37,113.68Z"/><path class="cls-2" d="M85.8,115.66c-.45.11-.66,0-.71-.09A3.91,3.91,0,0,1,85.8,115.66Z"/><path class="cls-2" d="M77.57,106.19a2.31,2.31,0,0,1-.21-.23Z"/><path class="cls-2" d="M77.7,106.34l-.13-.15A1,1,0,0,1,77.7,106.34Z"/><path class="cls-2" d="M80.78,112.8h0l0-.09Z"/><path class="cls-2" d="M59.11,115.11a3.43,3.43,0,0,1-.36.26l.36-.26Z"/><path class="cls-2" d="M58.39,114.95c.51-.62,1,0,2-.88a11.81,11.81,0,0,1-1.24,1C58.28,115.19,59.47,114.64,58.39,114.95Z"/><path class="cls-2" d="M66.14,107.79l0,0C66.21,107.69,66.19,107.73,66.14,107.79Z"/><polygon class="cls-1" points="25.57 123.72 25.57 123.83 24.86 123.74 25.57 123.72"/><path class="cls-1" d="M25.68,123.9l1.2.12-3.52.25-3.52.22.22-.16C20,124.16,25.9,124.07,25.68,123.9Z"/><path class="cls-1" d="M26,123.72c.65-.47,1.14.09,2-.28a2.57,2.57,0,0,1-1.47.43Z"/><path class="cls-3" d="M28.29,122.73c.38.06.81-.16,1-.11C29.21,123,28.61,122.75,28.29,122.73Z"/><path class="cls-2" d="M29.19,121.39l.17,0-.17.08Z"/><path class="cls-2" d="M29.19,121.45v.15C29.07,121.55,29.1,121.5,29.19,121.45Z"/><path class="cls-2" d="M29.36,121.38a2.06,2.06,0,0,0,.42-.19h-.16c.22-.05.59-.21.7-.14-.43,0-.43.12-.42.33l.7,0C30.5,121.83,30,121.37,29.36,121.38Z"/><path class="cls-3" d="M31.55,121.06l-.69.35C30.64,121.16,31.28,121.08,31.55,121.06Z"/><path class="cls-2" d="M32.63,121.28c-.16.1-.86.14-.42.22a.88.88,0,0,1-.39.08C32.29,121.47,31.81,121.18,32.63,121.28Z"/><path class="cls-2" d="M31.82,121.58l-.2,0Z"/><path class="cls-3" d="M24.37,123.39c.09,0,.09.07.05.11Z"/><path class="cls-2" d="M34.09,121.42l.27,0-.21,0Z"/><path class="cls-2" d="M11.79,125.57a12.71,12.71,0,0,0,3.2-.21c-.05-.35.54-.13.6-.51-1.42.12,5.33-.51,4.19-.6l-.33.18.33-.39c.69.06,1.63.31,2.08.07.13.11-5.8.32-5.57.42-.55-.41,7.92-.82,8.12-1l.11.22c1-.31,1.69-.67,2.56-.89l.22.26a3.89,3.89,0,0,0-1.47.31c1.14-.12,1.36,0,2.23-.09-.06-.35-.76-.12.32-.4.33.12-.37.57.6.42,1.2,0,.92-.5,1.95-.63l-.71-.06a3.47,3.47,0,0,1,1.46,0c-.43,0-1.51.32-1.45.67a17.14,17.14,0,0,1,1.79-.13l-.21.27c.44.19.65-.18,1.2,0,.48-.19-.34-.33-.07-.45a2.52,2.52,0,0,0,1.41-.11c-.3-.49-1.13.3-1.8-.15h.92c.52-.57-1.46.16-1.21-.29.63-.59,1.48.36,2-.39-.43-.07-1.78.07-1.63-.14.5.15.79-.26,1.44-.41l.82.14c.31-.2,0-.17-.23-.25,1.2.18,3.09-.47,4.77-.37.94-.26.08-.25.48-.51.56.21,1.37-.21,1.9-.3.16,0,.38-.37.2-.46l-1.28.44c0-.18-.21-.41-.68-.28.22.27-.26.26-.79.28s-1.12,0-1.12.37l0-.31-1.67.47.06,0a20.84,20.84,0,0,1-2.39.39c.26-.13,1.87-.21.89-.43.68-.25,2-.16,3.22-.49L38,120a10.8,10.8,0,0,1,2.21-.46,15.53,15.53,0,0,0,2.32-.37l-.37.38a2.77,2.77,0,0,0,1.66-.3c-.62.16-.33-.07-.25-.22A8.32,8.32,0,0,1,45,118.6a15.18,15.18,0,0,0,1.67-.52s0,.07,0,.1l1.11-.51a2.26,2.26,0,0,1,1.19,0c.19-.11.68-.28.44-.37a1,1,0,0,0-.29.09c.47-.5.43-.06,1.09-.5-.46.45.31.29.34.56.79-.44-.1-.47,0-.63a17.7,17.7,0,0,0,2.29-.53c0-.18-.76.21-.92.07a1.44,1.44,0,0,0,.65-.32l-.66.15a8.48,8.48,0,0,0,1.61-.53,12.46,12.46,0,0,0,1.54-.89l-.13,0,.69-.35-.09.4c.34-.25.84-.28.91-.61l-.14.06.39-.37-.29.55c.62-.26,1.1-1.28,2-1.82.47.22-1.45,1.13-1.28,1.66.35-.12.93-.38,1-.62-.12-.1-.34,0-.56.18.68-.72,2-1.2,2.17-2l-.65.31c.59-.54,1.37-.49,1.38-.91l-.15.84c.48-.76,1.34-1.47,1.81-2.19-.2-.24-.87.82-.87.73l.13-.43c1.07-.75.39-.11,1.68-1L63,109c.59-.12,1.26-1.54,1.23-.76l-.41.2.19.16.63-.68.65-.68c0,.26.64-.37.61,0l.4-.61c.46.08-.72,1.13-.59,1.39s.35-.11.46-.23c-.45.73-1.16.52-1.77,1.06l-.15.44L64,109a1.44,1.44,0,0,0-.28.79c-.88.22-1.15,1.19-2.09,1.91.61-.79-.66.21-.6,0-.39.35-1,1.63-1.64,1.59-.33.06.37-.55-.25-.18-.34.3-.51.63-.18.57a26.88,26.88,0,0,1-3,1.9l.15-.31a2.59,2.59,0,0,0-1.46,1.15c-.13,0-.15.05-.11-.11-1,.15-.88.93-2.35,1.48.19.23.85,0,1.25-.35l0,.35a12.72,12.72,0,0,0,1.85-1,10.58,10.58,0,0,0,1.56-1.09l-.15.24c-.08.12-.16.23-.16.23,1-.1.36-.73,1.38-.77.49-.46-.49.11-.15-.27.45-.17.21.55.89.14a33.76,33.76,0,0,1-8.39,4.4c0,.08.13,0,.29,0a7,7,0,0,1-1.85.75c-.94.25-2.11.51-3.25.76s-2.27.43-3.12.63-1.41.38-1.44.61c-.18-.1.29-.33-.35-.19,0,.07-.2.18,0,.28a12,12,0,0,0-2.83.27,13.62,13.62,0,0,1-3.06.33c.06.14-.37.27-.36.38-.72-.25-1.85.23-2.52.1l.22.15-2,.19c-.05.07.22,0,.38.05-.43.12-.55-.06-.6-.2l-.87.43c-2.68-.39-5.91.73-9,.5a2.87,2.87,0,0,1-1.59.52l.38.07c-.77.28-.05-.14-.71,0-.44.21-.11.44.49.25.39.08.16.19-.11.27A29.07,29.07,0,0,1,11.79,125.57Z"/><path class="cls-2" d="M94.53,111.83c-.3.07.77-.79.06-.59a27.83,27.83,0,0,0-3.3,2.13,17,17,0,0,1-1.94,1.15c-.18.08-.33.17-.52.24l-.58.19a4.57,4.57,0,0,1-1.1.23c-.79,0-1,0-1.7-.11a.2.2,0,0,0,0,.16l-.71,0A5.68,5.68,0,0,1,84,115a3.35,3.35,0,0,1-1.35-.72c-.23-.08-.51,0-.09.22a2.51,2.51,0,0,1-1.17-1.14,3.18,3.18,0,0,0-.61-.95c.19.53-.49-.32-.21.29-.71-1,.05-1.29-.3-2.07-.08,0-.16,0-.09.13-.16-1-1.5-2.34-1.08-2.69l-.38-.19c0-.42.12-.41-.18-1-.32-.29-.16.13-.32.06.09-.29-.67-1.07-.89-1.61.1-.15.21.1.34.39s.26.64.54.74c.07,0,0-.1,0-.19,1.61,2.21,1.29,4.67,3.11,6.51a1,1,0,0,0,1,.73c-.14-.2-.39-.56-.62-.84s-.47-.5-.67-.37l-.09-.4-.07-.4c-.17-.22.26-.48.27-.62.22.46.92.63.72,0,.36.5.1.56-.18.61s-.57.06-.17.51l.39-.08c-.3-.06.21.86.6,1l-.07-.16a4,4,0,0,0,2.17,1.28,5.29,5.29,0,0,0,2.74-.24,10.48,10.48,0,0,0,2.45-1.32c.76-.51,1.46-1.07,2.12-1.61,1.23.19,1.74-1.81,2.79-1.8.19-.35-.6.13-.15-.44.22-.29.41-.14.44-.08l.19-.28a1,1,0,0,1,.56,1.13A5.2,5.2,0,0,1,94.53,111.83Z"/><path class="cls-1" d="M120.07,80.25c.14-.53.85-1.25,1.17-.81-.32-.44-.33-.44,0-1.17.21.3.64-.15.94-.4-.42,0-.81.21-1.57.68-.15,1.11-2.2,1.25-2.16,2.36a5.2,5.2,0,0,1,.86-.18A1.2,1.2,0,0,0,120.07,80.25Z"/><path class="cls-1" d="M124.3,80l0-.24-.44.52-.43.53C123.51,80.54,124.12,79.84,124.3,80Z"/><path class="cls-2" d="M127.81,77.4c0,.42.64.45.65.86,0-.4.19-.54.52-.47s.67.22.93.26l.21-.28a3.14,3.14,0,0,1,.21-.26,1.2,1.2,0,0,0-.52-.38,3.08,3.08,0,0,0-.87-.12,5.65,5.65,0,0,0-2,.54l.44-.08A2.82,2.82,0,0,1,127.81,77.4Z"/><path class="cls-1" d="M128.93,77.64a3.42,3.42,0,0,1,.42-.38C129,77.32,128.27,77.44,128.93,77.64Z"/><path class="cls-1" d="M127.84,75.62c-.68.16-.46.17-.24.2s.41.09-.21.34C127.79,75.92,128.31,75.77,127.84,75.62Z"/><path class="cls-2" d="M132.23,78.2,132,78a5,5,0,0,0-.68-.43,3.43,3.43,0,0,0-1.07-.37,3.55,3.55,0,0,1,.71.62l.21,0a2.33,2.33,0,0,1,.45.12A3.52,3.52,0,0,1,132.23,78.2Z"/><path class="cls-2" d="M131.38,79.23c-.14-.17-.25-.65.13-.54a1.23,1.23,0,0,0,.45.81.9.9,0,0,1,.34.79,4.76,4.76,0,0,0-.45-.42c-.19.18,0,.33.25.58s.33.5-.09.65c.9.55.49-.9,1.31,0a11.69,11.69,0,0,1-.6-1.35,9.1,9.1,0,0,0-.62-1.33c.06.34.14.43.24.84A4,4,0,0,0,130.52,78a.75.75,0,0,0,.4.63A.92.92,0,0,1,131.38,79.23Z"/><path class="cls-2" d="M132.53,81.92c.15.64.34,1.62,1.05,1.68.33-.81-.27-.81-.62-1,.07-.22-.08-.88.34-.72C133.18,82,132.69,81.56,132.53,81.92Z"/><path class="cls-2" d="M133,84.47l.67.39-.15-.3.43-.1c-.12,0-.93-.15-1-.8C132.66,84,133.08,84.1,133,84.47Z"/><path class="cls-2" d="M136,84.15c-.22.57,0,.84.22,1.4-.06-.4-.13-.89-.23-1.33a1.49,1.49,0,0,0-.36-.83l.12,0a5.14,5.14,0,0,0-1-1.1C135.36,83,134.95,84.55,136,84.15Z"/><path class="cls-2" d="M135.87,83.13l.45.51Z"/><path class="cls-2" d="M133.34,86.47s0-.26.06-.52l.05-.52-.16.27,0,.38C133.34,86.28,133.34,86.47,133.34,86.47Z"/><path class="cls-2" d="M135.07,85.06c0,.89.44-.54.5.3.11.23-.17-1.26-.47-1.28C135,84.32,135.57,84.91,135.07,85.06Z"/><path class="cls-2" d="M133.33,87.15l.49.83Z"/><path class="cls-2" d="M133.1,89.28l.33.16c-.26.84.22,1.95-.46,2.58.4-.16.84.32.94-.42-.22-.11-.22-.37-.48-.32.07-.32.36-.26.47-.47-.37-.53-.11-1.37-.44-1.79.07.21,0,.26,0,.42-.58-.9.8-1.09-.16-1.46C133.57,88.29,133,88.86,133.1,89.28Z"/><path class="cls-2" d="M135.32,89.16l.11-.74c.44.22,0,.9.44,1,.25,0,.36-.79.54-.52-1-.06-.08-1-1.21-.6-.16-1,.62-.31.52-1.34l-.56-.27C135.5,87.84,135,88,135.32,89.16Z"/><path class="cls-2" d="M135.22,92l-.32.36.47-.21c.14,1.57-1.72,2.66-1.33,3.66a2.82,2.82,0,0,1,.41,1.79,4.26,4.26,0,0,0,.23,1.9c.32.22.31.05.26-.18s-.11-.55,0-.62c.82-.1-.23.72.52.74.54-.15.16-1.36.41-1.94-.18-.41-.35-.36-.71-.43.29-.17.32-.65.62-.81a1.34,1.34,0,0,1-.18-1.15,1.52,1.52,0,0,0-.16-1.16c.42-.32.14.69.18.38l0-.5-.07.06a2.61,2.61,0,0,1,.16-2.44c-.14.36-.5.62-.65.2l.51-.36-.77-.9C135.25,91,134.28,91.87,135.22,92Z"/><path class="cls-2" d="M136.13,91c.25-1.09-.77.15-.55-1.05l.08,1.25Z"/><path class="cls-1" d="M135.2,96.11l-.27.58C135.6,96.28,134.52,95.62,135.2,96.11Z"/><path class="cls-1" d="M135.58,98l-.7-.1.24.2.25.18Z"/><path class="cls-2" d="M135.43,99.9c.46.22.53-.34.28-.7C135.84,99.57,135.67,99.89,135.43,99.9Z"/><path class="cls-1" d="M136.51,103.32c-.47-.38-.3-.18-.11.11s.41.67-.14.64C136.57,103.95,137.24,104,136.51,103.32Z"/><path class="cls-2" d="M140.26,105.95c-.55.18-.79.05-.85-.11A2.37,2.37,0,0,1,140.26,105.95Z"/><path class="cls-2" d="M133.43,94.64a1.48,1.48,0,0,1,0-.33C133.42,94.43,133.42,94.53,133.43,94.64Z"/><path class="cls-2" d="M133.43,94.86v-.22A2.15,2.15,0,0,1,133.43,94.86Z"/><path class="cls-2" d="M134.46,102.59h0a1,1,0,0,1,0-.12Z"/><path class="cls-2" d="M126.68,78.88a1.65,1.65,0,0,1-.34.24l.33-.24Z"/><path class="cls-2" d="M125.8,78.32c.23-.37.53-.27.89-.15a1.16,1.16,0,0,0,1.19-.11c-.41.25-.77.5-1.21.81C125.75,78.64,127,78.3,125.8,78.32Z"/><path class="cls-2" d="M134.41,82l0,0C134.48,82.07,134.45,82,134.41,82Z"/><polygon class="cls-1" points="102.41 101.76 102.53 101.9 101.87 102.19 102.41 101.76"/><path class="cls-1" d="M102.71,101.93l.54-.28.53-.28-.75.77-1.71,1.63c-.62.6-1.29,1.15-1.77,1.58l-.81.71v-.34c-.14-.1,1-1,2-1.89S102.88,102,102.71,101.93Z"/><path class="cls-1" d="M102.74,101.5c-.06-1,1-.58,1.17-1.53-.13.63-.13,1.19-.63,1.42Z"/><path class="cls-3" d="M103.32,98.88c.37-.14.43-.68.65-.75C104.3,98.63,103.59,98.72,103.32,98.88Z"/><path class="cls-2" d="M102.39,96.66a.51.51,0,0,1,.11-.12,1.16,1.16,0,0,0,0,.2Z"/><path class="cls-2" d="M102.47,96.74l.18.19C102.5,96.94,102.46,96.86,102.47,96.74Z"/><path class="cls-2" d="M102.5,96.54a1.56,1.56,0,0,0,.08-.48l-.13.08c.09-.2.18-.6.36-.57-.31.26-.18.39.08.65l.49-.44C103.91,96.46,102.94,96.16,102.5,96.54Z"/><path class="cls-3" d="M103.76,94.89l-.09.83C103.19,95.53,103.59,95.07,103.76,94.89Z"/><path class="cls-2" d="M104.83,94.54c0,.21-.46.66,0,.52,0,.15-.1.23-.19.32C104.81,95,104.1,94.9,104.83,94.54Z"/><path class="cls-2" d="M104.61,95.38a.69.69,0,0,1-.11.16A.54.54,0,0,1,104.61,95.38Z"/><path class="cls-3" d="M101.09,102c.11,0,.15,0,.16.11Z"/><path class="cls-2" d="M106.12,93.89l.17-.2a1.1,1.1,0,0,0-.12.18Z"/><path class="cls-2" d="M92.26,111.41a12.62,12.62,0,0,0,1.5-.54,4.49,4.49,0,0,0,1.56-1.08c-.35-.51.39-.46.11-1.05-.29.21-.16.11.17-.14A14.54,14.54,0,0,0,97,107.46c1-.93,2-1.92,1.46-1.69l-.09.43-.13-.72c.6-.3,1.63-.49,1.74-1.07a10.75,10.75,0,0,1-2.06,1.84l-1.52,1.17c-.41.32-.68.49-.61.51-.22-.1.09-.4.58-.93s1.25-1.16,2-1.84,1.48-1.4,2-2a4.23,4.23,0,0,0,.88-1.09l.34.23c.47-1,.53-1.85.93-2.65l.47.2c-.55.33-.44.68-.75,1.28.72-.84,1.07-.77,1.6-1.44-.46-.41-.72.29-.22-.69.4,0,.39.94,1,.18.91-.72.09-1.19.73-1.95l-.63.33c.23-.29.6-.87,1.08-.9-.31.27-.78,1.28-.31,1.68.19-.41,1-.92,1.23-1.23l.17.46c.57,0,.27-.62.9-.76.14-.53-.67-.19-.62-.51.17,0,1-.53,1-1-.84-.41-.53,1-1.59.88l.71-.55c-.32-1-.92,1.06-1.28.37-.28-1.1,1.59-.43,1.08-1.67-.44.18-1.3,1.1-1.44.77.55-.12.28-.77.6-1.31l.82-.32c0-.44-.18-.24-.49-.16,1.16-.53,1.88-2.43,3.48-3.22.56-.81-.22-.36-.16-.9.76,0,1-1,1.39-1.37.14-.09-.06-.68-.32-.72l-.68,1.25a.57.57,0,0,0-.94,0c1,.46-1.81,1-.95,1.88l-.4-.37-.82,1.56h.09c-.13-.12-.65,1.35-1.43,1.93,0-.32,1.22-1.4.16-1.07.21-.74,1.4-1.39,2.05-2.53l-.44,0c.51-1.38,2.29-2.29,3.23-3.51l.06.68c.49-.28,1.29-.47,1.35-1.13-.46.48-.42,0-.49-.19.45-.82,1.61-1.52,2.36-2.53,0,0,0,.12.12.14s.18-.29.37-.54l.38-.53a2,2,0,0,1,1.37-.23c.12-.19.54-.54.19-.63a.62.62,0,0,0-.26.18c.13-.83.45-.17.84-.94-.17.75.57.38.82.79.58-.76-.47-.7-.52-.94a4.45,4.45,0,0,1,1.19-.41,3.18,3.18,0,0,0,1.13-.53c-.13-.27-.76.37-1,.18.3-.15.59-.42.56-.55l-.7.28a9.55,9.55,0,0,0,3.1-2.16l-.18-.06.71-.49.06.62c.3-.38,1-.27,1-.76l-.17.06.41-.47-.22.78c.37-.11.63-.54,1-1a6.07,6.07,0,0,1,.59-.72,3.06,3.06,0,0,1,.4-.32,2.89,2.89,0,0,1,.62-.31c.18.13,0,.28-.18.48l-.36.28c-.12.09-.26.18-.38.28-.51.38-1,.83-.8,1.27.42-.09,1.1-.3,1.21-.65-.17-.2-.44-.05-.7.09a3.82,3.82,0,0,1,1.92-1.11c.44-.18.87-.3,1.25-.44a2.8,2.8,0,0,0,1-.5l-.65-.08a2.14,2.14,0,0,0-.46,0h-.21a2.13,2.13,0,0,1,1-.08,3.48,3.48,0,0,1,.83.21c.47.18.78.35,1.08.11,0,0-.34.2-.63.4a4.7,4.7,0,0,0-.57.44,3.69,3.69,0,0,1,1.09-.17,4.26,4.26,0,0,1,1.14.19,11.1,11.1,0,0,1,2,.94c.19-.19-.2-.54-.64-.78s-.91-.35-.85-.37a2.66,2.66,0,0,1,.38,0h.38a4.06,4.06,0,0,1,.76.8,1.46,1.46,0,0,1,.21.38c.07.23.28.44.87,1.59l.31-.19c.14,1.17,1.65,2.23.52,2,0,0,0-.57,0-.58l-.38.22s.29.48.55,1,.46,1,.46,1c-.36-.1,0,.82-.5.67l.28.31.27.31c-.53.45-1-1.11-1.53-1-.27.11-.14.41-.06.55-.67-.66.25-1.38-.1-2.25l-.55-.24.5-.22a1.5,1.5,0,0,0-1-.5,1.58,1.58,0,0,0-.85-1.41c-.51-.32-1.11-.53-1.77-.87.62.1.51-.09.22-.34s-.76-.42-.63-.46a3.83,3.83,0,0,0-1.66.32c-.6.22-1.1.48-1.48.28s.78-.73-.27-.44c-.68.33-.9.8-.43.84-1.05.7-2.19,1.28-3.18,2l0-.46A1.75,1.75,0,0,0,122,79.81c-.17-.06-.15.07-.19-.18-1.12.11-.51,1.33-1.76,2.2.39.34.95-.07,1.17-.56l.27.53a17.93,17.93,0,0,0,2.83-2.68l-.16.63c1.19.13.13-1,1.34-.73.44-.52-.55,0-.27-.47.48-.09.43.91,1.08.56a87,87,0,0,0-6.88,5.67c0,.12.17,0,.31,0-.12.64-2.14,1.81-3.83,3.22s-3.27,2.85-2.8,3.45c-.26,0-.12-.56-.53-.08,0,.12,0,.33.3.37-1.7.59-2.39,2.83-4,3.93.22.13.06.54.19.67-.89.12-1.18,1.4-1.85,1.65l.35,0s-.33.37-.67.73l-.68.72c0,.12.23-.08.36-.16-.19.41-.5.25-.71.11l-.14,1.08a9.1,9.1,0,0,0-3.17,2.83,11.15,11.15,0,0,1-3.36,3.09,2,2,0,0,1-.81,1.6l.4-.11c-.38.82-.19-.18-.61.4-.18.54.34.7.68.09.42-.1.33.18.18.45A11.89,11.89,0,0,1,92.26,111.41Z"/><path class="cls-2" d="M149.38,100.73c-.34,0,.47-.86-.3-.75a10.14,10.14,0,0,0-2.92,2.44,13.25,13.25,0,0,1-1.79,1.55,7.44,7.44,0,0,1-1.1.64,5.58,5.58,0,0,1-1.39.46c-.52,0-.82,0-1.11,0a5.6,5.6,0,0,1-1-.1.5.5,0,0,0,0,.28,5.64,5.64,0,0,1-1.69-.16,3.23,3.23,0,0,1-1.49-.81c-.27,0-.66.17-.15.38a2.39,2.39,0,0,1-1.38-1.36c-.19-.51-.3-.93-.64-1.13.08.32-.09.26-.25.19s-.29-.13-.15.25c-.79-1.15.49-1.72.29-2.59-.12,0-.25,0-.2.17a4.53,4.53,0,0,0-.44-1.81c-.17-.59-.28-1.09.2-1.22l-.46-.29c.26-.45.48-.38.52-1-.2-.4-.36.06-.53-.07.37-.23.07-1.34.6-1.89.62-.08-.77,1-.15,1.43.12,0,.15-.07.16-.18.05,1.32-.2,2.56-.23,3.83a6,6,0,0,0,.23,1.9,3.6,3.6,0,0,0,1.09,1.67.84.84,0,0,0,1.24.68c-.35-.49-.78-1.71-1.51-1.24,0,0,0-.26,0-.5l0-.48c-.19-.23.59-.64.66-.8.17.49,1.13.43,1.11-.21.31.42-.11.62-.54.77s-.89.25-.46.69l.31-.12.3-.13c-.2,0-.21.26-.09.53a1.54,1.54,0,0,0,.23.39.78.78,0,0,0,.33.21l0-.2a3.61,3.61,0,0,0,4.79.78,14,14,0,0,0,3.74-3.71c1.7.41,1.16-2.21,2.6-1.89.09-.4-.75,0-.42-.64.18-.32.49,0,.55,0l.14-.3a3.71,3.71,0,0,1,1.24,1.75A4.27,4.27,0,0,1,149.38,100.73Z"/><path class="cls-1" d="M166,104a1.9,1.9,0,0,1,.54-.06c.18,0,.32,0,.33.08,0-.16,0-.16.38-.31,0,.1.36.06.57,0a9.11,9.11,0,0,0-1,0,1.49,1.49,0,0,1-.95.07,2.86,2.86,0,0,0-.94,0A2,2,0,0,0,166,104Z"/><path class="cls-1" d="M168.34,104.43l.06-.08-.43.16a1.81,1.81,0,0,1-.44.12C167.71,104.6,168.29,104.36,168.34,104.43Z"/><path class="cls-2" d="M170.88,103.06c0,.15.41-.08.46,0-.16-.17.52-.51.8-.8l0-.24a6.58,6.58,0,0,0-.73.55l-.46.4-.53.33Z"/><path class="cls-1" d="M171.53,102.69l.12-.25C171.51,102.6,171.14,102.94,171.53,102.69Z"/><path class="cls-1" d="M170.73,102.56c-.5.33.35-.14-.13.23C170.77,102.67,170.92,102.49,170.73,102.56Z"/><path class="cls-2" d="M172.76,101s-.18.28-.38.56-.41.53-.41.53l.22-.18.21-.19.18-.36Z"/><path class="cls-2" d="M173.1,101.13c-.11.15-.33.33-.22.09.41-.31.42-.68.76-1l-.19.4c.16,0,.37-.85.57-.69.15-.6-.42.27-.14-.45a7.14,7.14,0,0,1-1.05,1.51,2.73,2.73,0,0,0,.35-.35c-.23.36-.51.87-.83,1.26C172.67,101.8,172.78,101.41,173.1,101.13Z"/><path class="cls-2" d="M174.31,99.29c.25-.4.55-1.06.42-1.25a.93.93,0,0,0-.24.77c-.09.12-.32.52-.32.3C174.24,99.07,174.15,99.44,174.31,99.29Z"/><path class="cls-2" d="M175.12,97.62s0-.09,0-.19l0-.19,0,.22-.13,0a.75.75,0,0,1,0,.71C175.07,98,175,97.84,175.12,97.62Z"/><path class="cls-2" d="M174.34,97.24a1.14,1.14,0,0,0,.17-.73c0,.42-.29,1-.27,1.2l0,0s-.09.44-.12.79C174.22,98,174.69,97.21,174.34,97.24Z"/><path class="cls-2" d="M174.11,97.79l0-.35Z"/><path class="cls-2" d="M175.38,96.16s0,.19-.06.37l-.1.35.09-.16A3.62,3.62,0,0,0,175.38,96.16Z"/><path class="cls-2" d="M174.74,96.91c.13-.5-.18.24-.09-.23a3.82,3.82,0,0,0-.13.76C174.62,97.32,174.58,96.92,174.74,96.91Z"/><path class="cls-2" d="M175.37,95.66a2.06,2.06,0,0,0-.34-.54A2.06,2.06,0,0,1,175.37,95.66Z"/><path class="cls-2" d="M174.59,94.23h-.15a.92.92,0,0,0-1-.14,9.52,9.52,0,0,0-.81.52c.16,0,0,.33.39,0,0-.1.17-.23.11-.27.21-.12.2,0,.34-.05a.7.7,0,0,1,.66-.11,3,3,0,0,1,.56.31c-.13-.09-.14-.14-.24-.22a.81.81,0,0,1,.48.52c.05.15.07.24.26.3C175,94.91,174.91,94.44,174.59,94.23Z"/><path class="cls-2" d="M174.28,94.82a1.85,1.85,0,0,1,.21.3c-.17,0-.27-.31-.38-.23s.13.28,0,.25c.2-.23.27.35.42,0,.32.48,0,.25.12.69l.17.13a1.74,1.74,0,0,0-.09-.36,1,1,0,0,0-.1-.27A1.2,1.2,0,0,0,174.28,94.82Z"/><path class="cls-2" d="M173.11,95l-.21.12.18,0c-.55.83-1.28,1.27-1.43,1.94a6.23,6.23,0,0,1-.3,1.2,4.45,4.45,0,0,0-.2,1.25c.11.42.07-.4.16-.44.21.13-.14.4,0,.6s.21-.87.36-1.19,0-.31-.09-.42c.11-.06.21-.35.33-.4.06-.66.41-.9.53-1.52.19-.13-.17.44-.07.26l.14-.31,0,0a1.93,1.93,0,0,1,.38-.78,2.1,2.1,0,0,1,.28-.3.64.64,0,0,1,.2-.11c-.13.06-.31.11-.18-.09h.21a1.07,1.07,0,0,1,.14-.22.93.93,0,0,1,.22-.19C173.42,94.61,173,94.78,173.11,95Z"/><path class="cls-2" d="M173.59,94.94c.17,0,.16-.08.15-.14s0-.16.24-.08a.48.48,0,0,0-.27,0,.72.72,0,0,0-.23.13Z"/><path class="cls-1" d="M171.85,97.47l-.2.32C171.9,97.66,171.81,97,171.85,97.47Z"/><polygon class="cls-1" points="171.58 98.76 171.4 98.54 171.48 98.9 171.58 98.76"/><path class="cls-2" d="M171.29,100c.09.27.18-.06.16-.37C171.44,99.88,171.36,100,171.29,100Z"/><path class="cls-1" d="M171.18,102.08c-.15-.64.09.58-.19.16C171.09,102.31,171.27,102.6,171.18,102.08Z"/><path class="cls-2" d="M171.6,104.3c-.18-.19-.18-.32-.16-.37A3.23,3.23,0,0,1,171.6,104.3Z"/><path class="cls-2" d="M171.8,96.26a1.83,1.83,0,0,1,.09-.2Z"/><path class="cls-2" d="M171.74,96.39l.06-.13Z"/><path class="cls-2" d="M170.73,101.09h0v0Z"/><path class="cls-2" d="M170.09,103.86a1.45,1.45,0,0,1-.26.13,2.38,2.38,0,0,0,.26-.13Z"/><path class="cls-2" d="M169.66,103.77c.41-.3.61,0,1.28-.53l-.86.62C169.56,103.9,170.37,103.63,169.66,103.77Z"/><path class="cls-2" d="M174,98.72v0S174.05,98.68,174,98.72Z"/><path class="cls-1" d="M150.59,95.19v.05a2.37,2.37,0,0,0-.44,0A2.38,2.38,0,0,1,150.59,95.19Z"/><path class="cls-1" d="M150.66,95.28a1.49,1.49,0,0,1,.35.05,2,2,0,0,1,.33.11,1.81,1.81,0,0,0-.62-.06,2.59,2.59,0,0,0-1.31.53,11.5,11.5,0,0,0-1.18,1l-.52.49.06-.15A8.17,8.17,0,0,1,149.13,96,3.8,3.8,0,0,1,150.66,95.28Z"/><path class="cls-1" d="M150.86,95.19c.47-.19.69.17,1.22.27a6.54,6.54,0,0,1-.94-.16Z"/><path class="cls-3" d="M152.47,95.29c.21.17.5.28.6.39C152.89,95.76,152.66,95.42,152.47,95.29Z"/><path class="cls-2" d="M153.42,95.18l.1.08-.13-.06Z"/><path class="cls-2" d="M153.4,95.2l-.05.05C153.3,95.18,153.33,95.18,153.4,95.2Z"/><path class="cls-2" d="M153.53,95.26a2.51,2.51,0,0,0,.29.14l-.08-.09c.13.09.4.23.42.32-.23-.22-.27-.18-.34-.11l.19.17.18.18C153.95,96,153.88,95.57,153.53,95.26Z"/><path class="cls-3" d="M154.73,96.3l-.22-.13-.23-.13C154.27,95.84,154.61,96.16,154.73,96.3Z"/><path class="cls-2" d="M155.11,97c-.1-.06-.42-.43-.27-.17a.84.84,0,0,1-.2-.18C154.89,96.82,154.81,96.48,155.11,97Z"/><path class="cls-2" d="M154.64,96.6l-.1-.1Z"/><path class="cls-3" d="M149.79,95.21c.06,0,.07,0,.05,0Z"/><path class="cls-2" d="M155.63,97.8l.11.14-.1-.11Z"/><path class="cls-2" d="M143.47,100.84a6.38,6.38,0,0,0,1.92-1.11c-.12-.13.28-.25.21-.44-.38.29.35-.25,1-.88s1.29-1.31,1-1.08l-.11.21,0-.29a4.7,4.7,0,0,0,1.06-.85s-.65.63-1.34,1.28-1.44,1.24-1.37,1.21c-.2,0,.8-.83,1.75-1.8a18.67,18.67,0,0,1,1.4-1.3c.42-.34.76-.5.79-.54l.1.08a2.27,2.27,0,0,1,1.75-.4l.09.18a1.45,1.45,0,0,0-1-.08,1.81,1.81,0,0,1,.8.14c.19.08.35.16.61.28.06-.16-.41-.32.3,0,.14.18-.37.07.19.4.58.51.63.22,1.15.68l-.3-.37a2.52,2.52,0,0,1,.67.72c-.18-.23-.79-.66-.9-.51a7,7,0,0,1,.82.84l-.19,0c.1.28.34.27.49.6s0-.27.16-.16a2.51,2.51,0,0,0,.57.73c.1-.29-.54-.53-.62-1l.36.49c.45.12-.64-.73-.36-.72.51.17.44.89,1,1-.12-.26-.71-1-.57-.93.14.31.43.36.73.69l.24.48c.2.11.09,0,0-.18a21.31,21.31,0,0,0,2,2.29c.49.39.13,0,.4.09.16.33.69.57,1,.78.08.07.32,0,.28-.06s-.74-.44-.75-.44.07-.22-.18-.4c0,.38-.78-.93-1.06-.72l.12-.11-.85-.7v0a12.23,12.23,0,0,1-1-1.14c.17.14.78.91.52.36.35.28.79,1,1.43,1.48l0-.18c.73.46,1.45,1.35,2.27,1.84l-.31,0c.25.22.53.59.87.63-.35-.2-.13-.16,0-.18a6.37,6.37,0,0,1,.85.45,8.37,8.37,0,0,0,1,.47s0,0,0,0,.74.2.74.2a2.33,2.33,0,0,1,.6.42c.13,0,.45.1.35,0a.74.74,0,0,0-.18-.06c.41-.06.25.11.73.14-.38,0,.07.22,0,.33.57,0,.09-.23.18-.28a4.78,4.78,0,0,0,1.4.36c0-.08-.48-.07-.52-.16a1.06,1.06,0,0,0,.44,0l-.4-.08a6.15,6.15,0,0,0,1,.11,4.84,4.84,0,0,0,1.06-.17l-.06,0,.45-.11-.12.19c.23-.11.54,0,.63-.2l-.09,0,.27-.17s-.24.28-.25.27a1.78,1.78,0,0,0,.62-.37c.23-.15.45-.37.72-.54.12.05-.11.22-.37.41s-.57.31-.56.46c.22-.05.6-.15.69-.28s-.21,0-.35.08c.25-.15.55-.36.85-.53a1.14,1.14,0,0,0,.6-.59l-.38.22c.36-.35.8-.36.83-.58l-.13.47c.15-.23.39-.44.55-.66a4.76,4.76,0,0,0,.47-.72c-.11-.1-.45.58-.45.52l.06-.25c.55-.57.22-.11.86-.85l-.08-.07c.32-.18.52-1.09.59-.66l-.2.19.12,0,.26-.51.24-.51c0,.14.26-.35.3-.17l.08-.42c.25-.1-.14.78-.06.88s.17-.15.2-.25c-.12.52-.52.59-.79,1l0,.27-.12-.1a1.13,1.13,0,0,0-.1.5c-.46.29-.57.9-1.11,1.42.34-.5-.36.18-.34.06-.26.19-.69,1-1.08,1-.21,0,.28-.31-.13-.09-.24.17-.38.36-.17.31a4,4,0,0,1-.44.29l-.51.22a5.39,5.39,0,0,1-.53.21l-.55.14.14-.14a2,2,0,0,0-.63.17,2.26,2.26,0,0,0-.47.21c-.07,0-.1,0,0-.07-.59-.09-.75.27-1.76.17,0,.17.5.19.82.13l-.09.16a5.68,5.68,0,0,0,2.54-.46l-.29.2c.68.06.37-.3,1-.3.37-.23-.32,0,0-.15s0,.3.52.1a6.42,6.42,0,0,1-1.42.57,7.13,7.13,0,0,1-1.57.28,9.9,9.9,0,0,1-3.16-.33s.06.06.16.1a8.89,8.89,0,0,1-3.24-1.35c-1.33-.79-2.43-1.76-2.65-1.64,0-.11.26,0-.08-.23-.05,0-.17,0-.12.07a33.48,33.48,0,0,1-2.66-2.86c0,.07-.25-.13-.29-.1-.15-.46-.78-.91-1-1.27l0,.15s-.22-.24-.45-.46-.47-.43-.47-.43.08.11.15.19c-.23-.15-.22-.26-.19-.33s-.55-.19-.55-.19a2.28,2.28,0,0,0-1-.62,1.69,1.69,0,0,0-1.17.14,18.31,18.31,0,0,0-2.23,1.77,2.27,2.27,0,0,1-.64.89l.22-.14c-.31.44-.07,0-.36.31s.07.23.33-.11c.22-.14.14,0,0,.16A9.75,9.75,0,0,1,143.47,100.84Z"/><path class="cls-2" d="M177.35,104.33c-.11.17.18-.8-.1-.37a10.13,10.13,0,0,1-.66,1.21,2.78,2.78,0,0,1-1.42,1.18,2.24,2.24,0,0,1-2-.35,3.54,3.54,0,0,1-1-1.1c-.19-.44-.27-.54-.44-.92a.08.08,0,0,0-.06.05c-.1-.22-.27-.49-.39-.77a4,4,0,0,1-.23-.81c-.06-.12-.19-.19-.11.06-.28-.68,0-1.23-.17-1.6,0,.34-.14-.33-.16.08-.06-.73.32-.69.38-1.24,0,0-.06-.07-.07,0a7.51,7.51,0,0,0,.11-1.17c0-.42.13-.74.27-.74l-.05-.27c.16-.23.2-.15.37-.56s-.1,0-.11-.14.37-.82.67-1.06c.17,0-.48.47-.44.86,0,0,.06,0,.08-.09a7.73,7.73,0,0,0-.91,4.64.67.67,0,0,0,.24.72c0-.28,0-1.07-.25-1.06l.13-.49c0-.18.23-.18.26-.26,0,.33.25.67.32.24.08.83-.55-.24-.43.51l.19.09c-.11-.14-.12.54,0,.77v-.11a5.63,5.63,0,0,0,1.44,3.05,2.61,2.61,0,0,0,1.53,1,1.58,1.58,0,0,0,1.43-.87c.35-.11.5-.54.58-.94a2.16,2.16,0,0,1,.31-1c0-.25-.21.32-.19-.15,0-.24.12-.25.15-.23v-.22c.22-.07.42,0,.58.31A3,3,0,0,1,177.35,104.33Z"/><path class="cls-1" d="M186.69,94.47c-.45.29-1.38.82-1.44.67.05.15.05.15-.55.58-.09-.09-.5.2-.73.48a6.64,6.64,0,0,1,1.39-.76A21.25,21.25,0,0,1,188.2,94l-.66-1.55a2.22,2.22,0,0,0-.37.21l.41-.1.57,1.32A6.89,6.89,0,0,0,186.69,94.47Z"/><path class="cls-1" d="M183,96.06l0,.15a4.83,4.83,0,0,1,.46-.65A4.22,4.22,0,0,1,184,95a8,8,0,0,0-.61.59A3.71,3.71,0,0,1,183,96.06Z"/><path class="cls-2" d="M181.71,101c-.06-.1-.15.17-.23.38h.16c0-.13.06-.25.09-.24-.22,0-.12-1.26-.14-1.94l-.17-.28a11.18,11.18,0,0,0,0,2.48h.3l.19-1.32Z"/><path class="cls-1" d="M181.54,100.46l-.13-.45C181.45,100.39,181.52,101.27,181.54,100.46Z"/><path class="cls-1" d="M182.15,101.35c.17-1.12-.17.66-.05-.47,0,.21,0,.44,0,.54l-1,0c0-.06,0-.07,0,0l1.12.05Z"/><path class="cls-2" d="M181.59,96.68a6.23,6.23,0,0,0-.22,1.22,11.11,11.11,0,0,0,0,1.22l.06-.5c0-.25.08-.5.08-.5s0-.36,0-.72A6.13,6.13,0,0,1,181.59,96.68Z"/><path class="cls-2" d="M182,96.68c-.11.28-.29.74-.23.29a4.67,4.67,0,0,1,.83-1.45h-.05a1.36,1.36,0,0,1,.27.38,3.29,3.29,0,0,0-.31-.33h.14l-.16.22s.12-.06.21-.17h-.24c.33.24.75,1,.54,1,.46.91,0-.83.48.43a3.48,3.48,0,0,0-.84-1.66l-.06-.06-.07.07a3.21,3.21,0,0,0-.82,1.23,4.88,4.88,0,0,1,.47-.76,5.15,5.15,0,0,0-.61,2.56A13,13,0,0,1,182,96.68Z"/><path class="cls-2" d="M183.28,97.76a6.44,6.44,0,0,1-.07,1.31,4.63,4.63,0,0,0-.14.9,1.46,1.46,0,0,0,.32-.81,3.81,3.81,0,0,0-.05-.53c.07-.23.06-1,.17-.72C183.48,98,183.32,97.4,183.28,97.76Z"/><path class="cls-2" d="M182.37,100.5l-.18.21a1.21,1.21,0,0,1-.23.17,1.13,1.13,0,0,0,.32-.16l.1.08.55-1C182.67,100.1,182.68,100.27,182.37,100.5Z"/><path class="cls-2" d="M182.66,101.33a2.46,2.46,0,0,1-1,.24,2.06,2.06,0,0,1-1.12-.25,2,2,0,0,0,2.91-.85l0,.09a3.6,3.6,0,0,0,.24-.55,3.32,3.32,0,0,0,.14-1,3.06,3.06,0,0,1-.61,1.64C182.84,101.06,182.42,101.28,182.66,101.33Z"/><path class="cls-2" d="M183.66,100.25a2,2,0,0,1-.17.38,2.45,2.45,0,0,1-.23.37,2.45,2.45,0,0,0,.23-.37A2,2,0,0,0,183.66,100.25Z"/><path class="cls-2" d="M180.64,100.08a.75.75,0,0,0,.21.46,1.11,1.11,0,0,0,.47.28,1.1,1.1,0,0,1-.24-.14.86.86,0,0,1-.3-.25A.71.71,0,0,1,180.64,100.08Z"/><path class="cls-2" d="M181.51,101.31c-.31,0-.42-.08-.43-.07s.06.05.15.09.18.07.18.08-.11,0-.42-.08a1.46,1.46,0,0,0,.8.1,1.65,1.65,0,0,0,.7-.23c.18-.12.29-.21.29-.25a2.62,2.62,0,0,1-.66.36C181.84,101.39,181.57,101.39,181.51,101.31Z"/><path class="cls-2" d="M180.51,99.39l.35.94Z"/><path class="cls-2" d="M180.67,101.84l.07.2A9.68,9.68,0,0,1,180,105c.15-.13.12.46.38-.37,0-.15.05-.45,0-.42.11-.35.18-.26.27-.49a8.31,8.31,0,0,1,.15-1.11,7,7,0,0,0,0-1,2.43,2.43,0,0,1-.06.49,6.81,6.81,0,0,1,.06-1.08.7.7,0,0,0-.1-.62,1.85,1.85,0,0,1,0,.71l0,.41A2.91,2.91,0,0,0,180.67,101.84Z"/><path class="cls-2" d="M181.31,101.79l0-.14a1.55,1.55,0,0,0,0-.31v-.46a1.8,1.8,0,0,1,.08.69,1.48,1.48,0,0,0,0,.59c.08,0,.2-1,.22-.63-.28-.12-.07-1.29-.37-.79,0-.58-.08-.68,0-.79s.05-.21-.09-.78L180.88,98l-.61,1.06-.05.09a2.22,2.22,0,0,0,0,.46,1.9,1.9,0,0,1,.21-.48l.44-.76.21.84a8.42,8.42,0,0,1,.25,1.21C181.27,100.79,181.34,101.18,181.31,101.79Z"/><path class="cls-2" d="M180.6,105.16l-.21.38.19-.19a19.86,19.86,0,0,1-1,2.65l-.06,0a5.83,5.83,0,0,0,.85-1.18,9.06,9.06,0,0,1,1.09-1.82l.28-.38.14-.18.07-.09c0-.05.06,0,.09,0a4.49,4.49,0,0,1,.7.69c.23.2.16.07,0-.14s-.42-.46-.45-.54.24.09.36.28.22.37.39.44-.12-.4-.52-.81a4.12,4.12,0,0,0-.32-.3l-.18-.14-.09-.07s0,0-.07,0c-.16.22-.32.42-.44.56-.38.59-.33.62-.36.83s-.49.54-.65.62a19,19,0,0,1-1.18,2l.73.28a5.87,5.87,0,0,0,.09-.61c.2-.31-.16.82-.06.47l.13-.6,0,.06a12.38,12.38,0,0,1,.85-2.85c-.15.41-.33.67-.24.17l.25-.37,0-.56c0-.28,0-.57,0-.57C180.93,104.07,180.38,104.93,180.6,105.16Z"/><path class="cls-2" d="M181.17,104c.36-1.3-.24.11.11-1.32l-.14.76a6.81,6.81,0,0,1-.17.75Z"/><path class="cls-1" d="M180.37,106.15l.21-.25.22-.25C180.41,105.84,180.15,106.86,180.37,106.15Z"/><path class="cls-1" d="M181.77,104s-.15.54-.14.53l.15-.33.11-.23a.27.27,0,0,1,.08,0l0,0,0,0s0,0,0,0Z"/><path class="cls-2" d="M183.27,105.54c.34.33.12-.16-.29-.65C183.33,105.36,183.37,105.59,183.27,105.54Z"/><path class="cls-1" d="M185.2,108.61c-.75-.84.63.78,0,.29C185.32,109,185.79,109.29,185.2,108.61Z"/><path class="cls-2" d="M188,111.24c-.46-.12-.61-.23-.64-.31C187.64,111.1,187.9,111.16,188,111.24Z"/><path class="cls-2" d="M179.75,108.09l0,0-.43-.17.08-.35-.08.35.43.17Z"/><path class="cls-2" d="M179.88,107.88l-.13.21Z"/><path class="cls-2" d="M183.87,107.42h0l0-.08Z"/><path class="cls-2" d="M181.76,99a4.77,4.77,0,0,1,.1-.51c0,.17-.07.33-.1.5Z"/><path class="cls-2" d="M182.14,98.5c-.07.89-.49.88-.61,2.34.05-.59.12-1.2.23-1.83C182.12,98.24,181.72,99.67,182.14,98.5Z"/><path class="cls-2" d="M183.79,98.42v.05C183.79,98.57,183.79,98.52,183.79,98.42Z"/><polygon class="cls-1" points="180.1 89.92 180.13 89.96 179.55 90.51 180.1 89.92"/><path class="cls-1" d="M180.24,89.9s.25-.24.5-.45a6.08,6.08,0,0,1,.52-.42c-1.33,1.19-2.35,2.78-3.85,4l-.73.57.25-.89a7.72,7.72,0,0,1,1.24-2.36l-.1.26A10.85,10.85,0,0,0,177,92.7l-.19.62.52-.4a15.78,15.78,0,0,0,2.05-2A10.59,10.59,0,0,0,180.24,89.9Z"/><path class="cls-1" d="M180.44,89.56a2.21,2.21,0,0,1,.73-.77l.44-.33a3.66,3.66,0,0,0,.51-.4c-.49.43-.75.8-1.23,1.18Z"/><path class="cls-3" d="M182.58,88.15a4,4,0,0,1-.32,1.26C182.18,89.21,182.55,88.59,182.58,88.15Z"/><path class="cls-2" d="M182.83,89.63a1.54,1.54,0,0,1-.1.21,1.79,1.79,0,0,0,.07-.23Z"/><path class="cls-2" d="M182.81,89.61l-.06,0C182.84,89.43,182.84,89.48,182.81,89.61Z"/><path class="cls-2" d="M182.74,89.85c-.07.19-.16.42-.2.53l.11-.17a3.72,3.72,0,0,1-.42.78c.29-.44.25-.49.17-.55l-.23.37-.23.35C181.81,90.88,182.34,90.58,182.74,89.85Z"/><path class="cls-3" d="M181.43,92.13s.3-.75.3-.75C182,91.26,181.57,91.89,181.43,92.13Z"/><path class="cls-2" d="M180.83,93c0-.16.33-.8.08-.44a1.67,1.67,0,0,1,.17-.38C180.89,92.65,181.2,92.32,180.83,93Z"/><path class="cls-2" d="M181.07,92.2l.1-.19Z"/><path class="cls-3" d="M179.05,90.79c.08-.06.09,0,.08,0Z"/><path class="cls-2" d="M179.54,93l.18-.27-.13.22Z"/><path class="cls-2" d="M177,84a10.64,10.64,0,0,1,1.41.63,3.12,3.12,0,0,1,1.2,1c.08-.05.13.06.19.18s.09.27.18.3c-.08-.33,0-.2,0,.21a3.94,3.94,0,0,1-.44,1.8A17.71,17.71,0,0,1,178.5,90c-.29.44-.41.65-.21.4l.16-.37-.09.44a4.87,4.87,0,0,0-1.25,2.08,3.17,3.17,0,0,1,.38-.94,15.33,15.33,0,0,1,1.28-1.91,8.61,8.61,0,0,0,1.12-1.88,2.34,2.34,0,0,0,.22-.84c.1-.19.07.74-.63,1.89s-1.92,2.48-2.29,3.92v0l0,0a11.42,11.42,0,0,0,1.9-2h.16a15.19,15.19,0,0,1,1.85-2.43l.26,0a4.78,4.78,0,0,0-.65.57c-.15.19-.3.39-.55.68a7.18,7.18,0,0,1,1-1c.27-.23.55-.38,1-.68-.11-.12-.64.31,0-.18l.28-.22v.38c0,.09,0,.21,0,.36-.15.36-.15-.49-.38.61a11.94,11.94,0,0,0-.44,1.13,3.43,3.43,0,0,1-.46,1l.49-.65a10.36,10.36,0,0,1-.93,1.4c.25-.41.87-1.54.69-1.6-.23.45-.91,1.35-1.1,1.75l0-.3c-.34.38-.33.7-.62,1.27-.09.59.27-.3.23,0a2.23,2.23,0,0,0-.22.93V94l.11-.16a3.68,3.68,0,0,0,.34-.59c-.16,0-.3.25-.46.51l.15,0a1.81,1.81,0,0,1,.35-1.26l-.07.15-.12.33-.09.34a.87.87,0,0,0,0,.16c.11.32.11-.07.22-.49s.33-.86.34-.67c-.05.53-.38,1-.41,1.45l-.52-.15a1.56,1.56,0,0,0,.31-.69c-.11.13-.28.36-.45.6l.83.24c0-.5.27-1,.29-.91a1.29,1.29,0,0,0-.11.91l-1.15-.33a6,6,0,0,1,.29-.54l.31-.36c.15-.18.32-.36.32-.36.19-.37,0-.12-.25.12.3-.34.68-.77,1.06-1.26l.83-1.05.25,1.34a3.86,3.86,0,0,1-.37,2.3,7.13,7.13,0,0,1-1.19,1.79c-.7,1,0,.19-.26.67-.52.39-1.14,1.25-1.64,1.69-.15.12-.32.48-.14.4,0,0,.3-.3.59-.61s.55-.63.55-.63.28,0,.66-.43c-.25.06.18-.35.61-.86s.86-1.14.73-1.29l.12.1a8,8,0,0,0,.45-1.08,4.63,4.63,0,0,0,.23-1.26l0,.08a.75.75,0,0,0,0-.25,3.46,3.46,0,0,0-.08-.68l-.32-2.1-1.2,1.69c-.37.53-1,1.3-1.34,1.86.08-.31,1.39-1.86.52-1a10.45,10.45,0,0,1,.7-.93l1.4-1.71.41,2.19a3.87,3.87,0,0,1-.14,1.79,9.61,9.61,0,0,1-.68,1.56l.25-.24a13.08,13.08,0,0,1-3.66,4.28l-1.41-1.75.22-.16-.18.21,1.33,1.65.18-.26-.25.17L177,97.07a10.18,10.18,0,0,0,1.52-1c-.68.43-.37.15-.28,0a19.89,19.89,0,0,1,3.66-1.85s-.05.06,0,.05.34-.16.68-.3l.69-.29a5.32,5.32,0,0,1,1.35-.25c.24-.1.82-.3.57-.3a2.67,2.67,0,0,0-.34.11c.64-.38.5-.12,1.33-.51-.62.35.27.11.23.26,1-.42,0-.26.11-.36.41-.12.7-.2,1-.26l.79,1.83a15.76,15.76,0,0,0-1.68.62c0,.11.87-.34,1-.3a4.11,4.11,0,0,0-.79.38l.76-.28a19.33,19.33,0,0,0-1.85.78l-.89.45-.23.12-.14.11a2.67,2.67,0,0,0-.28.27l.09,0a1.9,1.9,0,0,0-.23.25c-.11.13-.21.28-.21.28l0-.3c-.21.32-.53.7-.51,1l.07-.14s0,.13-.08.26-.07.27-.07.27,0-.15,0-.29,0-.29,0-.29a10.84,10.84,0,0,0-.53,2.92c-.12.12-.07-.43,0-1s.23-1.18.14-1.29a3.61,3.61,0,0,0-.35,1.3c.08,0,.14-.33.21-.61-.1.83-.37,2-.43,2.88l-1.69-.08a2.56,2.56,0,0,0-.13-.59l0,.6,2,.09.07-.26,0,.26-2.06-.1a8.75,8.75,0,0,0,0-1.76l.29.81a11.43,11.43,0,0,1,0-3.51c-.07,0-.17.36-.2.74s0,.74,0,.71,0-.12,0-.25l0-.26a4.1,4.1,0,0,1,.3-1.1l.15-.37a4.55,4.55,0,0,1,.56-1l-.07-.08.47-.48.58-.59.61.57c.8.74,1.13,1.78.76,1.29a2,2,0,0,0-.09-.29l-.12-.29-.08.11a4.62,4.62,0,0,1,.49,1.16,6.11,6.11,0,0,1,.19,1.19c0-.12-.06.12-.08.34s-.08.43-.13.27a5.23,5.23,0,0,1,0,.9c-.15.18-.06-.24-.05-.7a2.33,2.33,0,0,0-.12-1c-.08,0-.06.42-.06.61,0-.5,0-.85,0-1.23a2.66,2.66,0,0,0-.25-1.26,1.7,1.7,0,0,0-.18-.21l-.2-.19.14-.07a2,2,0,0,0-.37-.33l-.45-.34-.23.35a1.54,1.54,0,0,0-.24.49,2.51,2.51,0,0,0-.7,1.44,16.22,16.22,0,0,0-.16,1.88c-.05-1.18-.17.75-.19.55,0,.42.16,1.23.22,1.87l.82,0a2.52,2.52,0,0,1,.17-.83c.12-.35,0,.77.16-.08.06-.56,0-.94-.09-.6a7.89,7.89,0,0,1,1.26-3.68l-.08.3a7.24,7.24,0,0,1,1.34-1.36c.13,0,.17-.07.08,0,1-.33,1.13-.82,2.8-1.54-.16-.09-.9.24-1.39.54l.07-.21c-.71.32-1.44.72-2.15,1.09a3.66,3.66,0,0,0-1.33,1.64s.18-.56.19-.55a1.3,1.3,0,0,0-.46.81,1.83,1.83,0,0,1-.34.81c-.17.74.25-.5.14.07s-.25-.22-.49.66a5.54,5.54,0,0,1,2-3.6c.63-.35,1.27-.66,1.91-1l1.92-.9.2.46c-.78.29-1.56.58-2.33.84-.05.05.13,0,.31,0-.38.22-1.83.65-3.5,1.24A16.47,16.47,0,0,0,177.72,98l-.27-.33A4.73,4.73,0,0,0,179,96c.16-.09-.16.38.33-.18,0-.07.11-.24,0-.15a7.06,7.06,0,0,0,1.4-1.79,3.63,3.63,0,0,0,.56-2.27l.51.14c-.36.48-.77.91-1.12,1.39.09,0-.15.44-.12.48a3.52,3.52,0,0,0-.36.43l-.7,1,.07-1.13a5.13,5.13,0,0,1,.25-1.31,4,4,0,0,1,.52-1l-.2.17s.3-.53.62-1,.6-1,.6-1-.14.19-.25.34c.22-.44.35-.48.44-.49a4.74,4.74,0,0,0,.13-.48,2.64,2.64,0,0,0,.07-.46,2,2,0,0,0,.16-.68l.66.36a8.2,8.2,0,0,0-2.44,2.16,17.58,17.58,0,0,1-2.52,2.72l-1.26,1,.43-1.55a6.54,6.54,0,0,1,1.23-2.26,7.61,7.61,0,0,1,.89-1.62l-.27.31c.38-.77.1,0,.44-.63.14-.44-.09-.24-.39.35-.28.31-.17.07,0-.19a3.24,3.24,0,0,0,.79-2.79C179.09,85.08,178,84.48,177,84Z"/><path class="cls-2" d="M195.92,107.8c.18.28-.94-.94-.5-.25.19.27.39.52.62.87a3.49,3.49,0,0,1,.63,1.56,1.53,1.53,0,0,1-.19.79,1.07,1.07,0,0,1-.28.32,1,1,0,0,1-.35.23,2.19,2.19,0,0,1-.4.15l-.43.06-.43.06-.38,0a16.61,16.61,0,0,1-4.78-.17,11.52,11.52,0,0,1-1.64-.62.05.05,0,0,0,0,.08,6.62,6.62,0,0,1-2.34-1.78c-.18-.14-.38-.18-.05.11a17.88,17.88,0,0,1-1.63-2.13c.28.48-.42-.37-.06.19-.77-1-.38-1.16-.86-1.91-.05,0-.1,0,0,.09a2.09,2.09,0,0,0-.4-.57,1.84,1.84,0,0,0-.3-.25l-.08-.05,0,0s0,0,0,0l-.1.17c-.26.44-.46.75-.64.77l-.12.41a3.36,3.36,0,0,0-.73.84c-.21.45.1,0,0,.21a6.85,6.85,0,0,0-.74,1l-.26-.1a4.94,4.94,0,0,1,.3-.83c.11,0-.1.39-.27.84l.2.08a2.17,2.17,0,0,0,.41-.69s-.07,0-.14.14c.41-.67.8-1.3,1.23-1.86.22-.31.37-.49.54-.7s.27-.53.49-.19a3.28,3.28,0,0,1,.44.57l.43.7a9.39,9.39,0,0,0,.56.81c.2.26.39.5.61.74a1.84,1.84,0,0,0,.9.91c-.28-.39-1-1.52-1.22-1.39l-.37-.75c-.19-.25,0-.38,0-.52.3.49.89.83.5.18.92,1.15-.71-.06.14.95l.26,0c-.23-.14.41.82.74,1.11l-.09-.16a10.2,10.2,0,0,0,2,2,5.76,5.76,0,0,0,2.95,1,18.66,18.66,0,0,0,3.18,0c.52,0,1-.08,1.55-.14a2.27,2.27,0,0,0,.74-.16.56.56,0,0,0,.34-.59,1,1,0,0,0-.15-.85,4.19,4.19,0,0,0-.7-.85,7.53,7.53,0,0,1-1.31-1.36c-.37-.23.37.52-.3,0-.34-.24-.3-.35-.26-.37l-.33-.2c0-.26.21-.37.72-.21A6.94,6.94,0,0,1,195.92,107.8Z"/><path class="cls-2" d="M37.25,113.56c-.08.07-.27.07-.26,0l0,0C37.05,113.53,37.38,113.39,37.25,113.56Z"/><path class="cls-1" d="M37.38,113.81c-.09,0,0,0,0-.06l.12,0S37.43,113.78,37.38,113.81Z"/><path class="cls-2" d="M37.54,114.39h0l-.14,0s0-.08.13-.11S37.49,114.38,37.54,114.39Z"/><path class="cls-2" d="M35.49,114.16c0,.1.11.23.28.29l0,.17a2.06,2.06,0,0,0-.57,0c-.07,0,.18.05,0,.09,0,0,0-.06,0-.08s-.08.17-.46.13l-.12-.08c-.32,0-.65,0-1-.07a5,5,0,0,1-.93-.24c-.13,0-.42-.1-.62-.13v0c-.13,0-.28-.12-.4-.18l-.09-.1c0-.09.33.13.28,0-.2-.17-.44-.11-.59-.29s-.19-.07-.32-.11,0,.06,0,.1c-.43-.27-.29-.5-.64-.74,0,0-.35-.17-.16.12l.16.06,0,.11c-.1-.07-.27-.22-.28-.17,0-.24-.7-.52-.26-.44.1.18.15.23.3.27a4.82,4.82,0,0,1-.69-1l-.13-.06c.06,0,0-.23-.05-.39s-.07-.16-.09-.13.28.6,0,.38a2.67,2.67,0,0,1-.19-1.15,1.19,1.19,0,0,0,.27.48,4,4,0,0,0,1.21,1.62c0,.06.08.2,0,.2s.18.14.17.23c.43.28.93.6,1.33.82-.06-.17.29,0,.43,0a1.16,1.16,0,0,0,.43.2s.11,0,.1,0-.14-.06-.24-.12c.08-.08.22.1.38.13l-.1,0c.27.07.56.32.83.29l-.19-.15a2.51,2.51,0,0,0,.92.1c-.2-.06-.56,0-.53-.16s.26,0,.36,0C34.68,114.29,35.06,114,35.49,114.16Z"/><path class="cls-2" d="M34.83,113.93c-.39,0-.21.19-.59.13.05-.07-.12-.15-.25-.17a.88.88,0,0,1-.37,0c-.07,0,0-.11.1-.08C34,113.94,34.51,113.81,34.83,113.93Z"/><path class="cls-1" d="M35.17,114.33c-.21,0-.13-.15-.33-.11.09-.09.11,0,.29,0l-.11,0Z"/><path class="cls-2" d="M33.56,114c-.13,0-.4-.13-.38-.23s0-.05,0-.05C33.23,113.74,33.54,113.83,33.56,114Z"/><path class="cls-1" d="M34.07,114.42a1.31,1.31,0,0,1-.27,0A.43.43,0,0,1,34.07,114.42Z"/><path class="cls-2" d="M33.36,114.1c0,.07-.11,0-.15,0l-.07,0A.31.31,0,0,1,33.36,114.1Z"/><path class="cls-2" d="M32.37,113.57c-.16-.09.21,0,0-.1l.12,0v.12Z"/><path class="cls-2" d="M32.15,113.38a.24.24,0,0,1-.18-.06l.06,0S32.08,113.36,32.15,113.38Z"/><path class="cls-2" d="M32.27,113.7c-.09,0-.06-.06-.1-.1S32.36,113.72,32.27,113.7Z"/><path class="cls-2" d="M31.14,113.88c.12,0,.26.11.43.17A1.65,1.65,0,0,1,31.14,113.88Z"/><path class="cls-2" d="M38.3,112.89a.25.25,0,0,0,.15-.13h0Z"/><path class="cls-2" d="M37.4,113.36c0,.13.07,0,.24,0a1.56,1.56,0,0,0,.48-.33l.06-.11c-.1,0-.23.13-.37.2A1.92,1.92,0,0,0,37.4,113.36Z"/><path class="cls-1" d="M37.46,113.89c.16,0,.31-.18.41-.22l-.52.21S37.42,113.89,37.46,113.89Z"/><path class="cls-2" d="M39.39,111.53a2.13,2.13,0,0,0-.38.7.64.64,0,0,0,.23-.21.21.21,0,0,1-.08.21,1,1,0,0,0-.21.14c.12-.08,0,.09,0,.18s-.19.18-.31.28l-.39.28a1.15,1.15,0,0,1-.26.2c-.11.05-.19.1-.13.15-.17.09-.24,0-.38,0a.65.65,0,0,1-.58.14.93.93,0,0,0-.61.12c0-.08-.21,0-.29,0s-.64.07-.53.2.39-.11.61,0c.38.11-.36.11-.35.24,0,0,.09.08.25,0-.34.11.16.13,0,.23a.92.92,0,0,1,.62.17c.24-.1.15-.19.2-.27.23-.14.48,0,.69-.14-.09.27.42,0,.67-.14s0-.2.35-.39c.21,0-.25.33,0,.28l.13-.14a2.29,2.29,0,0,1,.14-.39c.06,0,.16-.11.18-.09s0,.15.15.09a.32.32,0,0,0,0-.15c-.37.06.22-.25.28-.5s.22-.33.34-.35.23-.06.35-.36c-.14,0-.1-.06,0-.2a1.55,1.55,0,0,0,.12-.45.76.76,0,0,1,.23-.31c0-.05,0-.19,0-.21a2.37,2.37,0,0,0-1,.67S39.38,111.53,39.39,111.53Z"/><path class="cls-2" d="M34.11,117.6c0-.1,0-.27.1-.24l0,0C34.24,117.43,34.2,117.79,34.11,117.6Z"/><path class="cls-1" d="M33.83,117.6c0-.08,0,0,.06,0l0,.12S33.83,117.65,33.83,117.6Z"/><path class="cls-2" d="M33.24,117.49l0,0a.35.35,0,0,0,0-.12s.06.07,0,.14S33.27,117.46,33.24,117.49Z"/><path class="cls-2" d="M34.07,115.82c-.09,0-.24.06-.35.2l-.15-.07c.09-.1.07-.32.08-.49s-.07.15-.09,0c0,0,.06,0,.08,0s-.16-.09-.09-.41l.09-.1a12,12,0,0,1,.13-1.68c-.07-.1,0-.37,0-.54h0c-.07-.1,0-.25,0-.37l.06-.1c.08,0,0,.31.13.22s-.07-.39,0-.58,0-.17,0-.29,0,0-.1,0c0-.42.24-.42.24-.8,0,0-.12-.32-.19,0l0,.13-.06.09c0-.1,0-.29,0-.27.18-.12-.14-.7.12-.41a.33.33,0,0,0,0,.34c0-.39.12-.73.14-1.05l-.08-.1c.08,0,.14-.16.17-.31s0-.15,0-.13-.06.56-.18.28a3.17,3.17,0,0,1,.27-1,.91.91,0,0,0,.08.47c.08.61,0,1.26.06,1.86-.06,0-.08.17-.14.12s0,.21-.09.24a5.19,5.19,0,0,1-.09,1.4c.15-.1.06.26.11.38a1,1,0,0,0-.08.43s0,.1.06.09a.63.63,0,0,1,.05-.24c.1.05,0,.22,0,.37l0-.09c0,.26-.24.54-.16.78l.12-.19c0,.29-.16.63-.06.85.06-.19,0-.51.15-.49s0,.24,0,.34C34.06,115.07,34.31,115.45,34.07,115.82Z"/><path class="cls-2" d="M34.37,115.23c0-.37-.17-.21-.12-.57.07.05.14-.12.16-.24a1.11,1.11,0,0,1,0-.36c0-.07.11,0,.09.09C34.36,114.47,34.54,114.93,34.37,115.23Z"/><path class="cls-1" d="M33.94,115.51c0-.19.17-.1.14-.29.08.09,0,.1,0,.27l0-.1Z"/><path class="cls-2" d="M34.33,114c0-.12.07-.39.17-.39s.05,0,0-.05C34.5,113.67,34.46,114,34.33,114Z"/><path class="cls-1" d="M33.9,114.5a1.08,1.08,0,0,1,0-.24A.35.35,0,0,1,33.9,114.5Z"/><path class="cls-2" d="M34.17,113.84c-.07,0,0-.1,0-.14l0-.07A.27.27,0,0,1,34.17,113.84Z"/><path class="cls-2" d="M34.49,112.84c0-.17.07.19.1,0v.12l-.11,0Z"/><path class="cls-2" d="M34.61,112.58a.25.25,0,0,1,0-.19l0,.05S34.62,112.51,34.61,112.58Z"/><path class="cls-2" d="M34.34,112.78c0-.09,0-.07.07-.12S34.34,112.87,34.34,112.78Z"/><path class="cls-2" d="M33.78,111.89c.08.09,0,.24,0,.39A1.22,1.22,0,0,1,33.78,111.89Z"/><path class="cls-2" d="M34.09,118.84a.25.25,0,0,0,0,.2l0,0Z"/><path class="cls-2" d="M34.21,117.82c-.09-.09-.06.05-.15.19a3.34,3.34,0,0,0,0,.58l.05.12A4.29,4.29,0,0,0,34.21,117.82Z"/><path class="cls-1" d="M33.71,117.63a1.25,1.25,0,0,0,0,.43l.08-.51S33.73,117.6,33.71,117.63Z"/><path class="cls-2" d="M34.06,120.64a1.84,1.84,0,0,0,0-.82,2,2,0,0,0-.09.31c-.13-.15,0-.29,0-.46,0,.14-.09,0-.09-.17a6.12,6.12,0,0,0,.06-.88c0-.13.06-.56-.07-.51,0-.19.11-.2.16-.34-.11-.43.36-.71.22-1.17.08,0,.09-.19.1-.27s.08-.63-.08-.55,0,.39-.1.58,0-.36-.16-.38c0,.05-.1.07-.07.22,0-.32-.16.12-.22-.06-.12.36-.12.32-.3.49,0,.22.13.17.18.24,0,.24-.13.41-.12.61-.19-.17-.19.32-.22.56s.17.12.14.45c-.11.16-.12-.34-.23-.14l0,.16a1.75,1.75,0,0,1,.23.31c0,.07,0,.17,0,.17s-.11-.1-.16,0a.35.35,0,0,0,.07.12c.24-.26,0,.29.12.49.16.57-.28.29-.21.85.2-.17.08.37.15.56a.61.61,0,0,1-.13.32s0,.16.06.18a1.8,1.8,0,0,0,.76-.89Z"/><path class="cls-2" d="M52,111c-.11.06-.33.11-.32,0l0,0C51.72,111,52.14,110.87,52,111Z"/><path class="cls-1" d="M52.11,111.3c-.12,0,0,0,0-.06l.15-.06C52.28,111.2,52.16,111.27,52.11,111.3Z"/><path class="cls-2" d="M52.27,111.88h.05l-.16,0s.06-.09.15-.11S52.21,111.87,52.27,111.88Z"/><path class="cls-2" d="M49.84,111.92c0,.1.16.21.37.25l0,.17a2.31,2.31,0,0,0-.67.09c-.08,0,.22,0,0,.09,0,0,0-.06-.07-.07s-.07.19-.53.2l-.16-.06a8.32,8.32,0,0,1-2.3,0c-.14.07-.51,0-.75,0v0c-.15,0-.35-.1-.52-.13l-.13-.09c0-.09.42.09.32-.06-.28-.15-.55,0-.77-.24s-.23-.06-.39-.12,0,.07,0,.11a1,1,0,0,1-.48-.42,2.09,2.09,0,0,0-.35-.45s-.4-.25-.18.1l.18.1.06.13c-.11-.11-.31-.3-.32-.25,0-.25-.75-.76-.29-.56a.57.57,0,0,0,.32.37,4.81,4.81,0,0,1-.68-1.35l-.12-.1c.07,0,0-.26,0-.46s-.07-.2-.1-.16.21.75,0,.43a3.75,3.75,0,0,1-.13-1.34,1.62,1.62,0,0,0,.24.59,5.15,5.15,0,0,0,1.16,2.14c0,.06.1.23,0,.22s.2.19.19.29a5.85,5.85,0,0,0,1.7.84c-.11-.17.35,0,.5,0a1.55,1.55,0,0,0,.56.12s.13,0,.11-.06a.84.84,0,0,1-.31-.07c.07-.09.29,0,.49.07l-.11,0c.33,0,.73.24,1,.16l-.25-.11c.38,0,.84.14,1.12,0-.25,0-.67,0-.66-.09s.31,0,.44,0C48.89,112.18,49.31,111.81,49.84,111.92Z"/><path class="cls-2" d="M49,111.81c-.47.05-.22.22-.68.22.05-.07-.16-.12-.32-.14a1.82,1.82,0,0,1-.46,0c-.09,0-.07-.1.1-.1C48.11,112,48.61,111.74,49,111.81Z"/><path class="cls-1" d="M49.49,112.14c-.24,0-.17-.12-.41-.06.09-.1.13,0,.35-.06l-.12.07Z"/><path class="cls-2" d="M47.5,112c-.16,0-.51-.07-.51-.16s0-.05-.07,0C47,111.85,47.45,111.88,47.5,112Z"/><path class="cls-1" d="M48.18,112.41a1.78,1.78,0,0,1-.32,0A.61.61,0,0,1,48.18,112.41Z"/><path class="cls-2" d="M47.28,112.17c0,.07-.13,0-.18,0l-.09,0A.45.45,0,0,1,47.28,112.17Z"/><path class="cls-2" d="M46,111.81c-.21-.06.24-.05,0-.1h.15l0,.12Z"/><path class="cls-2" d="M45.68,111.64a.37.37,0,0,1-.23,0l.07,0S45.59,111.63,45.68,111.64Z"/><path class="cls-2" d="M45.9,111.95c-.11,0-.08,0-.15-.09S46,112,45.9,111.95Z"/><path class="cls-2" d="M44.62,112.27a2,2,0,0,1,.55.12A1.85,1.85,0,0,1,44.62,112.27Z"/><path class="cls-2" d="M53.33,110.28a.39.39,0,0,0,.2-.15h-.06Z"/><path class="cls-2" d="M52.17,110.83c0,.13.09,0,.28,0a5.85,5.85,0,0,0,.62-.38l.09-.12A9.54,9.54,0,0,0,52.17,110.83Z"/><path class="cls-1" d="M52.2,111.38a2.15,2.15,0,0,0,.5-.26l-.63.25S52.15,111.39,52.2,111.38Z"/><path class="cls-2" d="M54.84,108.76c-.13.24-.42.47-.56.78a1.1,1.1,0,0,0,.31-.22c0,.23-.25.25-.4.39.14-.09,0,.1-.08.21s-.6.42-.93.62c-.12.13-.65.31-.52.39-.22.11-.29,0-.46.08-.44.36-1,.08-1.46.41,0-.09-.26,0-.36,0s-.78.16-.63.28.47-.15.74-.13c.46,0-.43.18-.41.3.06,0,.12.07.3,0-.4.15.2.1,0,.23a1.15,1.15,0,0,1,.74.06c.28-.12.16-.2.22-.29.28-.15.56-.1.8-.23-.12.27.49,0,.78-.17s0-.23.44-.42c.25,0-.34.33,0,.28l.16-.13a2.61,2.61,0,0,1,.21-.41c.08,0,.19-.12.21-.1-.13.12,0,.16.14.09a.51.51,0,0,0,.08-.15c-.44,0,.32-.23.42-.52s.33-.35.45-.38.28,0,.45-.4c-.28.1.2-.49.19-.77a2.2,2.2,0,0,1,.23-.4c0-.06,0-.23,0-.26-.28.1-.58.52-1,.84C54.84,108.75,54.84,108.76,54.84,108.76Z"/><path class="cls-2" d="M47.95,115.3c0-.12,0-.33.08-.29l0,0C48.06,115.08,48,115.51,47.95,115.3Z"/><path class="cls-1" d="M47.67,115.32c0-.1,0,0,.06,0v.14S47.67,115.38,47.67,115.32Z"/><path class="cls-2" d="M47.07,115.25l0,0a.51.51,0,0,0,0-.15s.06.08,0,.16S47.1,115.2,47.07,115.25Z"/><path class="cls-2" d="M47.78,113.16c-.09,0-.24.1-.33.27l-.16-.07a1.46,1.46,0,0,0,0-.6c0-.08-.06.19-.09,0,0,0,.06,0,.08,0s-.16-.09-.12-.49l.08-.13a17.8,17.8,0,0,1,.1-2c-.07-.12,0-.45-.05-.66h0c-.07-.12,0-.31,0-.45l.06-.12c.08,0,0,.37.13.27.09-.27-.07-.47,0-.7s0-.21,0-.35-.05,0-.11,0c0-.51.3-.51.34-1,0,0-.08-.39-.19-.07l0,.16-.07.1c0-.12.06-.35,0-.33.2-.14,0-.87.18-.49a.48.48,0,0,0,0,.41c.09-.47.22-.88.28-1.27l-.06-.13c.08,0,.16-.18.21-.36s0-.19,0-.17-.13.67-.22.32a4.33,4.33,0,0,1,.39-1.13,1.37,1.37,0,0,0,0,.58c0,.74-.21,1.51-.18,2.23-.06,0-.11.2-.15.14s0,.24-.12.28c0,.55-.12,1.19-.16,1.68.15-.12.07.31.11.45a1.39,1.39,0,0,0-.07.51s0,.12.06.1a.94.94,0,0,1,0-.29c.1.06,0,.27,0,.45l0-.1c0,.31-.23.66-.15.95l.12-.23c0,.35-.15.76,0,1,.05-.23,0-.61.14-.6s0,.28,0,.41C47.7,112.26,48,112.7,47.78,113.16Z"/><path class="cls-2" d="M48,112.43c0-.45-.19-.24-.14-.67.07.06.14-.15.16-.29a1.59,1.59,0,0,1,0-.43c0-.08.11-.07.1.1C48,111.53,48.17,112,48,112.43Z"/><path class="cls-1" d="M47.63,112.8c0-.23.16-.13.12-.36.09.1,0,.12,0,.33l0-.12Z"/><path class="cls-2" d="M48,111c0-.14.07-.47.16-.47s.05,0,0-.06C48.13,110.57,48.09,110.94,48,111Z"/><path class="cls-1" d="M47.54,111.59a1.52,1.52,0,0,1,0-.29A.49.49,0,0,1,47.54,111.59Z"/><path class="cls-2" d="M47.8,110.79c-.07,0,0-.12,0-.16l0-.08A.37.37,0,0,1,47.8,110.79Z"/><path class="cls-2" d="M48.1,109.57c0-.21.07.22.1,0v.14l-.11,0Z"/><path class="cls-2" d="M48.22,109.27a.35.35,0,0,1,0-.22l0,.06S48.23,109.18,48.22,109.27Z"/><path class="cls-2" d="M48,109.51c0-.1,0-.08.06-.14S48,109.62,48,109.51Z"/><path class="cls-2" d="M47.38,108.45c.08.1,0,.29,0,.48A1.84,1.84,0,0,1,47.38,108.45Z"/><path class="cls-2" d="M48,116.79a.36.36,0,0,0,0,.24l0,0Z"/><path class="cls-2" d="M48.06,115.55c-.1-.09-.06.07-.14.24a6.41,6.41,0,0,0,0,.69l.06.14A5.14,5.14,0,0,0,48.06,115.55Z"/><path class="cls-1" d="M47.56,115.37a1.76,1.76,0,0,0,0,.51l0-.62S47.57,115.33,47.56,115.37Z"/><path class="cls-2" d="M48,119a2.71,2.71,0,0,0-.05-1,2.85,2.85,0,0,0-.07.38c-.13-.17,0-.35,0-.56,0,.17-.09-.05-.1-.2a9,9,0,0,0,0-1.07c-.05-.16,0-.68-.1-.61,0-.22.1-.25.13-.42-.14-.5.31-.88.14-1.42.08,0,.07-.23.08-.33s0-.76-.12-.65,0,.47-.06.7c-.17.4,0-.43-.18-.44,0,.06-.1.09-.06.27-.05-.39-.15.15-.23,0-.09.44-.09.4-.27.62,0,.27.14.2.2.27.06.28-.1.5-.07.75-.2-.19-.17.41-.17.69s.18.13.16.52c-.1.19-.13-.4-.24-.14l0,.18a1.84,1.84,0,0,1,.24.35c0,.08,0,.21,0,.21,0-.16-.11-.11-.16.06a.42.42,0,0,0,.07.14c.22-.33,0,.35.14.58.18.68-.26.36-.17,1,.19-.2.1.44.17.66a.78.78,0,0,1-.12.38c0,.05,0,.19.07.22.26-.1.51-.53.72-1.09C48.06,119,48.06,119,48,119Z"/><path class="cls-2" d="M25.67,121.48c-.25,0-.67,0-.6-.17l-.05-.09C25.23,121.23,26.1,121.23,25.67,121.48Z"/><path class="cls-1" d="M25.74,122.14c-.21-.05-.05-.09,0-.15H26C26.1,122.08,25.86,122.12,25.74,122.14Z"/><path class="cls-2" d="M25.62,123.54l.09,0a.82.82,0,0,0-.29,0c0-.07.15-.15.32-.12C25.7,123.47,25.53,123.47,25.62,123.54Z"/><path class="cls-2" d="M21.36,122.14c0,.22.25.54.61.74l-.11.38c-.27-.17-.78-.05-1.2,0-.16.08.4.1,0,.2,0-.05,0-.15-.11-.18-.36.12-.15.4-1,.35l-.28-.17a23,23,0,0,1-4.12.17c-.23.19-.91.12-1.31.23v-.11c-.23.19-.62-.05-.91,0l-.26-.11c-.1-.18.74-.08.51-.35-.55-.16-.93.24-1.4,0s-.4.08-.69.14c-.07.11.09.11.06.24-1,.08-1.08-.53-2-.45,0,.09-.74.35-.07.47l.31-.13.22.12c-.24,0-.69,0-.64.14-.33-.41-1.66.44-1-.21a.81.81,0,0,0,.81-.11c-.94,0-1.78-.14-2.55-.09l-.21.2c0-.18-.42-.29-.79-.29-.15.06-.36.07-.3.16s.31,0,.57,0,.46.08.15.27a8,8,0,0,1-2.36-.22,2.29,2.29,0,0,0,1.08-.38,9,9,0,0,1,1.09-.25l1.13-.12a19.49,19.49,0,0,0,2.21-.3c.06.13.43.16.32.3.13.09.49,0,.59.16a17.15,17.15,0,0,1,3.38,0c-.27-.33.6-.21.88-.34a2.36,2.36,0,0,0,1,.08c0-.06.24-.08.19-.17a1.61,1.61,0,0,1-.58-.07c.1-.24.54,0,.91,0l-.2.13c.62,0,1.36.43,1.92.19l-.48-.23c.69-.12,1.55.2,2.06-.1-.46-.07-1.23.11-1.22-.2s.56-.16.81-.1C19.58,122.44,20.38,121.71,21.36,122.14Z"/><path class="cls-2" d="M19.85,121.66c-.89.05-.43.47-1.3.46.1-.17-.32-.3-.61-.31a2.7,2.7,0,0,1-.86,0c-.17,0-.15-.24.18-.25C18.08,121.94,19.08,121.38,19.85,121.66Z"/><path class="cls-1" d="M20.68,122.55c-.45,0-.3-.35-.74-.23.18-.21.25,0,.66,0l-.23.13Z"/><path class="cls-2" d="M17,122.13c-.29,0-1-.07-1-.29,0,0,0-.13-.13-.09C16.14,121.82,16.88,121.84,17,122.13Z"/><path class="cls-1" d="M18.28,123a2.6,2.6,0,0,1-.58.05A.87.87,0,0,1,18.28,123Z"/><path class="cls-2" d="M16.61,122.54c.06.16-.24,0-.33,0l-.17-.07A.67.67,0,0,1,16.61,122.54Z"/><path class="cls-2" d="M14.14,122c-.42-.07.44-.21-.06-.24l.29,0,.1.26Z"/><path class="cls-2" d="M13.5,121.8a.61.61,0,0,1-.45,0l.12-.09C13.24,121.69,13.33,121.8,13.5,121.8Z"/><path class="cls-2" d="M14,122.39c-.2.06-.17-.07-.3-.13C13.82,122.18,14.25,122.37,14,122.39Z"/><path class="cls-2" d="M12,123.91c.19-.2.57-.08.94-.13A3.09,3.09,0,0,1,12,123.91Z"/><path class="cls-2" d="M28.69,121.29a.63.63,0,0,0,.49,0l-.09-.07Z"/><path class="cls-2" d="M26.18,121.19c-.18.24.14.13.49.3s.94-.15,1.4-.14l.28-.13A7.6,7.6,0,0,0,26.18,121.19Z"/><path class="cls-1" d="M25.84,122.4a3.1,3.1,0,0,0,1-.07c-.42,0-1,0-1.25-.05C25.59,122.33,25.76,122.36,25.84,122.4Z"/><path class="cls-2" d="M33,121.09a5.45,5.45,0,0,0-2,.19,5,5,0,0,0,.76.17c-.34.32-.7,0-1.11,0,.34.07-.1.21-.39.23a15.56,15.56,0,0,0-2.15,0c-.32.12-1.38-.07-1.22.24-.45,0-.52-.21-.86-.28-1,.36-1.82-.66-2.9-.17.06-.19-.48-.14-.69-.15-.46,0-1.56,0-1.3.37s.94-.18,1.43,0c.84.34-.86.18-.85.49.12-.06.2.21.56.1-.77.17.34.33-.05.54.89.15.81.16,1.26.54.52-.08.37-.35.52-.51.56-.18,1,.17,1.5.09-.37.49.82.37,1.39.36.74,0,.25-.43,1-.39.39.23-.8.31-.28.56l.36-.1a3.72,3.72,0,0,1,.7-.57c.17,0,.41,0,.42.06-.32.08-.23.26.12.37a.81.81,0,0,0,.28-.17c-.67-.52.7,0,1.17-.34,1.37-.44.72.64,2.08.34-.43-.43.89-.28,1.32-.48a1.47,1.47,0,0,1,.8.24c.1-.06.39-.1.42-.19a4.28,4.28,0,0,0-2.28-1.57S33,121.08,33,121.09Z"/></svg>