<?xml version="1.0" encoding="utf-8"?>
<!-- Generator: Adobe Illustrator 19.0.0, SVG Export Plug-In . SVG Version: 6.00 Build 0)  -->
<svg version="1.1" id="圖層_1" xmlns="http://www.w3.org/2000/svg" xmlns:xlink="http://www.w3.org/1999/xlink" x="0px" y="0px"
	 viewBox="0 0 440 210" style="enable-background:new 0 0 440 210;" xml:space="preserve">
<style type="text/css">
	.st0{fill:#060102;}
	.st1{fill:#231815;}
	.st2{fill:#231815;stroke:#231815;stroke-miterlimit:10;}
	.st3{fill:#040000;}
</style>
<g id="XMLID_2_">
	<g id="XMLID_59_">
		<path id="XMLID_84_" d="M8.5,43.7c1.4-2.3,3.6-6.2,6-9.9c5.7-8.7,10.8-8.3,17.4-0.3C40.8,44,50.2,54.1,60,63.8
			c2.2,2.2,6.7,2.7,10.2,2.7c3.7,0.1,7.5-1.5,11.2-2c9.6-1.3,20.2,5.7,20.5,13.4C102.1,84.4,89,97.1,82,95.9
			c-6.4-1-12.8-3.2-18.6-6.1c-4.9-2.4-9.1-6.3-13.3-9.9C36.6,68.3,23.2,56.5,8.5,43.7z"/>
		<path id="XMLID_83_" d="M160.7,43.7c-1.4-2.3-3.6-6.2-6-9.9c-5.7-8.7-10.8-8.3-17.4-0.3c-8.8,10.6-18.3,20.6-28.1,30.4
			c-2.2,2.2-6.7,2.7-10.2,2.7c-3.7,0.1-7.5-1.5-11.2-2c-9.6-1.3-20.2,5.7-20.5,13.4C67,84.4,80.2,97.1,87.1,95.9
			c6.4-1,12.8-3.2,18.6-6.1c4.9-2.4,9.1-6.3,13.3-9.9C132.5,68.3,145.9,56.5,160.7,43.7z"/>
		<path id="XMLID_80_" class="st0" d="M96.4,100.3c-1.1-4.5-5.7-13.2-11.1-9.3c-4.1,4.5-3.7,12-8.7,15.8
			c-3.4,10.4,1.7,17.8,9.2,23.7c8.5,0.7,19.6,0.2,21.5-9.2C104.8,113.8,98.2,108.2,96.4,100.3z M83.1,115c1.5-1.8,3-3.6,4.5-5.4
			c2.2,3.3,4.4,6.7,6.5,10.2C89.4,120.8,85.6,119,83.1,115z"/>
		<path id="XMLID_74_" class="st1" d="M149.8,56c-6.6-11.1-19.4-15.3-29.3-22.6l-0.2,0.8c-0.1-3.4-5.4-2.2-7.8-2.9
			c-9.5-0.3-18.8-3.9-28.3-2.1c-8.3,1.4-17-0.7-25,1.8c-3.8,3.1-8.1,5.5-12.9,6.6c-14.6,6.3-25.5,18.4-34,31.5
			c4.5-0.6,8.8-1.8,13.1-3.2c-2,1.7-6.2,5.1-8.2,6.9c1.9,0.6,5.7,1.8,7.6,2.4c-1.3,1.1-3.9,3.2-5.2,4.2c-3.7,11.9-8.2,23.9-6.8,36.6
			l-5.4,2.5c0-8.8,0.2-17.6,0.9-26.4c3-4.6,5.4-9.5,5.4-15.1c-3.2,2.7-7.5,5-8.5,9.4C0.5,104,2,122.3,5.4,139.9l1.8-3.1l0.2,4.2
			c11.9,20.2,28.7,38.2,50.2,48.3c13.6,7.8,30.8,15.5,45.5,5.9c11.1-9.8,24.8-23.2,20-39.8c13.4-9.8,28.3-20.5,33.4-37.2
			C164.3,98.1,163.5,73.5,149.8,56z M17.8,137.9c-6.2,1.8-11-13.2-2.5-9C17.5,131.8,18.3,134.8,17.8,137.9z M26.3,62.9l-1.2-1.3
			c0.8-3.4,3.3-8.9,7.6-7.7c-0.2,1.2-0.5,3.8-0.6,5C30.7,59.9,27.7,61.9,26.3,62.9z M33.3,106.1l1-2.3
			C41.3,101.4,35.3,113.6,33.3,106.1z M118.3,144.8c-7.9-5.1-15.7-10.5-25.2-12.2c-9.6,2-19,8.3-29.1,5.1
			c-13.6-3.3-21.4-17.3-22.3-30.5c-1.9-8.7,4.2-18-1.2-26c-1.5,7.5-1.5,15.1-1.7,22.7c-6.5-7.3-1-17.5,1-25.7c4-3.5,7.9-7,11.9-10.5
			c-2.9,4.7-5.7,9.3-8.6,14.1c4.5-2,7.5-5.5,8.8-10.3l2.5,0.7l-1.8-4l5,1.1l-4.2-5.2l6.3,2L59,62.6c8.6,0.4,16.5-3.7,24.8-5.1
			c13.6-1.5,26.7,2.4,38.8,8.3c9,8.7,17.7,19.6,17.5,32.8C140.7,116.3,133.9,135.2,118.3,144.8z"/>
		<g id="XMLID_67_">
			<g id="XMLID_21_">
				<path id="XMLID_64_" d="M55.4,105.9c7.7,0,7.7-11.9,0-11.9C47.7,94,47.7,105.9,55.4,105.9L55.4,105.9z"/>
			</g>
		</g>
		<g id="XMLID_60_">
			<g id="XMLID_65_">
				<path id="XMLID_70_" d="M127.5,95c-0.1-0.1-0.1-0.1-0.2-0.2c-1.1-1.1-2.7-1.7-4.2-1.7c-1.5,0-3.2,0.6-4.2,1.7
					c-1,1.1-1.8,2.6-1.7,4.2c0.1,1.6,0.6,3.1,1.7,4.2c0.1,0.1,0.1,0.1,0.2,0.2c1.1,1.1,2.7,1.7,4.2,1.7c1.5,0,3.2-0.6,4.2-1.7
					c1-1.1,1.8-2.6,1.7-4.2C129.2,97.7,128.6,96.2,127.5,95L127.5,95z"/>
			</g>
		</g>
	</g>
	<g id="XMLID_36_">
		<path id="XMLID_57_" class="st2" d="M219.4,202.4h-3.3c-0.5,0-0.9-0.1-1.1-0.3c-0.3-0.2-0.4-0.5-0.4-0.9c0-0.4,0.1-0.7,0.4-0.9
			c0.3-0.2,0.6-0.3,1.2-0.3h3.3c0.5,0,0.9,0.1,1.2,0.3c0.3,0.2,0.4,0.5,0.4,0.9c0,0.4-0.1,0.7-0.4,0.9S219.9,202.4,219.4,202.4z"/>
		<path id="XMLID_55_" class="st2" d="M244.5,201.9c0,0.5-0.1,1-0.4,1.6c-0.2,0.6-0.6,1.1-1.1,1.7s-1.2,1-2,1.3s-1.7,0.5-2.8,0.5
			c-0.8,0-1.5-0.1-2.2-0.2c-0.7-0.2-1.3-0.4-1.8-0.7c-0.5-0.3-1-0.7-1.5-1.3c-0.4-0.5-0.7-1-1-1.6c-0.3-0.6-0.5-1.2-0.6-1.9
			c-0.1-0.7-0.2-1.4-0.2-2.1c0-1.2,0.2-2.3,0.5-3.3s0.9-1.8,1.5-2.5c0.7-0.7,1.4-1.2,2.3-1.6c0.9-0.4,1.8-0.5,2.9-0.5
			c1.2,0,2.3,0.2,3.3,0.7s1.7,1.1,2.2,1.8s0.8,1.4,0.8,2.1c0,0.4-0.1,0.7-0.4,0.9s-0.6,0.4-0.9,0.4c-0.4,0-0.7-0.1-0.9-0.3
			c-0.2-0.2-0.4-0.5-0.7-1c-0.4-0.8-0.9-1.3-1.4-1.7c-0.5-0.4-1.2-0.6-2-0.6c-1.3,0-2.3,0.5-3,1.4c-0.8,1-1.1,2.3-1.1,4.1
			c0,1.2,0.2,2.2,0.5,3c0.3,0.8,0.8,1.4,1.4,1.8c0.6,0.4,1.3,0.6,2.1,0.6c0.9,0,1.6-0.2,2.3-0.7c0.6-0.4,1.1-1.1,1.4-1.9
			c0.1-0.4,0.3-0.7,0.5-1c0.2-0.3,0.5-0.4,0.9-0.4c0.4,0,0.7,0.1,0.9,0.4C244.4,201.2,244.5,201.5,244.5,201.9z"/>
		<path id="XMLID_52_" class="st2" d="M260,200.2h-1.1v4.9c0,0.6-0.1,1.1-0.4,1.4c-0.3,0.3-0.7,0.5-1.1,0.5c-0.5,0-0.9-0.2-1.1-0.5
			c-0.3-0.3-0.4-0.8-0.4-1.4v-11.7c0-0.7,0.1-1.1,0.4-1.4c0.3-0.3,0.8-0.4,1.4-0.4h5c0.7,0,1.3,0,1.8,0.1c0.5,0.1,0.9,0.2,1.3,0.4
			c0.5,0.2,0.9,0.5,1.3,0.9s0.6,0.8,0.8,1.3c0.2,0.5,0.3,1,0.3,1.6c0,1.1-0.3,2-1,2.7s-1.6,1.2-2.9,1.4c0.5,0.3,1.1,0.7,1.6,1.3
			c0.5,0.6,0.9,1.2,1.3,1.8c0.4,0.6,0.7,1.2,0.9,1.7c0.2,0.5,0.3,0.9,0.3,1.1c0,0.2-0.1,0.4-0.2,0.6c-0.1,0.2-0.3,0.4-0.5,0.5
			c-0.2,0.1-0.5,0.2-0.8,0.2c-0.3,0-0.6-0.1-0.9-0.2c-0.2-0.2-0.4-0.4-0.6-0.6s-0.4-0.6-0.7-1.1l-1.2-2.1c-0.4-0.8-0.8-1.3-1.2-1.7
			s-0.7-0.7-1.1-0.8C261,200.2,260.5,200.2,260,200.2z M261.7,193.8h-2.9v4.2h2.8c0.7,0,1.4-0.1,1.9-0.2c0.5-0.1,0.9-0.3,1.2-0.7
			c0.3-0.3,0.4-0.7,0.4-1.3c0-0.4-0.1-0.8-0.3-1.1c-0.2-0.3-0.5-0.6-0.9-0.7C263.5,193.8,262.8,193.8,261.7,193.8z"/>
		<path id="XMLID_50_" class="st2" d="M289.7,193.8h-7v3.7h6.4c0.5,0,0.8,0.1,1.1,0.3s0.3,0.5,0.3,0.8s-0.1,0.6-0.3,0.8
			c-0.2,0.2-0.6,0.3-1.1,0.3h-6.4v4.3h7.2c0.5,0,0.9,0.1,1.1,0.3s0.4,0.5,0.4,0.9c0,0.4-0.1,0.7-0.4,0.9s-0.6,0.3-1.1,0.3h-8.4
			c-0.7,0-1.2-0.1-1.5-0.4c-0.3-0.3-0.4-0.8-0.4-1.4v-11.5c0-0.4,0.1-0.8,0.2-1.1s0.3-0.5,0.6-0.6c0.3-0.1,0.6-0.2,1.1-0.2h8.2
			c0.5,0,0.9,0.1,1.1,0.3c0.2,0.2,0.4,0.5,0.4,0.9c0,0.4-0.1,0.7-0.4,0.9S290.2,193.8,289.7,193.8z"/>
		<path id="XMLID_47_" class="st2" d="M312.2,205l-0.7-1.9h-6.2l-0.7,2c-0.3,0.8-0.5,1.3-0.7,1.5c-0.2,0.3-0.5,0.4-1,0.4
			c-0.4,0-0.7-0.1-1-0.4c-0.3-0.3-0.4-0.6-0.4-1c0-0.2,0-0.4,0.1-0.6c0.1-0.2,0.2-0.5,0.3-0.9l3.9-9.9c0.1-0.3,0.2-0.6,0.4-1
			c0.2-0.4,0.3-0.7,0.5-1c0.2-0.3,0.4-0.5,0.7-0.6c0.3-0.2,0.6-0.2,1.1-0.2c0.4,0,0.8,0.1,1.1,0.2c0.3,0.2,0.5,0.4,0.7,0.6
			s0.3,0.5,0.4,0.8c0.1,0.3,0.3,0.7,0.5,1.2l4,9.8c0.3,0.8,0.5,1.3,0.5,1.6c0,0.4-0.1,0.7-0.4,1s-0.7,0.4-1.1,0.4
			c-0.2,0-0.5,0-0.6-0.1s-0.3-0.2-0.4-0.4s-0.2-0.4-0.4-0.7C312.4,205.5,312.3,205.2,312.2,205z M306.1,200.7h4.6l-2.3-6.3
			L306.1,200.7z"/>
		<path id="XMLID_45_" class="st2" d="M334.3,194H331v11.1c0,0.6-0.1,1.1-0.4,1.4c-0.3,0.3-0.7,0.5-1.1,0.5c-0.5,0-0.8-0.2-1.1-0.5
			s-0.4-0.8-0.4-1.4V194h-3.4c-0.5,0-0.9-0.1-1.2-0.3c-0.3-0.2-0.4-0.5-0.4-0.9c0-0.4,0.1-0.7,0.4-0.9c0.3-0.2,0.7-0.3,1.2-0.3h9.8
			c0.5,0,0.9,0.1,1.2,0.4c0.3,0.2,0.4,0.5,0.4,0.9s-0.1,0.7-0.4,0.9C335.2,193.9,334.9,194,334.3,194z"/>
		<path id="XMLID_43_" class="st2" d="M346.4,205.1v-12c0-0.6,0.1-1.1,0.4-1.4c0.3-0.3,0.7-0.5,1.1-0.5c0.5,0,0.8,0.2,1.1,0.5
			c0.3,0.3,0.4,0.8,0.4,1.4v12c0,0.6-0.1,1.1-0.4,1.4s-0.7,0.5-1.1,0.5c-0.4,0-0.8-0.2-1.1-0.5C346.5,206.2,346.4,205.7,346.4,205.1
			z"/>
		<path id="XMLID_41_" class="st2" d="M363.7,193.2l3.5,10.2l3.5-10.3c0.2-0.5,0.3-0.9,0.4-1.1s0.2-0.4,0.4-0.6
			c0.2-0.2,0.5-0.3,0.9-0.3c0.3,0,0.5,0.1,0.7,0.2s0.4,0.3,0.5,0.5c0.1,0.2,0.2,0.4,0.2,0.7c0,0.2,0,0.3-0.1,0.5
			c0,0.2-0.1,0.4-0.2,0.5c-0.1,0.2-0.1,0.3-0.2,0.5l-3.7,10c-0.1,0.4-0.3,0.7-0.4,1.1c-0.1,0.3-0.3,0.6-0.5,0.9
			c-0.2,0.3-0.4,0.5-0.7,0.6c-0.3,0.2-0.6,0.3-1.1,0.3c-0.4,0-0.8-0.1-1.1-0.2c-0.3-0.2-0.5-0.4-0.7-0.6c-0.2-0.3-0.3-0.6-0.5-0.9
			c-0.1-0.3-0.3-0.7-0.4-1.1l-3.6-9.9c-0.1-0.2-0.1-0.4-0.2-0.5c-0.1-0.2-0.1-0.4-0.2-0.6c0-0.2-0.1-0.4-0.1-0.5
			c0-0.4,0.1-0.7,0.4-1c0.3-0.3,0.6-0.4,1.1-0.4c0.5,0,0.9,0.2,1.1,0.5C363.3,192,363.5,192.5,363.7,193.2z"/>
		<path id="XMLID_39_" class="st2" d="M394.7,193.8h-7v3.7h6.4c0.5,0,0.8,0.1,1.1,0.3s0.3,0.5,0.3,0.8s-0.1,0.6-0.3,0.8
			c-0.2,0.2-0.6,0.3-1.1,0.3h-6.4v4.3h7.2c0.5,0,0.9,0.1,1.1,0.3c0.2,0.2,0.4,0.5,0.4,0.9c0,0.4-0.1,0.7-0.4,0.9
			c-0.2,0.2-0.6,0.3-1.1,0.3h-8.4c-0.7,0-1.2-0.1-1.5-0.4c-0.3-0.3-0.4-0.8-0.4-1.4v-11.5c0-0.4,0.1-0.8,0.2-1.1s0.3-0.5,0.6-0.6
			c0.3-0.1,0.6-0.2,1.1-0.2h8.2c0.5,0,0.9,0.1,1.1,0.3c0.2,0.2,0.4,0.5,0.4,0.9c0,0.4-0.1,0.7-0.4,0.9
			C395.6,193.7,395.2,193.8,394.7,193.8z"/>
		<path id="XMLID_37_" class="st2" d="M411,202.4h-3.3c-0.5,0-0.9-0.1-1.1-0.3c-0.3-0.2-0.4-0.5-0.4-0.9c0-0.4,0.1-0.7,0.4-0.9
			c0.3-0.2,0.6-0.3,1.2-0.3h3.3c0.5,0,0.9,0.1,1.2,0.3c0.3,0.2,0.4,0.5,0.4,0.9c0,0.4-0.1,0.7-0.4,0.9
			C411.9,202.3,411.5,202.4,411,202.4z"/>
	</g>
	<g id="XMLID_3_">
		<path id="XMLID_33_" class="st3" d="M436.6,79.4c-5.7-10.4-15.5-13.2-26.6-13.6c-0.4-8.4-0.7-17-2.7-25
			c-2.6-10.2-7.4-20-12.2-29.3c-1.3-2.4-6.3-2.4-9.6-3.6c0,3.9-1.3,8.6,0.2,11.6c0.8,1.6,1.4,3.1,2.1,4.7c-1.4-0.5-3-0.6-4-0.1
			c-1.6,0.7-3.6,4.4-3.1,5.9c0.9,2.7,3.1,5.9,5.4,6.8c1.9,0.8,3.9,1.3,5.9,1.7c0.4,2.5,0.7,5.1,0.8,7.7c-0.5-0.6-1.1-1.1-1.6-1.6
			c-1.5-1.4-4.6-0.6-7-0.8c0.7,3.1,0.6,7.7,2.4,9.1c1.8,1.3,3.7,2.3,5.8,3.2c-0.4,4.9,1.1,8.5,5.4,10.7c-0.7,0.1-1.4,0.2-2.1,0.3
			c-5.6,0.9-11.2,1.9-16.7,2.8c0.4-0.3,0.6-0.8,0.6-1.3c1.2-0.6,2.1-1.2,2.4-3.1c0.2-1.5-0.1-2.5-1-3.3c-1.2-1.1-2.5-2.1-3.8-3
			c-1.1-0.8-2.5-1.3-3.5-2.3c-1.5-1.6-2.8-3.5-4.2-5.4c-0.2-0.2-0.2-0.8-0.1-1.1c0.9-2.4,1.9-4.8,2.9-7.2c0.6-1.6,1.3-3.2,0.5-5.1
			c-0.2-0.5-0.2-1-0.2-1.5c0-1,0-2-0.1-2.9c0-0.2-0.2-0.5-0.4-0.5c-0.6-0.2-1.2-0.8-1.7-0.6c-3.3,1.1-3.8,5.5-5.7,8.1
			c-0.1-0.1-0.2-0.4-0.3-0.7c-1-3.6-2-7.2-3-10.8c-0.2-0.8-0.4-1.6-0.4-2.4c0-0.3,0-0.7,0-1c-0.2-0.3-0.3-0.6-0.5-1
			c-1-2.4-3.3-1.4-4.3,0.7c-1.4,3-2.7,5.8-3.1,9c-0.1,0.5-0.1,1-0.1,1.5c1.7,4.9,3.7,9.6,6,14.2c0.7,1.5,0.7,2.7,0.2,4.1
			c-0.8,2.3-1.6,4.7-2.2,7.1c-0.6,2-1,4.1-0.5,6.2c1,0.5,1.8,0.4,2.3-0.9c0.2-0.5,0.7-1.2,1.1-1.3c1.1-0.1,1.4-1.2,2.1-1.7
			c0.2-0.2,0.5-0.2,0.9-0.4c0,0,0.1-0.2,0.2-0.4c0.7-1.4,2.2-1.5,3-0.2c0.6,0.9,1.2,1.7,1.7,2.7c0.8,1.6,2,2.7,3.6,3.2
			c0.7,0.2,1.5,0.2,2.1,0.6c1.4,1,2.8,0.8,4.2,0.8c-8.9,1.4-17.8,2.7-26.7,3.5c-1.5,0.3-2.9,0.7-4.4,1c1.4-1.8,2.2-4.5,2-6.9
			c-0.5-6.1-2.2-11.8-6.1-16.5c1.3-1.4,0.9-2.3-0.6-3.3c-1.8-1.1-1.9-2.5-0.8-4.4c0.4-0.9,0.5-2,0.6-2.4c1.1-1.8,2.6-3.1,2.6-4.5
			c0.1-2.6-0.5-5.2-1-7.8c-0.1-0.5-0.7-1.2-1.2-1.3c-2.5-0.9-5-1.8-7.6-2.6c-0.1,0-0.3,0.1-0.4,0.1c-1.6-0.2-3.2-0.1-4.8-0.5
			c-3.4-1.1-6.7-0.6-9.4,1.6c-7.9,6.6-9.2,16-4.4,26.1c1.4,2.9,2.6,5.9,4.2,8.6c1.4,2.6,2.9,5.4,4.9,7.2c3.1,2.8,6.6,5,7.8,9.8
			c0,0,0,0.1,0,0.1c-4.6,1-9.2,2.1-13.8,3.1c-4.4,23.5-1.6,31.5,13.4,33.3c-3.4-10.8,15.5-19.9,3.1-29.8c7.5-1.1,15.4-2.6,23.3-3.4
			c13.4-1.4,26.9-1.9,40.2-3.9c19.3-2.8,20.4-2,18.4,14.4c-0.7,6.1,0.7,12.6,2.8,18.4c0.5,1.5,8.5,2.9,10.8,1.6
			C436.4,108,439.7,85.1,436.6,79.4z M330.3,62.6c1.9-1,2.3-3.2,2.9-5.3c0.3-0.9,1.1-1.5,1.8-2.3c0.5,0.7,1.2,1.4,1.4,2.2
			c0.6,1.9,1,3.8,1.4,5.7c0.3,1.5-0.1,2.5-1.6,2.6c-0.4,0-0.8,0.1-1.2,0.2C331.6,66.7,331.4,66.6,330.3,62.6z"/>
		<path id="XMLID_30_" class="st3" d="M423.5,146.8c-7.7,1.1-14.9,5.2-24.2,8.7c-1-2.1-4.4-6.5-5.4-11.4c-0.3-1.6-0.7-3-1.1-4.3
			c4-2.3,7.4-7.4,7.8-13.3c0.7-9.8,0.3-19.8,0-29.6c-0.1-5-2-8.9-5.4-10.4c-5-2.2-10.1-4.3-15.2-5.9c-0.9-0.3-2.7,1.4-3.3,2.8
			c-2,5.1-0.4,8.9,3.8,10.7c1.9,0.8,4.1,2.3,5.4,4.4c3.8,6.2,4.4,20.7,1.2,28.1c-0.7,1.5-2.7,3.2-3.5,2.7c-1.3-0.9-2.9-3.5-3-5.4
			c-0.1-5.1-0.1-10.8,4.8-11.8c0.9-0.2,1.7-2.1,2.9-3.7c-4.8-2.6-8.8-4.9-12.9-7.1c-0.3,7.8-1.2,8.9-6.3,6.6
			c1.9-4.1,3.7-7.7,5.4-11.5c-1.7-4-3.4-7.2-7.2-9.1c-6.9-3.4-10.3-1.9-12.2,8.8c-0.3,1.6-0.6,3.1-0.9,4.7c-0.6,3.8-0.7,7.6-0.1,11
			c1,8.4,2.4,16.1,2.5,23.1c0.2,11.6,3.7,21.7,6.1,32.1c1.6,6.7,4.8,11.3,7.8,9.7c3.2-1.7,0.4-8.3-0.2-12.7c-1.7-12-3.7-23.9-5.8-37
			c3.1,2.2,6.1,4.2,9.2,6.3c0.5,2.1,1,4.1,1.7,5.9c3.8,9.7,6.1,20.7,12,28.5c11.8,15.6,36.2,10.1,43.2-9
			C433,152.9,430.6,145.7,423.5,146.8z M368.6,110c2.7,3.8,5.1,7,7.5,10.3c-0.3,0.6-0.7,1.1-1,1.7C368.8,119.9,368,118.5,368.6,110z
			"/>
		<path id="XMLID_26_" class="st3" d="M310,129.6c0.9,0.2,1.8,0.3,2.7,0.3c0.9-0.2,1.8-0.4,2.8-0.4c1-0.1,2-0.1,3,0
			c0.8,0,1.6,0.1,2.4,0.1c0.9,0,1.7,0,2.6,0c4.8,0.7,10.5-1.9,10-6.4c-0.1-0.9-0.5-1.9-1.1-2.9c-7.9-7-18.2-3.9-27.3-4.7
			c-1.1,0.1-2.2,0-3.3-0.2c-1.1-0.2-2.2-0.6-3.2-1.2c-1.2-0.6-2.4-1.2-3.5-2c-2.2-1.6-3.9-3.6-5.2-6.2c-0.4-0.9-0.8-1.7-1.1-2.7
			c-1-2.8-1.7-5.9-2.3-9c1.1,0.2,2.2,0.5,3.3,0.7c9,1.9,20.5-7.4,19.8-16.6c-0.7-9.2-2.9-18.3-4.9-27.4c-1-4.5-4.3-7.7-9.3-8.3
			c-2.5-0.3-5.1-0.5-7.6-0.7c6.7-5.5,6.4-16.1,9.8-24.1c1.4-3.3,0.6-9.4-1.8-12c-2.2-2.5-9.4-4.1-11.4-2.5c-3.7,3-7.3,8.6-7.3,13.1
			c0.1,5.7,1.1,11.3,2.2,17.2c-1.2-2.4-2.8-4.5-5.1-6.2c0.9-1.2,0.5-1.8-0.8-2.2c-1.5-0.5-1.8-1.4-1.1-3c0.3-0.7,0.2-1.4,0.2-1.8
			c0.7-1.4,1.7-2.5,1.6-3.5c-0.2-1.8-1-3.6-1.6-5.3c-0.1-0.4-0.7-0.7-1.1-0.8c-2.1-0.3-4.2-0.5-6.3-0.7c-0.1,0-0.2,0.1-0.3,0.1
			c-1.3,0.1-2.6,0.4-3.8,0.3c-2.9-0.3-5.4,0.6-7.3,2.5c-5.6,5.8-5.6,12.5-0.6,18.8c1.4,1.8,2.7,3.7,4.3,5.4c1.4,1.6,2.9,3.3,4.7,4.3
			c2.3,1.3,4.8,2.2,6.4,4.2c-0.9,4.3,2,6.8,7.7,7.4c2.9,0.3,6.1,1.1,8.3,2.8c6.4,4.8,9.6,18.1,6.3,25.7c-0.6,1.4-2.9,3.3-4.1,3.3
			c-1.9,0.4-4.8-0.3-5.9-0.5c-4-0.9-8.3-1.7-12.1-3.5c-1-0.3-2-0.7-3-1.2c-4.2-2.2-5.5-5.8-3.7-9.8c0.1-0.4,0.2-0.8,0.4-1.1
			c0,0,0,0-0.1,0c2-4.3,3.9-8.1,5.7-12c-3-3.3-6-5.8-11.6-6.6c-10.2-1.5-14.9,0.9-15.7,11.2c0,0.5-0.1,0.9-0.1,1.4
			c-1.3-0.4-2.6-0.8-3.9-1.2c-0.1-0.7-0.5-1.5-0.9-2.1c-5-9.4-12.1-16.8-21.1-23.1C208.7,48,194.3,73.1,192.1,86
			c-1,6,3,12.1,8.9,13.4c0.5,0.1,1,0.7,1.3,1.1c3.1,3.8,7.6,3.9,11,0.4c2.3-2.4,4.7-4.9,7.1-7.2c0.5-0.5,1.2-0.9,1.9-1
			c3.1-0.1,6.2,0,9.2,0c1.6,6.6,1.6,6.6-5,7c-0.7,0.1-2,0.9-2,1.3c0.1,2.1,0.3,4.4,1.1,6.3c0.1,0.4,2.9-0.2,4.4-0.4
			c0.9-0.1,1.7-0.5,2.9-0.9c0.5,1.4,1,2.6,1.9,4.8c-1,0.1-1.9,0.1-2.7,0.2c-0.1-0.9-0.2-1.8-0.5-2.7c-0.1-0.5-1.7-1.1-2.4-0.9
			c-1,0.2-1.9,1.1-1,2.3c0.4,0.5,0.7,1,1.1,1.5c-1.1,0.1-2.2,0.1-3.3,0.2c-1.2,2.8-0.1,5.6,2.6,7.4c2,1.4,4.4,2.8,7.3,0.5
			c1.9-1.4,4.9-1.3,7.3-2.3c2-0.8,3.7-2.2,5.5-3.4c-0.8-0.7-1.6-1.3-2.4-2c0.8-0.6,1.4-1.4,1.5-2.4c0.2-1.5-0.7-4.4-3.3-4.1
			c-2.2,0.2-2.9,2.3-3.4,4.5c-2.1-0.6-2.1-2.5-1.6-4.8c2.1-0.9,4.1-1.5,6-2.5c0.7-0.4,1.6-1.3,1.6-1.9c0-0.6-1-1.5-1.7-1.7
			c-2.6-0.6-5.3-1-8-1.5c-1.3-5.8-1.2-5.8,4.1-7c1.9-0.4,3.9-0.9,5.6-1.9c1.3-0.8,3.3-1.6,4.1-2.8c0.7,0.3,1.5,0.6,2.2,0.8
			c1.9,0.5,3.8,1.1,5.6,1.6c0.1,0.8,0.3,1.7,0.4,2.5c0.3,1.2,0.5,2.4,0.7,3.7c0.1,0.6,0.2,1.2,0.3,1.9c0.9,7.1-1.4,14.1,0.1,21.2
			c0,2.3,5.5,3.1,6.3,0.8c3.2-6.2,2.4-14,3.9-20.8c0.1-0.8,0.1-1.6,0.1-2.4c0-0.8,0-1.6-0.1-2.4c0-0.5-0.1-0.9-0.4-1.4
			c2,0.5,3.9,0.9,5.9,1.4c0.2,0.8,0.5,1.6,0.7,2.4c0,0.7,0.1,1.4,0.2,2c0.7,6.5,3.9,12,6.6,17.3c0.5,0.7,1,1.4,1.6,2.1
			c0.5,0.6,0.9,1.1,1.4,1.7c3.8,4.9,9.3,8.1,15.9,10.2c0.7,0.2,1.5,0.4,2.3,0.6c0.8,0.2,1.5,0.3,2.3,0.4
			C308.2,129.2,309.1,129.4,310,129.6z M227.4,85.5c0.4-1.1,1.3-2.4,1-2.8c-0.9-1.1,0.8-5.1,2.9-9.3c0.5,3.7,1.2,7.3,1.8,11.1
			C230.4,85,228.9,85.3,227.4,85.5z M237.8,83.6c0.2-3.1,0.4-5.6,0.3-8c0-1.2-0.1-3.2-0.8-3.5c-1.4-0.7-3.1-0.9-4.7-1.2
			c0.4-0.7,0.7-1.4,1.1-2c1,0.2,2.3,0.5,3.9,0.9c1,0.3,2,0.6,2.9,0.9c0.5,4.1,2,7.7,4.6,10.6c-0.5,0.1-1.1,0.4-1.5,0.5
			C241.7,82.3,239.9,82.9,237.8,83.6z"/>
		<path id="XMLID_25_" class="st3" d="M213.8,155.9C213.7,155.9,213.7,155.9,213.8,155.9c1.5-1.4,3.3-3,2.2-4.6
			c-1.4-2.2-3.5,0.5-4.7,2.2c-1.3-1.2-2.8-2.2-4.6-2.7c0,0-0.1,0-0.1,0c-0.7-0.2-1.4-0.2-2.1,0c-0.6,0.2-1.4,0.9-1.4,1.6
			c0,0.7,0.7,1.3,1.3,1.7c1,1.3,2.3,2.4,3.8,3.2c-0.6,1-1.7,2-2.1,3.1c-0.3,0.8,0.1,1.2,0.8,1.6c1.4,0.7,2.9-0.7,3.9-2.1
			c0.9,1.2,1.6,2.6,2.7,3.6c1.7-0.5,4.5-2.2,3.1-4.3C215.7,158.3,214.5,157.3,213.8,155.9z"/>
		<path id="XMLID_22_" class="st3" d="M272.1,166.4c-2.7-1.8-6,0.2-8.6-2.1c1.8,0.5,3.6,0.3,5.1-1c2.1-2.4,1.2-6.6,0.1-9.6
			c-1.4-1.8-3.4-2.8-5.3-2.6c-0.1,0.1-0.3,0.2-0.4,0.3c-1.3,0.8-2.8,1.5-3.8,3c-1.1,1.9-2.9,3.4-3,6c-0.4,3.2,1.5,6,3.4,7.8
			c2.9,3,6.7,3.3,10.2,3.3c1.9,0.2,5-1.1,4.4-3.5C273.8,167.1,272.8,166.9,272.1,166.4z M266.7,159.2c-0.7,1.2-2,1.2-3.1,1.6
			c-0.2-0.4-0.5-1.1-0.7-1.5C263.8,158.1,266.2,156.8,266.7,159.2z"/>
		<path id="XMLID_16_" class="st3" d="M289.5,152.8c-0.6-0.3-1.4-0.5-2.1-0.2c-1,0.4-1.4,1.4-1.6,2.4c-0.1,0.4-0.2,0.9-0.2,1.3
			c0,0.5,0.1,1,0.3,1.5c0.2,0.9,0.7,1.7,1.4,2.4c-2.1-0.4-4-1.2-5.5-3c-0.2-0.6-0.6-1.7-0.8-2.2c0.1-2.6,1.2-4.8,2.7-6.8
			c1.6-1.3,3.4-2.2,5.5-2.7c0.1,0,0.2,0,0.3-0.1c1.1,0,2.3,0.1,3.5,0c1.9,1.4,4.4,2.2,6.5,1c2.4-1.3,2.9-4.7,2-7.1
			c-1.2-3.1-5.6-4.6-8.6-5.3c-2.6-0.6-5.5-0.4-8,0.7c-0.6,0.2-1.2,0.5-1.6,0.8c-0.3,0.2-0.6,0.5-1,0.7l0,0l0,0
			c-0.1,0.1-0.2,0.2-0.4,0.3c-0.1,0.1-0.2,0.2-0.2,0.3c-3.5,3.3-6.4,7.3-8.6,11.6c-2.2,4.3-2.2,9.3-1.1,13.9
			c1.2,4.2,5.6,6.9,9.9,6.7c1.6,0,3.3-0.1,5-0.2c-0.8,1.2-0.5,2.8-0.6,4.2c4,1.3,8.2-0.3,11.6-2.2c3-1.7,5.6-5.3,4.2-8.8
			C300.6,156.4,295,153.2,289.5,152.8z"/>
		<path id="XMLID_8_" class="st3" d="M314.4,164.7c-1,0.4-2,0.9-3.1,1.2c-0.7,0.3-1.7,0.2-2.1-0.5c-0.2-0.4-0.2-0.8-0.2-1.2
			c0.7,0.2,1.5,0.3,2.4,0.3c1.5,0.1,3-1.3,4.4-2.1c1.3-1.6,1.8-3.5,1.3-5c-1.6-1.4-4.1-2.8-7.1-1.3c-2.4,1.4-3.9,3.8-4.3,6
			c-0.4,1-1.1,1.9-0.3,2.9c-0.2,1.2,0.6,2.3,1.3,3.3c1.2,1.3,2.9,2.3,4.7,2.4c0.7-0.1,1.4-0.2,2.2-0.1c0.9-0.2,1.8-0.7,2.7-0.5
			c0.9-0.2,2.1-0.4,2.6-1.3c0.4-0.7-0.2-1.4-0.5-2.1C317.3,165.5,316,164.6,314.4,164.7z M311.9,158.3c1.3,0.7-0.4,2.2-1.8,3
			c-0.2-0.4-0.4-0.8-0.8-1C310.1,159.5,310.8,158.7,311.9,158.3z"/>
		<path id="XMLID_5_" class="st3" d="M252.3,164c-0.9-0.6-1.6-1.4-2.2-2.3c1.2-1.1,2.2-2.2,2.3-3.6c0.3-0.6,0.4-1.2,0.3-1.8
			c1.3-2.5,0.5-5.4-0.1-8c-1.5-4.1-4.5-7.9-8.8-9.9c-1.8-0.5-3.6-1-5.3-1.8c-2.4-0.4-5-0.2-7.1-1.5c-2.5-0.4-5.5-1.2-7.7,0.5
			c-1.8,1.2-1.1,3.5-1.1,5.2c0.3,0.7,0.6,1.4,1,2c-0.2,1.7-0.5,3.5-0.6,5.2c-0.1,1.5-0.2,2.9-0.2,4.4c0.1,1.3,0.1,2.6,0.1,3.8
			c1.1,5.1-0.1,10.4,1.3,15.4c0.4,3,4.8,3.9,7.4,2.4c2.5-1.2,2.6-4.2,2.4-6.4c-1.5-3.2,0-6.6,0.4-9.8c0.1-1.9,0.5-3.8,1-5.6
			c0-1.2,0-2.3-0.1-3.4c1.2,0,2.3,0.1,3.5,0.1c2,0.1,4.3,1.1,4.5,3.1c0,1.5-0.8,2.8-1.6,4.1c-1,0-2,0-3,0.1c-0.4,0-0.7,0.2-0.9,0.4
			c0,0,0,0-0.1,0c0,0.1-0.1,0.3-0.1,0.4c0,0,0,0,0,0c-0.8,2.3-1.3,5,0.3,7.1c1.4,2.6,4,4.4,5.7,6.8c0.8,1.6,2.8,1,4.2,1.1
			c1.6-0.6,3.3-0.8,5-0.9c0.3-0.4,0.9-1.2,1.2-1.7C254.2,167.6,254.3,165.2,252.3,164z"/>
		<path id="XMLID_4_" class="st3" d="M350.6,165.4c-0.3-0.5-0.7-1-1.3-1.4c-0.7-0.4-1.2-0.9-1.6-1.5c-0.4-0.2-0.7-0.5-0.9-0.8
			c0.4-1.4,1-2.8,1.9-4.1c0,0,0-0.1,0.1-0.1c0.2-0.1,0.4-0.3,0.6-0.4c0,0,0,0,0,0c1.8-2.6,1-5.9,0.4-8.7c-1.5-4.1-4.5-7.9-8.8-9.9
			c-1.8-0.5-3.6-1-5.3-1.8c-1.5-0.2-3.1-0.2-4.7-0.6c-2.8-0.3-6-0.2-8.2,1.8c-0.6,0.6-1.2,1.3-1.6,2.1c-0.2,0.9-0.3,1.8-0.5,2.8
			c0,0,0,0.1,0.1,0.1c-0.2,1.7-0.5,3.5-0.6,5.2c-0.1,1.5-0.2,2.9-0.2,4.4c0.1,1.3,0.1,2.6,0.1,3.8c1.1,5.1-0.1,10.4,1.3,15.4
			c0,0.2,0.1,0.4,0.2,0.6c0.7,3.1,5,5.6,8,3.7c3.2-2.1,2.5-6.4,1.2-9.7c-0.1-0.6-0.2-1.2-0.2-1.8c-0.2-0.6-0.3-1.3-0.4-2
			c-0.5-4.3,1.5-8.5,2-12.6c0-0.3,0.2-0.5,0.4-0.7c0-0.1,0-0.3,0-0.4c1.2,0,2.3,0.1,3.5,0.1c2,0.1,4.3,1.1,4.5,3.1
			c0,1-0.3,1.8-0.7,2.7c-1.3,0.6-2.5,1.3-3.6,2.1c-0.2,0.1-0.3,0.3-0.4,0.4c-0.4,0.3-0.6,0.7-0.8,1.2c0,0,0,0.1,0,0.1
			c-0.6,1-0.9,2.2-0.9,3.4c0.1,0.8,0.4,1.5,1,2.2c1.3,2.4,3.6,4.1,5.3,6.3c0.7,1.4,1.2,3,2.4,3.9c0.6,0.5,1.4,0.8,2.3,1
			c1,0.9,2.6,1.1,4,1.2c1.3,0.1,2.3-0.1,3-0.6c1.5-0.5,3-1.5,3.3-3.2C355.9,170.1,353.2,166.9,350.6,165.4z"/>
	</g>
</g>
</svg>
