<svg id="圖層_1" xmlns="http://www.w3.org/2000/svg" viewBox="-135.4 141.7 553.9 285.2"><style>.st0{fill:#fff}.st1{fill:none}</style><g id="XMLID_48_"><g id="XMLID_49_"><g id="XMLID_50_"><path id="XMLID_167_" class="st0" d="M214.1 142.2c-.3.1-.1.2.6.1l.5-.2-1.1.1z"/><path id="XMLID_166_" class="st0" d="M218.9 142.3c.8-.1 1.8-.3 1.3-.5-.8.2-1 .1-1.9.4-.7 0-1.3 0-1.1-.1-.3.1-1.1 0-1.5.2.9.1 2.1 0 3.4-.1.1 0-.1 0-.2.1z"/><path id="XMLID_165_" class="st0" d="M277.4 173.9l-.1-.5c-.1.1 0 .3.1.5z"/><path id="XMLID_164_" class="st0" d="M288.4 213.3c-.1-.3-.3-.4-.5-.4.1.3.3.5.5.4z"/><path id="XMLID_163_" class="st0" d="M285.7 220.1c.1-.1.1-.3.2-.4-.2.1-.3.3-.2.4z"/><path id="XMLID_162_" class="st0" d="M277.4 173.9l.2 1.2c.4-.2 0-.7-.2-1.2z"/><path id="XMLID_161_" class="st0" d="M228.7 142h-.6.6c-.1 0 0 0 0 0z"/><path id="XMLID_160_" class="st0" d="M264.5 160.5l-.3-.2c-.2 0-.3.1-.5.2h.8z"/><path id="XMLID_159_" class="st0" d="M253.1 152.1c.3.2.7-.3.9-.5-.3.2-.6.1-.8 0-.1.1-.1.3-.1.5z"/><path id="XMLID_158_" class="st0" d="M231.8 143.4h-.4.4z"/><path id="XMLID_157_" class="st0" d="M271.3 168.1c-.1.1-.2.3-.2.4 0-.1.1-.2.2-.4z"/><path id="XMLID_156_" class="st0" d="M197.1 145.1c.1 0 .1-.1 0 0z"/><path id="XMLID_155_" class="st0" d="M214.1 142.6h-.2v.1l.2-.1z"/><path id="XMLID_154_" class="st0" d="M281.2 231.6s0-.1 0 0c-.1-.4-.1-.3 0 0z"/><path id="XMLID_153_" class="st0" d="M188.7 279.5c1.5.3-2.1 1.2.1 1.5-.2-.2 1.7-1.4-.1-1.5z"/><path id="XMLID_152_" class="st0" d="M229.1 142.1c.2 0 .4 0 .6.1-.3-.1-.5-.1-.6-.1z"/><path id="XMLID_151_" class="st0" d="M188.8 281h.2-.2z"/><path id="XMLID_150_" class="st0" d="M269.4 256.6c.3.2.5.2.7.3-.1-.2-.3-.3-.7-.3z"/><path id="XMLID_149_" class="st0" d="M282.3 239.6l-.4.4c.2-.1.3-.3.4-.4z"/><path id="XMLID_148_" class="st0" d="M263.2 266.2c-.3.1-.5 0-.7.4.1 0 .1.1.2.1 0-.3.1-.5.5-.5z"/><path id="XMLID_147_" class="st0" d="M253.6 273c.1.1.2.1.3.2l.3-.3-.6.1z"/><path id="XMLID_146_" class="st0" d="M163.1 164.8c.4 0 .8 0 1.1.1-.6-.3.6-1.8-1.1-.1z"/><path id="XMLID_145_" class="st0" d="M228.7 142.1c.1-.1.2-.1.4-.1-.2.1-.3 0-.4.1-.1 0-.1 0 0 0z"/><path id="XMLID_144_" class="st0" d="M270.8 276.3l-1.9 1.1c.6-.2 1.3-.6 1.9-1.1z"/><path id="XMLID_143_" class="st0" d="M151.5 250.8v-.5c-.1.2-.1.3 0 .5z"/><path id="XMLID_142_" class="st0" d="M263.5 281.3c-.6-.3-1.2-.3-1.6-.3 0 .1-.1.3 0 .5l1.6-.2z"/><path id="XMLID_136_" class="st0" d="M173.8 155c-1.7 1-.3 1.2-.3 1.8-1.7 1.6-1.3.1-2.3.3-1.1 1-1.4 2.4-2.3 3.1-.2-.1-.4 0-.3-.3-.4.8-1.2 1.5-2.1 2.4-.4.4-.9.8-1.2 1.3-.3.5-.6 1-.7 1.5h-.4c.7.2 1.2.6 1.4.9-.6.6-.5 1.7-1.3 1.4.4-.4.2-.6.1-1l-.4.9c-1.5-.1.5-1.2-.1-1.7-1 1.5-1.6 3.8-2.7 4.6-1.2-.6 1.8-2.7-.3-2l1.8-1.3c-2.6 0 1-.9-1.6-1-1.1.9-1.6 1.6-2 2.3-.4.7-.8 1.4-1.9 2.4.2.9 1 .5 1.2 1.4-1.2 4-4.9.7-5.1 4.2.4 1.1 1.9 2.3 0 3.7l-1.2-1.4c-1.6 2.4 1.4 2.5-1 4.6-.4-.8.5-2.2.1-1.9-2.2 1.1.3 1.6-.4 2.9l-1.6-.4c-1.1 2.9-1.3 6.3-1.9 9.6-.4-.3-.8-1-1.6-.4-.5 4.3-2.5 8.7-4.1 12.7l1.4 1.7c-.1.4-.8.6-1 .2-.7 1.6 1 .2 1.5 1 0 .9-1 1.1-1.4.5 1.2 3 2.6 8 1.3 11l-.5-.5c-.4 2.4 3.4 2.3 2.2 4.5l-.3-.4c0 2.5.7 5 1.3 7.4.6 2.4 1 4.6.7 6.7 1.1 0 1.3 1.2 1.6 2.4.3 1.1.8 2.2 2.1 1.8-.1 1.5-.2 2.1-.3 2.9-.1.7 0 1.6.6 3.5 0 .1.1.1.1.2h.2c.2 0 .4 0 .6-.1.4 0 1.1 0 1.2.3l-1.3.1s.3.1.7.2c.3.1.5.4.5.4h-.8c-.4 0-.8-.1-.8-.1v1.1c.2-.4.7-.8 1.1-.6.1 1.9-1.8 4-2.4 3.9v2.2c0 1.1-.1 2.2-.1 2.2-.4-.2-.4-1-.5-1.6.5 2.6-1.1.1-.7 2.4.3-.2.5.3.7.4-.8.8-1.4 3.2-1.5 4.9l-.5-.5c-.8 3.1-1.2 6.6-2.1 10.1.5-1.2 1.4-.6 1.2.4l-.9.2c.3.8.6-1 .8.6-.4 1.3-1.1.6-1.1-.2l-.1 1.6c-.2 0-.3-.4-.5-.6.3.8-1.4 2.5-.9 3.7h-.2c-.2.9-.4 1.6-.5 2.3-.1.3-.1.7-.2 1 0 .2-.1.3-.1.5l-.1.3-.1.4c-.3 1-.5 2-.8 3.1-.1.5-.3 1.1-.4 1.6l-.3 1.5c.3-.2.4.2.4.7v.8l1.2-.3h2.7l.6-.1c.4 0 .9-.1 1.3-.1.9-.1 1.8-.2 2.8-.3.6-.1 1.2-.2 1.9-.3 1.7-.5.5-.5 1.2-.9.2.4 2.7 0 1.5.5 3-.6 3.9-.7 7.7-1.7-.4-.1-.9-.1-.7-.3.7-.2 1.6 0 1.6.2l-.2.1c2.1-.7 4.7-.7 7.1-.7s4.8 0 6.4-.8l-.2.1 3.5-1c1.7-.1-.9.5.3.7 3.7-1.4 6.1-.6 9.2-1.6.7.4 1.6.5 2.6.5.5 0 1 0 1.6-.1.3 0 .6-.1.8-.1l.4-.1h.3c.5.2 1.1.4 1.6.6 1.1.5 2.1.9 2.8 1.6v-.6c1-.2 1 .7 1.6 1 0-.4-.8-.8-.2-.9 3.7.9 7.5 2.1 11.5 3.2s8.1 2.2 12.2 2.6c1.5.2 1.9-.9 2.3-1.7.5-.8 1-1.4 2.9-.6l-.9 1.5c1.5-.5 2.9-.8 4.4-1.1.7-.1 1.5-.3 2.3-.3l2.3-.4c3-.5 6.1-1.1 8.6-2.8-.2.5-.1 1-.6 1.1 1.6.9 4.5-1.4 4.1-2.4.9-.2.6.8 1.3 1.1 1.5.2 2.3-2.7 3.4-1.8.2.1-.1.5-.3.7.5-.9 3.6-1.5 2.2-2.5 1.2-.1 2-.8 2.9-1.4.8-.6 1.6-1.1 2.6-1.2 0-1 1-1.3 1.8-1.7.8-.3 1.4-.8.9-1.9.7 1.1 1.8 1 2.8.3 1-.6 1.8-1.8 2-2.7.1.9 1.5-.1 1.7 1.1 1.3-1 2.1-2.4 1-3.2 2.2.3 2.9-1.3 3.5-2.5.6-1.3 1.1-2.4 3.2-1.6 2.4-4.4 4.3-8.5 6.1-12.3 2.3 1.7-2.5 3.9-.1 5.5.8-2 1.1-3.8 1.4-5.5.4-1.7.8-3.2 2.1-4.8.9-.7.8 1.1 1 1.7.3-1 .7-1.9 1.1-2.8.4-.9.9-1.7 1.3-2.6.4-.9.8-1.7 1.1-2.6.3-.9.4-1.8.4-2.8.2.1.4.6.4 1 .2-.7 1-1.4-.2-1.8l.1.8c-1.1.2-1.8-.8-2.3-1.9-.5-1.1-1-2.3-1.4-2.5 3.2 2.3 2-2.9 5.9.3-.1-.5-.5-1.3-1.4-1.4.4-.6 1-.6 1.8.3 0-2.7-1.5-2.2-.9-4.4.6.2.7.7 1.4 1.1-.9-1.5-1.9-2.8-.9-4.6.4.2.9.1.8.6.2-1.7-.3-3.2-.8-4.7s-.7-3 0-4.7c2.7 1.3 1-1.1 3.4-1.2 0 0-.1-.5-.3-1-.2-.5-.3-1-.3-1l-1.2.7c.1-1.7-1.6-3.2-.8-4.7l1 1.3-.5-3.2-.9 1.8c-1.3-1.7-3 .2-2.4-2 .1.2.1-.2.3-.8.1-.6.4-1.3 1-1.8-.8-.8-1.6-1.5-1.2-2.8.7-.4 2.6 0 3.1-.3-1-.3-1.3-1.3-1.6-2.2-.3-1-.7-2-1.7-2.3.5.3 1.7.1 2-.1l-1.7-.4c.4-.8.6-1 1.5-1-.2-2.3-2.7 1.3-2-1.6.2.2.4 0 .7.4 0-2.9-2.2-4.9-2.3-7.5 1.9-1.4 1.2 1.9 2.8.6-.8-1.7-2-3.3-3.3-4.9-1.2-1.6-2.4-3.1-2.9-4.8l.1.7c-1.5.4-1.4-.3-1.3-1.3s.3-2.2-.7-2.6c.4.3 1.7-.2 1.4-.2-.4-1.2-1.2-2.2-2.3-3.2-1.1-1-2.3-2-3.7-3.3h.8c-.3-1.5-2-3.2-2.8-4.5-.8 0-1.3-.7-1.7.3-.1-2.9-2.1-4.2-4.1-5.4-.9-.6-1.9-1.1-2.7-1.8-.4-.3-.8-.7-1.1-1.1-.3-.4-.6-.9-.8-1.4.4.3 1.2.4.9.2 0 0-.8-.5-1.6-.9-.8-.5-1.6-.9-1.6-.9-.3.8.1.6.2 1.6-.6.1-1.7-.2-2.3-.7 1.6.5.8-1 .5-1.7-.1.3-.4.3-.5.5-.7-2.2-1.2 1-2.6-1.1l.3-.2c-.9-.4-1.8-.5-2.6-1.1.1-.9 1 .2 1.5-.3-.6-.3-1.4-.4-2.1-.5-.7-.1-1.3-.4-1.7-1 .6.1 1.3.6 2 .7-.7-1.5-1-1.3-1.8-1.9l.1.1-2-1.4.4.5c-2.4.7-3.4-1.3-6-1.4 2.5.1.6-.3 1-.8-.5-.4-1.3-.9-1-1-1.2 0-1.7-1-3.4-.9 0-.2-1.1-.4-.7-.7-1.5-.3.2.4 0 .5-1.2-.1-2.4-.6-3.8-1.1s-2.9-1-4.5-1c-2.8-.4-3.4-.1-5.9-.4-.8-.3.8-.2.8-.2-1.3-.4-2.4-.4-3.7-.5.3 0 0-.1-.4-.3-1.1-.1-.7.2-2.1 0 .2-.1.6-.2 1.1-.2-1.3 0-2.5 0-3.8.1-.3-.1.8-.2 1.2-.2-1.5 0-3.8 0-4.2.2h1c-.5 0-.3-.2.1-.2 1.2-.1 1.8.1 1.9.2h-.9c.9.4 3.7.1 5.5.3l-.9.2s.5 0 1-.1h1c.4.1.6.4-.3.3 1.3.4 1.2 0 2.3.4.1.1.1.1-.1.1h.6c.3 0 .6.1.6.1-.3 0 .2.3-.6.1 2.2.7 3.7.4 4.5 1h-.2c3.1.6.4-.3 2.8-.1 0 0 .3.4.6.7.3.4.6.7.6.7l.4-.3c.3.1.9.3.8.5 1.3.1-.1-.3.6-.3 1.4.9 4.2 1.3 4.2 2.2.7-.2-1.3-.9.4-.5.1 1.1 1.9.6 3 1.6-.6.3-1.7-.6-.6.5.6-.2 1.2.1 1.8.6.6.5 1.1 1.1 1.7 1.3.2-.4.8-.1 1.6.3.8.5 1.7 1.1 2.7 1.5-.3.2 2.9 2.6 4.1 4.1l-.1.3c.5-.4 1.1-.2 1.7.1.6.4 1.3.9 1.9 1.2-.5.6-.9.6-1.7.4l1 .9c.5-.1.9 0 1.7.5l-.9.5c.6.6 1.4 1 2.3 1.5.8.5 1.6 1.2 2.1 2.2.9-.7.7-3.3 3-2.1-.3.5-1 1.2-1.6.9.2.1.9.2 1 .7h-1.3c.4 1.1.9-.2 1.4.5-.6.6 0 .9-.6 1.2-.2-.1-.2-.8-.7-.8.5.8.9 2 .6 2.7.3-.4.9-.8 1.4-.3 1.1 1.3-.4 1.2-.2 2.3.7-.1.9 1.2 2 .4.3.4-.2.9-.3 1.3.5.2 1.1 1 1.7 1.6s1.1.9 1.4 0v-.3l.1.1c.7.4 1.2 1 1.7 1.6.4.6.7 1.4 1 2.1.6 1.5.8 3.1 1.8 4.2l-.5.3c1.3 1.3 2 3.3 3.6 4 .2.5-.5 1.5-1.2 1.6.9 1 1.5 1 1.3 3.1-1.4-.9-.7.7-1.1-1 .1 1.8-.6 2.4 1.4 3.7-1.6-.1-1.4 1.8-.8 2.4 0 0 .2-.4.4-.7.2-.4.3-.7.3-.7.5.8.5 1.6.6 2.4l-2 .1c-.4 1-.2 1.7.1 2.4.3.7.9 1.3 1.5 1.9 1.1 1.2 1.9 2.5 0 4.1 1.6.7.7-2 2.5-1.4 0 .8-.7 1.7-1.4 2.5s-1.4 1.4-1.4 1.6c-.5 1.1.3 1.5 1.1 2 .8.4 1.7.9 1.4 2.1.7-.3 2.8-.7 3.5 1-.3 1.7-3.1 2-3.8 1-.1-.4.2-.6.4-.6-.3-.5-.6-1.2-1.4-.5l.8.2c-.8.8-.7 2.9-1.9 2.4.7 1.2 1.2.5 1.6-.4-.6 1-.6 1.8-.6 2.6s0 1.6-.4 2.6c.4-.3 1.4-.5 1.3-.2-1.2 2.9 1.3 1.5 1.4 3.6-1.3 1-2.7-.8-2 1.4-1 1.1-2-.1-2.6-.6.6 1 .2 1.8-.4 2.5s-1.4 1.1-1.6 1.6c0 0-.1-.3-.2-.5-.1-.3-.2-.5-.2-.5.3.6.1 1.1 0 1.5l1.6-.2c-.4.5-.5.9-1.1.8.8.8 2.6.2 3.6 1.6-.9.6.2 2.5-1.9 2.2 1.3-2.1-2-.3-1.8-2.3.1.4 0 .9-.4 1.3-.2 0-.4-.2-.5-.4-2.3 1.6 2 1.7 1.1 3.9-1-.7-2.2-.2-2.1.2.3-.9 1.9.2 2.5 1.4-1.4 1.1 0 1.8-.4 2.5l.7-.7c.9.7.5 1.4.4 2.6-.8-.3-.2-1.2-.7-1 .7 1-.1 1.4-.9 1.8-.8.4-1.8.9-1.6 1.9-1 .3-1.9-.9-2.7-.5.5 2.3-2.2 1-2.1 3.3 1.5.3 1.3 0 1.9 2l.7-3.3.4 1.4c.2.7.4 1.5.4 1.5.5-.9.2-2.3.7-2.7.6 1.5.3 1.2 1.6 1.4-1.3.1-1.4.8-1.4 1.6s.1 1.8-1 2l-3.1-2c-1.3.5-1.4 1.7-1.6 2.9-.2 1.2-.3 2.6-1.6 3.5l1.1-.4c.9 1.2-1 1.6-1.2 2.8-.9-.8-1.6-.6-2.4-.8.7.5-1.4 1.6.1 3.4l-2-.1c-1 .7-.9 1.8-.9 2.9.1 1.1.2 2.3-.9 2.9-.3-1.4-1.6-1.3-1.1-3-.6.6-1.2.8-.7 1.5-.8-.3-.6 2.7-1.9 2.3.1.6.7 1.6-.1 2.1-.2-.1-.3-.4-.3-.4.3.4-.7 1.5.7 2-1-.3-1.9-.2-2.6.1-.8.3-1.4.9-2.1 1.4s-1.4 1-2.1 1.4c-.7.3-1.5.4-2.3 0-.7.6-1.4 1.2-2.2 1.8-.8.6-1.5 1.1-2.3 1.5 0-.3-.2-.5.1-.5-2.4 0 0 3.4-2.8 3.3-1.8-1.1.9-1.3-.1-1.6-.8-1.5-1.4-1.1-2.2-.5-.7.6-1.6 1.4-2.7.8l.3-.3c-.8-.3-1.4.3-2.1.9-.7.7-1.5 1.5-2.6 1.7 0 0 0-.3-.1-.5-1 2-3.6 3.1-5.6 3.9.5-1.3.8-.8.2-1.9-.9.3.6 1.9-1.2 2.5-.7-.6-2.1-.9-2.4-2.1l1.7-.3c-1.1-1.5-2.2.4-3.1.3v-.7c-2.5.6-2.5 2.3-5.4 2.3l.3.5c-1.6 1.7-1.3-.9-2.9.4l-.4-1.6c-1 .4-3.7 1.5-5.6 1.5 1.2-1 3.4-1.4 4.7-2.2-1 0-3.4.1-4 .8.4-.1 1-.5 1.4-.2-1.3 1.1-3.1 1.5-5.2 1.2.4-1.3-.9-1.6-2.4-1.9s-3.3-.7-3.8-1.7c-1.9.1-3.6-.4-5.3-1.1l-1.5-.6c-.4-.1-.8-.3-1.2-.3-.4 0-.8 0-1.3.1-1 .1-1.3.2-1.9.3-.5.1-1 .2-1.6.3 1.8 1.2-1.2.3-.7 1.8-1 .3-1.4.3-1.5.2l-1.6-.2c-.8-.1-1.6-.1-1.6-.1-.8-.3.9-.5.8-.8-2.2.3-1-.4-2.5-.5.4.4-.6.9-1.9.9l1.8.3c-2.9 1.3-2.8-.6-5.8.7l.9-.6c-1.5.6-5.8 1.2-7.2 2.4-.3-.1-.7-.3 0-.6-3.8.6-8.3 2.4-11.3 2.4l.2-.3c-.7.2-1.2.7-2.1.6 0-.1.2-.3-.1-.3-.4.2-1.8.8-2.8.8l.8-.4c-1.9.1-3.3.5-4.6 1-1.2.4-2.8 1-3.4 1.1.1-.4-.1-.7-.2-1 0-.1-.1-.2-.1-.3v-.1s0-.1.1-.1l.2-.1c.1-.1.1-.1.1-.2v-.1s-.1 0-.1-.1l-.2-.2-.1-.1v-.3l.1-.3c.4-1.8.7-3.5 1.1-5.5 1.9-2 3.4-7.8 5.6-11.4-.5.5-.9-.4-.8-1.1.6-.8 0-2.7 1.2-2.2l-.1.3c1.4-.3 1.9-2.2 2.5-3.6l-1.6-.8c1.9-1.5 2.7-3.9 3.3-6.3.1-.6.3-1.1.4-1.7 0-.1.1-.3.1-.4.1-.2.1-.4.2-.6.1-.4.3-.8.4-1.2.3-.7.5-1.4.8-2 .1-.3.3-.6.5-.9s.4-.6.4-.8c-.6-.7-1-1.5-1.5-2.3l-.2-.3.5-.5-.1-.1-.2-.3c-.2-.2-.4-.4-.6-.5l1.1-.5c-.6-2.4-.8-3.6-1.9-6.4l1.1.3c-.3-1.6-4.2-.8-4.8-2.4l1.9-1.1c-.4-1.4-.2-3-.3-4.5 0-1.5-.2-2.9-1.4-4.2.3 0 1 0 1.1.4-.1-1.4 1-5.4-2-4.7 1-.1 1-.9.7-1.8-.4-.9-1.1-2.1-1.5-2.9l1.5.2c-1.9-1.3-2.5-1.4-2.9-3.3.2-.5 1.2-.4.8.2.9-1.5-1.4-1.3-.5-3.1l.9.8c.3-1.6-.3-1.5-1.3-2.4-.6-1.1.7-3 2.1-3-.8-.3-1.8-1.4-1.2-2.2.5 0 .8.4.9.5.7-1.2.4-2.2.3-3.2-.2-.9-.3-1.8.6-2.5.5.1.7 0 .9-.1-.5 2-.9 3.6-1 3.5 1.3.3 1.9-1.3 3.5.4-.8-1.4-2.5-4.2-1.4-5.6.1 0 .3-.1.5-.1l.1.2c.2-.3.2-.7 0-1 .3-.4.6-.7.7-1.2 1.1.2 1-1.6 1.4-2.4-1.3-.4-.7-1.4-2.2-.8.1-.1.1.2 0 .8v.4l-.1-.1c-.1.5-.3 1.2-.5 2-.5-.9-.8-1.7.2-2.4-.7-.7-1.4-1.5-1.7-1.9 1.1-.2 2.1-.7 2.9-1.2s1.6-.8 2.1-.7l.3-2.1c.2-.7.4-1.4.5-2.1.3-1.4.4-2.8-.2-4.1.1-.8.9-.4 1.4-.5 0 .5-.3.9-.1 1.3.1-.8.6-1.8.9-2.7.3-.9.5-1.8 0-2.3 1.6-1.2.5 1.6 1.7-.7l.2.5c.6-.4 1-.8 1.3-1.3.4-.4.7-.9.9-1.4.2-.5.4-1 .6-1.6l.6-1.6c.2-.5.4-1.1.7-1.6l.9-1.5c.4-.5.8-.9 1.3-1.3s1.1-.8 1.8-1.1c-.4.2-.5.3-.7.2 1.3-1 2.5-2.1 3.7-3.3 1.3-1.1 2.5-2.3 3.8-3.3 2.6-2.2 5.5-4 8.5-5.3 1.7-.8 1.7-1.2 2.6-1.8l.5.1.8-.6.8-.6c2.5-1.3 4.6-1.2 7.8-2.7h-.5c1.2-.3 3.8-1.2 3.6-.9.1-.1.4-.2.9-.3l.1.1s.7-.2 1.5-.4c.4-.1.7-.2 1-.3.3-.1.5-.1.5-.1 2.4-.3-.3.4 3.1-.1 1.3-.2 3.6-.7 3.1-.7-.5.1-1.3.1-1.4 0l1.2-.2c.2-.3 1.1-.7-1.9-.5l-1 .2-1 .2h-.7s.4-.1.9-.1c.4-.1.9-.1.9-.1-1 0-1.6.2-2.3.4-.2 0-.5-.1-.9 0 0 0-.5.1-1 .3-.5.1-1 .3-1 .3-.3-.1.8-.4-.5-.2-.9.3.9.1-.6.5-1 .1-.7-.1-1.8.2-.2 0 0-.2.5-.3-1 .3-2.6.7-3.1 1-1.1 0-3.3 1-3.3.6-.1.1-.6.3-1 .5-.5.2-1 .5-1.5.7.7-.5-.1-.2-1.1.1-1 .3-2.1.8-2 .4-1 .9-4.3 1.9-6.2 3.2.1-.1.3-.3.5-.4-1.2.5-1.6.5-2.5.7.1.6-1.5 1.6-2.2 2.5-1.7.2.4-1.1-.4-1.4.2.2-.4.6-.8 1.1-.5.4-.9.8-.5.9-1.3.3-1 .4-1.9.2.4.9-.9.7-1.4 1.8-1.8.6-1-.5-2.4.8-1 .2.2-1.1.2-1.1zm-25.9 38.2c.1-.4.1-.7.2-1 0 .3-.1.5-.2 1zm-1 3.8c.2-.5.3-1 .5-1.6.5 0 1 .3.9.6-.4-.3-.9.5-1.4 1zm11.7-4.7c0 .6-.3.7-.6.7 0-.3.1-.6.1-1l-.1-.1c.2.1.4.2.6.4z"/><path id="XMLID_135_" class="st0" d="M157.1 190.7v-.3c-.1.1-.3.1-.4.2.1.1.2.2.4.3v-.2z"/><path id="XMLID_134_" class="st0" d="M277.3 173.3s0-.1.1-.2c-.1.1-.1.1-.1.2z"/><path id="XMLID_133_" class="st0" d="M151.4 248.7l.4-.1h-.3z"/><path id="XMLID_132_" class="st0" d="M265.7 155.9c0-.1 0-.2-.1-.4 0 .1.1.2.1.4z"/><path id="XMLID_131_" class="st0" d="M258.1 150.9l-1-.8c.4.4.7.7 1 .8z"/><path id="XMLID_130_" class="st0" d="M251.9 147.7c-.1.1-.2.1-.2.2l.2-.2z"/><path id="XMLID_129_" class="st0" d="M293.6 243.7v.3c0 .8.1.3 0-.3z"/><path id="XMLID_128_" class="st0" d="M295 209.2c.3.3.7.7.9 1 .1-.6.1-1.1-.9-1z"/><path id="XMLID_127_" class="st0" d="M271 276.2c-.1 0-.1.1-.2.1l.2-.1z"/><path id="XMLID_126_" class="st0" d="M295.9 211.8c.4-.6.2-1.1 0-1.6-.1.5-.2 1.1 0 1.6z"/><path id="XMLID_125_" class="st0" d="M222.5 141.7h-.3.3z"/><path id="XMLID_124_" class="st0" d="M222.1 141.7h-.4c.2 0 .4.1.4 0z"/><path id="XMLID_123_" class="st0" d="M221 141.8h.8c-.3-.1-.6-.1-.8 0z"/><path id="XMLID_122_" class="st0" d="M231.6 142.4l.1-.1s0 .1-.1.1z"/><path id="XMLID_121_" class="st0" d="M234.4 142.8c-.7-.1-1.6-.5-2.5-.5l-.1.1c.4-.2 1.9.5 2.6.4z"/><path id="XMLID_120_" class="st0" d="M245 147.4l-2.1-.9c.3.3.7.7-.2.4 2.5 1.5-.4-.6 2.3.5z"/><path id="XMLID_119_" class="st0" d="M251.3 150.7c-1.1-.5-.1.3-.2.4.7.2.9.2.2-.4z"/><path id="XMLID_118_" class="st0" d="M283.4 187.6l-1.4.5c.6.7.6-.3 1.4-.5z"/><path id="XMLID_117_" class="st0" d="M294 194.4l.6-1.2h-1.4z"/><path id="XMLID_116_" class="st0" d="M284.4 202.5l-.3-.4.8 1.4z"/><path id="XMLID_115_" class="st0" d="M254.7 270.7l1.1 1.3c.4-.5-.6-2.3-1.1-1.3z"/><path id="XMLID_114_" class="st0" d="M221.9 282.9c-.4-.6-1.4-1-2-.3.8 0 1.6.5 2 .3z"/><path id="XMLID_113_" class="st0" d="M158.1 258.9l.1.8.2-1.4z"/></g></g></g><g id="XMLID_57_"><path id="XMLID_1247_" class="st0" d="M202.7 248.9h-8.6v-5.7h-8.3v8.2h-8.6v-72.8h25.5v70.3zm-8.6-14.2v-47.5h-8.3v47.5h8.3zm38.6-44h-6.8v9.7h-8.8v-9.7h-11.7v-8.2h11.8v-11h8.8v11h6.8l-.1 8.2zm27.2 69.8h-8.8V255h-31.9v5.8h-9v-56.7h49.7v56.4zm-29.4-35.6v-12.4h-11.3v12.4h11.3zm0 21.5v-13.2h-11.3v13.2h11.3zm33.2-55.7h-11.9v9.6h-8.9v-9.6h-7v-8.2h7v-11.1h8.9v11.1h11.9v8.2zm-12.6 34.2v-12.4h-11.7v12.4h11.7zm0 21.5v-13.2h-11.7v13.2h11.7z"/><g id="XMLID_702_"><path id="XMLID_1237_" class="st1" d="M202.7 248.9h-8.6v-5.7h-8.3v8.2h-8.6v-72.8h25.5v70.3zm-8.6-14.2v-47.5h-8.3v47.5h8.3zm38.6-44h-6.8v9.7h-8.8v-9.7h-11.7v-8.2h11.8v-11h8.8v11h6.8l-.1 8.2zm27.2 69.8h-8.8V255h-31.9v5.8h-9v-56.7h49.7v56.4zm-29.4-35.6v-12.4h-11.3v12.4h11.3zm0 21.5v-13.2h-11.3v13.2h11.3zm33.2-55.7h-11.9v9.6h-8.9v-9.6h-7v-8.2h7v-11.1h8.9v11.1h11.9v8.2zm-12.6 34.2v-12.4h-11.7v12.4h11.7zm0 21.5v-13.2h-11.7v13.2h11.7z"/><g id="XMLID_1179_"><g id="XMLID_1180_"><g id="XMLID_1181_"><path id="XMLID_1236_" class="st0" d="M251.1 247c0-.1 0-.3-.1-.2l-.1.3.2-.1z"/><path id="XMLID_1235_" class="st0" d="M250.6 246.4c-.1.2-.2.4-.1.7.1-.3.1-.2.2-.6.1 0 .1.1.1.2 0-.1.1.1.2-.1-.1-.3-.2-.3-.3-.1-.1.1-.1 0-.1-.1z"/><path id="XMLID_1233_" class="st0" d="M240.1 245.6s.1 0 0 0c.1-.1 0-.1 0 0z"/><path id="XMLID_1231_" class="st0" d="M243.6 245.9l-.1-.1c0 .1 0 .1.1.1z"/><path id="XMLID_1230_" class="st0" d="M249.7 247.2c0-.1 0-.1 0 0z"/><path id="XMLID_1229_" class="st0" d="M245.5 245.6l.1-.1-.1.1z"/><path id="XMLID_1228_" class="st0" d="M247 245.6s0 .3-.1.4c0-.1 0-.2.1-.2v-.2z"/><path id="XMLID_1227_" class="st0" d="M249.3 246.1c.1-.1.1 0 0 0z"/><path id="XMLID_1226_" class="st0" d="M244.5 245.6c0-.1 0-.1 0 0z"/><path id="XMLID_1225_" class="st0" d="M252.4 244.6c0 .1 0 .1 0 0z"/><path id="XMLID_1224_" class="st0" d="M251.1 246.4l-.1-.1h-.1z"/><path id="XMLID_1223_" class="st0" d="M240.8 244c.1.1.1 0 0 0z"/><path id="XMLID_1222_" class="st0" d="M241.2 234.4c-.1-.3.2-.3 0-.6 0 .1-.2.4 0 .6z"/><path id="XMLID_1220_" class="st0" d="M241.2 233.8c0-.1 0-.1 0 0z"/><path id="XMLID_1219_" class="st0" d="M240.7 240.9h-.1.1z"/><path id="XMLID_1217_" class="st0" d="M240.3 239.7c0-.1 0-.1 0 0 0-.1 0-.1 0 0 0-.1 0-.1 0 0z"/><path id="XMLID_1216_" class="st0" d="M240.3 238.4s-.1 0 0 0z"/><path id="XMLID_1215_" class="st0" d="M252.3 240.8c-.1 0-.2 0-.3.1.3-.1.3.1.3-.1z"/><path id="XMLID_1214_" class="st0" d="M249.7 247c0 .1 0 .1 0 0 0 .1 0 .1 0 0z"/><path id="XMLID_1213_" class="st0" d="M238.1 239.6v-.2.2z"/><path id="XMLID_1212_" class="st0" d="M249.8 232.1c0-.1 0-.1 0 0z"/><path id="XMLID_1211_" class="st0" d="M238.1 238.8c.1 0 .2-.1.2-.1h-.1l-.1.1z"/><path id="XMLID_1205_" class="st0" d="M252.7 242.2c0-.2-.4-.1-.6-.1-.1-.2.3-.1.5-.2-.1-.1-.4-.3-.4-.4h.2c-.3-.2 0-.4-.4-.6h.1-.5c0-.1-.2-.2 0-.2 0 .1.1.1.2.1l-.1-.1c.3-.1.1.1.4.1-.1-.2-.4-.4-.3-.5.3 0 .1.3.4.1l-.1.2c.5-.2 0 .1.5 0 .1-.3-.2-.3-.1-.6-.2-.1-.3 0-.5 0-.3-.4.9-.3.4-.6-.2-.1-.7-.1-.4-.3l.4.1c0-.3-.6-.2-.3-.4.2 0 .1.2.2.2.3-.2-.2-.1-.2-.3h.3c-.1-.3-.3-.6-.4-.9.1 0 .2.1.3 0-.2-.4 0-.8.2-1.2l-.3-.1s.1-.1.2 0c.1-.1-.2 0-.3-.1 0-.1.2-.1.3-.1-.2-.3-.5-.7-.2-1l.1.1c.1-.2-.6-.2-.3-.5l.1.1c.1-.4 0-.7 0-1.1 0-.4 0-.7.3-1.2-.2.1-.2-.1-.1-.4-.1 0-.3 0-.6.3-.2-.3 0-.4-.5-.6-.2 0-.4.4-.7.4l.1-.3-.2.2-.2.2v-.4l-.2.1c.1 0 .1.1.1.2-.2.1-.3 0-.5-.1-.1-.1-.2-.2-.2-.3l-.4.3c0-.1.1-.2.1-.2-.2.3 0-.3-.3 0v.2c-.1-.2-.3-.2-.5-.1v-.2c-.3-.1-.7.1-1 .1.1.1.1.5 0 .5v-.3c-.1.2.1.1 0 .4-.1 0-.1-.4 0-.5l-.2.1v-.3c-.1.2-.3-.3-.4 0v-.1c-.4 0-.5.1-.8.1 0 .3-.1.2-.2.4-.2-.1-.4-.3-.7-.3-.2.1-.1.2-.1.4 0-.3-.3-.2-.1-.4-.3 0-.4.1-.8.3 0 .1.1.2.1.2-.1 0-.2-.1-.2-.2-.4.4-1-.7-1.4-.2l-.4.3c-.2 0 .1-.2 0-.4-.4.4-.6-.1-.9.2 0-.1-.1-.2-.1-.2-.1-.1-.2-.1-.3-.1h-.6c-.4 0-.8.1-1.3-.1l.2.2c0 .2-.3-.1-.4-.1.1.1.3.2.3.3-.2 0-.4.1-.6.1 0 .5-.1 1-.2 1.5l-.2.8-.1.4-.1.2c0 .3.9.2.5.5l-.3-.1c.4.6 0 1.1.3 1.7-.1 0-.2 0-.2-.1-.2.1 0 .4.2.4 0 .1-.2 0-.3.1-.1.1.3.3.1.4 0 0-.1 0-.1-.1.1.1 0 .4.2.3-.1.2.1.4 0 .6.3.1-.1.3.3.4-.5 0-.4.4-.2.5-.1 0-.1.1-.3.1 0 .1.1.3.3.3-.5.3.4.5-.3.7.2.4.4.8.5 1.2-.5 0 0-.4-.5-.4.2.4.6.6.5 1-.1.1-.2-.1-.3-.1.2.4 0 .7.2 1.1 0 0-.1 0-.1-.1 0 .1-.1.2.1.1l-.1-.1c.3-.1.6.3.8.3-.6-.1-.1.3-.9.2 0 0 .1.1.3.1 0 .1-.1.1-.3 0 .1.2.3.2.3.4-.1 0-.1 0-.3-.1.2.1.4.2.3.4h-.1c0 .1 0 .1.1.2 0 .1.1.2.2.3.1.2.2.3.1.6-.4 0-.1.2-.5.4l.1.2.2-.2c0 .3.3.2.1.5h-.2l.1.4.1-.4c.2 0 .5-.4.4-.1v.1s.1.1 0 .2c.2-.1.4-.2.5-.2 0 .1-.3.4-.4.5.3-.3.6-.1.9-.4-.1.1-.2.3-.2.3l.2-.3c.1.1.1.1 0 .3.3 0 .1-.5.3-.3 0 0 0 .1-.1.1.2.1.3 0 .5 0s.3-.1.4 0c.1.4-.2.1-.1.4.4-.1.7-.5 1.1-.4h-.1c0-.5.3.3.4 0 0 0-.1.3 0 .2.2.1.5-.1.8-.3v.1c.1.1.4.1.5.1 0-.1.1-.1.1-.3.5.8.9-.4 1.3.2l-.1.1.3-.1c0-.2 0-.1-.1-.3 0-.1.1-.2.2-.2-.2.2 0 .4.1.5v-.2c.2.4 0-.5.3-.2v.1c.1-.1.2-.2.3-.2 0 .3-.1.1-.1.3.1 0 .3-.5.4-.2-.1.1-.1.1-.2.1.1.3.2.2.3.3l.2.1-.1-.1c.2-.7.4-.1.6-.6-.2.4 0 .3-.1.6.1.1.2.2.1.3.1-.2.2.2.3-.2 0 .1.1 0 .1.3.1-.1 0-.2 0-.3.2-.3.5.4.8-.1.3-.2.3-.5.6-.7.1.2-.1.4-.1.4.1.1.2.1.4 0v.3c.1 0 .1-.4.2-.2 0 .1-.1.3-.1.4.1-.1.2-.3.4-.4 0 .2-.1.3-.1.4.1-.1.4-.2.4-.4l-.1-.1c.1 0 0 .2 0 .3-.1.2-.2-.1-.2-.2l.1-.1c-.1-.6-.4.1-.6.1l.1-.4-.2.3c0-.1-.1-.3 0-.4-.1-.2-.1.1-.2-.1v-.1l-.1.1c0-.1 0-.3.1-.2-.2-.2-.4.3-.5 0-.3.1 0 .3-.3.7l-.2-.8v.3s-.1 0-.1-.2c-.1.2 0 .1-.1.3-.2-.3-.4.1-.5-.4-.1.2.2.2 0 .3 0-.5-.2.1-.3-.2 0-.3.2-.1 0-.4-.1.5-.3-.1-.4 0 0 .4-.3.2-.5.3 0-.1-.4-.2-.6-.3v-.1c0 .4-.2.3-.4.4 0-.2 0-.3.1-.4h-.1c0 .1-.1.2-.2.2v-.3c-.2 0-.4.3-.6.1 0 .3.2.7-.1.9v-.4l-.1.1.1-.2c-.1-.1-.1.2-.1.2 0-.2-.1-.1-.1-.3 0 0 .1.1.1 0-.1 0-.2-.2-.2-.3 0 .1 0 .3-.1.3-.2 0-.1-.2-.2-.3 0 .1-.2 0-.2.3-.1 0-.1-.1-.1-.2-.1.1-.4 0-.3.4-.3.3-.6-.2-.9 0v-.1c-.2.1-.4.1-.5.3-.1 0-.1-.2-.1-.3-.1.1-.2.2-.4 0 .1-.2 0-.2.1-.1-.2-.1-.2-.2-.4 0 .1-.3-.1-.3-.2-.2l.1.2h-.3v-.3c-.1-.2-.1 0-.3.1-.1.1-.3.2-.1-.1-.2.2 0 .2-.2.4-.1 0 .1-.5.1-.5.1-.2-.5.5-.5.4l-.1.1c-.1.1-.1.2-.2.2-.1.1-.2.1-.2.1 0-.2.5-.6.6-.6 0 0 0 .1-.1.1 0 0 .1 0 .2-.2l-.1.1c.1-.2.1-.2.3-.4-.1 0-.2.1-.3.2.2-.2 0-.2.1-.3-.1 0-.2.1-.2.1.1-.2-.2 0-.3-.1.2-.1.4-.1.3-.2.1-.1.3 0 .4 0-.2 0 .2-.2.2-.3l.1.1c-.1-.1-.1-.1-.1-.2l-.2.1c0-.1 0-.1.1-.1-.2-.1-.4 0-.6-.1.1-.1-.1-.3.2-.3-.1.3.3 0 .4.2v-.2h.1c.3-.3-.4-.1-.3-.4.2 0 .3-.1.3-.1 0 .1-.3.1-.4 0 .1-.2-.1-.2-.1-.3l-.1.1c-.2 0-.2-.1-.2-.2.1 0 .1.1.2.1-.3-.1.3-.3.1-.5.1-.1.3 0 .4-.1-.2-.2.2-.2.1-.4-.2.1-.2.1-.4-.1l.2.4-.3-.2c0 .1.2.2.1.3-.2-.1-.1-.1-.3 0 .4-.1-.2-.3 0-.5h.6c.3-.3-.3-.4-.2-.8l-.1.1c-.2 0 0-.2-.1-.3.2 0 .3-.1.4-.1-.1 0 0-.2-.4-.3l.3-.1c.1-.3-.6-.3-.5-.6.2.1.4 0 .5.1 0-.1 0-.2-.1-.2.1 0-.3-.2-.1-.3-.1 0-.3 0-.3-.1h.1c-.1 0-.1-.1-.4-.1.6-.3 0-.7.5-1-.1-.2-.1-.4-.1-.6h.1c.2-.2-.6-.1-.4-.4.3-.1.2.1.3.1.6 0-.1-.3.3-.5.2-.1-.2-.3-.2-.6h.1c-.3-.2-.4-.4-.5-.7.3.1.1.1.4.1 0-.1-.4 0-.5-.2.1-.1.3-.2.5-.2v.2c.4-.1 0-.2 0-.3h.2c-.1-.3-.4-.3-.4-.6h-.1c-.4-.2.2-.1-.1-.2h.4c-.1-.1-.4-.3-.5-.5.3.2.4.4.6.5 0 0 0-.2-.2-.3l.1.1c-.3-.2-.5-.4-.5-.6.5.4.4.2.5.1.1 0 .2.1.4.3-.1-.1.1-.1.2-.1.1.1.2.1.2.1-.1-.6 0 0 0-.6h.1l.3.4c.1.2-.1.1-.1.3.2 0 .1.3.2.4 0-.2.1-.3.2-.2l-.2-.3c.3-.3.3.5.6.2l-.1.2c.2-.1.6 0 .8-.5 0 .1.1.2 0 .3.4.1.9-.5 1.2-.2v.1c.1 0 .1-.3.2-.1v.2c0-.1.2-.3.3-.2l-.1.2c.4.2.6-.4.9-.5 0 .4.3.6.4.7v.1c.4.1.7-.4 1.1-.5.3.5.8.2 1.3.5-.1-.1 0-.3.1-.4.1.1.3-.3.2.1.1.4.3.3.4.3v-.5c.2.4.5.3.6.2.1-.1.2-.2.1.2.1-.1.1-.1.2-.3l-.2.3c0 .1 0 .1.1.1l-.2.2s.8-.7.8-.6l-.4.3c0 .1-.1.2-.1.2 0 .1 0 .1.2.1h-.2v.1c0 .1.1.2.4.2-.4 0 0 .3.1.5h-.3c.4.1.5.2.6.4h-.2c-.1.2.3.1.1.3l-.2-.1c0 .2.1.2.3.2.1.1-.1.3-.3.3.2 0 .4.1.3.2h-.2c-.2.3.3.4.1.6h-.2v-.4c-.3 0-.3.2-.7 0 .2.1.6.4.5.6h-.1v.1c0 .1-.1.1-.1.1-.2 0-.1.2-.1.3.3 0 .2.1.5 0v-.3c.1.1.3.1.1.2.2 0 .4.1.5.1-.4.1-.6.4-.8.4.2.3.1.6.6.8.1.1-.2.1-.2.1-.1 0 0-.1-.1-.1.1.2.1.5.4.5-.2.2-.3-.1-.3.2h-.1c-.6.5.9.9.2 1.4l.1-.1c-.3.7.3 1.4-.2 2-.1.2.1.2.3.3h-.3l.3.2c.3.3-.7.5-.3.8h.2c0 .1.1.4-.1.4 0 0 .2 0 .1.1h-.2l.3.3c-.1.2-.6 0-.7.3.1.1.5.4.6.3 0-.1.1-.1.3-.1l.1.1c.5 0 .9.1 1.3-.2l-.3-.2.2-.1v.2c.2-.1 0-.2-.1-.2.1 0 .2 0 .2-.1l-.4-.2c.2 0 .4.1.5 0-.2-.1-.4.1-.5-.1.2-.1.4-.1.2-.2.1 0 .2 0 .2.1-.1-.1-.1-.3-.3-.3.3-.1-.1-.3.4-.3-.1 0-.3-.2-.4-.3.5.2 0-.4.6-.3-.5-.1-.2-.5-.5-.7 0 0 .1 0 .1.1 0-.1.2-.2.3-.2-.4 0-.5-.2-.7-.3.4-.2.5.1.8 0-.3 0-.3-.3-.6-.2.2-.1.1-.1.4-.2-.5 0-.1-.1-.4-.2.2-.2.5 0 .3-.2.8-.3 1-.1 1-.1zm-.8-4.5c0 .1 0 .1 0 0 0 .1 0 .1 0 0zm0-.4v.2h-.2l.2-.2zm-2 .8c.1-.1.1 0 .1 0 0 .1 0 0-.1 0z"/><path id="XMLID_1204_" class="st0" d="M250.3 238.2s0 .1 0 0c0 .1.1 0 0 0z"/><path id="XMLID_1203_" class="st0" d="M243.7 245.9s0 .1 0 0c0 .1 0 0 0 0z"/><path id="XMLID_1202_" class="st0" d="M250.5 231.9v.1l.1-.1z"/><path id="XMLID_1201_" class="st0" d="M245.7 246.9c.1.1 0 0 0 0z"/><path id="XMLID_1200_" class="st0" d="M246.6 247l.1.1c0-.1 0-.1-.1-.1z"/><path id="XMLID_1198_" class="st0" d="M238.4 243.3s0-.1 0 0c-.1-.1-.1-.1 0 0z"/><path id="XMLID_1197_" class="st0" d="M239.3 246.8c-.1.1-.2.1-.3.1.1 0 .1 0 .3-.1z"/><path id="XMLID_1195_" class="st0" d="M238.9 246.8v.2-.2z"/><path id="XMLID_1192_" class="st0" d="M250.4 247.1c0 .1 0 .1 0 0z"/><path id="XMLID_1191_" class="st0" d="M249.4 247.1v.1-.1z"/><path id="XMLID_1190_" class="st0" d="M249.1 247.1c.1 0 .2.2.3.2v-.1c-.1.2-.2-.2-.3-.1z"/><path id="XMLID_1189_" class="st0" d="M247.9 245.9l.2.1c0-.1-.1-.3 0-.3-.2-.4.1.2-.2.2z"/><path id="XMLID_1188_" class="st0" d="M247.2 245.7c.1-.1 0-.2 0-.2 0 .1-.1.1 0 .2z"/><path id="XMLID_1187_" class="st0" d="M242 245.7v-.3.3z"/><path id="XMLID_1186_" class="st0" d="M241 247l.1.2v-.2h-.1z"/><path id="XMLID_1185_" class="st0" d="M240.9 245.2l-.1.1z"/><path id="XMLID_1184_" class="st0" d="M240.5 238.6h-.3c.1.1.4.1.3 0z"/><path id="XMLID_1183_" class="st0" d="M240.2 234.9c.2-.1.3-.1.1-.1 0 0-.1 0-.1.1z"/><path id="XMLID_1182_" class="st0" d="M249.1 234.4l-.1.1h.2z"/></g></g></g><g id="XMLID_1121_"><g id="XMLID_1122_"><g id="XMLID_1123_"><path id="XMLID_1178_" class="st0" d="M251.1 225.6c0-.1 0-.3-.1-.2v.3l.1-.1z"/><path id="XMLID_1177_" class="st0" d="M250.7 225c-.1.2-.2.4-.1.7.1-.3.1-.2.2-.6.1 0 .1.1.1.2 0-.1.1.1.1-.1-.1-.3-.2-.3-.3-.2-.1.1-.1.1 0 0z"/><path id="XMLID_1176_" class="st0" d="M243.8 224.5c.1 0 0 0 0 0z"/><path id="XMLID_1175_" class="st0" d="M240.2 224.3s.1 0 0 0c0-.1 0 0 0 0z"/><path id="XMLID_1173_" class="st0" d="M243.8 224.5l-.1-.1c0 .1.1.1.1.1z"/><path id="XMLID_1172_" class="st0" d="M249.7 225.8s.1-.1 0 0c.1-.1 0-.1 0 0z"/><path id="XMLID_1171_" class="st0" d="M245.7 224.2l.1-.1-.1.1z"/><path id="XMLID_1170_" class="st0" d="M247.1 224.2s0 .3-.1.4c0-.1 0-.2.1-.2v-.2z"/><path id="XMLID_1169_" class="st0" d="M249.4 224.7c0-.1 0-.1 0 0z"/><path id="XMLID_1166_" class="st0" d="M251.1 224.9h-.2z"/><path id="XMLID_1165_" class="st0" d="M240.8 223c.1.1.1.1 0 0z"/><path id="XMLID_1164_" class="st0" d="M241.1 213.7c-.1-.3.2-.3 0-.6 0 .1-.1.4 0 .6z"/><path id="XMLID_1163_" class="st0" d="M249.7 225.8s-.1 0 0 0c-.1 0 0 0 0 0z"/><path id="XMLID_1161_" class="st0" d="M240.7 220h-.1.1z"/><path id="XMLID_1160_" class="st0" d="M240.3 222.3c0-.1 0-.1 0 0z"/><path id="XMLID_1159_" class="st0" d="M240.3 218.8c0-.1 0-.1 0 0z"/><path id="XMLID_1158_" class="st0" d="M240.3 217.6s-.1 0 0 0z"/><path id="XMLID_1157_" class="st0" d="M252.3 219.6c-.1 0-.2 0-.3.1.3-.1.3.1.3-.1z"/><path id="XMLID_1155_" class="st0" d="M238.1 218.8v-.2.2z"/><path id="XMLID_1153_" class="st0" d="M238.1 218c.1 0 .2-.1.2-.1h-.1l-.1.1z"/><path id="XMLID_1147_" class="st0" d="M252.7 220.9c0-.2-.4-.1-.6-.1-.1-.2.3-.1.5-.2-.1-.1-.4-.2-.4-.3h.2c-.3-.1 0-.4-.4-.6h.1-.5c0-.1-.2-.2 0-.2 0 .1.1.1.2.1l-.1-.1c.3-.1.1.1.4.1-.1-.2-.4-.4-.3-.5.3 0 .1.3.4.1l-.1.2c.5-.2 0 .1.5 0 .1-.3-.2-.3-.1-.6-.2-.1-.3 0-.5 0-.3-.4.9-.3.4-.6-.2-.1-.7-.1-.4-.3l.4.1c0-.3-.6-.1-.3-.4.2 0 .1.2.2.2.3-.2-.2-.1-.2-.3h.3c-.1-.3-.3-.6-.4-.9.1 0 .2.1.3 0-.2-.4 0-.8.2-1.2l-.3-.1s.1-.1.2 0c.1-.1-.2 0-.3-.1 0-.1.2-.1.3-.1-.2-.3-.5-.7-.2-1l.1.1c.1-.4-.6-.3-.3-.6h.1c.1-.7-.1-1.2.2-2.1v-.1c-.3.2-.4.2-.5.1-.2 0-.3 0-.5.3-.2-.3 0-.4-.6-.6-.2 0-.4.4-.6.4v-.3l-.3.3s0-.1-.1-.2c0-.1-.1-.2-.1-.2l-.1.1s.1.1.1.2c-.2.1-.4-.2-.4-.4l-.4.3c0-.1.1-.2.1-.2-.2.3 0-.3-.2 0v.2c-.1-.2-.3-.2-.5-.1v-.2c-.3-.1-.6.1-1 .1.1.1.1.5 0 .5v-.3c-.1.2.1.1 0 .4-.1 0-.1-.4 0-.5l-.2.1v-.3c-.1.2-.3-.3-.4 0v-.1c-.3 0-.5.1-.8.1 0 .3-.1.2-.2.4-.2-.1-.4-.3-.7-.3-.2.1-.1.2-.1.4 0-.3-.3-.2-.1-.4-.3 0-.4.1-.8.3 0 .1.1.2.1.2-.1 0-.2-.1-.1-.2-.4.4-1-.7-1.3-.2l-.4.3c-.2 0 .1-.2 0-.4-.4.4-.6-.1-.9.2-.1-.4-.6-.4-1-.3-.4 0-.8.1-1.2-.1l.2.2c0 .2-.3-.1-.4-.1.1.1.3.2.3.3-.2 0-.4.1-.6.1 0 .5-.1 1-.2 1.5l-.2.8-.1.4-.1.2c0 .3.9.2.5.5l-.3-.1c.4.5 0 1.1.3 1.6-.1 0-.2 0-.2-.1-.2.1 0 .4.2.4 0 .1-.2 0-.3.1-.1.1.3.3.1.3 0 0-.1 0-.1-.1.1.1 0 .3.2.3-.1.2.1.4 0 .5.3.1-.1.3.3.4-.5 0-.4.3-.2.5-.1 0-.1.1-.3.1 0 .1.1.3.3.2-.5.3.4.5-.3.7.2.4.4.8.5 1.2-.5 0 0-.4-.5-.4.2.4.6.6.5.9-.1.1-.2-.1-.3-.1.2.4 0 .7.2 1 0 0-.1 0-.1-.1 0 .1-.1.1.1.1l-.1-.1c.3-.1.6.3.8.3-.6-.1-.1.3-.9.1 0 0 .1.1.3.1 0 .1-.1.1-.3 0 .1.2.3.1.3.4-.1 0-.1 0-.3-.1.2.1.4.2.3.5h-.1c0 .5.5.6.3 1.1-.4.1-.1.2-.5.5l.1.2.2-.3c0 .2.2.2.2.3h.1l-.2.1.4-.1-.1-.1c.4-.2.4-.5.6-.4-.1 0 .2 0 .1.2.2-.1.3-.2.4-.2 0 .1-.2.4-.3.5.3-.3.6-.1.8-.4-.1.1-.1.3-.1.3l.1-.3c.1.1.1.1 0 .3.3 0 0-.5.3-.3 0 0 0 .1-.1.1.3.1.5-.2.8 0 .1.4-.2.1-.1.4.3-.1.7-.5 1-.4h-.1c0-.5.2.3.4 0 0 0-.1.3 0 .2.2.1.5-.1.8-.3v.1c.1.1.3.1.5.1 0-.1.1-.1.1-.3.4.8.8-.4 1.2.2l-.1.1.3-.1c0-.2 0-.1-.1-.3 0-.1.1-.2.2-.2-.2.2 0 .4.1.5v-.2c.2.4 0-.5.3-.2v.1c.1-.1.2-.2.3-.2 0 .3-.1.1-.1.3.1 0 .3-.5.4-.2-.1.1-.1.1-.2.1.1.3.1.2.2.3l.2.1-.1-.1c.2-.7.3-.1.6-.6-.2.4 0 .3-.1.6.1.1.1.2.1.3.1-.2.2.2.3-.2 0 .1.1 0 .1.3.1-.1 0-.2 0-.3.2-.3.5.4.8-.1.3-.2.3-.5.6-.7.1.2-.1.4-.1.4.1.1.2.1.4 0v.3c.1 0 .1-.4.2-.2 0 .1-.1.3-.1.4.1-.1.2-.3.4-.4 0 .2-.1.3-.1.4.1-.1.4-.2.4-.4l-.1-.1c.1 0 0 .2 0 .3-.1.2-.2-.1-.2-.2l.1-.1c-.1-.6-.4.1-.5.1l.1-.4-.2.3c0-.1-.1-.3 0-.4-.1-.2-.1.1-.2-.1v-.1l-.1.1c0-.1 0-.3.1-.2-.2-.2-.4.3-.4 0-.3.1 0 .3-.3.7l-.2-.8v.3s-.1 0-.1-.2c-.1.2 0 .1 0 .3-.2-.3-.4.1-.5-.4-.1.2.1.2 0 .3 0-.5-.2.1-.3-.2 0-.3.2-.1 0-.4-.1.5-.3-.1-.4 0 0 .4-.3.2-.5.3 0-.1-.4-.2-.6-.3v-.1c0 .4-.2.3-.4.4 0-.2 0-.3.1-.4h-.1c0 .1-.1.2-.2.2v-.3c-.2 0-.4.3-.6.1 0 .3.2.7-.1.9v-.4l-.1.1.1-.2c-.1-.1-.1.2-.1.2 0-.2-.1-.1 0-.3 0 0 .1.1.1 0-.1 0-.2-.2-.2-.3 0 .1 0 .3-.1.3-.2 0-.1-.2-.2-.3 0 .1-.2 0-.2.3-.1 0-.1-.1-.1-.2-.1.1-.4 0-.3.4-.3.3-.6-.2-.9 0v-.1c-.2.1-.4.1-.5.3-.1 0-.1-.2-.1-.3-.1.1-.1.2-.3 0 .1-.2 0-.2.1-.1-.2-.1-.2-.2-.4 0 .1-.3-.1-.3-.2-.2l.1.2h-.3v-.3c-.2-.2-.4 0-.4.1-.1.1-.2.2-.2-.1-.1.2 0 .2-.1.4-.1 0 0-.5 0-.5 0-.2-.4.5-.4.4-.1.1-.3.4-.5.5-.1 0 .3-.5.5-.6v.1c.1 0 .1-.1.2-.2l-.1.1v-.2l.2-.2-.3.3c.2-.3 0-.2.1-.3l-.2.2c.1-.3-.2.1-.3-.1.2-.2.4-.2.3-.2.1-.1.3-.1.4-.1-.2 0 .2-.1.2-.1h.1-.3.1c-.2-.1-.4 0-.6-.1.1-.1-.1-.2.2-.3-.1.3.3 0 .4.2v-.2h.1c.3-.2-.4-.1-.3-.4.2 0 .3-.1.3-.1 0 .1-.3 0-.4 0 .1-.2-.1-.2-.1-.3l-.1.1c-.2 0-.2-.1-.2-.2.1 0 .1.1.2.1-.3-.1.3-.3.1-.5.1-.1.3 0 .4-.1-.2-.2.2-.2.1-.4-.2.1-.2.1-.4-.1l.2.3-.3-.2c0 .1.2.2.1.3-.2-.1-.1-.1-.3 0 .4-.1-.2-.3 0-.4h.6c.3-.2-.3-.4-.2-.8l-.1.1c-.2 0 0-.2-.1-.3.2 0 .3-.1.4-.1-.1 0 0-.2-.4-.3l.3-.1c.1-.3-.6-.3-.5-.5.2.1.4 0 .5.1 0-.1 0-.2-.1-.2.1 0-.3-.2-.1-.3-.1 0-.3 0-.3-.1h.1c-.1 0-.1-.1-.4-.1.6-.3 0-.7.5-.9-.1-.2-.1-.4-.1-.6h.1c.2-.2-.6-.1-.4-.4.3-.1.2.1.3.1.6 0-.1-.3.3-.5.2-.1-.2-.3-.2-.5h.1c-.3-.1-.4-.4-.5-.6.3.1.1.1.4.1 0-.1-.4 0-.5-.2.1-.1.3-.2.5-.2v.2c.4-.1 0-.2 0-.3h.2c-.1-.3-.4-.3-.4-.5h-.1c-.4-.1.2-.1-.1-.2h.4c-.1-.1-.4-.3-.5-.5.3.2.4.4.6.5 0 0 0-.2-.2-.3l.1.1c-.3-.2-.5-.4-.5-.6.5.4.4.2.5.1.1 0 .2.1.4.3-.1-.1.1-.1.1-.1.1.1.2.1.2.1-.1-.6 0 0 0-.6h.1l.3.4c.1.2-.1.1-.1.3.2 0 .1.3.2.4 0-.2.1-.3.2-.2l-.2-.3c.3-.3.3.5.6.2l-.1.2c.2-.1.6 0 .7-.5 0 .1.1.2 0 .3.4.1.8-.5 1.1-.2v.1c.1 0 .1-.3.2-.1v.2c0-.1.2-.3.3-.2l-.1.2c.4.2.6-.4.9-.5 0 .4.3.6.4.7v.1c.4.1.7-.4 1.1-.5.2.5.8.2 1.2.5-.1-.1 0-.3.1-.4.1.1.3-.3.2.1.1.4.3.3.4.3v-.5c.4.8 1.1-.3 1 .4.1-.1.1-.1.2-.3l-.1.3c0 .1 0 .1.1 0l-.2.2s.6-.7.8-.8l-.4.4-.1.2c0 .1 0 .1.2.1-.1 0-.2.1-.2.1 0 .1-.3.1.3.1-.2 0-.2 0-.1.1l.3.3h-.3c.4.1.5.1.6.3h-.2c-.1.2.3.1.1.3l-.2-.1c0 .2.1.1.3.2.1.1-.1.3-.3.3.2 0 .4.1.3.2h-.2c-.2.3.3.4.1.6h-.2v-.4c-.3 0-.3.2-.7 0 .2.1.6.4.5.5h-.1v.1c0 .1-.1.1-.1.1-.2 0-.1.2-.1.3.3 0 .2.1.5 0v-.3c.1.1.3.1.1.2.2 0 .4.1.5.1-.4.1-.6.3-.8.4.2.3.1.6.6.8.1.1-.2.1-.2.1-.1 0 0-.1-.1-.1.1.2.1.4.4.5-.2.2-.3-.1-.3.2h-.1c-.6.5.9.8.2 1.4l.1-.1c-.3.6.3 1.3-.2 2-.1.2.1.2.3.3h-.3l.3.2c.3.3-.7.5-.3.8h.2c0 .1.1.4-.1.4 0 0 .2 0 .1.1h-.2l.3.3c-.1.2-.6 0-.7.3.1.1.5.4.6.3 0-.1.1-.1.3-.1l.1.1c.5 0 .9.1 1.3-.2l-.3-.2.2-.1v.2c.2-.1 0-.2-.1-.2.1 0 .2 0 .2-.1l-.4-.2c.2 0 .4.1.5 0-.2-.1-.4.1-.5-.1.2-.1.4-.1.2-.2.1 0 .2 0 .2.1-.1-.1-.1-.3-.3-.3.3-.1-.1-.3.4-.3-.1 0-.3-.2-.4-.3.5.2 0-.3.6-.3-.5-.1-.2-.4-.5-.7 0 0 .1 0 .1.1 0-.1.2-.2.3-.2-.4 0-.5-.2-.7-.3.4-.1.5.1.8 0-.3 0-.3-.3-.6-.2.2-.1.1-.1.4-.2-.5 0-.1-.1-.4-.2.2-.2.5 0 .3-.2.3.2.5.4.5.4zm-.8-4.3zm0-.4v.2h-.2c0-.1.1-.1.2-.2zm-2 .8c0-.1 0-.1 0 0 .1-.1.1 0 .1 0h-.1z"/><path id="XMLID_1146_" class="st0" d="M250.3 217.1s.1 0 0 0z"/><path id="XMLID_1142_" class="st0" d="M246.8 225.6l.1.1-.1-.1z"/><path id="XMLID_1141_" class="st0" d="M247.4 225.7v-.1.1z"/><path id="XMLID_1140_" class="st0" d="M238.4 222.3c-.1-.1-.1 0 0 0z"/><path id="XMLID_1139_" class="st0" d="M239.7 225.4c-.1.1-.2.1-.2.1s.1 0 .2-.1z"/><path id="XMLID_1137_" class="st0" d="M239.3 225.5c0 .1.1 0 .2 0-.1 0-.1-.1-.2 0z"/><path id="XMLID_1135_" class="st0" d="M250.3 225.8c.1 0 0 0 0 0z"/><path id="XMLID_1134_" class="st0" d="M250.5 225.7c-.1.1-.1.1 0 0z"/><path id="XMLID_1132_" class="st0" d="M249.2 225.7c.1 0 .2.2.2.2v-.1c0 .1-.2-.3-.2-.1z"/><path id="XMLID_1131_" class="st0" d="M248 224.5l.2.1c0-.1-.1-.3 0-.3-.2-.4.1.2-.2.2z"/><path id="XMLID_1130_" class="st0" d="M247.3 224.3c.1-.1 0-.2 0-.2v.2z"/><path id="XMLID_1129_" class="st0" d="M242.3 224.3v-.3c-.1.1 0 .1 0 .3z"/><path id="XMLID_1128_" class="st0" d="M241.3 225.6l.1.2.1-.3z"/><path id="XMLID_1127_" class="st0" d="M241 223.8l-.1.1z"/><path id="XMLID_1126_" class="st0" d="M240.5 217.8h-.3c.1.1.4.1.3 0z"/><path id="XMLID_1125_" class="st0" d="M240.2 214.2c.2 0 .3-.1.1-.1 0 0-.1 0-.1.1z"/><path id="XMLID_1124_" class="st0" d="M248.8 213.8l-.1.1.2-.1z"/></g></g></g><g id="XMLID_1063_"><g id="XMLID_1064_"><g id="XMLID_1065_"><path id="XMLID_1120_" class="st0" d="M263.1 190.7c.1.1.3 0 .2-.1l-.3-.1.1.2z"/><path id="XMLID_1119_" class="st0" d="M263.7 189.6c-.2-.2-.4-.4-.7-.3.3.2.2.2.6.4 0 .2-.1.3-.2.3.1.1-.1.3.1.3.3-.2.3-.5.1-.8-.1 0 0 .1.1.1z"/><path id="XMLID_1118_" class="st0" d="M254.8 182.1h.1-.1z"/><path id="XMLID_1117_" class="st0" d="M252.5 175.5c0 .1 0 .1.1.1l-.1-.1z"/><path id="XMLID_1116_" class="st0" d="M252.8 173.8v.1c0-.1.1-.1 0-.1z"/><path id="XMLID_1115_" class="st0" d="M254.8 182.1l-.3-.1c0 .1.1 0 .3.1z"/><path id="XMLID_1114_" class="st0" d="M262.9 187.4c0 .1 0 .1.1.1 0 0-.1 0-.1-.1z"/><path id="XMLID_1113_" class="st0" d="M259.1 181.8c.1 0 .1-.1.1-.1l-.1.1z"/><path id="XMLID_1112_" class="st0" d="M262.7 181.7c-.1 0-.2.3-.3.4.1-.1.2-.2.3-.2v-.2z"/><path id="XMLID_1111_" class="st0" d="M264 186.6c0 .1 0 .1 0 0z"/><path id="XMLID_1110_" class="st0" d="M256.7 181.7v-.1.1z"/><path id="XMLID_1109_" class="st0" d="M259.8 189.4s.1 0 0 0z"/><path id="XMLID_1108_" class="st0" d="M263.7 190.8c-.1.1-.1.1-.1.2l.1-.2z"/><path id="XMLID_1107_" class="st0" d="M251.8 170c.2 0 .1 0 0 0z"/><path id="XMLID_1106_" class="st0" d="M234.8 184.9c.3-.3.3.5.6 0-.1 0-.4-.4-.6 0z"/><path id="XMLID_1103_" class="st0" d="M243.5 170.2s.1.1.2.1c-.1 0-.1 0-.2-.1z"/><path id="XMLID_1102_" class="st0" d="M249.3 170.6h-.1.1z"/><path id="XMLID_1101_" class="st0" d="M242.1 173.2c0 .1-.1.1 0 .2v-.2z"/><path id="XMLID_1100_" class="st0" d="M242.1 176.1s.1-.1 0 0c.1-.1 0-.1 0 0z"/><path id="XMLID_1099_" class="st0" d="M250.6 190.9c.1-.1.2-.1.3-.1-.2 0-.3-.8-.3.1z"/><path id="XMLID_1098_" class="st0" d="M263 187.4c-.1 0-.1 0-.1-.1v.1h.1z"/><path id="XMLID_1095_" class="st0" d="M244.3 175.1c-.1.1-.2.2-.2.3l.1.1.1-.4z"/><path id="XMLID_1089_" class="st0" d="M254.2 189.1c-.4 0-.2.4-.3.6-.5.1-.2-.3-.4-.5-.2 0-.5.2-.7.3-.2.1-.4.2-.6.2-.1-.1-.2-.1-.1-.2-.3.2-.8.1-1.3.2 0 .4.1.8.2 1.1h-.1c.2 0 .4.1.5.2 0 .3.2.6 0 .5 0-.1-.1-.2-.2-.3l.1.3c-.3.1-.1-.4-.4-.6.1.7.4 1.4.3 1.6-.2 0-.2-.1-.2-.3 0-.2 0-.3-.2 0l.1-.7c-.5.5 0-.5-.5-.1v.7c0 .2 0 .2.1.3 0 .2.1.3 0 .7.2.1.3 0 .5.1.3.9-.9.7-.4 1.3.2.2.7.2.4.7l-.4-.2c0 .6.6.3.3 1-.2-.1-.1-.5-.2-.4-.3.4.2.3.2.6l-.3.1c.1.6.3 1.4.4 2.1-.1 0-.2-.2-.3 0 0 .2 0 .2.1.2v.1c0 .1 0 .2-.1.2-.2-.1-.3-.1-.3-.2v.3s-.1-.1 0-.2c-.1-.1 0 .2 0 .3-.2 0-.2-.2-.1-.3-.6.2-1.7.5-2.3.2l.1-.1c-.5-.1-.6.6-1 .3l.1-.1c-.5-.1-1.1 0-1.6 0-.3 0-.5 0-.8-.1-.2 0-.2-.1-.2-.2-.1.2-.2.2-.2.2-.1 0-.1-.1-.3 0l-.2.2c.1-.3.2-.4.3-.5l.3-.3s-.4-.2-.4-.4h.3l-.3-.4.4-.2-.1-.3c0 .1-.1.2-.2.2-.1-.4.2-1 .4-1l-.3-1c.1 0 .2.2.2.3-.3-.5.3-.1 0-.6-.1.1-.2 0-.2 0 .2-.2.2-.8.1-1.2l.2.1v-1.1c0-.4-.1-.7-.1-1.6-.1.6-.5.4-.5.1l.3-.3c-.2-.2-.1.4-.4 0 0-.5.4-.5.5-.2l-.1-.6c.1-.1.1 0 .3 0-.2-.1.2-1 .1-1.4-.1 0-.3 0-.4.1v-.1c-.8 0-1.4 0-1.9.1-.4 0-.8 0-1.3.1 0 .3-.3.2-.5.4-.5-.1-1-.3-1.6-.3-.4.1-.1.2-.3.4 0-.3-.6-.2-.3-.4-.8 0-.6.1-1.1.3 0 .1 0 .2-.1.2s-.1-.1 0-.2c-.1 0-.1.1-.2.1-.1-.2.1-.6.3-.7 0 0 .1-.2.1-.3 0-.1 0-.2.1-.3 0-.2 0-.4-.1-.6l-.3-.8c0-.4.2.2.4-.1-.4-.9.1-1.4-.2-2.1.2-.1.3-.3.3-.5v-.4c0-.1-.1-.2 0-.2 0 0 .1.1.2.1l-.1-.2c-.1-.2.1.1.2.1-.1-.1-.1-.2-.2-.3 0 0 .1 0 .2-.1h.4c.4 0 .9.1 1.3.1l1.3.2.7.1h1.1c1.3 0 .2-.9 1.8-.5l-.1.3.4-.1c-.1-.6-.1-1.2-.1-1.7V180c0-.6 0-1.2-.1-1.8.1.1.2.1.2.2.2-.3 0-1-.2-1 0-.2.2 0 .3-.2.1-.3-.3-.7-.1-.8l.1.1c-.1-.2 0-.8-.2-.6.1-.5-.1-.9 0-1.3-.3-.2.1-.8-.3-.9.5 0 .4-.8.2-1.1.1.1.1-.3.3-.1v-.2h-.1c-.1 0-.1-.1-.2-.1.2 0 .2 0 .1-.1s-.2-.2-.1-.3c0 0 .2.1.3.3 0-.1 0-.1.1-.2l.1-.1h.3c.5-.1.9-.2 1.4-.2 0 .5-1 0-1 .5.9-.2 1.3-.6 2.2-.5.2.1-.1.2-.2.3.9-.2 1.6 0 2.4-.2 0 0-.1.1-.2.1.1 0 .3.1.3-.1l-.1.1c-.2-.3.6-.6.6-.8-.1.3.1.3.2.4.1.1.1.1 0 .5 0 0 .1-.1.1-.3.1 0 0 .1-.1.3.2-.1.3-.3.5-.3-.1.1-.2.1-.3.3.1-.1.3-.2.4-.3.1 0 .1.1.1.2-.1 0-.1.1-.1 0 0 .1.1.2.2.4 0 0 0 .1.1.1v.7c-.4-.2-.1.3-.5.3l.1.4.2-.2c0 .4.3.7.1 1l-.2-.3.1.7.1-.4c.2.4.5 0 .4.4 0-.1 0 .4-.2.6.1.2.2.4.2.6-.1.1-.4-.1-.5 0 .3.2.1.9.4 1.1-.1-.1-.3-.1-.3-.1l.3.1c-.1.2-.1.2-.3.2 0 .5.5-.2.3.4 0 0-.1 0-.1-.1-.1.6.2 1.2 0 1.7-.4.2-.1-.5-.4-.3 0 .4.1.8.2 1.4.1.6.2 1 .1 1.6v-.2c.1-.1.2-.1.2 0 .2 0 .4.4.9.2-.1 0-.3.3-.3.2.4 0 .8 0 1.2-.1.4-.1.7-.2 1.1-.2l-.1.1c.3.1.8.1 1.2.1.1-.1.3-.1.2-.3 1 .8 2-.4 2.9.2-.1 0-.3.1-.2.1l.8-.1c-.1-.2-.1-.1-.3-.3.1-.1.3-.2.5-.2-.4.2 0 .4.2.5v-.2c.4.4.1-.5.6-.2v.1c.2-.1.4-.2.6-.2.1.3-.2.1-.2.3.3 0 .6-.5.9-.2-.1.1-.3.1-.5.1.3.3.4.2.6.3 0 0 .1 0 .3.1.1 0 .3.1.2.1l-.1-.1c.2-.3.3-.4.5-.4s.3 0 .8-.2c-.8.4-.2.3-.5.6 0 .1 0 .2-.1.3.1-.1.1-.1.2-.1 0 .1-.2.3.1.2-.1.1 0 .2-.3.2.1.1.2-.1.3-.2.2.1.1.3 0 .5-.1.3-.2.7.1 1 .2.6.5.7.7 1.3-.2.2-.4-.2-.4-.2-.1.3-.1.6 0 .9-.1-.1-.2 0-.3.1 0 .2.4.2.2.5-.1-.1-.3-.1-.4-.2.1.3.3.6.4.9-.2.1-.3-.2-.4-.3.1.3.2.9.4 1l.1-.2c0 .1-.2.1-.3 0-.2-.3.1-.4.2-.4l.1.2c.6-.2-.1-.8-.1-1.3l.4.2-.3-.4c.1-.1.3-.2.4.1.2-.3-.1-.3.1-.5h.1l-.1-.3c.1.1.3 0 .2.1.2-.5-.3-.9 0-1.1-.1-.7-.3-.1-.7-.6l.8-.4-.3-.1c0-.1 0-.2.2-.2-.2-.3-.1.1-.3-.1.1-.2.1-.5.1-.7s0-.4.3-.7c-.2 0-.2.5-.3.2.3-.3.2-.4.1-.6-.2 0-.3.1-.4 0 .3-.3.6-.1.4-.4-.3.2-.5.2-.7.1-.2-.1-.4-.2-.6-.1-.1.2-.3.2-.5.2h-.7c0-.1-.9-.2-1.3-.3v-.1c-.1.4-.5.3-.9.4 0-.2.1-.3.3-.4h-.3c-.1.1-.2.2-.4.2l.1-.3c-.4 0-.8.3-1.4.1 0 .3.4.7-.1.9 0-.1 0-.4.1-.4 0 0-.2.1-.3.1l.2-.2c-.2-.1-.1.2-.3.2 0-.2-.1-.1-.1-.3 0 0 .2.1.2 0-.2 0-.5-.2-.6-.3 0 .1 0 .3-.2.3-.4 0-.1-.2-.4-.3-.1.1-.4 0-.4.3-.1 0-.1-.1-.2-.2-.2.1-1 0-.8.4h.1c-.7.3-1.5-.2-2 0v-.1c-.2.1-.5.1-.8.2 0-.1-.1-.1-.1-.1 0-.1.2-.4.3-.4-.1-.2-.2-.2 0-.5.2.2.2-.1.1.2.1-.3.2-.2 0-.7.3.2.3-.3.2-.5l-.2.3v-.6l.3.1c.4-.8-.7-1.5 0-2.2-.2-.2-.2.5-.4.3 0-.4.5-.8.5-.9.2-.5-.5-.5-.4-1.1-.1.1-.4.1-.5-.3 0-.4.5-.5.6-.2 0 .1 0 .1-.1.1 0 .1.1.3.2.1l-.1-.1c.1-.2.1-.7.3-.6-.1-.3-.2-.1-.3.1.2-.5 0-.8.1-1.3-.1.1-.2.2-.2.1.1-.8-.2-.3-.3-.8.2-.3.4.2.3-.6.1-.5.3-.2.4 0-.1-.4-.1-.7 0-1.1.1-.4.2-.8.2-1l.1.4c-.1-.2-.1-.5-.1-.7l-.2.5c0-.2 0-.3.1-.4v-.1c-.4.2-.2.4-.9.6-.2-.1-.9.1-.9-.2.9.1 0-.3 1-.4h-.6s.1-.1.2-.1c-1-.3-.6.4-1.6.3.1-.2-.2-.3-.2-.3.2 0 .1.3-.1.4-.4-.1-.4.1-.6.1l.2.1c-.1.2-.3.2-.5.2 0-.1.2-.1.1-.2-.3.3-.7-.3-1.1-.1-.2-.1 0-.3-.2-.4-.5.2-.5-.2-1-.1.1.2.2.2-.2.4l.8-.2-.5.3c.2 0 .5-.2.7-.1-.2.2-.2.1-.1.3-.3-.4-.7.2-1 0v-.6c-.6-.3-1 .3-1.8.2l.2.1c-.1.1-.2.1-.3.1h-.5c0-.2-.2-.3-.5-.4.1.1-.9 0-.8.4l-.7-.3h-.2c0 .8.6 1.4.5 2-.2-.3-.4 0-.5-.6 0 .3 0 .6.1.6-.1.1 0 .3.1.5s.1.3 0 .4c.1.1.3.1.3.3h-.1c.1 0 .1.3.4.2-.6.6 0 1.7-.5 2.2.1.4.1.9.1 1.3-.1 0-.1 0-.1-.1-.2.5.6.3.4.9-.3.3-.2-.3-.3-.1-.6.1.1.7-.3 1.1v-.1c-.2.3.2.8.2 1.3h-.1c.2.2.3.5.4.6.1.2.1.4.2.7-.3-.3-.1-.2-.4-.3 0 .2.4.2.5.6-.1 0-.2.1-.3 0-.1-.1-.2-.1-.2-.2v-.2c-.2-.1-.2-.1-.1 0 0 0 0 .1-.1.1l-.1-.2c-.2.1 0 .4-.6.4l.1.1c-.4.4-.3-.2-.7.1l-.1-.4c-.2.1-.9.4-1.3.5.2-.3.8-.4 1.1-.6-.2 0-.8 0-1 .2.1 0 .2-.1.3-.1-.3.3-.7.5-1.2.5 0-.4-.3-.4-.6-.5h-.7c-.3 0-.5-.1-.7-.3-.4.1-.9.1-1.4.1 0 .4-.1.9-.1 1.4 0 .3 0 .5-.1.8v.7c.6-.4 0 .3.6.2v.3l-.4.7c-.2.2-.1-.2-.3-.2 0 .5-.3.2-.4.5.2-.1.3.2.2.5l.3-.4c.3.7-.5.6-.2 1.3l-.2-.2c.1.4 0 1.4.5 1.7-.1.1-.2.2-.3 0v.6c0 .3 0 .6.1.8.1.5.2 1 .2 1.5.5 0 .9 0 1.1.1l-.2.1c.3 0 .6-.3.9-.1 0 .1-.2.1 0 .2.1-.1.9-.3 1-.2l-.2.2c.9.2 1.3-.4 2-.5 0 .4.7.6 1 .7v.1h.6c.1 0 .1-.1.2-.1.1-.1.3-.2.5-.3 0 0 .1 0 .1.1-.2.3-.3.4-.3.6 0 .5 0 1.1-.2 1.6.1-.1.3 0 .4.2-.1.2.3.6-.1.6v-.1c-.4.2-.3.6-.3 1l.5.1c-.8.9.3 2.4-.4 2.9.1.1.1.7.3 1l-.3.1c-.1.8-.1 1.3-.1 2.2h.9l-.4.2c.9 0 1.5-.8 2-.8l.1.4h.7l.6.1c.4 0 .7 0 1.1-.2 0 .1 0 .2-.2.2.3 0 1.3.3 1.2-.3 0 .4.8 0 1.2-.1l-.1.3c.3-.4.3-.5.8-.6.1 0 .1.2-.1.2.4.1.3-.3.7-.1l-.2.2c.2 0 .3 0 .4-.1.1 0 .1-.1.3-.2.3-.1 1 .1 1.3.3 0-.1.1-.3.4-.3l.1.1v.1h.1c.1-.4 0-.8-.1-1.1s-.1-.6 0-.8c.1 0 .1 0 .2-.1v1.3c.3.2.3-.5.7.3-.1-.3-.2-.8-.4-1.3-.1-.2-.1-.4-.1-.6v-.4l.1-.1v-.3c0-.1.1-.2.1-.3.2 0 .1-.5.1-.7-.3 0-.2-.3-.5 0v.8c-.1-.2-.3-.3-.1-.6-.2-.1-.4-.2-.5-.3.4-.3.6-.8.8-.9-.2-.6-.1-1.5-.6-1.9-.1-.2.2-.2.2-.3.1.1 0 .2.1.3-.1-.4-.1-1.1-.4-1.1.2-.4.3.3.3-.4l.1.1c.1-.2.1-.4.1-.6 0-.1 0-.1-.1-.3s-.3-.5-.4-.9c.2-.1.5-.1.8.2-.1 0-.1-.1-.1-.1.1 0 .3.1.4.1h.5c.4 0 .8 0 1.2-.1.8-.1 1.6-.1 2.3.2.4.1.5-.1.7-.3l.1.3.4-.3c.6-.3 1.1.7 1.9.3l-.1-.2c.3 0 .9-.1.9.1 0 0 .1-.2.2-.1v.2l.7-.3c.5.1-.1.6.7.7.3-.1.8-.5.7-.6-.1 0-.3-.1-.3-.3l.3-.1c0-.5.3-.9-.4-1.3l-.5.3-.1-.2h.4c-.2-.2-.4 0-.5.1 0-.1-.1-.2-.2-.2l-.5.4c-.1-.2.2-.4-.1-.5-.2.2.2.4-.1.5-.2-.2-.2-.4-.4-.2 0-.1 0-.2.1-.2-.2.1-.6.1-.7.3-.2-.3-.8.1-.8-.4-.1.1-.4.3-.6.4.4-.5-.8 0-.7-.6-.3.5-1 .2-1.6.5l.1-.1c-.3 0-.4-.2-.6-.3 0 .4-.5.5-.7.7-.4-.4.2-.5.1-.8 0 .3-.6.3-.5.6-.3-.2-.2-.1-.4-.4 0 .5-.3.1-.5.4-.4-.2-.1-.5-.5-.3-.3.6.1.4.1.4zm-3.1 9.4v-.2.2zm0 .6v-.2c.1 0 .2 0 .2.1-.1-.1-.1.1-.2.1zm1.9-1.5c0 .1 0 .2-.1.2v-.2h.1z"/><path id="XMLID_1088_" class="st0" d="M252.7 197.3s-.1 0 0 0c-.1 0-.1 0 0 0z"/><path id="XMLID_1086_" class="st0" d="M244.2 198.3h-.1l.1.1z"/><path id="XMLID_1085_" class="st0" d="M259.6 183.1c.1 0 0 0 0 0z"/><path id="XMLID_1084_" class="st0" d="M261.6 183.1l.3.1c-.1 0-.2-.1-.3-.1z"/><path id="XMLID_1083_" class="st0" d="M262.7 183.3c0-.1.1-.1.1-.1l-.1.1z"/><path id="XMLID_1082_" class="st0" d="M249.4 172.5c-.1 0-.1 0 0 0-.2.1-.1 0 0 0z"/><path id="XMLID_1081_" class="st0" d="M251.4 176.4c-.1-.1-.1-.2-.1-.2-.1.1-.1.2.1.2z"/><path id="XMLID_1079_" class="st0" d="M251.3 175.8c-.1.1 0 .2 0 .3v-.3z"/><path id="XMLID_1078_" class="st0" d="M262.9 188.8c0 .1 0 .1 0 0z"/><path id="XMLID_1076_" class="st0" d="M263 189.1l-.1-.2c0 .1 0 .2.1.2z"/><path id="XMLID_1075_" class="st0" d="M263 186.7h-.1.1z"/><path id="XMLID_1074_" class="st0" d="M263 186.1c0 .2-.2.4-.2.6h.1c-.2-.1.2-.5.1-.6z"/><path id="XMLID_1073_" class="st0" d="M264.2 183.3l-.1.7c.1-.1.3-.3.3 0 .3-1.1-.2.2-.2-.7z"/><path id="XMLID_1072_" class="st0" d="M263.4 181.9c.4-.1.1-.2.1-.2-.3.1-.4.1-.1.2z"/><path id="XMLID_1071_" class="st0" d="M252.5 181.5l.3-.1c-.1-.1-.2 0-.3.1z"/><path id="XMLID_1070_" class="st0" d="M251.1 179.6l-.1.2.2.1z"/><path id="XMLID_1069_" class="st0" d="M253 178.3v.1l-.1-.4z"/><path id="XMLID_1068_" class="st0" d="M241.9 175.6l.3-.1c-.1-.1-.4-.2-.3.1z"/><path id="XMLID_1067_" class="st0" d="M241.3 181.8c-.1-.2-.3-.3-.5-.1.2 0 .4.1.5.1z"/><path id="XMLID_1066_" class="st0" d="M241.7 196l-.1-.1.1.3z"/></g></g></g><g id="XMLID_1005_"><g id="XMLID_1006_"><g id="XMLID_1007_"><path id="XMLID_1062_" class="st0" d="M230.5 247c0-.1 0-.3-.1-.2l-.1.3.2-.1z"/><path id="XMLID_1061_" class="st0" d="M230 246.4c-.1.2-.2.4-.1.7.1-.3.1-.2.2-.6.1 0 .1.1.1.2 0-.1.1.1.1-.1-.1-.3-.2-.3-.3-.2 0 .2 0 .1 0 0z"/><path id="XMLID_1059_" class="st0" d="M219.9 245.4c0 .1 0 0 0 0 .1 0 0 0 0 0z"/><path id="XMLID_1057_" class="st0" d="M223.1 245.9l-.1-.1c0 .1.1.1.1.1z"/><path id="XMLID_1056_" class="st0" d="M229.1 247.2c0-.1 0-.1 0 0z"/><path id="XMLID_1055_" class="st0" d="M225 245.6l.1-.1-.1.1z"/><path id="XMLID_1054_" class="st0" d="M226.5 245.6s0 .3-.1.4c0-.1 0-.2.1-.2v-.2z"/><path id="XMLID_1053_" class="st0" d="M228.8 246.1c0-.1 0 0 0 0z"/><path id="XMLID_1052_" class="st0" d="M224 245.6c0-.1 0-.1 0 0z"/><path id="XMLID_1050_" class="st0" d="M230.4 246.4v-.1h-.1z"/><path id="XMLID_1049_" class="st0" d="M220.6 243.8c.1.1 0 .1 0 0z"/><path id="XMLID_1048_" class="st0" d="M220.9 234.4c-.1-.3.2-.3 0-.6 0 .1-.1.4 0 .6z"/><path id="XMLID_1046_" class="st0" d="M220.9 233.8c0-.1 0-.1 0 0z"/><path id="XMLID_1045_" class="st0" d="M220.5 240.8h-.1.1z"/><path id="XMLID_1044_" class="st0" d="M220.1 243.1c0-.1 0-.1 0 0z"/><path id="XMLID_1043_" class="st0" d="M220.1 239.6c0-.1 0-.1 0 0 0-.1 0-.1 0 0 0-.1 0-.1 0 0z"/><path id="XMLID_1042_" class="st0" d="M220.1 238.3c-.1 0-.1 0 0 0z"/><path id="XMLID_1041_" class="st0" d="M231.7 240.9c-.1 0-.2 0-.3.1.2-.1.3.1.3-.1z"/><path id="XMLID_1040_" class="st0" d="M229.1 247c0 .1 0 .1 0 0 0 .1 0 .1 0 0z"/><path id="XMLID_1039_" class="st0" d="M217.8 239.5v-.2c.1.1 0 .1 0 .2z"/><path id="XMLID_1038_" class="st0" d="M229.6 232.1c0-.1 0-.1 0 0z"/><path id="XMLID_1037_" class="st0" d="M217.8 238.7c.1 0 .2-.1.2-.1h-.1l-.1.1z"/><path id="XMLID_1031_" class="st0" d="M232.1 242.3c0-.2-.4-.1-.6-.1-.1-.2.3-.1.5-.2-.1-.1-.4-.2-.4-.4h.2c-.3-.1 0-.4-.4-.6h.1-.5c0-.1-.2-.2 0-.2 0 .1.1.1.2.1l-.1-.1c.3-.1.1.1.4.1-.1-.2-.4-.4-.3-.5.3 0 .1.3.4.1l-.2.2c.5-.2 0 .1.5 0 .1-.3-.2-.3-.1-.6-.2-.1-.3 0-.5 0-.3-.4.9-.3.4-.6-.2-.1-.7-.1-.4-.3l.4.1c0-.3-.6-.1-.3-.4.2 0 .1.2.2.2.3-.2-.2-.1-.2-.3h.3c-.1-.3-.3-.6-.4-.9.1 0 .2.1.3 0-.2-.4 0-.8.2-1.2l-.3-.1s.1-.1.2 0c.1-.1-.2 0-.3-.1 0-.1.2-.1.3-.1-.2-.3-.5-.7-.2-1l.1.1c.1-.2-.6-.2-.3-.4h.1v-1c0-.4 0-.7.3-1.1-.2.1-.2-.1-.1-.3 0-.2 0-.4-.3-.1-.1-.3.1-.4-.4-.6-.2 0-.5.4-.7.4l.1-.3-.2.2-.2.2v-.4l-.2.1c.1 0 .1.1.1.2-.3.1-.7-.2-.7-.4-.1 0-.5.3-.5.3 0-.1.1-.2.1-.2-.2.3 0-.3-.2 0v.2c-.1-.2-.3-.2-.5-.1v-.2c-.3-.1-.7.1-1 .1.1.1.1.5 0 .5v-.3c-.1.2.1.1 0 .4-.1 0-.1-.4 0-.5l-.2.1v-.3c-.1.2-.3-.3-.4 0v-.1c-.4 0-.5.1-.8.1 0 .3-.1.2-.2.4-.2-.1-.4-.3-.7-.3-.2.1-.1.2-.1.4 0-.3-.3-.2-.1-.4-.3 0-.4.1-.8.3 0 .1.1.2.1.2-.1 0-.2-.1-.1-.2-.4.4-1-.7-1.3-.2l-.4.3c-.2 0 .1-.2 0-.4-.4.4-.6-.1-.9.2-.1-.4-.6-.4-1-.3-.4 0-.8.1-1.2-.1l.2.2c0 .2-.3-.1-.4-.1.1.1.3.2.3.3-.2 0-.4.1-.6.1 0 .5-.1 1-.2 1.5l-.2.8-.1.4-.1.2c0 .3.9.2.5.5l-.3-.1c.4.5 0 1.1.3 1.7-.1 0-.2 0-.2-.1-.2.1 0 .4.2.4 0 .1-.2 0-.3.1-.1.1.3.3.1.3 0 0-.1 0-.1-.1.1.1 0 .3.2.3-.1.2.1.4 0 .5.3.1-.1.3.3.4-.5 0-.4.4-.2.5-.1 0-.1.1-.3.1 0 .1.1.3.3.3-.5.3.4.5-.3.7.2.4.4.8.5 1.2-.5 0 0-.4-.5-.4.2.4.6.6.5.9-.1.1-.2-.1-.3-.1.2.4 0 .7.2 1 0 0-.1 0-.1-.1 0 .1-.1.1.1.1l-.1-.1c.3-.1.6.3.8.3-.6-.1-.1.3-.9.1 0 0 .1.1.3.1 0 .1-.1.1-.3 0 .1.2.3.1.3.4-.1 0-.1 0-.3-.1.2.1.4.2.3.4h-.1c0 .2.1.3.2.4.1.2.2.3.1.6-.4 0-.1.2-.5.4l.1.2.2-.2c0 .2.3.3.1.5l-.2-.1.1.4.1-.3c.2.1.5-.4.4 0 0 0 0 .2-.2.5h.1c.2-.1.3-.1.3-.1-.1.1-.4.4-.4.5.4-.3.6-.1.9-.4-.1.1-.2.3-.2.3l.2-.3c0 .1 0 .1-.1.3.3 0 .1-.5.4-.3 0 0 0 .1-.1.1.3.1.7-.2 1 0 0 .2 0 .2-.1.2s-.1 0-.1.2c.4-.1.7-.5 1.1-.4h-.1c0-.5.2.3.4 0 0 0-.1.3 0 .2.2.1.5-.1.8-.3v.1c.1.1.4.1.5.1 0-.1.1-.1.1-.3.4.8.9-.4 1.3.2l-.1.1.3-.1c0-.2 0-.1-.1-.3 0-.1.1-.2.2-.2-.2.2 0 .4.1.5v-.2c.2.4 0-.5.3-.2v.1c.1-.1.2-.2.3-.2 0 .3-.1.1-.1.3.1 0 .3-.5.4-.2-.1.1-.1.1-.2.1.1.3.2.2.3.3l.2.1-.1-.1c.2-.7.3-.1.6-.6-.2.4 0 .3-.1.6.1.1.1.2.1.3.1-.2.2.2.3-.2 0 .1.1 0 .1.3.1-.1 0-.2 0-.3.2-.3.5.4.8-.1.3-.2.3-.5.6-.7.1.2-.1.4-.1.4.1.1.2.1.4 0v.3c.1 0 .1-.4.2-.2 0 .1-.1.3-.1.4.1-.1.2-.3.4-.4 0 .2-.1.3-.1.4.1-.1.4-.2.4-.4l-.1-.1c.1 0 0 .2 0 .3-.1.2-.2-.1-.2-.2l.1-.1c-.1-.6-.4.1-.5.1l.1-.4-.2.3c0-.1-.1-.3 0-.4-.1-.2-.1.1-.2-.1v-.1l-.1.1c0-.1 0-.3.1-.2-.2-.2-.4.3-.5 0-.3.1 0 .3-.3.7l-.2-.8v.3s-.1 0-.1-.2c-.1.2 0 .1 0 .3-.2-.3-.4.1-.5-.4-.1.2.2.2 0 .3 0-.5-.2.1-.3-.2 0-.3.2-.1 0-.4-.1.5-.3-.1-.4 0 0 .4-.3.2-.5.3 0-.1-.4-.2-.6-.3v-.1c0 .4-.2.3-.4.4 0-.2 0-.3.1-.4h-.1c0 .1-.1.2-.2.2v-.3c-.2 0-.4.3-.6.1 0 .3.2.7-.1.9v-.4l-.1.1.1-.2c-.1-.1-.1.2-.1.2 0-.2-.1-.1 0-.3 0 0 .1.1.1 0-.1 0-.2-.2-.2-.3 0 .1 0 .3-.1.3-.2 0-.1-.2-.2-.3 0 .1-.2 0-.2.3-.1 0-.1-.1-.1-.2-.1.1-.4 0-.3.4-.3.3-.6-.2-.9 0v-.1c-.2.1-.4.1-.5.3-.1 0-.1-.2-.1-.3-.1.1-.2.2-.3 0 .1-.2 0-.2.1-.1-.2-.1-.2-.2-.4 0 .1-.3-.2-.3-.2-.2l.1.2h-.2l.1-.3c0-.2-.1 0-.2.1s-.3.2-.1-.1c-.2.2 0 .2-.2.4-.1 0 .2-.5.2-.5 0-.1-.1 0-.2.2-.1.1-.3.2-.2.1-.1.1-.4.4-.5.4 0-.2.5-.5.6-.5 0 0 0 .1-.1.1 0 0 .1 0 .2-.1l-.1.1c.1-.1.1-.2.3-.3-.1 0-.2.1-.3.2.2-.2 0-.2.1-.3-.1 0-.2.1-.2.1.1-.2-.2 0-.3-.2.2-.1.4 0 .3-.1.1-.1.3 0 .4 0-.2-.2.2-.4.2-.5l.1.1c-.1-.1-.1-.1-.1-.2l-.2.1c0-.1 0-.1.1-.1-.2-.1-.4 0-.6-.1.1-.1-.1-.3.2-.3-.1.3.3 0 .4.2v-.2h.1c.3-.2-.4-.1-.3-.4.2 0 .3-.1.3-.1 0 .1-.3 0-.4 0 .1-.2-.1-.2-.1-.3l-.1.1c-.2 0-.2-.1-.2-.2.1 0 .1.1.2.1-.3-.1.3-.3.1-.5.1-.1.3 0 .4-.1-.2-.2.2-.2.1-.4-.2.1-.2.1-.4-.1l.2.3-.3-.2c0 .1.2.2.1.3-.2-.1-.1-.1-.3 0 .4-.1-.2-.3 0-.4h.6c.3-.2-.3-.4-.2-.8l-.1.1c-.2 0 0-.2-.1-.3.2 0 .3-.1.4-.1-.1 0 0-.2-.4-.3l.3-.1c.1-.3-.6-.3-.5-.5.2.1.4 0 .5.1 0-.1 0-.2-.1-.2.1 0-.3-.2-.1-.3-.1 0-.3 0-.3-.1h.1c-.1 0-.1-.1-.4-.1.6-.3 0-.7.5-.9-.1-.2-.1-.4-.1-.6h.1c.2-.2-.6-.1-.4-.4.3-.1.2.1.3.1.6 0-.1-.3.3-.5.2-.1-.2-.3-.2-.5h.1c-.3-.1-.4-.4-.5-.6.3.1.1.1.4.1 0-.1-.4 0-.5-.2.1-.1.3-.2.5-.2v.2c.4-.1 0-.2 0-.3h.2c-.1-.3-.4-.3-.4-.6h-.1c-.4-.2.2-.1-.1-.2h.4c-.1-.1-.4-.3-.5-.5.3.2.4.4.6.5 0 0 0-.2-.2-.3l.1.1c-.3-.2-.5-.4-.5-.6.5.4.4.2.5.1.1 0 .2.1.4.3-.1-.1.1-.1.2-.1.1.1.2.1.2.1-.1-.6 0 0 0-.6h.1l.3.4c.1.2-.1.1-.1.3.2 0 .1.3.2.4 0-.2.1-.3.2-.2l-.2-.3c.3-.3.3.5.6.2l-.1.2c.2-.1.6 0 .7-.5 0 .1.1.2 0 .3.4.1.8-.5 1.1-.2v.1c.1 0 .1-.3.2-.1v.2c0-.1.2-.3.3-.2l-.1.2c.4.2.6-.4.9-.5 0 .4.3.6.4.7v.1c.4.1.7-.4 1.1-.5.2.5.8.2 1.2.5-.1-.1 0-.3.1-.4.1.1.3-.3.2.1.1.4.3.3.4.3v-.5c.1.2.2.3.3.3.1 0 .1 0 .1-.1.1-.1.2-.2.1.2l.3-.3-.2.3v.1l-.2.2s.8-.6.8-.5l-.4.3c0 .1-.1.1-.1.2s0 .1.2.1h-.2s-.1.2-.1.3c0 .1.1.2.4.2-.4 0 0 .3.1.5h-.3c.4.1.5.1.6.4h-.2c-.1.2.3.1.1.3l-.2-.1c0 .2.1.2.3.2.1.1-.1.3-.3.3.2 0 .4.1.3.2h-.2c-.2.3.3.4.1.6h-.2v-.4c-.3 0-.3.2-.7 0 .2.1.6.4.5.6h-.1v.1c0 .1-.1.1-.1.1-.2 0-.1.2-.1.3.3 0 .2.1.5 0v-.3c.1.1.3.1.1.2.2 0 .4.1.5.1-.4.1-.6.4-.8.4.2.3.1.6.6.8.1.1-.2.1-.2.1-.1 0 0-.1-.1-.1.1.2.1.5.4.5-.2.2-.3-.1-.3.2h-.1c-.6.5.9.8.2 1.4l.1-.1c-.3.7.3 1.4-.2 2-.1.2.1.2.3.3h-.3l.3.2c.3.3-.7.5-.3.8h.2c0 .1.1.4-.1.4 0 0 .2 0 .1.1h-.2l.3.3c-.1.2-.6 0-.7.3.1.1.5.4.6.3 0-.1.1-.1.3-.1l.1.1c.5 0 .9.1 1.3-.2l-.3-.2.2-.1v.2c.2-.1 0-.2-.1-.2.1 0 .2 0 .2-.1l-.4-.2c.2 0 .4.1.5 0-.2-.1-.4.1-.5-.1.2-.1.4-.1.2-.2.1 0 .2 0 .2.1-.1-.1-.1-.3-.3-.3.3-.1-.1-.3.4-.3-.1 0-.3-.2-.4-.3.5.2 0-.3.6-.3-.5-.1-.2-.4-.5-.7 0 0 .1 0 .1.1 0-.1.2-.2.3-.2-.4 0-.5-.2-.7-.3.4-.2.5.1.8 0-.3 0-.3-.3-.6-.2.2-.1.1-.1.4-.2-.5 0-.1-.1-.4-.2.2-.2.5 0 .3-.2.3-.7.5-.5.5-.5zm-.8-4.4zm0-.4v.2h-.2c0-.1.1-.2.2-.2zm-2 .8c0-.1 0-.1 0 0 .1-.1.1 0 .1 0h-.1z"/><path id="XMLID_1029_" class="st0" d="M223.2 245.9s0 .1 0 0c0 .1 0 0 0 0z"/><path id="XMLID_1028_" class="st0" d="M230.3 231.9v.1l.1-.1z"/><path id="XMLID_1027_" class="st0" d="M225.2 246.9c0 .1 0 0 0 0z"/><path id="XMLID_1026_" class="st0" d="M226.1 247l.1.1c0-.1-.1-.1-.1-.1z"/><path id="XMLID_1024_" class="st0" d="M218.2 243.1c-.1-.1-.1 0 0 0z"/><path id="XMLID_1023_" class="st0" d="M218.8 246.7h-.1c0 .1 0 .2.1 0z"/><path id="XMLID_1021_" class="st0" d="M218.7 246.5c-.1.1 0 .2 0 .2v-.2z"/><path id="XMLID_1018_" class="st0" d="M229.8 247.1c0 .1 0 .1 0 0z"/><path id="XMLID_1017_" class="st0" d="M228.8 247.1v.1-.1z"/><path id="XMLID_1016_" class="st0" d="M228.5 247.1c.1 0 .2.2.3.2v-.1c-.1.2-.2-.2-.3-.1z"/><path id="XMLID_1015_" class="st0" d="M227.4 245.9l.2.1c0-.1-.1-.3 0-.3-.3-.4.1.2-.2.2z"/><path id="XMLID_1014_" class="st0" d="M226.7 245.7c.1-.1 0-.2 0-.2-.1.1-.1.1 0 .2z"/><path id="XMLID_1013_" class="st0" d="M221.6 245.7v-.3c-.1.1 0 .2 0 .3z"/><path id="XMLID_1012_" class="st0" d="M220.5 247l.1.2.1-.2z"/><path id="XMLID_1011_" class="st0" d="M220.6 245.2h.1l-.1.1z"/><path id="XMLID_1010_" class="st0" d="M220.3 238.5h-.3c.1.1.4.1.3 0z"/><path id="XMLID_1009_" class="st0" d="M220 234.8c.2-.1.3-.1.1-.1 0 .1-.2.1-.1.1z"/><path id="XMLID_1008_" class="st0" d="M228.7 234.4l-.1.1h.2z"/></g></g></g><g id="XMLID_947_"><g id="XMLID_948_"><g id="XMLID_949_"><path id="XMLID_1004_" class="st0" d="M230.5 225.6c0-.1 0-.3-.1-.2v.3l.1-.1z"/><path id="XMLID_1003_" class="st0" d="M230.1 225c-.1.2-.2.4-.1.7.1-.3.1-.2.2-.6.1 0 .1.1.1.2 0-.1.1.1.1-.1-.1-.3-.2-.3-.3-.2-.1.1-.1.1 0 0z"/><path id="XMLID_1002_" class="st0" d="M223.3 224.5c.1 0 .1 0 0 0z"/><path id="XMLID_1001_" class="st0" d="M219.9 224.3s0-.1 0 0c.1-.1 0-.1 0 0z"/><path id="XMLID_999_" class="st0" d="M223.3 224.5l-.1-.1c0 .1.1.1.1.1z"/><path id="XMLID_998_" class="st0" d="M229.1 225.8s.1-.1 0 0c.1-.1 0-.1 0 0z"/><path id="XMLID_997_" class="st0" d="M225.2 224.2l.1-.1-.1.1z"/><path id="XMLID_996_" class="st0" d="M226.6 224.2s0 .3-.1.4c0-.1 0-.2.1-.2v-.2z"/><path id="XMLID_995_" class="st0" d="M228.8 224.7c0-.1 0-.1 0 0z"/><path id="XMLID_992_" class="st0" d="M230.4 224.9h-.1z"/><path id="XMLID_991_" class="st0" d="M220.6 222.9c.1 0 0 0 0 0z"/><path id="XMLID_990_" class="st0" d="M220.9 213.7v-.3c0-.1.1-.2 0-.3 0 .1-.1.4 0 .6z"/><path id="XMLID_987_" class="st0" d="M220.5 219.9h-.1.1z"/><path id="XMLID_985_" class="st0" d="M220.1 218.7c0-.1 0-.1 0 0z"/><path id="XMLID_984_" class="st0" d="M220.1 217.5c-.1 0-.1 0 0 0z"/><path id="XMLID_983_" class="st0" d="M231.7 219.6c-.1 0-.2 0-.3.1.2 0 .3.2.3-.1z"/><path id="XMLID_981_" class="st0" d="M217.8 218.7v-.2c.1 0 0 .1 0 .2z"/><path id="XMLID_980_" class="st0" d="M229 211.4c.1 0 .1 0 0 0z"/><path id="XMLID_979_" class="st0" d="M217.8 217.9c.1 0 .2-.1.2-.1h-.1l-.1.1z"/><path id="XMLID_973_" class="st0" d="M232.1 221c0-.2-.4-.1-.6-.1-.1-.2.3-.1.5-.2-.1-.1-.4-.2-.4-.3h.2c-.3-.1 0-.4-.4-.6h.1-.5c0-.1-.2-.2 0-.2 0 .1.1.1.2.1l-.1-.1c.3-.1.1.1.4.1-.1-.2-.4-.4-.3-.5.3 0 .1.3.4.1l-.1.2c.5-.2 0 .1.5 0 .1-.3-.2-.3-.1-.6-.2-.1-.3 0-.5 0-.3-.4.9-.3.4-.6-.2-.1-.7-.1-.4-.3l.4.1c0-.3-.6-.1-.3-.4.2 0 .1.2.2.2.3-.2-.2-.1-.2-.3h.3c-.1-.3-.3-.6-.4-.9.1 0 .2.1.3 0-.2-.4 0-.8.2-1.2l-.3-.1s.1-.1.2 0c.1-.1-.2 0-.3-.1 0-.1.2-.1.3-.1-.2-.2-.5-.7-.2-1l.1.1c.1-.2-.6-.3-.3-.5h.1c.1-.3 0-.7 0-1s0-.7.3-1.2c-.1.1-.2 0-.2-.1-.2 0-.4-.2-.7.2-.2-.3 0-.4-.5-.6-.2 0-.4.4-.6.4l.1-.3-.2.2-.2.2-.1-.4-.2.1c.1 0 .1.1.1.2-.3.1-.5-.2-.6-.4l-.4.3c0-.1.1-.2.1-.2-.2.3 0-.3-.2 0v.2c-.1-.2-.3-.2-.5-.1v-.2c-.3-.1-.6.1-1 .1.1.1.1.5 0 .5v-.3c-.1.2.1.1 0 .4-.1 0-.1-.4 0-.5l-.2.1v-.3c-.1.2-.3-.3-.4 0v-.1c-.3 0-.5.1-.8.1 0 .3-.1.2-.2.4-.2-.1-.4-.3-.7-.3-.2.1-.1.2-.1.4 0-.3-.3-.2-.1-.4-.3 0-.4.1-.7.3 0 .1.1.2.1.2-.1 0-.2-.1-.1-.2-.4.4-1-.7-1.3-.2l-.3.3c-.2 0 .1-.2 0-.4-.4.4-.6-.1-.9.2-.2-.4-.6-.4-1-.3-.4 0-.7.1-1.2-.1l.2.2c0 .2-.3-.1-.4-.1.1.1.3.2.3.3-.2 0-.4.1-.6.1 0 .5-.1.9-.2 1.4l-.2.8-.1.4c0 .2 0 .2-.1.3 0 .3.9.1.5.5l-.3-.1c.4.5 0 1.1.3 1.6-.1 0-.2 0-.2-.1-.2.1 0 .4.2.4 0 .1-.2 0-.3.1-.1.1.3.3.1.3 0 0-.1 0-.1-.1.1.1 0 .3.2.3-.1.2.1.4 0 .5.3.1-.1.3.3.4-.5 0-.4.3-.2.5-.1 0-.1.1-.3.1 0 .1.1.3.3.2-.5.3.4.5-.3.7.2.4.4.8.5 1.2-.5 0 0-.4-.5-.4.2.4.6.6.5.9-.1.1-.2-.1-.3-.1.2.4 0 .7.2 1 0 0-.1 0-.1-.1 0 .1-.1.1.1.1l-.1-.1c.3-.1.6.2.8.3-.6-.1-.1.3-.9.1 0 0 .1.1.3.1 0 .1-.1.1-.3 0 .1.2.3.1.3.3-.1 0-.1 0-.3-.1.2.1.4.2.3.4-.1 0-.1 0-.1-.1 0 .5.5.6.3 1.1-.4.1-.1.2-.5.5l.1.2.2-.2c0 .2.3.2.1.5h-.2l.1.3h.1l.1-.3c.2 0 .4-.3.4-.2h.1c-.1 0 .2 0 .1.2l.4-.2c0 .1-.3.4-.3.5.3-.3.6-.1.8-.4-.1.1-.1.3-.2.3l.2-.3c.1.1.1.1 0 .3.3 0 0-.5.3-.3 0 0 0 .1-.1.1.2.1.3 0 .5 0 .1 0 .2-.1.4 0 .1.4-.2.1-.1.4.3-.1.7-.5 1-.4h-.1c0-.5.2.3.4 0 0 0-.1.3 0 .2.2.1.5-.1.8-.3v.1c.1.1.3.1.5.1 0-.1.1-.1.1-.3.4.8.8-.4 1.2.2l-.1.1.3-.1c0-.2 0-.1-.1-.3 0-.1.1-.2.2-.2-.1.2 0 .4.1.5v-.2c.2.4 0-.5.3-.2v.1c.1-.1.2-.2.3-.2 0 .3-.1.1-.1.3.1 0 .3-.5.4-.2-.1.1-.1.1-.2.1.1.3.1.2.2.3l.1.4-.1-.1c.2-.7.3-.1.6-.6-.2.4 0 .3-.1.6.1.1.1.2.1.3.1-.2.2.2.3-.2 0 .1.1 0 .1.3.1-.1 0-.2 0-.3.2-.3.5.4.8-.1.3-.2.3-.5.6-.7.1.2-.1.4-.1.4.1.1.2.1.4 0v.3c.1 0 .1-.4.2-.2 0 .1-.1.3-.1.4.1-.1.2-.3.4-.4 0 .2-.1.3-.1.4.1-.1.4-.2.4-.4l-.1-.1c.1 0 0 .2 0 .3-.1.2-.2-.1-.2-.2l.1-.1c-.1-.6-.4.1-.5.1l.1-.4-.2.3c0-.1-.1-.3 0-.4-.1-.2-.1.1-.2-.1v-.1l-.1.1c0-.1 0-.3.1-.2-.2-.2-.4.3-.4 0-.3.1 0 .3-.3.7l-.2-.8v.3s-.1 0-.1-.2c-.1.2 0 .1 0 .3-.2-.3-.4.1-.5-.4-.1.2.1.2 0 .3 0-.5-.2.1-.3-.2 0-.3.2-.1 0-.4-.1.5-.3-.1-.4 0 0 .4-.3.2-.5.3 0-.1-.4-.2-.6-.3v-.1c0 .4-.2.3-.4.4 0-.2 0-.3.1-.4h-.1c0 .1-.1.2-.2.2v-.3c-.2 0-.3.3-.6.1 0 .3.2.7-.1.9v-.4l-.1.1.1-.2c-.1-.1-.1.2-.1.2 0-.2-.1-.1 0-.3 0 0 .1.1.1 0-.1 0-.2-.2-.2-.3 0 .1 0 .3-.1.3-.2 0-.1-.2-.2-.3 0 .1-.2 0-.2.3-.1 0-.1-.1-.1-.2-.1.1-.4 0-.3.4-.3.3-.6-.2-.9 0v-.1c-.2.1-.4.1-.5.3-.1 0-.1-.2-.1-.3-.1.1-.1.2-.3 0 .1-.2 0-.2.1-.1-.2-.1-.2-.2-.4 0 .1-.3-.1-.3-.2-.2l.1.2h-.3v-.3c0-.1-.1-.1-.1-.1 0 .1-.1.1-.1.2-.1.1-.2.2-.1-.1-.2.2 0 .2-.1.4-.1 0 .1-.5.1-.5.1-.2-.4.5-.5.4-.1.1-.3.4-.6.5.1-.2.5-.6.6-.6 0 0 0 .1-.1.1.1 0 .1-.1.2-.2l-.1.1c.1-.2.1-.2.3-.4-.1.1-.2.1-.3.2.2-.2 0-.2.1-.3-.1 0-.2.1-.2.1.1-.2-.2 0-.3-.1.2-.1.4-.1.3-.2.1-.1.3-.1.4-.1-.1 0-.1 0 0-.1.1 0 .2 0 .2-.1l.1.1c-.1 0-.1-.1-.1-.1l-.2.1c0-.1 0-.1.1-.1-.2-.1-.4 0-.6-.1.1-.1-.1-.2.2-.3-.1.3.3 0 .4.2v-.2h.1c.3-.2-.4-.1-.3-.4.2 0 .3-.1.3-.1 0 .1-.3 0-.4 0 .1-.2-.1-.2-.1-.3l-.1.1c-.2 0-.2-.1-.2-.2.1 0 .1.1.2.1-.3-.1.3-.3.1-.5.1-.1.3 0 .4-.1-.2-.2.2-.2.1-.4-.2.1-.2.1-.4-.1l.2.3-.3-.2c0 .1.2.2.1.3-.2-.1-.1-.1-.3 0 .4-.1-.2-.3 0-.4h.6c.3-.2-.3-.4-.2-.7l-.1.1c-.2 0 0-.2-.1-.3.2 0 .3-.1.4-.1-.1 0 0-.2-.4-.3l.3-.1c.1-.3-.6-.3-.5-.5.2.1.4 0 .5.1 0-.1 0-.2-.1-.2.1 0-.3-.2-.1-.3-.1 0-.3 0-.3-.1h.1c-.1 0-.1-.1-.4-.1.6-.2 0-.7.5-.9-.1-.2-.1-.4-.1-.6h.1c.2-.2-.6-.1-.4-.4.3-.1.2.1.3.1.6 0-.1-.3.3-.5.2-.1-.2-.3-.2-.5h.1c-.3-.1-.4-.4-.5-.6.3.1.1.1.4.1 0-.1-.4 0-.5-.2.1-.1.3-.2.5-.2v.2c.4-.1 0-.2 0-.3h.2c-.1-.3-.4-.3-.4-.5h-.1c-.4-.1.2-.1-.1-.2l.4.1c-.1-.1-.4-.3-.5-.5.3.3.4.4.6.5 0 0 0-.2-.2-.3l.1.1c-.3-.2-.5-.4-.5-.6.5.4.4.2.5.2s.2.1.4.3c-.1-.1.1-.1.1-.1.1.1.2.1.2.1-.1-.6 0 0 0-.6h.1l.3.4c.1.2-.1.1-.1.3.2 0 .1.3.2.4 0-.2.1-.3.2-.2l-.2-.3c.3-.3.3.5.6.2l-.1.2c.2-.1.6 0 .7-.5 0 .1.1.2 0 .3.4.1.8-.5 1.1-.2v.1c.1 0 .1-.3.2-.1v.2c0-.1.2-.3.3-.2l-.1.2c.4.2.5-.4.8-.5 0 .4.3.6.4.7v.1c.4.1.7-.4 1.1-.5.2.5.8.2 1.2.5-.1-.1 0-.3.1-.4.1.1.2-.3.2.1.1.4.3.3.4.3v-.5c.2.4.4.3.7.2.1-.1.2-.2.1.2.1-.1.1-.1.2-.3l-.1.3c0 .1 0 .1.1 0l-.2.2c.1 0 .1-.1.2-.2.2-.2.6-.5.6-.5h-.1c0 .1-.4.3 0 .3h-.2c0 .1-.3.1.3.1-.4 0 0 .3.1.5h-.3c.4.1.5.1.6.3h-.2c-.1.2.3.1.1.3l-.2-.1c0 .2.1.1.3.2.1.1-.1.3-.3.3.2 0 .4.1.3.2h-.2c-.2.3.3.4.1.6h-.2v-.4c-.3 0-.3.2-.7 0 .2.1.6.4.5.5h-.1v.1c0 .1-.1.1-.1.1-.2 0-.1.2-.1.3.3 0 .2.1.5 0v-.3c.1.1.3.1.1.2.2 0 .4.1.5.1-.4.1-.6.3-.8.4.2.3.1.6.6.8.1.1-.2.1-.2.1-.1 0 0-.1-.1-.1.1.1.1.4.4.5-.2.2-.3-.1-.3.2h-.1c-.6.5.9.8.2 1.4l.1-.1c-.3.6.3 1.3-.2 1.9-.1.2.1.2.3.3h-.3l.3.2c.3.3-.7.5-.3.8h.2c0 .1.1.4-.1.4 0 0 .2 0 .1.1h-.2l.3.3c-.1.2-.6 0-.7.3.1.1.5.4.6.3 0-.1.1-.1.3-.1l.1.1c.5 0 .9.1 1.3-.2l-.3-.2.2-.1v.2c.2-.1 0-.2-.1-.2.1 0 .2 0 .2-.1l-.4-.2c.2 0 .4.1.5 0-.2-.1-.4.1-.5-.1.2-.1.4-.1.2-.2.1 0 .2 0 .2.1-.1-.1-.1-.3-.3-.3.3-.1-.1-.3.4-.3-.1 0-.3-.2-.4-.3.5.2 0-.3.6-.3-.5-.1-.2-.4-.5-.6 0 0 .1 0 .1.1 0-.1.2-.2.3-.2-.4 0-.5-.2-.7-.3.4-.1.5.1.8 0-.3 0-.3-.3-.6-.2.2-.1.1-.1.4-.2-.5 0-.1-.1-.4-.2.2-.2.5 0 .3-.2.2 0 .4.2.4.2zm-.8-4.3s0 .1 0 0c0 .1 0 0 0 0zm0-.4v.2h-.2l.2-.2zm-2 .8c0-.1 0-.1 0 0 .1-.1.1 0 .1 0h-.1z"/><path id="XMLID_970_" class="st0" d="M229.8 211.3h-.1.1z"/><path id="XMLID_968_" class="st0" d="M226.2 225.6l.1.1c0-.1-.1-.1-.1-.1z"/><path id="XMLID_967_" class="st0" d="M226.9 225.7v-.1.1z"/><path id="XMLID_966_" class="st0" d="M218.2 222.1c-.1 0-.1 0 0 0z"/><path id="XMLID_965_" class="st0" d="M219.2 225.4c-.1.1-.2.1-.2.1s.1 0 .2-.1z"/><path id="XMLID_963_" class="st0" d="M218.8 225.5c0 .1.1 0 .2 0-.1 0-.1-.1-.2 0z"/><path id="XMLID_961_" class="st0" d="M229.7 225.8c.1 0 .1 0 0 0z"/><path id="XMLID_960_" class="st0" d="M229.9 225.7c-.1.1-.1.1 0 0z"/><path id="XMLID_958_" class="st0" d="M228.6 225.7c.1 0 .2.2.2.2v-.1c0 .1-.2-.3-.2-.1z"/><path id="XMLID_957_" class="st0" d="M227.5 224.5l.2.1c0-.1-.1-.3 0-.3-.3-.4.1.2-.2.2z"/><path id="XMLID_956_" class="st0" d="M226.8 224.3c.1-.1 0-.2 0-.2-.1.1-.1.1 0 .2z"/><path id="XMLID_955_" class="st0" d="M221.8 224.3v-.3c0 .1.1.1 0 .3z"/><path id="XMLID_954_" class="st0" d="M220.9 225.6l.1.2v-.3z"/><path id="XMLID_953_" class="st0" d="M220.7 223.8v.1z"/><path id="XMLID_952_" class="st0" d="M220.3 217.7h-.3c.1.1.4.1.3 0z"/><path id="XMLID_951_" class="st0" d="M220 214.1c.2 0 .3 0 .1-.1 0 .1-.2.1-.1.1z"/><path id="XMLID_950_" class="st0" d="M228.4 213.8v.1l.1-.1z"/></g></g></g><g id="XMLID_889_"><g id="XMLID_890_"><g id="XMLID_891_"><path id="XMLID_946_" class="st0" d="M259.3 260.5c.1.1.3.1.2-.3l-.3-.2.1.5z"/><path id="XMLID_945_" class="st0" d="M259.9 258.3c-.2-.4-.4-.8-.7-.6.3.4.2.5.6.9 0 .3-.1.6-.2.5.1.1-.1.5.1.7.3-.4.3-1 .1-1.5-.1-.2 0 0 .1 0z"/><path id="XMLID_943_" class="st0" d="M260.6 206.9c0 .1 0 .2.1.2-.1-.1-.1-.2-.1-.2z"/><path id="XMLID_942_" class="st0" d="M260 203.1h.3-.3z"/><path id="XMLID_941_" class="st0" d="M260.4 226.6l.1-.5c-.1-.1-.1.2-.1.5z"/><path id="XMLID_940_" class="st0" d="M259.1 253.9c0 .1 0 .2.1.3l-.1-.3z"/><path id="XMLID_939_" class="st0" d="M260.7 235.2v.2l.1.1-.1-.3z"/><path id="XMLID_938_" class="st0" d="M260.7 241.9c0-.2-.3-.2-.4-.3.1.1.2.2.2.3h.2z"/><path id="XMLID_936_" class="st0" d="M260.7 230.5s.1 0 .1-.1l-.1.1z"/><path id="XMLID_935_" class="st0" d="M252.6 259.1c0 .1 0 .1 0 0 0 .1.1 0 0 0z"/><path id="XMLID_934_" class="st0" d="M259.9 260.5h-.1v.2l.1-.2z"/><path id="XMLID_933_" class="st0" d="M253.2 202.8c.2-.1.1-.1 0 0z"/><path id="XMLID_932_" class="st0" d="M209.1 217.5c.3-.6.3 1 .6.1-.1.1-.4-.9-.6-.1z"/><path id="XMLID_931_" class="st0" d="M259.1 253.7v-.3.3z"/><path id="XMLID_930_" class="st0" d="M209.7 217.6c0-.1 0 0 0 0z"/><path id="XMLID_929_" class="st0" d="M239.1 202.9l.1.1-.1-.1z"/><path id="XMLID_928_" class="st0" d="M249.6 203.3h-.3.3z"/><path id="XMLID_927_" class="st0" d="M233.6 203.3c-.1 0-.2-.1-.4 0h.4z"/><path id="XMLID_926_" class="st0" d="M227.9 203.3s.1 0 .1.1h.2l-.3-.1z"/><path id="XMLID_925_" class="st0" d="M240.4 253.8l.3.3c-.1-.3.7-.3-.3-.3z"/><path id="XMLID_924_" class="st0" d="M259.2 253.9c-.1 0-.1-.1-.1-.2v.2h.1z"/><path id="XMLID_923_" class="st0" d="M233.4 205.5h-.9.9z"/><path id="XMLID_921_" class="st0" d="M229.8 205.5c-.2-.1-.3-.2-.5-.2 0 0-.1 0-.1.1l.6.1z"/><path id="XMLID_915_" class="st0" d="M246.6 253.4c-.9 0-.4.4-.6.6-1 .1-.5-.3-.8-.5-.6.1-1.1.4-1.6.4 0-.1-.1-.1 0-.2-.7.3-2 0-2.8.4-.1 0-.1-.1-.1-.1.1.2.1.4.1.5-.4 0-.7.2-.9 0 .2 0 .3-.1.4-.2l-.4.1c-.4-.3.6-.1.6-.4-.8.1-1.7.4-2.3.3-.1-.3 1.4-.1.6-.4l.9.1c-.7-.5.6 0-.1-.5-1.2-.1-1.4.2-2.6.1-.3.2.1.3-.2.5-1.7.3-1.4-.9-2.7-.4-.3.2-.5.7-1.4.4l.3-.4c-1.2 0-.7.6-1.9.3.2-.2.9-.1.8-.2-.8-.3-.6.2-1.2.2l-.1-.3c-1.3.1-2.7.3-4.1.4.1-.1.3-.2 0-.3-1.8.2-3.8 0-5.5-.2h-.1c-.1 0-.2.1-.4.1-.3.1-.5.1-.5.1-.3 0-.5-.1-.3-.2-1.3-.1 0 .2-.5.3-.6 0-1-.2-.6-.3-.2 0-.4 0-.6.1 0 .5.1 1.2.2 1.8 0 .5.1 1 .1 1.5 0 .8 0 1.6-.1 2.1l-.1-.2v.3l.2.2c.1.2.2.4.2.5h-.1v-.1H216c-1 0-2 0-2.8-.3-.2.2-.7.2-1.2.1h-.4c-.1 0-.2.1-.3.3-.2-.1-.2-.2-.2-.2.1-.1.1-.2.2-.4 0 0 .1-.1.1-.2v-.3c0-.4-.4-.7-.4-1.2h.3l-.3-.8.4-.4-.1-.5c0 .2-.1.4-.2.4-.1-.8.2-2 .4-2l-.3-1.9c.1 0 .2.4.2.6-.3-1 .3-.2 0-1.1-.1.1-.2-.1-.2-.1.2-.5.2-1.5.1-2.3l.2.2c.1-1.4-.1-3-.1-4.6-.1.6-.5.4-.5 0l.3-.2c-.2-.3-.1.5-.4-.1 0-.6.4-.4.5-.1l-.1-.7c.1 0 .1.1.3.2-.2-.3.3-1.3 0-1.7h.1c0-1.6-.1-2.3-.1-3.6-.3 0-.2-.5-.4-.9.1-1 .3-2 .3-3.2-.1-.8-.2-.2-.4-.6.3-.1.2-1.2.4-.6 0-1.4-.1-1.8-.3-3.5-.1.2-.2.4-.2.3 0-.3.1-.7.2-.7v.1c-.4-2 .7-4.6.2-6.1v.1l-.3-1.6c0-.7.2.4.4-.1-.4-1.8.1-2.8-.2-4.2.8-1.1-.1-4 .4-5.5l-.2.1c-.2-.4.1-.5.1-.8-.1 0-.2.4-.3.2-.1-1.2-.1-2.5 0-3.7 0-.6.1-1.3.1-1.9v-.4s0-.1.1-.1.1.1.2.1h1.1c1.2 0 .7-.9 2.3-.5l-.4.3c2.5-.4 5.1 0 7.6-.3-.1.1-.2.2-.4.2.5.2 1.9 0 1.9-.2.4 0 .1.2.3.3.5.1 1.3-.3 1.6-.1 0 0-.1.1-.2.1.3-.1 1.6 0 1.3-.2.9.1 1.8-.1 2.5 0 .5-.3 1.6.1 1.7-.3-.1.5 1.6.4 2.2.2-.2.1.5.1.3.3.7 0 1.3-.1 1.2-.3 1.2.5 2.5-.4 3.1.3 2-.2 3.8-.4 5.6-.5-.1.5-2 0-1.9.5 1.7-.2 2.7-.6 4.3-.5.4.1-.2.2-.4.3 1.7-.2 3.3 0 4.7-.2 0 0-.2.1-.3.1.3 0 .7.1.7-.1l-.3.1c-.5-.3 1.2-.6 1.2-.8-.5.6 1.5.1.7.9.2 0 .4-.1.4-.3.3 0 .4.1.1.3 1.1-.1.7-.3 1.6-.3 0 .1-.2.1-.3.3.5-.2 1-.4 1.8-.3 0 .1 0 .1-.2.1.7 0 1.3-.1 1.9-.2.3-.1.6-.1.9-.1h.7c-.5.4 0 .2-.1.4l-.1.1.1.2s.2-.2.2-.3c0 .2.1.3.1.5.1.3.1.6 0 .9l-.2-.5.1 1.3.4-.9c.2.7.5-.1.4.9 0-.2 0 .7-.2 1.1.1.4.2.7.2 1.3-.1.1-.4-.1-.5 0 .3.4.1 1.7.4 2.1-.1-.1-.3-.2-.3-.1l.3.3c-.1.3-.1.4-.3.3 0 1 .5-.3.3.9 0-.1-.1 0-.1-.2-.1 1.2.2 2.3 0 3.4-.4.3-.1-1-.4-.6.1 1.6.5 3.3.4 4.8v-.3c.5.2-.3 1.1 0 1.9 0-.2-.3-.2-.2-.2-.1 1 .1 2.1.3 3.7l-.3-.3c-.1.6-.1 1.6-.1 2.3.1.2.1.6.3.3-.8 2.1.4 3.9-.2 5.7 0-.2-.1-.5-.1-.3l.1 1.6c.2-.1.1-.2.3-.5.1.2.2.6.2 1-.2-.7-.4 0-.5.3.1-.1.1.1.2 0-.4.8.5.1.2 1.2l-.1-.1c.1.4.2.8.2 1.2-.3.2-.1-.4-.3-.5 0 .6.5 1.2.2 1.8-.1-.3-.1-.7-.1-.9-.3.6-.2.7-.3 1.2l-.1 1.1.1-.3c.7.8.1 1.6.6 2.7-.4-1-.3-.2-.6-.2-.1.3-.2.7-.3.6.2.5-.2.8.2 1.5-.1 0 0 .5-.3.4.1.7.2-.2.3-.1.3 1-.4 2.4.1 3.8.2 1.2.5 1.5.7 2.6-.2.4-.4-.3-.4-.3-.1.6-.1 1.1 0 1.7-.1-.1-.2 0-.3.2 0 .5.4.3.2.9-.1-.1-.3-.2-.4-.5.1.6.3 1.1.4 1.7-.2.2-.3-.3-.4-.6.1.7.2 1.7.4 1.9l.1-.4c0 .2-.2.1-.3-.1-.2-.6.1-.8.2-.8l.1.4c.6-.4-.1-1.7-.1-2.5l.4.3-.3-.9c.1-.2.3-.3.4.1.2-.6-.1-.5.1-1 0-.1.1 0 .1 0l-.1-.6c.1.1.3-.1.2.3.2-1-.3-1.7 0-2.1v.1c-.1-1.4-.3-.1-.7-1.2l.8-.7-.3-.1c0-.1 0-.4.2-.4-.2-.6-.1.1-.3-.2.3-.7-.1-2 .4-2.1-.2-.3-.2.7-.3-.1.5-.2-.1-.9.2-1.5.3.2.1.8.4.2-.5-.4.1-1.3 0-1.8-.4 0-.2-1.2-.3-2.1.1.1.2-1.8.3-2.6h.1c-.4-.2-.3-1.1-.4-1.7.2 0 .3.1.4.5v-.6c-.1-.1-.2-.3-.2-.7l.3.2c0-.8-.3-1.6-.1-2.7-.3-.1-.7.8-.9-.3.1 0 .4-.1.4.2 0-.1-.1-.3-.1-.5l.2.4c.1-.5-.2-.2-.2-.6.2 0 .1-.3.3-.2 0 .1-.1.3 0 .5 0-.4.2-.9.3-1.1-.1 0-.3 0-.3-.3 0-.8.2-.3.3-.8-.1-.2 0-.7-.3-.7 0-.2.1-.3.2-.4-.1-.4 0-2-.4-1.5-.3-1.4.2-2.9 0-4.2h.1c-.1-.8-.1-1.8-.3-2.4 0-.2.2-.6.3-.5-.1-.6-.2-.7 0-1.6.2.6.2-.2.1.6.1-.8.2-1 0-1.9.3.3.3-.6.2-1l-.2.6v-1.2l.3.2c.4-1.7-.7-3 0-4.3-.2-.4-.2.9-.4.5 0-.8.5-1.6.5-1.8.2-1-.5-1-.4-2.1-.1.1-.4.3-.5-.5 0-.8.5-.9.6-.5 0 .2 0 .3-.1.3 0 .2.1.6.2.3l-.1-.1c.1-.4.1-1.4.3-1.2-.1-.6-.2-.2-.3.2 0-.2.1-.4.1-.6v-2.5h-.6c.2.1.3.2.1.2-1.1-.1-1.4 0-1.5.1-.1 0-.1.1-.3.1-.1 0-.3.1-.6.1-.6-.2.2-.4-.8-.3-.6-.1-.1-.3.1-.4-.9.2-1.7-.2-2.2-.2l.5-.1c-.3.1-.5.1-.8.1l.3.2c-.3 0-.5 0-.5-.1-.3.2.2.4-.4.6-.4-.1-1.2.1-1.3-.2 1.2.1-.1-.3.9-.4h-.7s0-.1.1-.1c-1.1-.3-.5.4-1.7.3.2-.2-.3-.3-.5-.3.5 0 .2.3-.2.4-.8-.1-.8.1-1.2.1l.5.1c-.2.2-.5.2-1.1.2 0-.1.5-.1.3-.2-.6.3-1.3-.3-2.1-.1-.4-.1 0-.3-.4-.4-.9.2-1-.2-2-.1.3.2.3.2-.4.4l1.6-.2-1 .3c.5 0 1-.2 1.3-.1-.5.2-.4.1-.2.3-.7-.4-1.3.2-2.1 0v-.6c-1.1-.3-2 .3-3.5.2l.5.1c-.2.2-.9 0-1.4.1 0-.2-.3-.3-.5-.4 0 .1-1.1 0-1.2.4l-.7-.3c-1.2-.1-1.4.6-2.5.5.3-.2-.2-.4.6-.5-.4 0-.7 0-.7.1-.2-.1-1.1.3-1.4.1-.2.1-.2.3-.6.3v-.1c0 .1-.7.1-.3.4-1.2-.6-3.3 0-4.3-.5-.8.1-1.8.1-2.6.1 0-.1 0-.1.1-.1-1-.2-.6.6-1.8.4-.6-.3.6-.2.3-.3-.2-.6-1.4.1-2.2-.3h.2c-.6-.2-1.5.2-2.5.2v-.1c-.7.3-2 .4-2.9.5.3-.3.4-.1.3-.4-.4 0 .1.4-.7.5-.3-.1-.9-.3-1-.5h.8c-.4-.4-1.1 0-1.5 0l.1-.2c-1.3.1-1.2.4-2.6.4l.2.1c-.4.2-.6.1-.8.1-.2-.1-.5-.1-.8 0l-.6-.4h-.2c.1.4.1 1 .2 1.7s.2 1.1.2 1.5c-.1-.1-.1-.3-.2-.5s-.1-.3-.2-.6c-.1-.6-.2-1.3-.3-1.8v2.3c0 .2.1.3.1.3 0-.2-.1-.4-.1-.7.3.7.5 1.4.5 2.4-.8-.2-.2 2.5-.8 3.2.3 1.7-.1 3.3-.1 5.3.6-.7 0 .6.6.5v.7l-.4 1.4c-.2.3-.1-.4-.3-.4 0 1-.3.4-.4 1.1.2-.1.3.3.2.9l.3-.8c.3 1.4-.5 1.2-.2 2.6l-.2-.4c.1.7 0 2.7.5 3.4-.1.1-.2.3-.3 0-.1 1.7.5 3.9.2 5.2l-.1-.1c0 .3.3.6.1 1-.1 0-.1-.1-.2 0 .1.2.3.9.2 1.3l-.2-.4c-.2 1.7.4 2.6.5 4-.4 0-.6 1.3-.7 2h-.1c-.1 2 .4 3.3.5 5.2-.5 1.1-.2 3.8-.5 5.6.1-.3.3 0 .4.4-.1.4.3 1.2-.1 1.1v-.2c-.4.3-.3 1.2-.3 1.9l.5.1c-.8 1.8.3 4.7-.4 5.7.1.2.1.5.1.7 0 .1 0 .2.1.4 0 .2 0 .4.1.5h-.3c0 .9 0 1.7-.1 2.4h3.3l-.3.2c.8 0 1.1-.8 1.8-.8l.2.4c.7 0 1.5.1 2.2.1.8 0 1.2 0 2.6-.2 0 .1 0 .2-.5.2.5 0 1.4 0 2.3.1 0-1.3 0-2.4-.4-2.3.1 0 .1-.1.2-.4v-.7c-.1-.5-.2-1-.3-1.4l.3.1c-.2-.3-.3-.5-.4-.7 0-.1-.1-.2-.1-.3 0-.1-.1-.2-.1-.4 0-.1.2 0 .2.1.1-.2-.1-.4-.1-.7h.3s-.1.2 0 .2c.4 0 .3-.1.5-.3.1-.1.5 0 .8 0 .3.1.6.2.6.3.1-.2.5-.4 1-.3.1.1-.1.2-.2.2 1.3.2 1.9-.3 2.7-.1 0 .1.1.1.1.2h-1.7c0 .3.8.3.2.7.6-.2 1.8-.6 2.5-.5 0 0 .1 0 .1.1h-.1.5c.3 0 .4.1.7.1.1.2.9.1 1.3.1 0-.3.5-.2 0-.5h-1.5c.3-.1.7-.3 1.1-.1.2-.2.4-.4.6-.5.6.4 1.6.6 1.8.8 1.2-.2 2.9-.1 3.7-.6.3-.1.4.2.5.2-.2.1-.4 0-.6.1.7-.1 2.1-.1 2.2-.4.9.2-.5.3.7.3l-.2.1c2.4.6 3.9-.9 6.5-.2-.2 0-.3-.1-.3-.1 1.2.1 2.4.1 3.7.1l1.8-.1h1.3c0 .2 0 .4-.1.6l-.1.3v.3c-.1.8.1.9.3 1.5l-.3.2s.1.2.2.5.2.5.2.5c.1.5 0 .9-.1 1.5.4.1.8.2 1.4.3.7.1 1.1.1 1.6-.1l-.2-.2c.6 0 1.8-.1 1.7.1.1 0 .2-.2.4-.1v.2l1.4-.3c1.1.1-.2.6 1.4.7.6-.1 1.7-.5 1.5-.6-.2 0-.6-.1-.6-.3l.5-.1c.1-.5.5-.9-.8-1.3l-.9.3-.3-.2h.8c-.4-.2-.7 0-1 .1-.1-.1-.2-.2-.4-.2l-.9.4c-.1-.2.4-.4-.2-.5-.4.2.4.4-.3.5-.4-.2-.3-.4-.8-.2-.1-.1 0-.2.2-.2-.5.1-1.2.1-1.5.3-.2-.1-.6-.1-.9-.1-.2 0-.2 0-.2-.3 0 .1-.3.3-.6.4 0 0 .1 0 .1-.1.1 0 .1-.1.1-.1.2-.2-.1-.5.4-.5h-.1s0-.1-.1-.1c0-.1-.1-.2-.1-.3 0-.2-.1-.5-.1-.8V256c0-.2 0-.4-.1-.6 0 .1.1.2.1.4 0-1 .2-1.4.3-2.1h-.2c-.7.3-1.9.4-2.5.6-.5-.2-.4-.3-.1-.4.3-.1.7-.2.6-.4 0 .2-.7.2-1 .3-.3.1-.5.1-.4.3-.5-.2-.5-.1-.7-.4-.1.5-.5.1-.9.4-.8-.2-.2-.5-1-.3.2-.3.9-.4.9-.4zm-20.1.8h.4-.4zm-1.7 0h.7c.1.1 0 .2-.2.2.2 0-.2-.1-.5-.2zm3.6 2c-.3 0-.4 0-.4-.1h.5s-.1 0-.1.1z"/><path id="XMLID_914_" class="st0" d="M228.9 255.8h.1c-.1-.1-.1-.1-.1 0-.1-.1-.1 0-.1 0h.1z"/><path id="XMLID_912_" class="st0" d="M211.5 257.8v.1z"/><path id="XMLID_911_" class="st0" d="M259.4 236.1l-.1.1s.1 0 .1-.1z"/><path id="XMLID_910_" class="st0" d="M259.3 240.2l-.1.6c.1-.3.1-.5.1-.6z"/><path id="XMLID_909_" class="st0" d="M259.2 243.2l.1.1-.1-.1z"/><path id="XMLID_908_" class="st0" d="M249.8 205.2h-.1c-.3.1-.1.1.1 0z"/><path id="XMLID_907_" class="st0" d="M259.5 208.7c-.1-.2-.1-.3-.1-.5 0 .3-.1.5.1.5z"/><path id="XMLID_906_" class="st0" d="M233.5 205.5h-.1z"/><path id="XMLID_905_" class="st0" d="M259.4 207.5c-.1.3 0 .5 0 .7v-.7z"/><path id="XMLID_904_" class="st0" d="M259.1 256.7v.1-.1z"/><path id="XMLID_902_" class="st0" d="M259.2 257.3l-.1-.3c0 .1 0 .3.1.3z"/><path id="XMLID_901_" class="st0" d="M259.2 252.6h-.1c0-.1 0 0 .1 0z"/><path id="XMLID_900_" class="st0" d="M259.2 251.3c0 .3-.2.7-.2 1.2h.1c-.2-.2.2-.9.1-1.2z"/><path id="XMLID_899_" class="st0" d="M260.4 246.1l-.1 1c.1-.2.3-.4.3.1.3-1.3-.2.3-.2-1.1z"/><path id="XMLID_898_" class="st0" d="M260.6 242.9c.1.6.2 0 .2 0-.1-.3-.1-.4-.2 0z"/><path id="XMLID_897_" class="st0" d="M260.6 219.5l.3.1c-.1-.5-.2 0-.3-.1z"/><path id="XMLID_896_" class="st0" d="M259.3 215l-.2.5.2.2z"/><path id="XMLID_895_" class="st0" d="M261.1 212.4v.2l-.1-.7z"/><path id="XMLID_894_" class="st0" d="M228.9 203.1l.1.3c.3-.1.4-.4-.1-.3z"/><path id="XMLID_893_" class="st0" d="M212 203.4c-.2-.2-1-.3-1.4-.1.6 0 1.2.1 1.4.1z"/><path id="XMLID_892_" class="st0" d="M209 253.3l-.1-.4.1.7z"/></g></g></g><g id="XMLID_831_"><g id="XMLID_832_"><g id="XMLID_833_"><path id="XMLID_888_" class="st0" d="M232 190.7c.1.1.3 0 .2-.1l-.3-.1.1.2z"/><path id="XMLID_887_" class="st0" d="M232.6 189.6c-.2-.2-.4-.4-.7-.3.3.2.2.2.6.4 0 .2-.1.3-.2.3.1.1-.1.3.1.3.3-.2.3-.5.1-.8 0 .1.1.1.1.1z"/><path id="XMLID_886_" class="st0" d="M226.4 180.4c0 .1 0 .1 0 0z"/><path id="XMLID_885_" class="st0" d="M225.2 170.9c.1 0 .2 0 .2-.1l-.2.1z"/><path id="XMLID_884_" class="st0" d="M223.2 170.6c.1 0 .1 0 0 0 .1-.1.1-.1 0 0z"/><path id="XMLID_883_" class="st0" d="M226.4 180.4l.1-.3c-.1.1-.1.2-.1.3z"/><path id="XMLID_882_" class="st0" d="M231.8 187.4c0 .1 0 .1.1.1l-.1-.1z"/><path id="XMLID_881_" class="st0" d="M228.2 181.8c.1 0 .1-.1.1-.1l-.1.1z"/><path id="XMLID_880_" class="st0" d="M231.8 181.7c-.1 0-.2.3-.3.4.1-.1.2-.2.3-.2v-.2z"/><path id="XMLID_878_" class="st0" d="M226.7 181.7l.1-.1s-.1 0-.1.1z"/><path id="XMLID_876_" class="st0" d="M232.7 190.8c-.1.1-.1.1-.1.2l.1-.2z"/><path id="XMLID_874_" class="st0" d="M204.2 185.1c.3-.3.3.5.6 0-.1.1-.4-.4-.6 0z"/><path id="XMLID_873_" class="st0" d="M231.9 187.3c-.1 0-.1 0 0 0z"/><path id="XMLID_871_" class="st0" d="M215.9 175.6s.1 0 .1-.1c0 .1 0 .1-.1.1z"/><path id="XMLID_870_" class="st0" d="M218.1 170.8h-.2c.1-.1.2 0 .2 0z"/><path id="XMLID_869_" class="st0" d="M216.3 178.4c0 .1-.1.1 0 .2v-.2z"/><path id="XMLID_867_" class="st0" d="M224.7 196.5c.1-.1.2-.1.3-.1-.2 0-.3-.4-.3.1z"/><path id="XMLID_866_" class="st0" d="M232 187.4c-.1 0-.1 0-.1-.1v.1h.1z"/><path id="XMLID_864_" class="st0" d="M218.3 192.6v.1-.1z"/><path id="XMLID_863_" class="st0" d="M218.5 180.3c-.1.1-.2.2-.2.3l.1.1.1-.4z"/><path id="XMLID_857_" class="st0" d="M224.3 193.4c0 .4.4.2.6.3.1.5-.3.2-.5.4.1.3.4.6.4.8-.1 0-.1.1-.2 0 .3.3 0 1 .4 1.4 0 0-.1 0-.1.1.2-.1.4-.1.5-.1 0 .2.2.4 0 .4 0-.1-.1-.1-.2-.2l.1.2c-.3.2-.1-.3-.4-.3.1.4.4.9.3 1.2-.3.1-.1-.7-.4-.3l.1-.5c-.5.4 0-.3-.5 0-.1.6.2.7.1 1.3.2.1.3 0 .5.1.1.2.1.4 0 .5-.1.1-.2.1-.3.1-.2 0-.4-.1-.2.1.2.1.7.5.4.6l-.2-.2-.2-.2v.1c0 .1.3.5-.1.3 0-.2.1-.1 0-.2-.3-.3.1.2-.1.2l-.1-.3s-.1 0-.1.1c-.1 0-.3.1-.5.1-.3.1-.7.2-1 .2 0-.1.2-.2 0-.3-.9.2-1.9 0-2.8-.2l-.3.3c-.1 0-.1-.1-.1-.2-.3-.1 0 .2-.2.3-.2 0-.3-.2-.1-.3-.1.1-.3.1-.5.2-.1 0-.2.1-.2.1s-.1 0-.1.1c-.2.1-.4.1-.4-.1v-.1h.1c0-.1-.1 0-.2 0s-.2 0-.1-.2h.1V198c0-.5 0-1 .3-1.4-.4-.2.2-1-.4-1.1.3-.6.4-.4.6-1.3 0-.2-.4-.3-.4-.6h.3l-.3-.4.4-.2-.1-.3c0 .1-.1.2-.2.2-.1-.2 0-.4.1-.7s.2-.6.3-.7c0 0-.1-.4-.1-.8-.1-.4-.1-.7-.1-.7.1-.1.2.2.2.3-.3-.6.3-.5.1-1h-.1c0 .1-.2.2-.3.2-.2-.2-1.2-.2-1.9-.1l.2-.2h-1.5c-.4 0-.8.1-1.2.1.3.1.2.5 0 .5l-.1-.3c-.2.2.2.1-.1.4-.3 0-.2-.4 0-.5l-.4.1c0-.1.1-.1.1-.3-.2.2-.6-.3-.8 0v-.1c-.8 0-1.2.1-1.8.1 0 .3-.3.2-.5.4-.5-.1-1-.3-1.6-.3-.4.1-.1.2-.3.4 0-.3-.6-.2-.3-.4-.3 0-.6 0-.8.1-.1 0-.2.1-.4.2 0 .1 0 .2-.1.2s-.1-.1 0-.2c-.1.1-.2.1-.3.1 0-.2.2-.6.3-.7.1 0 .1-.3.1-.5s0-.4-.1-.6l-.3-.8c0-.4.2.2.4-.1-.4-.9.1-1.4-.2-2.1.2-.1.3-.3.3-.5v-.5c0-.1-.1-.3 0-.2 0 0 .1 0 .1.1l-.2-.2c-.1-.2.1.1.2.1-.1-.1-.2-.2-.2-.3.1-.1.2-.1.3 0 .4 0 .9.1 1.3.1.9.1 1.7.3 2.6.4.6 0 .4-.9 1.1-.5l-.2.3c.6-.2 1.3-.2 1.9-.2h1.5l.5-.1c-.1.1-.2.2-.3.2l.1.1h.9c.4-.1.6-.2.6-.3.3 0 .2.2.5.3.4.1.7-.1 1-.1 0-.2 0-.3.1-.3 0 0 .1.2.1.3-.1-.4 0-1.5-.2-1.3.1-.7-.1-1.7 0-1.9-.3-.2.1-.8-.3-.9.5 0 .4-.8.2-1.1.1.1.1-.3.3-.1 0-.3-.1-.6-.3-.6.5-.6-.4-1.2.3-1.6-.2-1-.4-1.9-.5-2.8.5 0 0 1 .5.9-.1-.4-.2-.8-.3-1.1-.1-.2-.1-.2-.1-.3v-.3c.1-.1.2.2.3.2-.1-.1-.1-.2-.1-.3.2 0 .3 0 .5-.1v.1s.1.1.1-.1l-.1.1c0-.1-.1-.3.2-.4.2-.1.4-.3.4-.3-.3.6.7.1.3.9.1 0 .2-.1.2-.3.1 0 .2.1 0 .3.5-.1.3-.3.8-.3 0 .1-.1.1-.1.3.2-.2.5-.4.9-.3 0 .1 0 .1-.1.1.7 0 1.2-.5 2-.3-.2.4.3.1.3.5l.4-.1-.2-.2c.2 0 .4-.1.5-.1.1-.1.2-.1.3 0l-.2.2.4-.1-.2-.1c.3-.2.1-.5.5-.4-.1 0 .3 0 .3.2l.1-.1c.1 0 .2.1.1.4-.1.1-.4.2-.5.3.3-.1.1.4.4.6-.1-.1-.3 0-.3 0l.3.1c-.1.2-.1.2-.3.2 0 .5.5-.2.3.4 0 0-.1 0-.1-.1-.1.6.2 1.2 0 1.7-.4.2-.1-.5-.4-.3.1.8.5 1.6.4 2.4v-.1c.5.1-.3.6 0 1 0-.1-.3-.1-.2-.1-.1.5.1 1.1.3 1.9l-.1-.1c-.1.2-.1.4-.1.6v.7c.1.1.1.4.3.2-.3.6-.3 1.2-.2 1.7 1-.1 1.7-.4 2.3 0-.1 0-.3.1-.2.1 0 0 .2 0 .4-.1.2 0 .4-.1.4-.1-.1-.2-.1-.1-.3-.3.1-.1.3-.2.5-.2-.4.2 0 .4.2.5v-.2c.4.4.1-.5.6-.2v.1c.2-.1.4-.2.6-.2.1.3-.2.1-.2.3.3 0 .6-.5.9-.2-.1.1-.3.1-.5.1.3.3.3.2.6.3l.5.1-.1-.1c.1-.3.3-.4.5-.4s.3 0 .8-.2c-.8.4-.3.3-.5.6 0 .1 0 .2-.1.3.1 0 .1-.1.1-.1 0 .1-.2.3.1.3-.1.1 0 .1-.3.2.1.1.2-.1.3-.2.2.1.1.3 0 .5-.1.3-.2.7.1 1 .2.6.5.7.7 1.3-.2.2-.4-.2-.4-.2-.1.3-.1.6 0 .9-.1-.1-.2 0-.3.1 0 .2.4.2.2.5-.1-.1-.3-.1-.4-.2.1.3.3.6.4.9-.2.1-.3-.2-.4-.3.1.3.2.8.4.9l.1-.2c0 .1-.2.1-.3 0-.2-.3.1-.4.2-.4l.1.2c.6-.2-.1-.8-.1-1.3l.4.2-.3-.4c.1-.1.3-.2.4.1.2-.3-.1-.3.1-.5h.1l-.1-.3c.1.1.3 0 .2.1.2-.5-.3-.8 0-1-.1-.7-.3-.1-.7-.6l.8-.4-.3-.1c0-.1 0-.2.2-.2-.2-.3-.1 0-.3-.1.1-.2.1-.5.1-.7 0-.2 0-.4.3-.6-.2 0-.2.5-.3.2.4-.4.2-.4.1-.6h-.2c.3-.3.6-.1.4-.4-.3.2-.5.2-.7.1-.2-.1-.4-.2-.6-.1-.1.4-.8.2-1.3.3 0-.1-.9-.2-1.3-.3v-.1c-.1.4-.5.3-.9.4 0-.2.1-.3.2-.4h-.3c-.1.1-.2.2-.4.2l.1-.3c-.5 0-.7.3-1 .1-.1.1-.1.3-.1.5s-.1.3-.5.4c.1-.1.2-.4.4-.4 0 0-.2.1-.3.1 0 0 .4-.2.3-.2-.1-.1-.2.2-.4.2.2-.2 0-.1.2-.3 0 0 .1.1.2 0-.1 0-.2-.1-.1-.2 0-.1.1-.1.1-.2-.1.1-.3.3-.3.2 0-.3.2-.3.3-.5-.1 0 0-.2-.3-.1 0-.1.1-.1.2-.2-.1-.1-.1-.1-.1-.3 0-.2-.1-.3-.2-.2v.1c-.3-.7.2-1.4 0-2.1h.1c-.1-.4-.1-.9-.3-1.2 0-.1.2-.3.3-.2-.1-.3-.2-.3 0-.8.2.3.2-.1.1.3.1-.4.2-.5 0-.9.3.1.3-.3.2-.5l-.2.3v-.6l.3.1c.2-.4 0-.8-.1-1.1-.1-.2-.1-.3-.1-.5s.1-.5.2-.8c-.2-.3-.2.7-.4.5 0-.5.5-1.3.5-1.6.1-.5 0-.6-.2-.7-.3.1-.6.2-.9.2 0 .1-.2.4-.7.5-.4 0-.4-.5 0-.6.1 0 .2 0 .2.1.2 0 .5-.1.3-.2l-.1.1c-.2-.1-1.1-.1-.9-.3-.5.1-.2.2.1.3-.2 0-.4-.1-.5-.1h-.9c.1.1.2.2.1.2-.7-.1-.3.2-.8.3-.3-.2.1-.4-.4-.3-.3-.1-.1-.3.1-.4-.5.2-.9-.2-1.1-.2l.2-.1c-.1.1-.3.1-.4.1l.1.2c-.1 0-.3 0-.3-.1-.1.2.1.4-.2.6-.2-.1-.6.1-.6-.2.6.1-.1-.3.4-.4h-.4s0-.1.1-.1c-.6-.3-.3.4-.9.3.1-.2-.1-.3-.2-.3.2 0 .1.3-.1.4h-.4c-.1 0-.2.1-.3.1l.3.1c-.1.2-.4.2-.7.2-.1-.1.3-.1.1-.2-.2.2-.4.1-.7 0-.3-.1-.7-.2-.9-.1-.1.2-.3-.3-.4-.1.1.5.1.6 0 .8s-.1.4 0 .9c.2-.2.2-.2.4.4l-.2-1.3.3 1c0-.3-.2-.8-.1-1 .2.5.1.4.3.4-.2.1-.1.4-.1.6.1.3.1.5 0 .7h-.6c-.3.7.3 1 .2 1.8l.1-.2c.2.1 0 .5.1.7-.2 0-.3.1-.4.2.1 0 0 .5.4.6l-.3.3c-.1.6.6.7.5 1.3-.2-.2-.4.1-.5-.3 0 .2 0 .4.1.4-.1.1.3.5.1.7.1.1.3.1.3.3h-.1c.1 0 .1.3.4.1-.3.3-.3.7-.3 1.1 0 .4.1.9-.2.9.1.2.1.6.1.8l-.1-.1c-.2 0 .3.6-.3.4-.4-.3.1-.2-.1-.3-.4-.6-.3.1-.8-.3h.1c-.3-.2-.8.2-1.3.2v-.1c-.3.3-1 .4-1.5.5.2-.3.2-.1.1-.4-.2 0 .1.4-.4.5-.1-.1-.5-.3-.5-.5h.4c-.2-.4-.5 0-.7 0v-.2c-.6.1-.6.4-1.3.4l.1.1c-.4.4-.3-.2-.7.1l-.1-.4c-.2.1-.8.4-1.3.5.2-.3.8-.4 1.1-.6-.2 0-.8 0-.9.2.1 0 .2-.1.3-.1-.3.3-.7.5-1.2.5 0-.4-.3-.4-.6-.5-.5 0-1.1 0-1.6-.3-.3.1-.6.1-1 .1 0 .5 0 1-.1 1.5 0 .3 0 .6-.1.9v.7c.6-.4 0 .3.6.2v.3l-.4.7c-.2.2-.1-.2-.3-.2 0 .5-.3.2-.4.5.2-.1.3.2.2.5l.3-.4c.3.7-.5.6-.2 1.3l-.2-.2c.1.4 0 1.3.5 1.7-.1.1-.2.1-.3 0v.7c0 .3 0 .5.1.7.1.4.1.9.2 1.3.6-.1 1.1-.1 1.4 0l-.2.1c.3 0 .6-.3.9-.1 0 .1-.1.1 0 .2.1 0 .3-.1.5-.1s.3-.1.4 0l-.2.2c.8.2 1.3-.4 2-.5 0 .4.7.6 1 .7v.1c1 .1 1.7-.4 2.6-.5.3.2.8.3 1.3.3h1.5c0-.1 0-.3.1-.4 0 .1.4-.3.2.1-.1.4-.1.3 0 .3l.5-.5c-.4.6-.3.5-.2.8.1.5.2 1-.2 1.3.1.2.1.5.3.7h-.3c-.1.6-.1.9 0 1.6l-.2-.2c0 .4.8.5.8.9l-.4.1c0 .4-.1.7-.1 1.1v.5c0 .1 0 .2.1.3 0 .2.1.3.1.5-.1 0-.2 0-.2-.2 0 .6-.3 2.6.3 1.9-.1.1-.2.3-.2.6.5 0 1.2-.2 1.7-.3l-.2.3c.7-.4.7-.5 1.4-.6.1 0 .1.2-.1.2.4.1.3-.3.7-.1l-.2.2c.4 0 .3-.1.6-.3.2-.1.7.1.8.3.1-.2.3-.4.5-.3 0 .1-.1.2-.1.2.6.2.9-.3 1.4-.1 0 .1 0 .1.1.2h-.9c0 .3.4.3.1.7.3-.2.9-.6 1.3-.5l.1.1h.3c.1 0 .2.1.3.1 0 .2.5.1.7.1 0-.3.2-.2 0-.5h-.8c.2-.1.3-.3.6-.1.1-.2.2-.4.3-.5.3.4 1.2.6 1.5.8.4-.1.8-.1 1.2-.1-.1-.8-.2-1.5-.5-1.9-.1-.2.2-.2.2-.3.1.2 0 .3.1.4-.1-.3-.1-.7-.1-1 0-.2-.1-.4-.3-.5.2-.4.3.2.3-.4l.1.1c.6-1.2-.9-1.9-.2-3.3 0 .1-.1.1-.1.2.1-.7.1-1.4.1-2.1v-.9c0-.2 0-.5.1-.6.1 0 .3.1.4.1.3.1.2-.1.3-.3l.1.3s0-.1.1-.2l.2-.2c.6-.3 1.1.7 1.9.3l-.1-.2c.3 0 .9-.1.9.1 0 0 .1-.2.2-.1v.2l.7-.3c.5.1-.1.6.7.7.3-.1.8-.5.7-.6-.1 0-.3-.1-.3-.3l.3-.1c0-.5.3-.9-.4-1.3l-.5.3-.1-.2h.4c-.2-.2-.4 0-.5.1 0-.1-.1-.2-.2-.2l-.5.4c-.1-.2.2-.4-.1-.5-.2.2.2.4-.1.5-.2-.2-.2-.4-.4-.2 0-.1 0-.2.1-.2-.2.1-.6.1-.7.3-.2-.3-.8.1-.8-.4-.1.1-.4.3-.6.4.4-.5-.8 0-.7-.6-.3.2-.7.3-1.2.3s-1 0-1.3.2c0 0 0-.1.1-.1h-.3c-.1.2-.2.3-.2.5.4.4.5 1.2.7 1.6-.2.2-.3.1-.4-.1-.1-.2-.2-.4-.4-.4.3.1.3 1.2.6 1-.1.2-.1.3-.2.3 0 0-.1.1-.3.1.5 0 .1.2.4.5-.2.4-.5.1-.3.5-.9 0-1.1-.4-1.1-.4zm-1.5 6.3zm-.8 0h.4c0 .1 0 .2-.1.2 0-.1-.2-.1-.3-.2zm1.8 1.9c-.1 0-.2 0-.2-.1.1 0 .1 0 .2.1 0-.1 0 0 0 0z"/><path id="XMLID_856_" class="st0" d="M224 201.3s0-.1 0 0c0-.1 0-.1 0 0z"/><path id="XMLID_854_" class="st0" d="M218.4 193.5h-.1l.1.1z"/><path id="XMLID_853_" class="st0" d="M228.6 183.1c.1 0 .1 0 0 0 .1 0 .1 0 0 0z"/><path id="XMLID_852_" class="st0" d="M230.7 183.1l.3.1c-.2 0-.3-.1-.3-.1z"/><path id="XMLID_851_" class="st0" d="M231.7 183.3c0-.1.1-.1.1-.1l-.1.1z"/><path id="XMLID_850_" class="st0" d="M218.6 172.6c0 .1 0 .1 0 0z"/><path id="XMLID_849_" class="st0" d="M225.4 172c-.1 0-.2.1-.3.1.1 0 .2 0 .3-.1z"/><path id="XMLID_848_" class="st0" d="M218.5 178.4v.1z"/><path id="XMLID_847_" class="st0" d="M224.9 172.1c.1.1.1 0 .2 0h-.2z"/><path id="XMLID_846_" class="st0" d="M231.8 188.8c0 .1 0 .1 0 0z"/><path id="XMLID_845_" class="st0" d="M231.8 188.9c.1 0 .1 0 0 0z"/><path id="XMLID_844_" class="st0" d="M231.9 189.2l-.1-.2c.1 0 0 .1.1.2z"/><path id="XMLID_843_" class="st0" d="M231.9 186.8h-.1c0-.1.1 0 .1 0z"/><path id="XMLID_842_" class="st0" d="M231.9 186.1c0 .1-.2.4-.2.6h.1c-.1-.1.3-.4.1-.6z"/><path id="XMLID_841_" class="st0" d="M233.1 183.3l-.1.7c.1-.1.3-.3.3 0 .4-.9-.2.3-.2-.7z"/><path id="XMLID_840_" class="st0" d="M232.4 181.9c.4-.1.1-.2.2-.2-.3.1-.4.1-.2.2z"/><path id="XMLID_839_" class="st0" d="M226.6 176.9h.3c-.1-.2-.2 0-.3 0z"/><path id="XMLID_838_" class="st0" d="M225.2 174.7l-.1.2.2.1z"/><path id="XMLID_837_" class="st0" d="M227.1 173.3c0 .1 0 0 0 0 0-.2-.1-.4-.1-.3v.2c0 .1.1.1.1.1z"/><path id="XMLID_836_" class="st0" d="M216.1 180.7h.3c-.1-.2-.4-.2-.3 0z"/><path id="XMLID_835_" class="st0" d="M210.4 181.8c-.1-.2-.3-.3-.5-.1.2 0 .4.1.5.1z"/><path id="XMLID_834_" class="st0" d="M215.9 192.1h-.1z"/></g></g></g><g id="XMLID_773_"><g id="XMLID_774_"><g id="XMLID_775_"><path id="XMLID_830_" class="st0" d="M194.1 235.4c.1-.1 0-.3-.1-.2l-.1.3.2-.1z"/><path id="XMLID_829_" class="st0" d="M193.1 234.8c-.2.2-.4.4-.3.7.2-.3.2-.2.4-.6.2 0 .3.1.3.2.1-.1.3.1.3-.1-.2-.3-.5-.3-.8-.1l.1-.1z"/><path id="XMLID_827_" class="st0" d="M186.5 216.3c0 .1 0 .1.1.1-.1 0-.1-.1-.1-.1z"/><path id="XMLID_826_" class="st0" d="M186.8 214.6c0 .1 0 .1 0 0 .1.1.1.1 0 0z"/><path id="XMLID_825_" class="st0" d="M186.3 226.1l.1-.3c-.1 0-.1.2-.1.3z"/><path id="XMLID_824_" class="st0" d="M190.9 235.6c.1 0 .1 0 .1-.1 0 0-.1 0-.1.1z"/><path id="XMLID_823_" class="st0" d="M186.6 230.5c0 .1.1.1.1.1l-.1-.1z"/><path id="XMLID_822_" class="st0" d="M186.6 233.5s-.3 0-.4.1h.2c.1-.1.1-.1.2-.1z"/><path id="XMLID_821_" class="st0" d="M190.1 234.5c.1-.1.1-.1 0 0z"/><path id="XMLID_820_" class="st0" d="M186.6 228.1h.1c0-.1 0 0-.1 0z"/><path id="XMLID_819_" class="st0" d="M195.5 230.9c-.1 0-.1 0 0 0-.1 0 0 0 0 0z"/><path id="XMLID_818_" class="st0" d="M194.1 234.7c-.1-.1-.1-.1-.2-.1l.2.1z"/><path id="XMLID_817_" class="st0" d="M187.2 211.6c0 .1 0 0 0 0z"/><path id="XMLID_816_" class="st0" d="M189.6 188.4c-.3-.3.5-.3 0-.6.1.1-.4.4 0 .6z"/><path id="XMLID_815_" class="st0" d="M190.8 235.6h-.1.1z"/><path id="XMLID_814_" class="st0" d="M189.7 187.8c-.1 0 0 0 0 0z"/><path id="XMLID_813_" class="st0" d="M187 204.5s-.1 0-.1.1c0 0 .1 0 .1-.1z"/><path id="XMLID_812_" class="st0" d="M186.6 209.8c.1-.1 0-.1 0 0z"/><path id="XMLID_811_" class="st0" d="M186.6 201.8c0-.1.1-.1 0-.2.1.1.1.1 0 .2z"/><path id="XMLID_810_" class="st0" d="M186.6 198.9c0 .1 0 .1 0 0-.1.1 0 .1 0 0z"/><path id="XMLID_809_" class="st0" d="M195.3 222.3c-.1.1-.2.1-.3.1.3-.1.3.4.3-.1z"/><path id="XMLID_808_" class="st0" d="M190.9 235.4c0 .1 0 .1-.1.1l.1-.1c0 .1 0 .1 0 0z"/><path id="XMLID_807_" class="st0" d="M184.4 201.7v-.5.5z"/><path id="XMLID_805_" class="st0" d="M184.4 199.9c.1-.1.2-.2.2-.3l-.1-.1-.1.4z"/><path id="XMLID_799_" class="st0" d="M195.7 225.4c0-.4-.4-.2-.6-.3-.1-.5.3-.2.5-.4-.1-.3-.4-.6-.4-.8.1 0 .1-.1.2 0-.3-.3 0-1-.4-1.4 0 0 .1 0 .1-.1-.2.1-.4.1-.5.1 0-.2-.2-.4 0-.4 0 .1.1.1.2.2l-.1-.2c.3-.2.1.3.4.3-.1-.4-.4-.9-.3-1.2.3-.1.1.7.4.3l-.1.5c.5-.4 0 .3.5 0 .1-.6-.2-.7-.1-1.3-.2-.1-.3 0-.5-.1-.3-.9.9-.7.4-1.3-.2-.2-.7-.2-.4-.7l.4.2c0-.6-.6-.3-.3-1 .2.1.1.5.2.4.3-.4-.2-.3-.2-.6l.3-.1c-.1-.6-.3-1.3-.4-2 .1 0 .2.2.3 0-.2-.9 0-1.9.2-2.7l-.3-.3c0-.1.1-.1.2-.1.1-.3-.2 0-.3-.2 0-.2.2-.3.3-.1-.2-.6-.5-1.7-.2-2.3l.1.1c.1-.5-.6-.5-.3-1l.1.1c.1-1-.1-2.2.3-3-.4-.2.2-1-.4-1.1.3-.6.4-.4.6-1.3 0-.2-.4-.3-.4-.6h.3l-.3-.4.4-.2-.1-.3c0 .1-.1.2-.2.2-.1-.4.2-1 .4-1l-.3-1c.1 0 .2.2.2.3-.3-.5.3-.1 0-.6-.1.1-.2 0-.2 0v-1.3l.2.1c.1-.7-.1-1.5-.1-2.3-.1.3-.5.2-.5 0l.3-.1c-.2-.2-.1.2-.4-.1 0-.3.4-.2.5 0l-.1-.4c.1 0 .1.1.3.1-.2-.1.3-.6 0-.8h.1c0-.8-.1-1.2-.1-1.8-.3 0-.2-.3-.4-.5.1-.5.3-1 .3-1.6-.1-.4-.2-.1-.4-.3.3 0 .2-.6.4-.3 0-.7-.1-.9-.3-1.8-.1.1-.2.2-.2.1s0-.2.1-.2c0-.1.1-.2.2-.2v.1c-.2-.7 0-1.5.1-2.6-.8-.2-1.8-.3-2.6-.1h.1c-.2 0-.9.3-.9.3-.4 0 .2-.2-.1-.4-.9.4-1.4-.1-2.1.2-.3-.4-.8-.4-1.3-.3-.3 0-.5.1-.8.1h-.5c-.2 0-.4-.1-.6-.1l.1.2c-.3.2-.5-.1-.8-.1.1.1.5.2.3.3-.5 0-1 .1-1.5.1 0 .6 0 1.2-.1 1.8l-.1.9c0 .2 0 .4-.1.6l-.3 2.1c0 .6.9.4.5 1.1l-.3-.2c.4 1.3 0 2.6.3 3.8-.1-.1-.2-.1-.2-.2-.2.3 0 1 .2 1 0 .2-.2 0-.3.2-.1.3.3.7.1.8l-.1-.1c.1.2 0 .8.2.6-.1.5.1.9 0 1.2.3.2-.1.8.3.9-.5 0-.4.8-.2 1.1-.1-.1-.1.3-.3.1 0 .3.1.6.3.6-.5.6.4 1.2-.3 1.6.2 1 .4 1.9.5 2.8-.5 0 0-1-.5-.9.2.8.6 1.3.5 2.2-.1.2-.2-.1-.3-.2.2.8 0 1.6.2 2.4 0 0-.1-.1-.1-.2 0 .1-.1.3.1.3l-.1-.1c.3-.2.6.6.8.6-.6-.2-.1.7-.9.3 0 .1.1.2.3.2 0 .1-.1.2-.3 0 .1.5.3.3.3.8-.1 0-.1-.1-.3-.1.2.2.4.5.3.9-.1 0-.1 0-.1-.1 0 .7.5 1.2.3 1.9-.4-.2-.1.3-.5.3l.1.4.2-.2c0 .4.3.7.1 1l-.2-.3.1.7.1-.4c.2.4.5 0 .4.4 0-.1 0 .4-.2.5.1.2.2.4.2.6-.1.1-.4-.1-.5 0 .3.2.1.8.4 1.1-.1-.1-.3-.1-.3-.1l.3.1c-.1.2-.1.2-.3.2 0 .5.5-.2.3.4 0 0-.1 0-.1-.1-.1.6.2 1.2 0 1.7-.4.2-.1-.5-.4-.3.1.8.5 1.6.4 2.4v-.1c.5.1-.3.6 0 1 0-.1-.3-.1-.2-.1-.1.5.1 1.1.3 1.9l-.1-.1c-.1.3-.1.8-.1 1.1.1.1.1.3.3.2-.8 1 .4 2-.2 2.9 0-.1-.1-.3-.1-.2l.1.8c.2-.1.1-.1.3-.3.1.1.2.3.2.5-.2-.3-.4 0-.5.2h.2c-.4.4.5.1.2.6h-.1c.1.2.2.4.2.6-.3.1-.1-.2-.3-.2 0 .3.5.6.2.9-.1-.1-.1-.3-.1-.5-.3.3-.2.3-.3.6 0 0 0 .1-.1.3 0 .2-.1.4-.1.4l.1-.2c.3.2.4.4.4.7 0 .2 0 .6.2.7-.4-.2-.3.1-.6.3-.1.2-.1.4-.2.5 0 0 0 .1-.1.1.3-.1.4-.1.6 0 .1 0 .4.1.7-.1 0 .1.4 0 .2.3.5-.1-.1-.2 0-.3.2-.1.4-.1.6-.1s.4.1.6.1c.3.1.7.2 1-.1.6-.2.7-.5 1.3-.7.2.2-.2.4-.2.4.3.1.5.1.8 0-.1.1 0 .2.1.3.2 0 .2-.4.5-.2-.1.1-.1.3-.2.4.3-.1.6-.3.8-.4.1.2-.2.3-.3.4.3-.1.8-.2.9-.4l-.2-.1c.1 0 .1.2 0 .3-.3.2-.4-.1-.4-.2l.2-.1c-.2-.6-.8.1-1.2.1l.2-.4-.4.3c-.1-.1-.2-.3.1-.4-.3-.2-.3.1-.5-.1v-.1l-.3.1c.1-.1 0-.3.1-.2-.5-.2-.8.3-1 0-.7.1-.1.3-.6.7l-.4-.8-.1.3c-.1 0-.2 0-.2-.2-.3.2 0 .1-.1.3-.2-.1-.4-.1-.6-.1s-.4 0-.3-.3c-.3.2.2.2-.2.3.2-.5-.3 0-.5-.1 0 0 0-.1.1-.1s.1-.1.1 0c.2-.1.2-.1.2-.2-.2.2-.2 0-.1-.2s.2-.3.1-.4c-.2.1-.2 0-.2-.2v-.6c.1 0 .2-.9.3-1.3h.1c-.4-.1-.3-.5-.4-.9.2 0 .3.1.4.2v-.3c-.1-.1-.2-.2-.2-.4l.3.1c0-.4-.3-.8-.1-1.3-.3 0-.7.4-.9-.1.1 0 .4 0 .4.1 0 0-.1-.2-.1-.3l.2.2c.1-.2-.2-.1-.2-.3.2 0 .1-.1.3-.1 0 0-.1.2 0 .2 0-.2.2-.5.3-.6-.1 0-.3 0-.3-.2 0-.4.2-.1.3-.4-.1-.1 0-.4-.3-.4 0-.1.1-.1.2-.2-.1-.2 0-1-.4-.7v.1c-.3-.7.2-1.4 0-2.1h.1c-.1-.4-.1-.9-.3-1.2 0-.1.2-.3.3-.2-.1-.3-.2-.3 0-.8.2.3.2-.1.1.3.1-.4.2-.5 0-.9.3.1.3-.3.2-.5l-.2.3v-.6l.3.1c.4-.8-.7-1.5 0-2.1-.2-.2-.2.5-.4.3 0-.4.5-.8.5-.9.2-.5-.5-.5-.4-1-.1.1-.4.1-.5-.3 0-.4.5-.5.6-.2 0 .1 0 .1-.1.1 0 .1.1.3.2.1h-.1c.1-.2.1-.7.3-.6-.1-.3-.2-.1-.3.1.2-.5 0-.8.1-1.3-.1.1-.2.2-.2.1.1-.7-.2-.3-.3-.8.2-.3.4.1.3-.4.1-.3.3-.1.4.1-.2-.5.2-.9.2-1.1l.1.2c-.1-.1-.1-.3-.1-.4l-.2.1c0-.1 0-.3.1-.3-.2-.1-.4.1-.6-.2.1-.2-.1-.6.2-.6-.1.6.3-.1.4.4v-.4s.1 0 .1.1c.3-.6-.4-.3-.3-.9.2.1.3-.1.3-.2 0 .2-.3.1-.4-.1.1-.4-.1-.4-.1-.6l-.1.2c-.2-.1-.2-.3-.2-.5.1 0 .1.2.2.1-.3-.3.3-.7.1-1.1.1-.2.3 0 .4-.2-.2-.5.2-.5.1-1-.2.1-.2.2-.4-.2l.2.8-.3-.5c0 .2.2.5.1.6-.2-.2-.1-.2-.3-.1.4-.3-.2-.6 0-1h.6c.3-.6-.3-1-.2-1.7l-.1.2c-.2-.1 0-.5-.1-.7.2 0 .3-.1.4-.2-.1 0 0-.5-.4-.6l.3-.3c.1-.6-.6-.7-.5-1.3.2.2.4-.1.5.3 0-.2 0-.4-.1-.4.1-.1-.3-.5-.1-.7-.1-.1-.3-.1-.3-.3h.1c-.1 0-.1-.3-.4-.1.6-.6 0-1.6.5-2.2-.1-.4-.1-.9-.1-1.3.1 0 .1 0 .1.1.2-.5-.6-.3-.4-.9.3-.3.2.3.3.1.6-.1-.1-.7.3-1.1v.1c.2-.3-.2-.7-.2-1.2h.1c-.3-.3-.4-1-.5-1.5.3.1.1.2.4.1 0-.2-.4.1-.5-.4.1-.1.3-.5.5-.5v.4c.4-.2 0-.5 0-.7h.2c-.1-.6-.4-.6-.4-1.3l-.1.1c-.4-.4.2-.3-.1-.7l.4-.1c-.1-.2-.4-.8-.5-1.3.3.2.4.8.6 1.1 0-.2 0-.8-.2-.9 0 .1.1.2.1.3-.2-.1-.3-.3-.3-.5-.1-.1-.1-.3-.1-.5.5.2.4-.1.5-.3.2 0 .3.1.5.3 0-.1.1-.1.2-.1h.4c.4.1.9.1 1.4.1-.3-.6.3 0 .2-.6h.3l.7.4c.2.2-.2.1-.2.3.5 0 .2.3.5.4-.1-.2.2-.3.5-.2l-.4-.3c.7-.3.6.5 1.3.2l-.2.2c.1 0 .2 0 .4-.1h.3c.1 0 .1-.1.4-.4 0 .1-.1.2-.2.3h.2c.1 0 .2.1.2.2v.2c0 .1 0 .3-.1.4l-.1-.1c0 .2.3.3.1.5-.1 0-.1-.1-.2 0 .1.1.3.4.2.6l-.2-.2c-.2.8.4 1.3.5 2-.4 0-.6.7-.7 1h-.1c-.1 1 .4 1.7.5 2.6-.5.6-.2 1.9-.5 2.8.1-.1.3 0 .4.2-.1.2.3.6-.1.6v-.1c-.4.2-.3.6-.3.9l.5.1c-.8.9.3 2.3-.4 2.8.1.2.1.5.3.7h-.3c-.1.6-.1.9 0 1.6l-.2-.2c0 .4.8.5.8.9l-.4.1c0 .7-.4 1.5 0 2.2-.1 0-.2 0-.2-.2 0 .3-.3 1.3.3 1.2-.4 0 0 .7.1 1.1l-.3-.1c.4.3.5.3.6.8 0 .1-.2.1-.2 0-.1.4.3.3.1.7l-.2-.2c0 .4.1.3.3.6.1.2-.1.7-.3.8.2.1.4.3.3.5-.1 0-.2-.1-.2-.1-.2.6.3.9.1 1.4-.1 0-.1 0-.2.1v-.9c-.3 0-.3.4-.7.1.2.3.6.9.5 1.3l-.1.1v.2c0 .1-.1.2-.1.3-.2 0-.1.5-.1.7.3 0 .2.2.5 0v-.8c.1.2.3.3.1.5.2.1.4.2.5.3-.4.3-.6.8-.8.9.2.6.1 1.4.6 1.8.1.2-.2.2-.2.3-.1-.1 0-.2-.1-.3.1.3.1 1 .4 1.1-.2.4-.3-.2-.3.4l-.1-.1c-.6 1.2.9 1.9.2 3.3 0-.1.1-.1.1-.2-.3 1.5.3 3.1-.2 4.6-.1.4.1.5.3.7l-.3.1.3.4c.3.6-.7 1.1-.3 1.9l.2-.1c0 .3.1.9-.1.9 0 0 .2.1.1.2h-.2l.3.7c-.1.5-.6-.1-.7.7.1.3.5.8.6.7 0-.1.1-.3.3-.3l.1.3c.5 0 .9.3 1.3-.4l-.3-.5.2-.1v.4c.2-.2 0-.4-.1-.5.1 0 .2-.1.2-.2l-.4-.5c.2-.1.4.2.5-.1-.2-.2-.4.2-.5-.1.2-.2.4-.2.2-.4.1 0 .2 0 .2.1-.1-.2-.1-.6-.3-.7.3-.2-.1-.8.4-.8-.1-.1-.3-.4-.4-.6.5.4 0-.8.6-.7-.5-.3-.2-1-.5-1.5l.1.1c0-.3.2-.4.3-.5-.4 0-.5-.5-.7-.7.4-.3.5.2.8.1-.3 0-.3-.6-.6-.5.2-.3.1-.2.4-.4-.5 0-.1-.2-.4-.5.2-.4.5-.1.3-.5.9-.6 1-.2 1-.2zm-.8-10.1zm0-.8v.4c-.1 0-.2 0-.2-.1.1 0 .1-.2.2-.3zm-2 1.8c0-.1 0-.2.1-.2v.2h-.1z"/><path id="XMLID_798_" class="st0" d="M193.3 216.5c.1 0 .1 0 0 0z"/><path id="XMLID_797_" class="st0" d="M186.3 226.2s-.1.1 0 0c-.1.1-.1.1 0 0z"/><path id="XMLID_796_" class="st0" d="M195.4 202.8v.1z"/><path id="XMLID_795_" class="st0" d="M185.3 230.9s-.1 0 0 0c-.1.1 0 0 0 0z"/><path id="XMLID_794_" class="st0" d="M185.2 232.9l-.1.3c.1-.2.1-.2.1-.3z"/><path id="XMLID_793_" class="st0" d="M185.1 235.1s.1 0 .1-.1l-.1.1z"/><path id="XMLID_792_" class="st0" d="M184.8 209.9s0-.1 0 0c-.1-.2-.1-.1 0 0z"/><path id="XMLID_791_" class="st0" d="M185.4 217.2c-.1-.1-.1-.2-.1-.2 0 .1 0 .2.1.2z"/><path id="XMLID_789_" class="st0" d="M185.3 216.6c-.1.1 0 .2 0 .3v-.3z"/><path id="XMLID_788_" class="st0" d="M192.2 235.6c.1 0 .1 0 0 0z"/><path id="XMLID_787_" class="st0" d="M192.3 235.6c.1 0 0 0 0 0z"/><path id="XMLID_786_" class="st0" d="M192.6 235.5l-.2.1c.1 0 .1 0 .2-.1z"/><path id="XMLID_784_" class="st0" d="M189.6 235.5c.1 0 .4.2.6.2v-.1c-.1.1-.5-.2-.6-.1z"/><path id="XMLID_783_" class="st0" d="M187.1 234.3s.3.1.4.1c-.1-.1-.2-.3 0-.3-.4-.4.1.2-.4.2z"/><path id="XMLID_782_" class="st0" d="M186.5 233.8c.1.1.2-.1.2-.2-.1.1-.1 0-.2.2z"/><path id="XMLID_781_" class="st0" d="M186.5 222.6h.3c-.1-.2-.2 0-.3 0z"/><path id="XMLID_780_" class="st0" d="M185.2 220.4l-.2.2.2.1z"/><path id="XMLID_779_" class="st0" d="M187 219.1l-.1-.3z"/><path id="XMLID_778_" class="st0" d="M186.9 199.4l-.3.1c0 .2.4.2.3-.1z"/><path id="XMLID_777_" class="st0" d="M186.6 191c.2-.1.3-.3.1-.5 0 .2-.2.4-.1.5z"/><path id="XMLID_776_" class="st0" d="M192.9 200.6l-.1-.2.1.3z"/></g></g></g><g id="XMLID_715_"><g id="XMLID_716_"><g id="XMLID_717_"><path id="XMLID_772_" class="st0" d="M202.1 248.9c.1.1.3 0 .2-.3l-.3-.2.1.5z"/><path id="XMLID_771_" class="st0" d="M202.7 246.9c-.2-.4-.4-.8-.7-.5.3.4.2.4.6.8 0 .3-.1.5-.2.5.1.1-.1.5.1.6.3-.4.3-.9.1-1.4-.1-.2 0-.1.1 0z"/><path id="XMLID_769_" class="st0" d="M203.4 199.1c0 .1 0 .2.1.2-.1-.1-.1-.2-.1-.2z"/><path id="XMLID_767_" class="st0" d="M203.2 217.4l.1-.5c-.1 0-.1.2-.1.5z"/><path id="XMLID_766_" class="st0" d="M201.9 242.8c0 .1 0 .2.1.3l-.1-.3z"/><path id="XMLID_765_" class="st0" d="M203.5 225.4l.1.2-.1-.2z"/><path id="XMLID_764_" class="st0" d="M203.5 231.6c0-.1-.3-.2-.4-.2.1.1.2.2.2.3.1 0 .2 0 .2-.1z"/><path id="XMLID_763_" class="st0" d="M203 241.4v.2c.1-.1 0-.1 0-.2z"/><path id="XMLID_762_" class="st0" d="M203.5 221s.1 0 .1-.1c0 .1 0 .1-.1.1z"/><path id="XMLID_760_" class="st0" d="M202.7 249c-.1.1-.1.1-.1.2l.1-.2z"/><path id="XMLID_759_" class="st0" d="M204.1 190.3c0 .1 0 .1 0 0z"/><path id="XMLID_758_" class="st0" d="M176.1 193.9c.3-.6.3 1 .6.1-.1 0-.5-.9-.6-.1z"/><path id="XMLID_757_" class="st0" d="M201.9 242.6v-.3.3z"/><path id="XMLID_756_" class="st0" d="M176.7 194c0-.1 0-.1 0 0z"/><path id="XMLID_755_" class="st0" d="M201.3 177.4s.1.1.2.1l-.2-.1z"/><path id="XMLID_754_" class="st0" d="M203.6 186.9v-.2.2z"/><path id="XMLID_753_" class="st0" d="M196.2 177.8c-.1 0-.2-.1-.4 0h.4z"/><path id="XMLID_752_" class="st0" d="M190.9 177.8s0 .1 0 0c.2.1.2 0 .3 0h-.3z"/><path id="XMLID_751_" class="st0" d="M184.7 243.3c.1-.2.2-.2.3-.2-.3 0-.4-1.5-.3.2z"/><path id="XMLID_750_" class="st0" d="M202.1 242.8c-.1 0-.1-.1-.1-.2v.2h.1z"/><path id="XMLID_749_" class="st0" d="M195.9 180h-.8.8z"/><path id="XMLID_747_" class="st0" d="M192.6 180c-.2-.1-.3-.2-.5-.2 0 0-.1 0-.1.1l.6.1z"/><path id="XMLID_741_" class="st0" d="M190.9 241.7c-.8 0-.4.4-.5.6-1 .1-.4-.3-.8-.5-.6.1-1.1.4-1.5.4 0-.1-.1-.1 0-.2-.3.2-2.2.1-3.2.3 0 .2.1.5.1.7 0 .1-.1.1-.1.1.2-.1.4.1.5.2 0 .5.2.9 0 1 0-.3-.1-.3-.2-.5l.1.5c-.3.4-.1-.7-.4-.9 0 .3.1.6.1.9s.1.6.1.8c.1.4.1.7.1 1-.3.1-.1-1.3-.4-.6 0 0 0-.2.1-.4 0-.2.1-.6.1-.6-.5 1 0-.9-.5.1v.8c0 .2 0 .4.1.5 0 .3.1.6 0 1.2.2.3.3-.1.5.2.3 1.6-.9 1.3-.4 2.5.1.1.3.1.4.2.1.1.2.3 0 .4l-.4-.4c0 .1 0 .2.1.3s.1.4-.3.2c0-.2.3-.1.2-.2-.4-.3-.1.2-.4.2l-.1-.3c-1.2.1-2.5.3-3.8.4.1-.1.3-.2 0-.3-.5.1-1 .1-1.5.1-.2 0-.3 0-.4-.1 0-.1.1-.2.1-.3 0 0 0-.1.1-.1v-.3l-.3-.6c0-.1.1-.3.2-.1.1-.6-.2 0-.3-.3 0-.4.2-.5.3-.2-.2-1.1-.5-3.1-.2-4.3l.1.2c.1-.9-.6-1-.3-1.8l.1.2c.1-1.9-.1-4.1.3-5.6-.4-.3.2-1.9-.4-2.1.3-1.1.4-.8.6-2.4 0-.4-.4-.6-.4-1.1h.3l-.3-.7.4-.4-.4-.7c0 .2-.1.4-.2.4-.1-.8.2-1.8.4-1.9l-.3-1.8c.1 0 .2.3.2.6-.3-1 .3-.2 0-1.1-.1.1-.2-.1-.2-.1.2-.4.2-1.4.1-2.2l.2.1c.1-1.3-.1-2.8-.1-4.3-.1.5-.5.4-.5 0l.3-.2c-.2-.3-.1.5-.4-.1 0-.6.4-.4.5-.1l-.1-.7c.1 0 .1.1.3.2-.2-.3.3-1.2 0-1.6h.1c0-1.5-.1-2.2-.1-3.4-.3 0-.2-.5-.4-.9.1-.9.3-1.9.3-3-.1-.8-.2-.2-.4-.6.3-.1.2-1.1.4-.6 0-1.3-.1-1.7-.3-3.3-.1.2-.2.4-.2.3 0-.3.1-.7.2-.6v.1c-.4-1.8.7-4.2.2-5.7v.1l-.3-1.5c0-.7.2.4.4-.1-.4-1.6.1-2.6-.2-3.9.8-1-.1-3.7.4-5.1l-.2.1c-.2-.4.1-.4.1-.7-.1 0-.2.4-.3.2-.1-1.5 0-3.1.1-4.7l.2-2.4v-1.1h.1c-.1-.1-.6-.9.2-.5l-.2.2v.2h.6c.3 0 .6 0 .9-.1h1.8c1.2 0 2.4 0 3.5-.1-.1.1-.1.2-.4.2.5.2 1.8 0 1.8-.2.4 0 .1.2.3.3.5.1 1.2-.3 1.5-.1 0 0-.1.1-.2.1.3-.1 1.5 0 1.2-.2.9.1 1.6-.1 2.3 0 .4-.3 1.5.1 1.6-.3-.1.5 1.5.4 2 .2-.2.1.5.1.3.3.6 0 1.2-.1 1.1-.3 1.1.5 2.3-.4 2.9.3.2 0 .5-.1.7-.1h.4c.1-.1.3-.1.5-.1 0 .1.1.3.1.4v1c-.2 0-.2-.5-.3-.9 0-.1 0-.3-.3-.1l.1.1s.1 0 .1.2c.1.3.1.6.2.9.1.6.2 1.2.1 2-.1.4-.2-.2-.3-.4.2 1.6 0 3 .2 4.4 0 0-.1-.2-.1-.3 0 .3-.1.6.1.6l-.1-.3c.3-.4.6 1.1.8 1.1-.6-.5-.1 1.4-.9.6 0 .2.1.4.3.4 0 .3-.1.4-.3.1.1 1 .3.6.3 1.5-.1 0-.1-.2-.3-.3.2.5.4.9.3 1.7-.1 0-.1 0-.1-.2 0 1.3.5 2.2.3 3.6-.4-.4-.1.5-.5.6l.1.8.2-.3c0 .7.3 1.3.1 1.8l-.2-.5.1 1.3.1-.7c.2.7.5-.1.4.8 0-.2 0 .7-.2 1 .1.3.2.7.2 1.2-.1.1-.4-.1-.5 0 .3.3.1 1.6.4 2-.1-.1-.3-.1-.3-.1l.3.3c-.1.3-.1.4-.3.3 0 .9.5-.3.3.8 0-.1-.1 0-.1-.2-.1 1.1.2 2.1 0 3.2-.4.3-.1-.9-.4-.5.1 1.5.5 3 .4 4.5v-.3c.5.2-.3 1.1 0 1.8 0-.2-.3-.2-.2-.2-.1 1 .1 2 .3 3.5l-.1-.2c-.1.6-.1 1.5-.1 2.1.1.2.1.5.3.3-.8 1.9.4 3.6-.2 5.3 0-.2-.1-.5-.1-.3l.1 1.4c.2-.1.1-.2.3-.5.1.2.2.6.2.9-.2-.6-.4 0-.5.3h.2c-.4.8.5.1.2 1.2l-.1-.1c.1.4.2.7.2 1.2-.3.2-.1-.4-.3-.4 0 .6.5 1.2.2 1.7-.1-.2-.1-.6-.1-.9-.3.6-.2.6-.3 1.1l-.1 1 .1-.3c.7.7.1 1.5.6 2.5-.4-1-.3-.2-.6-.2-.1.3-.2.6-.3.5.2.5-.2.8.2 1.4-.1 0 0 .5-.3.4.1.6.2-.1.3-.1.3.9-.4 2.2.1 3.5.2 1.2.5 1.4.7 2.4-.2.4-.4-.3-.4-.3-.1.6-.1 1 0 1.6-.1-.1-.2 0-.3.2 0 .4.4.3.2.9-.1-.1-.3-.2-.4-.4.1.5.3 1 .4 1.6-.2.1-.3-.3-.4-.5.1.6.2 1.6.4 1.8l.1-.4c0 .2-.2.1-.3 0-.2-.5.1-.7.2-.8l.1.4c.6-.4-.1-1.5-.1-2.3l.4.3-.3-.8c.1-.2.3-.3.4.1.2-.6-.1-.5.1-1 0-.1.1 0 .1 0l-.1-.5c.1.1.3-.1.2.2.2-1-.3-1.6 0-1.9v.1c-.1-1.3-.3-.1-.7-1.1l.8-.7-.3-.1c0-.1 0-.4.2-.4-.2-.5-.1.1-.3-.2.3-.7-.1-1.8.4-2-.2-.2-.2.6-.3-.1.5-.2-.1-.8.2-1.4.3.2.1.8.4.2-.5-.4.1-1.2 0-1.7-.4 0-.2-1.1-.3-2 .1.1.2-1.6.3-2.4h.1c-.4-.2-.3-1-.4-1.6.2 0 .3.1.4.5v-.6c-.1-.1-.2-.3-.2-.7l.3.1c0-.8-.3-1.5-.1-2.5-.3-.1-.7.8-.9-.3.1 0 .4-.1.4.2 0-.1-.1-.3-.1-.5l.2.4c.1-.4-.2-.2-.2-.6.2 0 .1-.3.3-.2 0 .1-.1.3 0 .4 0-.4.2-.9.3-1-.1 0-.3 0-.3-.3 0-.8.2-.3.3-.7-.1-.2 0-.7-.3-.7 0-.2.1-.3.2-.3-.1-.4 0-1.8-.4-1.4-.3-1.3.2-2.7 0-3.9h.1c-.1-.8-.1-1.7-.3-2.2 0-.2.2-.5.3-.4-.1-.6-.2-.6 0-1.5.2.6.2-.2.1.6.1-.8.2-.9 0-1.7.3.3.3-.6.2-.9l-.2.5v-1.1l.3.2c.4-1.5-.7-2.8 0-4-.2-.4-.2.8-.4.5 0-.7.5-1.5.5-1.7.2-1-.5-.9-.4-1.9-.1.1-.4.3-.5-.5 0-.7.5-.9.6-.4 0 .2 0 .3-.1.2 0 .2.1.5.2.2l-.1-.1c.1-.4.1-1.3.3-1.1-.1-.5-.2-.2-.3.2.2-.9 0-1.4.1-2.4-.1.1-.2.3-.2.1.1-1.4-.2-.6-.3-1.5.2-.5.4.2.3-.7.1-.6.3-.1.4.1-.2-.9.2-1.6.2-2.1l.1.5c-.1-.3-.1-.5-.1-.7l-.2.3c0-.3 0-.5.1-.5-.2-.3-.4.2-.6-.3.1-.4-.1-1.1.2-1.2-.1 1.1.3-.1.4.8v-.7s.1 0 .1.1c.3-1.1-.4-.5-.3-1.6.2.1.3-.3.3-.4 0 .4-.3.2-.4-.2.1-.7-.1-.8-.1-1.1l-.1.4c-.2-.1-.2-.5-.2-1 .1 0 .1.4.2.3-.3-.5.3-1.2.1-2 .1-.4.3 0 .4-.3-.2-.9.2-.9.1-1.8-.2.3-.2.3-.4-.3l.2 1.5v-1.5c0 .4.2.9.1 1.2-.2-.5-.1-.4-.3-.2.4-.6-.2-1.2 0-1.9h.6c.1-.5.1-1 0-1.5 0-.3-.1-.8-.1-1.2v-1.4h-.1.1l-.1.6c-.1 0-.1-.2-.1-.4-.4 0-.9-.1-1.4 0 .1-.2-.2-.3-.5-.4 0 .1-.5.1-.7.1-.3 0-.6.1-.6.3l-.6-.3c-1.1-.1-1.3.6-2.3.5.3-.2-.2-.4.6-.5-.4 0-.7 0-.7.1-.2-.1-1 .3-1.3.1-.2.1-.2.3-.6.3v-.1c0 .1-.6.1-.3.4-1.1-.6-3.1 0-4-.5-.8.1-1.7.1-2.4.1 0-.1 0-.1.1-.1-1-.2-.6.6-1.7.4-.6-.3.6-.2.2-.3-.2-.6-1.3.1-2.1-.3h.2c-.6-.2-1.4.2-2.3.2v-.1c-.6.3-1.8.4-2.7.5.3-.3.4-.1.2-.4-.4 0 .1.4-.7.5-.3-.1-.8-.3-.9-.5h.8c-.2-.2-.4-.2-.7-.1-.3 0-.7.1-1 .1v-.2c-.8 0-1.2.1-1.5.2.1.6.2 1.1.2 2l.1-.1c.2.5.1.6.1.7-.1.1-.1.3 0 .6l-.4.2c.1.4.4 1.6.5 2.4-.3-.5-.4-1.4-.6-2 0 .4 0 1.5.2 1.7 0-.2-.1-.4-.1-.6.3.5.5 1.3.5 2.2-.8-.2-.2 2.3-.8 3 .3 1.6-.1 3.1-.1 4.9.6-.6 0 .5.6.4v.6l-.4 1.3c-.2.3-.1-.4-.3-.4 0 .9-.3.4-.4 1 .2-.1.3.3.2.9l.3-.7c.3 1.3-.5 1.1-.2 2.4l-.2-.4c.1.7 0 2.5.5 3.1-.1.1-.2.3-.3 0-.1 1.6.5 3.6.2 4.8l-.1-.1c0 .3.3.5.1.9-.1 0-.1-.1-.2 0 .1.2.3.8.2 1.2l-.2-.3c-.2 1.6.4 2.4.5 3.7-.4 0-.6 1.2-.7 1.8h-.1c-.1 1.8.4 3.1.5 4.8-.5 1.1-.2 3.6-.5 5.3.1-.3.3 0 .4.3-.1.4.3 1.1-.1 1v-.1c-.4.3-.3 1.1-.3 1.8l.5.1c-.8 1.7.3 4.4-.4 5.3.1.4.1.9.3 1.3h-.3c-.1 1.1-.1 1.7 0 3l-.2-.3c0 .8.8 1 .8 1.7l-.4.2c0 1.4-.4 2.7 0 4.1-.1 0-.2-.1-.2-.3 0 .6-.3 2.5.3 2.2-.4 0 0 1.4.1 2.1l-.3-.1c.4.6.5.6.6 1.5 0 .2-.2.2-.2-.1-.1.7.3.5.1 1.4l-.2-.3c0 .7.1.6.3 1 .1.2 0 .5 0 .9-.1.4-.2.8-.3.9.2.1.4.5.3 1.1-.1.2-.2 0-.2-.1v.4c.7 0 1.4 0 1.9-.1.6-.1.8-.1 1.2 0 0 .1.1.1.1.2h-2c-.1.1.2.2.4.3.2.1.2.2-.4.4.3-.1.6-.1 1-.2.2 0 .3-.1.4-.1l.3-.1c.4-.1.9-.2 1.2-.1 0 0 .1 0 .1.1h-.1.5c.2 0 .4.1.6.1.1.2.9.1 1.2.1 0-.3.5-.2 0-.5h-1.4c.3-.1.6-.3 1-.1l.5-.5c.3.2.6.3 1 .5.1.1.4.1.6.2.2.1.4.1.4.2.6 0 1.2-.1 1.8-.1 0-.8-.1-1.5-.2-2.1 0-.2 0-.3-.1-.4 0-.1-.1-.2-.1-.3-.1-.2-.1-.3-.2-.4-.1-.3.2-.4.2-.5.1.2 0 .4.1.5-.1-.7-.1-1.9-.4-2.1.2-.8.3.5.3-.7l.1.2c.2-.6.2-1.2.1-1.7-.1-.2-.2-.6-.3-1 .4-.2 1-.3 2.1.1-.2 0-.3-.1-.3-.1 1 .1 1.9.1 2.9.1l1.4-.1h1v.9l-.1.6c0 .2-.1.4-.1.7-.1.8.1.9.3 1.4l-.3.2s.1.3.2.5l.2.4c0 .3.1.5 0 .8.8.1 2.2.7 3.2.3l-.2-.2c.5 0 1.7-.1 1.6.1.1 0 .2-.2.4-.1v.2l1.3-.3c1 .1-.2.6 1.3.7.5-.1 1.6-.5 1.3-.6-.2 0-.6-.1-.6-.3l.5-.1c.1-.5.5-.9-.8-1.3l-.9.3-.3-.2h.7c-.4-.2-.7 0-1 .1-.1-.1-.2-.2-.4-.2l-.8.4c-.1-.2.4-.4-.2-.5-.4.2.4.4-.3.5-.4-.2-.3-.4-.8-.2-.1-.1 0-.2.2-.2-.4.1-1.1.1-1.4.3-.4-.3-1.5.1-1.3-.4 0 .1-.3.3-.5.4.3-.2.2-.3.2-.3 0-.1 0-.3.3-.4h-.2s0-.2-.1-.3v-.4c0-.5 0-1.1-.2-1.6 0 .1.1.2.1.2 0-.4.2-.9.3-1.5-.3 0-.4-.8-.6-1.3-.2 0-.4.1-.6.1-.3-.2-.1-.3.2-.4.3-.1.8-.2.8-.4-.3.3-2.2.3-2 .6-.7-.2-.7-.1-1-.4-.1.5-.5.1-.9.4-.7-.2-.2-.5-1-.3.5-.4 1.2-.5 1.2-.5zm-10.5 9h.4-.4zm-1.6 0h.7c.1.1 0 .2-.2.2.1-.1-.3-.1-.5-.2zm3.4 2c-.2 0-.3 0-.4-.1h.4v.1z"/><path id="XMLID_740_" class="st0" d="M182.6 252.3h.1c0-.1-.1-.1-.1 0h-.1.1z"/><path id="XMLID_739_" class="st0" d="M203.2 217.6c-.1 0 0 0 0 0z"/><path id="XMLID_738_" class="st0" d="M178.5 231.3h-.1l.1.1z"/><path id="XMLID_737_" class="st0" d="M202.2 226.3s-.1 0-.1.1l.1-.1z"/><path id="XMLID_736_" class="st0" d="M202.1 230l-.1.5c.1-.2.1-.4.1-.5z"/><path id="XMLID_735_" class="st0" d="M202 232.9s.1 0 .1.1l-.1-.1z"/><path id="XMLID_734_" class="st0" d="M201.7 187.1c-.1-.4-.1-.2 0 0z"/><path id="XMLID_733_" class="st0" d="M202.3 200.7c-.1-.1-.1-.3-.1-.4 0 .2 0 .4.1.4z"/><path id="XMLID_732_" class="st0" d="M196 180h-.1z"/><path id="XMLID_731_" class="st0" d="M202.2 199.7c-.1.2 0 .4 0 .6v-.6z"/><path id="XMLID_728_" class="st0" d="M202 246l-.1-.3c0 .1 0 .2.1.3z"/><path id="XMLID_727_" class="st0" d="M202 241.6h-.1c0-.1.1 0 .1 0z"/><path id="XMLID_726_" class="st0" d="M202 240.4c0 .3-.2.7-.2 1.1h.1c-.2-.2.2-.8.1-1.1z"/><path id="XMLID_725_" class="st0" d="M203.2 235.6l-.1 1c.1-.2.3-.4.3 0 .4-1.2-.2.2-.2-1z"/><path id="XMLID_724_" class="st0" d="M203.4 232.6c.1.5.2 0 .2 0-.1-.4-.1-.4-.2 0z"/><path id="XMLID_723_" class="st0" d="M203.4 210.8l.3.1c-.1-.4-.2 0-.3-.1z"/><path id="XMLID_722_" class="st0" d="M202.1 206.6l-.2.4.2.2z"/><path id="XMLID_721_" class="st0" d="M203.9 204.2v.2l-.1-.7z"/><path id="XMLID_720_" class="st0" d="M191.8 177.6l.1.3c.3-.1.3-.4-.1-.3z"/><path id="XMLID_719_" class="st0" d="M176.5 179.6c-.1.1-.1.3-.2.6 0 .2 0 .3.1.5 0-.2 0-.3.1-.5v-.6z"/><path id="XMLID_718_" class="st0" d="M176 227.1l-.1-.3.1.6z"/></g></g></g></g></g><g id="XMLID_10_"><path id="XMLID_18_" class="st0" d="M202.3 325.9c-2.1 5.6-4.7 11.4-7.7 17v58.2h-12.2v-39.4c-1.2 1.4-2.3 2.7-3.5 3.9-1.1-3-4.4-10-6.5-13.1 7.3-7.3 14.2-18.8 18.2-30.3l11.7 3.7zm27.9 20.9v6.9h20.4v11h-20.4v7.5h21.5v11.3h-21.5v17.6h-12.5v-54.4h-1.6c-3.3 6-6.9 11.4-10.6 15.5-1.9-2.3-6.6-6.6-9.2-8.5 7.3-7.4 13.8-19.4 17.5-31.3l11.7 3.1c-1.1 3.3-2.3 6.5-3.8 9.7h31.2v11.5h-22.7v.1z"/><path id="XMLID_12_" class="st0" d="M259.9 362.7h33.2v38.2H281v-3.7h-9.6v4H260v-38.5h-.1zm62.4-6H271V325h51.3v31.7zm-50.9 17.6v11.3h9.6v-11.3h-9.6zm38.5-37.7h-27.1v8.6h27.1v-8.6zm23.1 26.1v38.2h-12.2v-3.7h-10.2v4H299v-38.5h34zm-12.2 22.9v-11.3h-10.2v11.3h10.2z"/><path id="XMLID_11_" class="st0" d="M350.9 349.1c-.9.8-1.9 1.7-2.9 2.4-1.9-2.6-5.8-6.4-8.4-8.1 9.4-6.3 16.1-14.6 20-21.8l12.3 2.4c-1.1 1.8-2.3 3.6-3.4 5.3h9.4c-.6-1.8-1.3-3.5-1.9-5.1l11.4-3.2c1.3 2.5 2.7 5.6 3.6 8.3h23.3v9.2h-24.7v2.3h20.8v7.7h-20.8v2.2h20.8v7.7h-20.8v2.3h26.3v9.1h-53v2h-12v-22.7zm21.8 38.8c-5.9 4.8-15.9 9.4-24.8 11.3-1.7-2.7-5-6.9-7.4-9.2 8.6-1 18.3-3.3 23.3-6.2l8.9 4.1zm24.3-4.3c6.9 2.4 16.4 6 21.5 8.4l-7.8 7.8c-5.1-2.7-15.8-7.2-23.1-10.1l6.4-6.1h-8.3V401h-12.1v-17.4h-31.7v-9.5h31.7v-3.6h12.1v3.6h32.2v9.5H397zm-19-45h-15v2.3h15v-2.3zm0 10h-15v2.2h15v-2.2zm0 9.8h-15v2.3h15v-2.3z"/></g><path class="st0" d="M-91.7 306h-43.7v93.4h19.9v-33.2h23.8c20.2 0 31.4-13.9 31.4-30.1 0-16.3-11.1-30.1-31.4-30.1zm-2.7 42.7h-21.1v-25.2h21.1c7.8 0 13.7 4.8 13.7 12.6.1 7.7-5.8 12.6-13.7 12.6zm75.4-18.6c-22.3-.3-35.9 15.7-36.2 34.9-.3 19.3 12.9 35.7 35.2 36.1 22.4.3 36.1-15.7 36.3-35.1.3-19.1-12.9-35.6-35.3-35.9zm-.7 55.2c-11.1-.2-17.1-9.3-16.9-20 .1-10.5 6.4-19.5 17.5-19.4 11.1.2 17.2 9.3 17.1 19.8-.3 10.7-6.7 19.7-17.7 19.6zm49.2 14.1V306h17.8v93.4H29.5zm35.5 0V306h17.8v93.4H65zm35.7 10.5c1.5.7 3.9 1.1 5.6 1.1 4.6 0 7.7-1.3 9.4-4.9l2.5-5.7-27.4-68.6h19l17.6 47 17.6-47h19.2l-31.8 78.7c-5 12.7-14 16.1-25.6 16.4-2.1 0-6.6-.4-8.8-1l2.7-16z"/></svg>