<svg id="圖層_1" data-name="圖層 1" xmlns="http://www.w3.org/2000/svg" viewBox="0 0 742.68 742.68"><defs><style>.cls-1{fill:#e60012;stroke:#e71f19;}.cls-1,.cls-2{stroke-linecap:square;stroke-miterlimit:10;stroke-width:0;}.cls-2,.cls-3{fill:#231815;}.cls-2{stroke:#040000;}</style></defs><title>goodinside</title><polygon class="cls-1" points="119.04 342.89 134.53 342.89 134.53 426.86 119.04 426.86 119.04 342.89 119.04 342.89"/><polygon class="cls-2" points="134.53 370.92 134.53 386.39 168.65 386.39 168.65 467.34 27.54 467.34 27.54 274.42 168.65 274.42 168.65 314.9 184.16 314.9 184.16 258.93 12.06 258.93 12.06 482.86 184.16 482.86 184.16 370.92 134.53 370.92 134.53 370.92"/><polygon class="cls-1" points="134.53 322.66 134.53 322.12 134.48 321.58 134.35 321.04 134.24 320.5 134.07 319.95 133.83 319.47 133.58 318.94 133.27 318.45 132.99 318.04 132.63 317.61 132.25 317.18 131.83 316.83 131.41 316.47 130.98 316.16 130.52 315.88 130.03 315.63 129.51 315.39 128.94 315.21 128.42 315.08 127.86 315.03 127.34 314.96 126.78 314.9 126.26 314.96 125.7 315.03 125.18 315.08 124.64 315.21 124.09 315.39 123.55 315.63 123.07 315.88 122.58 316.16 122.17 316.47 121.74 316.83 121.32 317.18 120.97 317.61 120.6 318.04 120.3 318.45 119.99 318.94 119.77 319.47 119.52 319.95 119.34 320.5 119.21 321.04 119.11 321.58 119.04 322.12 119.04 322.66 119.04 323.2 119.11 323.79 119.21 324.34 119.34 324.88 119.52 325.36 119.77 325.89 119.99 326.39 120.3 326.86 120.6 327.34 120.97 327.76 121.32 328.12 121.74 328.55 122.17 328.92 122.58 329.2 123.07 329.44 123.55 329.75 124.09 329.94 124.64 330.1 125.18 330.22 125.7 330.35 126.26 330.41 126.78 330.41 127.34 330.41 127.86 330.35 128.42 330.22 128.94 330.1 129.51 329.94 130.03 329.75 130.52 329.44 130.98 329.2 131.41 328.92 131.83 328.55 132.25 328.12 132.63 327.76 132.99 327.34 133.27 326.86 133.58 326.39 133.83 325.89 134.07 325.36 134.24 324.88 134.35 324.34 134.48 323.79 134.53 323.2 134.53 322.66 134.53 322.66"/><polygon class="cls-2" points="119.04 411.39 84.93 411.39 84.93 386.39 119.04 386.39 119.04 370.92 69.41 370.92 69.41 426.86 119.04 426.86 119.04 411.39 119.04 411.39"/><path class="cls-3" d="M277.84,460.33H262.36v-6.11H286.1v26.85c-.72.26-1.75.54-3.13.89s-2.92.64-4.69.89-3.63.51-5.64.64-4,.26-6,.26a55.94,55.94,0,0,1-15.38-1.92,31.63,31.63,0,0,1-11.16-5.58,22.33,22.33,0,0,1-6.82-8.66A26.36,26.36,0,0,1,231,456.26a29.33,29.33,0,0,1,2.55-12.35,25.88,25.88,0,0,1,7.39-9.43,33.73,33.73,0,0,1,11.71-6.1,51.35,51.35,0,0,1,15.13-2.16c1.47,0,3,.12,4.46.13s2.91.25,4.26.5a31.53,31.53,0,0,1,3.74.64c1.15.25,2.12.51,2.89.77v6a47.17,47.17,0,0,0-7-1.4,54.86,54.86,0,0,0-7.89-.63,39.5,39.5,0,0,0-11,1.52,25.86,25.86,0,0,0-9.26,4.33,21.44,21.44,0,0,0-6.37,7.26,20.78,20.78,0,0,0-2.37,10.19,22.79,22.79,0,0,0,2,9.93,19.15,19.15,0,0,0,5.6,7,25.27,25.27,0,0,0,8.78,4.07A51.55,51.55,0,0,0,267,477.77c2,0,3.88-.12,5.78-.25a43.72,43.72,0,0,0,5.07-.75Z"/><path class="cls-3" d="M344.72,463.13a21.3,21.3,0,0,1-1.63,8.41,18.34,18.34,0,0,1-4.58,6.5,21.19,21.19,0,0,1-7.18,4.2,27.56,27.56,0,0,1-9.42,1.52,28.07,28.07,0,0,1-9.57-1.52,21.22,21.22,0,0,1-7.23-4.2,17.84,17.84,0,0,1-4.51-6.5,21.72,21.72,0,0,1-1.57-8.41,21.35,21.35,0,0,1,1.62-8.52,19.59,19.59,0,0,1,4.58-6.61,21.26,21.26,0,0,1,7.19-4.2,27.75,27.75,0,0,1,9.46-1.41,28.3,28.3,0,0,1,9.55,1.41,21.17,21.17,0,0,1,7.19,4.2,19.21,19.21,0,0,1,4.51,6.61A22.4,22.4,0,0,1,344.72,463.13Zm-8.2,0a17.45,17.45,0,0,0-1.1-6.49,13.94,13.94,0,0,0-3-4.83,15,15,0,0,0-4.65-3,17.48,17.48,0,0,0-11.76,0,14.69,14.69,0,0,0-4.62,3,13,13,0,0,0-3,4.83,17,17,0,0,0-1.12,6.49,17.5,17.5,0,0,0,1.12,6.37,12.68,12.68,0,0,0,7.72,7.76,17.29,17.29,0,0,0,11.71,0,12.91,12.91,0,0,0,4.63-2.93,13.94,13.94,0,0,0,3-4.83A18,18,0,0,0,336.52,463.13Z"/><path class="cls-3" d="M400,463.13a21.5,21.5,0,0,1-1.62,8.41,18.4,18.4,0,0,1-4.58,6.5,21.26,21.26,0,0,1-7.19,4.2,27.44,27.44,0,0,1-9.41,1.52,28.28,28.28,0,0,1-9.61-1.52,20.66,20.66,0,0,1-7.18-4.2,17.89,17.89,0,0,1-4.55-6.5,22,22,0,0,1-1.56-8.41,21.36,21.36,0,0,1,1.6-8.52,19.46,19.46,0,0,1,4.62-6.61,21,21,0,0,1,7.18-4.2,27.63,27.63,0,0,1,9.43-1.41,28.21,28.21,0,0,1,9.57,1.41A21,21,0,0,1,394,448a19.09,19.09,0,0,1,4.51,6.61A22.36,22.36,0,0,1,400,463.13Zm-8.21,0a17.73,17.73,0,0,0-1.08-6.49,13.49,13.49,0,0,0-3-4.83,14.52,14.52,0,0,0-4.64-3,17.44,17.44,0,0,0-11.74,0,14.62,14.62,0,0,0-4.64,3,13.38,13.38,0,0,0-3,4.83,17,17,0,0,0-1.09,6.49,17.54,17.54,0,0,0,1.09,6.37,13,13,0,0,0,3.07,4.83,12.8,12.8,0,0,0,4.65,2.93,17.25,17.25,0,0,0,5.89,1,16.93,16.93,0,0,0,5.84-1,12.76,12.76,0,0,0,4.61-2.93,13.49,13.49,0,0,0,3-4.83A18.33,18.33,0,0,0,391.83,463.13Z"/><path class="cls-3" d="M409.67,463.52a25.51,25.51,0,0,1,1-7.26,19.11,19.11,0,0,1,2.61-5.48,16.67,16.67,0,0,1,3.81-4.06,22.11,22.11,0,0,1,4.52-2.55,21.19,21.19,0,0,1,4.73-1.4,28.29,28.29,0,0,1,4.54-.39,22.79,22.79,0,0,1,7.63,1.15,16.06,16.06,0,0,1,5.82,3.56h.15V422.67h7.87v60.07h-5.93l-1.62-4.44h-.2a23,23,0,0,1-2.12,1.92,11.27,11.27,0,0,1-2.87,1.78,15.59,15.59,0,0,1-3.8,1.27,20.12,20.12,0,0,1-5,.5,27.41,27.41,0,0,1-7.74-1.12,18.5,18.5,0,0,1-6.75-3.47,17.93,17.93,0,0,1-4.82-6.23A22,22,0,0,1,409.67,463.52Zm8.21-.11a20.13,20.13,0,0,0,.92,6.22,13.33,13.33,0,0,0,2.71,4.71,12.52,12.52,0,0,0,4.35,2.93,18.69,18.69,0,0,0,10.45.51,20.88,20.88,0,0,0,3.6-1.4,13.15,13.15,0,0,0,2.75-1.78,15.63,15.63,0,0,0,1.79-1.66V452.31a20.31,20.31,0,0,0-5.62-3.3,20,20,0,0,0-6.88-1.16,20.64,20.64,0,0,0-4.7.64,12,12,0,0,0-4.56,2.54,12.92,12.92,0,0,0-3.47,4.72A19,19,0,0,0,417.88,463.4Z"/><path class="cls-3" d="M489.81,482.73V427.25h8.25v55.49Z"/><path class="cls-3" d="M521.87,448.87H522a17.54,17.54,0,0,1,2.89-2.55,17.3,17.3,0,0,1,3.6-2.15,32,32,0,0,1,4.33-1.4,30.75,30.75,0,0,1,5.13-.39,24.25,24.25,0,0,1,6.18.65,13.4,13.4,0,0,1,5,2.41,11.65,11.65,0,0,1,3.35,4.33,15.68,15.68,0,0,1,1.24,6.61v26.35h-7.86V457.4c0-3.43-.79-5.85-2.39-7.38a10.37,10.37,0,0,0-7-2.17,18.79,18.79,0,0,0-7.87,1.79,20.23,20.23,0,0,0-6.55,5.09v28h-7.83V443.4h6.06Z"/><path class="cls-3" d="M574.62,453.84a4.25,4.25,0,0,0,.84,2.67,5.9,5.9,0,0,0,2.26,1.66,17.86,17.86,0,0,0,3.25,1c1.24.26,2.53.51,3.85.76,1.82.38,3.52.76,5.16,1.14a17.42,17.42,0,0,1,4.47,1.78,9.62,9.62,0,0,1,3.32,3.19,10.2,10.2,0,0,1,1.26,5.34,9.92,9.92,0,0,1-1.41,5.34,11.52,11.52,0,0,1-4,3.82,23.21,23.21,0,0,1-6.17,2.41,37.86,37.86,0,0,1-7.9.77,46.76,46.76,0,0,1-4.81-.25,29.26,29.26,0,0,1-3.78-.52c-1.11-.25-2-.5-2.81-.76a15.51,15.51,0,0,1-1.92-.75v-5.35a52.12,52.12,0,0,0,5.92,1.54,33.71,33.71,0,0,0,6.46.62,29.83,29.83,0,0,0,5-.39,14.08,14.08,0,0,0,3.87-1.27,5.73,5.73,0,0,0,2.48-2,4.69,4.69,0,0,0,.86-2.81A4.63,4.63,0,0,0,590,469a7.17,7.17,0,0,0-2.13-1.78,27.93,27.93,0,0,0-3.12-1.15c-1.17-.26-2.42-.52-3.69-.77-1.71-.37-3.41-.64-5.16-1.14a18.84,18.84,0,0,1-4.77-1.66,9.64,9.64,0,0,1-3.43-3.05,8.57,8.57,0,0,1-1.32-5,10.63,10.63,0,0,1,1.38-5.46,12.35,12.35,0,0,1,3.69-3.7A17.49,17.49,0,0,1,576.9,443a27.12,27.12,0,0,1,6.53-.65,44.6,44.6,0,0,1,7.42.52,57.4,57.4,0,0,1,6.21,1.64V450c-2-.64-4-1.15-6-1.64a46.67,46.67,0,0,0-6.26-.64,22.89,22.89,0,0,0-4.64.5,9.59,9.59,0,0,0-3.17,1.27,5,5,0,0,0-1.82,1.91A5.26,5.26,0,0,0,574.62,453.84Z"/><path class="cls-3" d="M611.25,434.24V427h7.84v7.24Zm.2,48.5V443.4h7.83v39.33Z"/><path class="cls-3" d="M632.21,463.52a24.69,24.69,0,0,1,1-7.26,19.15,19.15,0,0,1,2.61-5.48,16.69,16.69,0,0,1,3.81-4.06,22.71,22.71,0,0,1,4.49-2.55,21.71,21.71,0,0,1,4.74-1.4,28.7,28.7,0,0,1,4.54-.39,22.88,22.88,0,0,1,7.65,1.15,16.28,16.28,0,0,1,5.83,3.56H667V422.67h7.86v60.07h-5.94l-1.61-4.44h-.2A21.22,21.22,0,0,1,665,480.2a10.57,10.57,0,0,1-2.86,1.78,15.93,15.93,0,0,1-3.8,1.27,20.12,20.12,0,0,1-5,.5,27.35,27.35,0,0,1-7.75-1.12,18.53,18.53,0,0,1-6.77-3.47,18.22,18.22,0,0,1-4.79-6.23A21.85,21.85,0,0,1,632.21,463.52Zm8.21-.11a19.82,19.82,0,0,0,.93,6.22,13.5,13.5,0,0,0,2.72,4.71,12.79,12.79,0,0,0,4.36,2.93,18.58,18.58,0,0,0,10.42.51,21.49,21.49,0,0,0,3.63-1.4,13.21,13.21,0,0,0,2.73-1.78,14.88,14.88,0,0,0,1.81-1.66V452.31a19.12,19.12,0,0,0-17.2-3.82,11.65,11.65,0,0,0-4.56,2.54,12.6,12.6,0,0,0-3.48,4.72A18.74,18.74,0,0,0,640.42,463.4Z"/><path class="cls-3" d="M713.43,478.15a41.17,41.17,0,0,0,7.1-.51,58.13,58.13,0,0,0,6.42-1.5v5.33a25.89,25.89,0,0,1-6.39,1.65,42.47,42.47,0,0,1-8.14.63,45.85,45.85,0,0,1-9.72-1,21.82,21.82,0,0,1-7.83-3.55,16.26,16.26,0,0,1-5.2-6.24,21.12,21.12,0,0,1-1.89-9.41,22.33,22.33,0,0,1,1.83-9.3,19.11,19.11,0,0,1,4.87-6.62,20,20,0,0,1,7-4,25.47,25.47,0,0,1,8.23-1.28,24.14,24.14,0,0,1,7.55,1,16.57,16.57,0,0,1,6.09,3.44,17.86,17.86,0,0,1,4.1,6.11,24.72,24.72,0,0,1,1.48,8.92v.88c0,.25,0,.76,0,1.65H695.59a13.74,13.74,0,0,0,1.39,6.37,12,12,0,0,0,3.82,4.32,17.82,17.82,0,0,0,5.65,2.3A30.21,30.21,0,0,0,713.43,478.15Zm-4.16-30.3a13.28,13.28,0,0,0-5.05.89,11.81,11.81,0,0,0-4.07,2.3,11.54,11.54,0,0,0-2.8,3.56,10.78,10.78,0,0,0-1.35,4.21h24.63a12.84,12.84,0,0,0-.75-4.33,10.11,10.11,0,0,0-2.19-3.44,10.5,10.5,0,0,0-3.54-2.4A13.88,13.88,0,0,0,709.27,447.86Z"/><path class="cls-3" d="M235.3,371.57l-4.4-6.31a73.81,73.81,0,0,0,21.26-19.4c-6.73-5-12.29-9-16.73-12a2.81,2.81,0,0,1-1.38-2.43c0-.12.68-2.73,2-7.82s3.3-16.27,6-33.54h-9.29v-7.38h10.41q2.29-15.95,2.78-23.31l9.75.68c-.35,4.05-1.39,11.6-3.24,22.63h23.26v8.42q0,32.51-11.85,52.82,11.53,8.4,15.88,12.37l-6.2,7a138,138,0,0,0-14.38-12.28A79,79,0,0,1,235.3,371.57Zm21.39-32.71q9.81-17.81,9.79-45.77v-3H251.16q-5.19,30.74-7.88,39.24Zm51.65,32.26H290.19l-1.2-8.83h15.59a5.67,5.67,0,0,0,3.74-1.47,4.4,4.4,0,0,0,1.7-3.31V316.65H279.32V309H310V291.41h5.25a97.28,97.28,0,0,0,18.43-19.53H283.48v-7.5H344l4.14,3.72q-8.57,13-28.32,29.93v11h32v7.63h-32v44.09a9.31,9.31,0,0,1-3.49,7.38A11.93,11.93,0,0,1,308.34,371.11Z"/><path class="cls-3" d="M365.78,363.86l-6.47-1.57a113.64,113.64,0,0,0,5.27-24.75l7.51.5Q369.86,354.61,365.78,363.86Zm13.19,8V329.05q-12.08,1.13-17.49,1.36l-1-7.13c2.29,0,4.91-.13,7.8-.25,2.57-2.84,5.54-6.4,8.92-10.65q-10.83-11.54-15.94-16l5-4.66,2.41,2.29a113,113,0,0,0,10.54-15.48l7,3a203.73,203.73,0,0,1-12.95,16.91c3.45,3.4,6.24,6.16,8.37,8.32a223.24,223.24,0,0,0,13-18.42l7.26,4q-15.56,20.53-25.23,30.19c8.06-.45,14.45-1,19.22-1.55-1-3.05-1.84-5.54-2.52-7.5l6.19-1.72c3.05,8.18,5,14,6,17.35l-6.73,1.54c-.2-.85-.52-2.09-1-3.64-2.8.35-6.43.77-10.91,1.23v43.64Zm65.19-100v5.58h-8.82v-5.58h-33.8V278h-8.67v-6.08H362.92v-6.64h29.95v-6.31h8.67v6.31h33.8v-6.31h8.82v6.31h30.18v6.64Zm-47.33,85.88c-1-5.21-2.19-11.77-3.59-19.72l6.33-1c1.11,6.14,2.51,12.67,4.14,19.51Zm7.45,10.74v-6.35h5.85V332h60.57v30.17h5.09v6.35Zm9.06-44.66V282.93h54.5v40.91ZM418,362.15h10.23V337.78H418Zm22.87-59.4a25.26,25.26,0,0,1-12.4,11.12l-3.1-3.78c4.56-2.7,7.7-5.78,9.5-9.26q2.42-4.7,2.54-12.77H421.07v29.66h39V288.06H443.4c-.06,2.73-.22,5-.43,7,2.5,5.56,6.89,10.39,13.09,14.45l-4,3.84A32.94,32.94,0,0,1,440.85,302.75Zm-5.76,59.4h10V337.78h-10Zm17,0h10.56V337.78H452.13Z"/><path class="cls-3" d="M486.93,287.51v-7h42.62v7Zm11.91,79.12v4.65h-8.56V331.9H525.5v34.72Zm-7.25-96.47v-6.77h34.29v6.77Zm.13,34v-7h33.41v7Zm0,16.74V314h33.41v6.88Zm24.86,17.74H498.83V359.6h17.73ZM576,352.42c7.16,4.32,16.31,8.08,27.47,11.37l-4.82,7.92a104.24,104.24,0,0,1-30.21-13.64,97.11,97.11,0,0,1-36.07,14l-2.62-7q18.5-3.91,31.65-12.34-15.73-13.39-20.48-31.81h-6.37v-7.51h62Q595,337,576,352.42Zm-2.85-81.9H552v3.23q0,21.59-14.63,33.42L532,301.89q10.84-9.73,10.84-27.84V263.63h39.75v29.45q0,4.1,4,4.53h5.46a4.65,4.65,0,0,0,3.22-1.07,5.24,5.24,0,0,0,1.53-3.19c.21-1.42.46-5.21.7-11.33l7.64.94,0,9.36a26.47,26.47,0,0,1-.42,6,7.54,7.54,0,0,1-1.64,2.82,8.76,8.76,0,0,1-2.94,2.16,17.06,17.06,0,0,1-5.42,1.14c-2.48.25-4.61.36-6.43.36a62.4,62.4,0,0,1-7.32-.44,9,9,0,0,1-5.7-2.79,8,8,0,0,1-2.18-5.64Zm-4.44,76.83q14.09-11.71,17-26.42H550.25Q554.12,335.62,568.74,347.35Z"/><path class="cls-3" d="M613.42,287.26v-7.13H662v7.13Zm12.52,79.67v4.53h-9.29v-39.6h41.71v35.07Zm-8-97.15v-7h40.68v7Zm.12,34.59v-7.26h39.88v7.26Zm0,16.86V314h39.88v7.25ZM648.9,339h-23V359.8h23Zm44.27,32.48V302.33H666.25v-7.95h26.92v-35h10.11v35h27.35v7.95H703.27v69.12Z"/></svg>