<svg id="圖層_1" data-name="圖層 1" xmlns="http://www.w3.org/2000/svg" viewBox="0 0 742.68 742.68"><defs><style>.cls-1{fill:#e60012;stroke:#e71f19}.cls-1,.cls-2{stroke-linecap:square;stroke-miterlimit:10;stroke-width:0}.cls-2,.cls-3{fill:#231815}.cls-2{stroke:#040000}</style></defs><title>goodinside</title><path class="cls-1" d="M119.04 342.89h15.49v83.97h-15.49v-83.97z"/><path class="cls-2" d="M134.53 370.92v15.47h34.12v80.95H27.54V274.42h141.11v40.48h15.51v-55.97H12.06v223.93h172.1V370.92h-49.63z"/><path class="cls-1" d="M134.53 322.66v-.54l-.05-.54-.13-.54-.11-.54-.17-.55-.24-.48-.25-.53-.31-.49-.28-.41-.36-.43-.38-.43-.42-.35-.42-.36-.43-.31-.46-.28-.49-.25-.52-.24-.57-.18-.52-.13-.56-.05-.52-.07-.56-.06-.52.06-.56.07-.52.05-.54.13-.55.18-.54.24-.48.25-.49.28-.41.31-.43.36-.42.35-.35.43-.37.43-.3.41-.31.49-.22.53-.25.48-.18.55-.13.54-.1.54-.07.54v1.08l.07.59.1.55.13.54.18.48.25.53.22.5.31.47.3.48.37.42.35.36.42.43.43.37.41.28.49.24.48.31.54.19.55.16.54.12.52.13.56.06h1.08l.52-.06.56-.13.52-.12.57-.16.52-.19.49-.31.46-.24.43-.28.42-.37.42-.43.38-.36.36-.42.28-.48.31-.47.25-.5.24-.53.17-.48.11-.54.13-.55.05-.59v-.54z"/><path class="cls-2" d="M119.04 411.39H84.93v-25h34.11v-15.47H69.41v55.94h49.63v-15.47z"/><path class="cls-3" d="M277.84 460.33h-15.48v-6.11h23.74v26.85c-.72.26-1.75.54-3.13.89s-2.92.64-4.69.89-3.63.51-5.64.64-4 .26-6 .26a55.94 55.94 0 0 1-15.38-1.92 31.63 31.63 0 0 1-11.16-5.58 22.33 22.33 0 0 1-6.82-8.66 26.36 26.36 0 0 1-2.28-11.33 29.33 29.33 0 0 1 2.55-12.35 25.88 25.88 0 0 1 7.39-9.43 33.73 33.73 0 0 1 11.71-6.1 51.35 51.35 0 0 1 15.13-2.16c1.47 0 3 .12 4.46.13s2.91.25 4.26.5a31.53 31.53 0 0 1 3.74.64c1.15.25 2.12.51 2.89.77v6a47.17 47.17 0 0 0-7-1.4 54.86 54.86 0 0 0-7.89-.63 39.5 39.5 0 0 0-11 1.52 25.86 25.86 0 0 0-9.26 4.33 21.44 21.44 0 0 0-6.37 7.26 20.78 20.78 0 0 0-2.37 10.19 22.79 22.79 0 0 0 2 9.93 19.15 19.15 0 0 0 5.6 7 25.27 25.27 0 0 0 8.78 4.07 51.55 51.55 0 0 0 11.38 1.24c2 0 3.88-.12 5.78-.25a43.72 43.72 0 0 0 5.07-.75zm66.88 2.8a21.3 21.3 0 0 1-1.63 8.41 18.34 18.34 0 0 1-4.58 6.5 21.19 21.19 0 0 1-7.18 4.2 27.56 27.56 0 0 1-9.42 1.52 28.07 28.07 0 0 1-9.57-1.52 21.22 21.22 0 0 1-7.23-4.2 17.84 17.84 0 0 1-4.51-6.5 21.72 21.72 0 0 1-1.57-8.41 21.35 21.35 0 0 1 1.62-8.52 19.59 19.59 0 0 1 4.58-6.61 21.26 21.26 0 0 1 7.19-4.2 27.75 27.75 0 0 1 9.46-1.41 28.3 28.3 0 0 1 9.55 1.41 21.17 21.17 0 0 1 7.19 4.2 19.21 19.21 0 0 1 4.51 6.61 22.4 22.4 0 0 1 1.59 8.52zm-8.2 0a17.45 17.45 0 0 0-1.1-6.49 13.94 13.94 0 0 0-3-4.83 15 15 0 0 0-4.65-3 17.48 17.48 0 0 0-11.76 0 14.69 14.69 0 0 0-4.62 3 13 13 0 0 0-3 4.83 17 17 0 0 0-1.12 6.49 17.5 17.5 0 0 0 1.12 6.37 12.68 12.68 0 0 0 7.72 7.76 17.29 17.29 0 0 0 11.71 0 12.91 12.91 0 0 0 4.63-2.93 13.94 13.94 0 0 0 3-4.83 18 18 0 0 0 1.07-6.37zm63.48 0a21.5 21.5 0 0 1-1.62 8.41 18.4 18.4 0 0 1-4.58 6.5 21.26 21.26 0 0 1-7.19 4.2 27.44 27.44 0 0 1-9.41 1.52 28.28 28.28 0 0 1-9.61-1.52 20.66 20.66 0 0 1-7.18-4.2 17.89 17.89 0 0 1-4.55-6.5 22 22 0 0 1-1.56-8.41 21.36 21.36 0 0 1 1.6-8.52 19.46 19.46 0 0 1 4.62-6.61 21 21 0 0 1 7.18-4.2 27.63 27.63 0 0 1 9.43-1.41 28.21 28.21 0 0 1 9.57 1.41 21 21 0 0 1 7.3 4.2 19.09 19.09 0 0 1 4.51 6.61 22.36 22.36 0 0 1 1.49 8.52zm-8.21 0a17.73 17.73 0 0 0-1.08-6.49 13.49 13.49 0 0 0-3-4.83 14.52 14.52 0 0 0-4.64-3 17.44 17.44 0 0 0-11.74 0 14.62 14.62 0 0 0-4.64 3 13.38 13.38 0 0 0-3 4.83 17 17 0 0 0-1.09 6.49 17.54 17.54 0 0 0 1.09 6.37 13 13 0 0 0 3.07 4.83 12.8 12.8 0 0 0 4.65 2.93 17.25 17.25 0 0 0 5.89 1 16.93 16.93 0 0 0 5.84-1 12.76 12.76 0 0 0 4.61-2.93 13.49 13.49 0 0 0 3-4.83 18.33 18.33 0 0 0 1.08-6.37zm17.88.39a25.51 25.51 0 0 1 1-7.26 19.11 19.11 0 0 1 2.61-5.48 16.67 16.67 0 0 1 3.81-4.06 22.11 22.11 0 0 1 4.52-2.55 21.19 21.19 0 0 1 4.73-1.4 28.29 28.29 0 0 1 4.54-.39 22.79 22.79 0 0 1 7.63 1.15 16.06 16.06 0 0 1 5.82 3.56h.15v-24.42h7.87v60.07h-5.93l-1.62-4.44h-.2a23 23 0 0 1-2.12 1.92 11.27 11.27 0 0 1-2.87 1.78 15.59 15.59 0 0 1-3.8 1.27 20.12 20.12 0 0 1-5 .5 27.41 27.41 0 0 1-7.74-1.12 18.5 18.5 0 0 1-6.75-3.47 17.93 17.93 0 0 1-4.82-6.23 22 22 0 0 1-1.83-9.43zm8.21-.11a20.13 20.13 0 0 0 .92 6.22 13.33 13.33 0 0 0 2.71 4.71 12.52 12.52 0 0 0 4.35 2.93 18.69 18.69 0 0 0 10.45.51 20.88 20.88 0 0 0 3.6-1.4 13.15 13.15 0 0 0 2.75-1.78 15.63 15.63 0 0 0 1.79-1.66v-20.63a20.31 20.31 0 0 0-5.62-3.3 20 20 0 0 0-6.88-1.16 20.64 20.64 0 0 0-4.7.64 12 12 0 0 0-4.56 2.54 12.92 12.92 0 0 0-3.47 4.72 19 19 0 0 0-1.34 7.65zm71.93 19.32v-55.48h8.25v55.49zm32.06-33.86h.13a17.54 17.54 0 0 1 2.89-2.55 17.3 17.3 0 0 1 3.6-2.15 32 32 0 0 1 4.33-1.4 30.75 30.75 0 0 1 5.13-.39 24.25 24.25 0 0 1 6.18.65 13.4 13.4 0 0 1 5 2.41 11.65 11.65 0 0 1 3.35 4.33 15.68 15.68 0 0 1 1.24 6.61v26.35h-7.86V457.4c0-3.43-.79-5.85-2.39-7.38a10.37 10.37 0 0 0-7-2.17 18.79 18.79 0 0 0-7.87 1.79 20.23 20.23 0 0 0-6.55 5.09v28h-7.83V443.4h6.06zm52.75 4.97a4.25 4.25 0 0 0 .84 2.67 5.9 5.9 0 0 0 2.26 1.66 17.86 17.86 0 0 0 3.25 1c1.24.26 2.53.51 3.85.76 1.82.38 3.52.76 5.16 1.14a17.42 17.42 0 0 1 4.47 1.78 9.62 9.62 0 0 1 3.32 3.19 10.2 10.2 0 0 1 1.26 5.34 9.92 9.92 0 0 1-1.41 5.34 11.52 11.52 0 0 1-4 3.82 23.21 23.21 0 0 1-6.17 2.41 37.86 37.86 0 0 1-7.9.77 46.76 46.76 0 0 1-4.81-.25 29.26 29.26 0 0 1-3.78-.52c-1.11-.25-2-.5-2.81-.76a15.51 15.51 0 0 1-1.92-.75v-5.35a52.12 52.12 0 0 0 5.92 1.54 33.71 33.71 0 0 0 6.46.62 29.83 29.83 0 0 0 5-.39 14.08 14.08 0 0 0 3.87-1.27 5.73 5.73 0 0 0 2.48-2 4.69 4.69 0 0 0 .86-2.81A4.63 4.63 0 0 0 590 469a7.17 7.17 0 0 0-2.13-1.78 27.93 27.93 0 0 0-3.12-1.15c-1.17-.26-2.42-.52-3.69-.77-1.71-.37-3.41-.64-5.16-1.14a18.84 18.84 0 0 1-4.77-1.66 9.64 9.64 0 0 1-3.43-3.05 8.57 8.57 0 0 1-1.32-5 10.63 10.63 0 0 1 1.38-5.46 12.35 12.35 0 0 1 3.69-3.7 17.49 17.49 0 0 1 5.45-2.29 27.12 27.12 0 0 1 6.53-.65 44.6 44.6 0 0 1 7.42.52 57.4 57.4 0 0 1 6.21 1.64V450c-2-.64-4-1.15-6-1.64a46.67 46.67 0 0 0-6.26-.64 22.89 22.89 0 0 0-4.64.5 9.59 9.59 0 0 0-3.17 1.27 5 5 0 0 0-1.82 1.91 5.26 5.26 0 0 0-.55 2.44zm36.63-19.6V427h7.84v7.24zm.2 48.5V443.4h7.83v39.33zm20.76-19.22a24.69 24.69 0 0 1 1-7.26 19.15 19.15 0 0 1 2.61-5.48 16.69 16.69 0 0 1 3.81-4.06 22.71 22.71 0 0 1 4.49-2.55 21.71 21.71 0 0 1 4.74-1.4 28.7 28.7 0 0 1 4.54-.39 22.88 22.88 0 0 1 7.65 1.15 16.28 16.28 0 0 1 5.83 3.56h.12v-24.42h7.86v60.07h-5.94l-1.61-4.44h-.2a21.22 21.22 0 0 1-2.11 1.9 10.57 10.57 0 0 1-2.86 1.78 15.93 15.93 0 0 1-3.8 1.27 20.12 20.12 0 0 1-5 .5 27.35 27.35 0 0 1-7.75-1.12 18.53 18.53 0 0 1-6.77-3.47 18.22 18.22 0 0 1-4.79-6.23 21.85 21.85 0 0 1-1.82-9.41zm8.21-.11a19.82 19.82 0 0 0 .93 6.22 13.5 13.5 0 0 0 2.72 4.71 12.79 12.79 0 0 0 4.36 2.93 18.58 18.58 0 0 0 10.42.51 21.49 21.49 0 0 0 3.63-1.4 13.21 13.21 0 0 0 2.73-1.78 14.88 14.88 0 0 0 1.81-1.66v-20.63a19.12 19.12 0 0 0-17.2-3.82 11.65 11.65 0 0 0-4.56 2.54 12.6 12.6 0 0 0-3.48 4.72 18.74 18.74 0 0 0-1.36 7.65zm73.01 14.74a41.17 41.17 0 0 0 7.1-.51 58.13 58.13 0 0 0 6.42-1.5v5.33a25.89 25.89 0 0 1-6.39 1.65 42.47 42.47 0 0 1-8.14.63 45.85 45.85 0 0 1-9.72-1 21.82 21.82 0 0 1-7.83-3.55 16.26 16.26 0 0 1-5.2-6.24 21.12 21.12 0 0 1-1.89-9.41 22.33 22.33 0 0 1 1.83-9.3 19.11 19.11 0 0 1 4.87-6.62 20 20 0 0 1 7-4 25.47 25.47 0 0 1 8.23-1.28 24.14 24.14 0 0 1 7.55 1 16.57 16.57 0 0 1 6.09 3.44 17.86 17.86 0 0 1 4.1 6.11 24.72 24.72 0 0 1 1.48 8.92v2.53h-33.34a13.74 13.74 0 0 0 1.39 6.37 12 12 0 0 0 3.82 4.32 17.82 17.82 0 0 0 5.65 2.3 30.21 30.21 0 0 0 6.98.81zm-4.16-30.3a13.28 13.28 0 0 0-5.05.89 11.81 11.81 0 0 0-4.07 2.3 11.54 11.54 0 0 0-2.8 3.56 10.78 10.78 0 0 0-1.35 4.21h24.63a12.84 12.84 0 0 0-.75-4.33 10.11 10.11 0 0 0-2.19-3.44 10.5 10.5 0 0 0-3.54-2.4 13.88 13.88 0 0 0-4.88-.78zM235.3 371.57l-4.4-6.31a73.81 73.81 0 0 0 21.26-19.4c-6.73-5-12.29-9-16.73-12a2.81 2.81 0 0 1-1.38-2.43c0-.12.68-2.73 2-7.82s3.3-16.27 6-33.54h-9.29v-7.38h10.41q2.29-15.95 2.78-23.31l9.75.68c-.35 4.05-1.39 11.6-3.24 22.63h23.26v8.42q0 32.51-11.85 52.82 11.53 8.4 15.88 12.37l-6.2 7a138 138 0 0 0-14.38-12.28 79 79 0 0 1-23.87 20.55zm21.39-32.71q9.81-17.81 9.79-45.77v-3h-15.32q-5.19 30.74-7.88 39.24zm51.65 32.26h-18.15l-1.2-8.83h15.59a5.67 5.67 0 0 0 3.74-1.47 4.4 4.4 0 0 0 1.7-3.31v-40.86h-30.7V309H310v-17.59h5.25a97.28 97.28 0 0 0 18.43-19.53h-50.2v-7.5H344l4.14 3.72q-8.57 13-28.32 29.93v11h32v7.63h-32v44.09a9.31 9.31 0 0 1-3.49 7.38 11.93 11.93 0 0 1-7.99 2.98zm57.44-7.26l-6.47-1.57a113.64 113.64 0 0 0 5.27-24.75l7.51.5q-2.23 16.57-6.31 25.82zm13.19 8v-42.81q-12.08 1.13-17.49 1.36l-1-7.13c2.29 0 4.91-.13 7.8-.25 2.57-2.84 5.54-6.4 8.92-10.65q-10.83-11.54-15.94-16l5-4.66 2.41 2.29a113 113 0 0 0 10.54-15.48l7 3a203.73 203.73 0 0 1-12.95 16.91c3.45 3.4 6.24 6.16 8.37 8.32a223.24 223.24 0 0 0 13-18.42l7.26 4q-15.56 20.53-25.23 30.19c8.06-.45 14.45-1 19.22-1.55-1-3.05-1.84-5.54-2.52-7.5l6.19-1.72c3.05 8.18 5 14 6 17.35l-6.73 1.54c-.2-.85-.52-2.09-1-3.64-2.8.35-6.43.77-10.91 1.23v43.64zm65.19-100v5.58h-8.82v-5.58h-33.8V278h-8.67v-6.08h-29.95v-6.64h29.95v-6.31h8.67v6.31h33.8v-6.31h8.82v6.31h30.18v6.64zm-47.33 85.88c-1-5.21-2.19-11.77-3.59-19.72l6.33-1c1.11 6.14 2.51 12.67 4.14 19.51zm7.45 10.74v-6.35h5.85V332h60.57v30.17h5.09v6.35zm9.06-44.66v-40.89h54.5v40.91zm4.66 38.33h10.23v-24.37H418zm22.87-59.4a25.26 25.26 0 0 1-12.4 11.12l-3.1-3.78c4.56-2.7 7.7-5.78 9.5-9.26q2.42-4.7 2.54-12.77h-16.34v29.66h39v-29.66H443.4c-.06 2.73-.22 5-.43 7 2.5 5.56 6.89 10.39 13.09 14.45l-4 3.84a32.94 32.94 0 0 1-11.21-10.6zm-5.76 59.4h10v-24.37h-10zm17 0h10.56v-24.37h-10.54zm34.82-74.64v-7h42.62v7zm11.91 79.12v4.65h-8.56V331.9h35.22v34.72zm-7.25-96.47v-6.77h34.29v6.77zm.13 34v-7h33.41v7zm0 16.74V314h33.41v6.88zm24.86 17.74h-17.75v20.96h17.73zM576 352.42c7.16 4.32 16.31 8.08 27.47 11.37l-4.82 7.92a104.24 104.24 0 0 1-30.21-13.64 97.11 97.11 0 0 1-36.07 14l-2.62-7q18.5-3.91 31.65-12.34-15.73-13.39-20.48-31.81h-6.37v-7.51h62Q595 337 576 352.42zm-2.85-81.9H552v3.23q0 21.59-14.63 33.42l-5.37-5.28q10.84-9.73 10.84-27.84v-10.42h39.75v29.45q0 4.1 4 4.53h5.46a4.65 4.65 0 0 0 3.22-1.07 5.24 5.24 0 0 0 1.53-3.19c.21-1.42.46-5.21.7-11.33l7.64.94v9.36a26.47 26.47 0 0 1-.42 6 7.54 7.54 0 0 1-1.64 2.82 8.76 8.76 0 0 1-2.94 2.16 17.06 17.06 0 0 1-5.42 1.14c-2.48.25-4.61.36-6.43.36a62.4 62.4 0 0 1-7.32-.44 9 9 0 0 1-5.7-2.79 8 8 0 0 1-2.18-5.64zm-4.44 76.83q14.09-11.71 17-26.42h-35.46q3.87 14.69 18.49 26.42zm44.71-60.09v-7.13H662v7.13zm12.52 79.67v4.53h-9.29v-39.6h41.71v35.07zm-8-97.15v-7h40.68v7zm.12 34.59v-7.26h39.88v7.26zm0 16.86V314h39.88v7.25zM648.9 339h-23v20.8h23zm44.27 32.48v-69.15h-26.92v-7.95h26.92v-35h10.11v35h27.35v7.95h-27.36v69.12z"/></svg>