<svg id="圖層_1" data-name="圖層 1" xmlns="http://www.w3.org/2000/svg" viewBox="0 0 200 200"><defs><style>.cls-1{fill:#fff}.cls-2{fill:#231815}.cls-3{fill:none;stroke:#231815;stroke-linecap:round;stroke-linejoin:round;stroke-width:0}</style></defs><title>logo</title><path class="cls-1" d="M52.91 116.83a2.69 2.69 0 0 1 .71-.49c.25-.14.49-.19.55-.05-.12-.29-.12-.29.34-.79.08.19.57-.13.89-.32a4.45 4.45 0 0 0-1.47.53 2.31 2.31 0 0 1-1.34.76 2.46 2.46 0 0 0-1.33.74 3.93 3.93 0 0 0 1.65-.38zm3.75-.38v-.16l-1.12.82c.24-.23 1.01-.77 1.12-.66z"/><path class="cls-2" d="M60.17 113.72c0 .26.67-.09.79.08-.31-.33.78-.79 1.2-1.24l-.06-.42a24 24 0 0 0-2.64 2l.35-.19z"/><path class="cls-1" d="M61.21 113.2l.15-.43c-.21.23-.77.79-.15.43zm-1.44-.41c-.74.58.53-.24-.15.42.21-.21.48-.5.15-.42z"/><path class="cls-2" d="M63.26 110.63l-1.42 1.53.74-.47.68-1.06zm.59.47c-.2.18-.6.38-.4 0 .74-.3.81-.9 1.48-1.2l-.41.53c.26.15.82-1.15 1.15-.74.42-.87-.8.12-.11-.85a15.79 15.79 0 0 1-2.17 1.82 4.54 4.54 0 0 0 .67-.38c-.47.45-1 1.17-1.56 1.71.5.01.75-.59 1.35-.89zm2.51-2.16c.54-.45 1.4-1.1 1.31-1.53-.76.24-.65.59-.81.93-.21.08-.76.53-.68.18.14 0-.18.48.18.42zm2.19-1.65l.1-.29.11-.29-.24.24-.18-.18a1.11 1.11 0 0 1-.52 1c.42-.08.39-.33.73-.48zm-.86-1.51a2.67 2.67 0 0 0 1.14-.8 7.4 7.4 0 0 0-1.72 1.39v-.09s-.13.15-.28.36a6.26 6.26 0 0 0-.45.76c.47-.7 1.87-1.25 1.31-1.62zm-.85.59l.35-.51zm3.47-.31l-.49.21-.48.24.28-.05.69-.4zm-1.66-.22c.78-.45-.56 0 .15-.42.17-.16-1.05.7-1 .89.2-.09.61-.66.85-.47zm2.28-.08l.69-.6zm2.07-.61l.12-.21c.42 0 .88-.14 1.33-.12a1.2 1.2 0 0 1 1.07.31c-.09-.25.45-.4-.26-.6-.13.1-.38.08-.35.23-.3 0-.24-.2-.45-.26-.27.11-.61.13-.93.22a1.83 1.83 0 0 0-.82.29.62.62 0 0 1 .41-.08 1.25 1.25 0 0 1-.9.22c-.22 0-.39 0-.47.29.25-.27.86-.08 1.25-.29zm-.42-1.21l-.8.19c.17-.31 1-.34 1-.56-.09-.16-.93 0-.66-.16.07.59-1.1.39-.47.87-.94.46-.43-.21-1.45.27l-.13.42a12.16 12.16 0 0 1 2.51-1.03z"/><path class="cls-2" d="M75.83 103.88s.36.29.35.3-.14-.32-.14-.32a2.65 2.65 0 0 1 1.76 1.58 4.85 4.85 0 0 0 .73 1.5c1 .85 1.09 2.19 1.78 3.31.52.44-.18-.6-.08-.73.49-.06.08.66.56.74.32-.09-.32-1.33-.42-1.93-.28-.41-.37-.35-.61-.39.1-.2-.11-.67 0-.88-.79-.73-.73-1.53-1.78-2.11-.05-.21.12-.08.27.07s.25.33.13.19a2.56 2.56 0 0 0-.22-.21l-.24-.2v.07c-.4-.18-.89-.51-1.41-.77a11.54 11.54 0 0 0-1.33-.57c.46.15.7.4.18.4 0 0-.39-.36-.39-.34l-.53.23-.5.24a2.17 2.17 0 0 1 1.14-.06c.35.06.6.11.75-.12zm-1.2-.65c-.68-.05-.63.06-.6.17s0 .11-.05.15a3.14 3.14 0 0 1-.59.1h.22a2.65 2.65 0 0 1 .5-.06h.75z"/><path class="cls-1" d="M79.32 107l.13.59c.2-.49-.77-.95-.13-.59zm1.06 1.81l-.47-.08.44.36.03-.28z"/><path class="cls-2" d="M80.9 110.68c.38.26.26-.25 0-.65.18.4.16.68 0 .65z"/><path class="cls-1" d="M82.37 113.68c-.41-.35-.25-.18-.08.06s.4.53 0 .41c.2-.04.71.12.08-.47z"/><path class="cls-2" d="M85.8 115.66c-.45.11-.66 0-.71-.09a3.91 3.91 0 0 1 .71.09zm-8.23-9.47a2.31 2.31 0 0 1-.21-.23zm.13.15l-.13-.15a1 1 0 0 1 .13.15zm3.08 6.46v-.09zm-21.67 2.31a3.43 3.43 0 0 1-.36.26l.36-.26zm-.72-.16c.51-.62 1 0 2-.88a11.81 11.81 0 0 1-1.24 1c-.87.12.32-.43-.76-.12zm7.75-7.16c.07-.1.05-.06 0 0z"/><path class="cls-1" d="M25.57 123.72v.11l-.71-.09.71-.02zm.11.18l1.2.12-3.52.25-3.52.22.22-.16c-.06-.17 5.84-.26 5.62-.43zm.32-.18c.65-.47 1.14.09 2-.28a2.57 2.57 0 0 1-1.47.43z"/><path class="cls-3" d="M28.29 122.73c.38.06.81-.16 1-.11-.08.38-.68.13-1 .11z"/><path class="cls-2" d="M29.19 121.39h.17l-.17.08zm0 .06v.15c-.12-.05-.09-.1 0-.15zm.17-.07a2.06 2.06 0 0 0 .42-.19h-.16c.22-.05.59-.21.7-.14-.43 0-.43.12-.42.33h.7c-.1.45-.6-.01-1.24 0z"/><path class="cls-3" d="M31.55 121.06l-.69.35c-.22-.25.42-.33.69-.35z"/><path class="cls-2" d="M32.63 121.28c-.16.1-.86.14-.42.22a.88.88 0 0 1-.39.08c.47-.11-.01-.4.81-.3zm-.81.3h-.2z"/><path class="cls-3" d="M24.37 123.39c.09 0 .09.07.05.11z"/><path class="cls-2" d="M34.09 121.42h.27-.21zm-22.3 4.15a12.71 12.71 0 0 0 3.2-.21c-.05-.35.54-.13.6-.51-1.42.12 5.33-.51 4.19-.6l-.33.18.33-.39c.69.06 1.63.31 2.08.07.13.11-5.8.32-5.57.42-.55-.41 7.92-.82 8.12-1l.11.22c1-.31 1.69-.67 2.56-.89l.22.26a3.89 3.89 0 0 0-1.47.31c1.14-.12 1.36 0 2.23-.09-.06-.35-.76-.12.32-.4.33.12-.37.57.6.42 1.2 0 .92-.5 1.95-.63l-.71-.06a3.47 3.47 0 0 1 1.46 0c-.43 0-1.51.32-1.45.67a17.14 17.14 0 0 1 1.79-.13l-.21.27c.44.19.65-.18 1.2 0 .48-.19-.34-.33-.07-.45a2.52 2.52 0 0 0 1.41-.11c-.3-.49-1.13.3-1.8-.15h.92c.52-.57-1.46.16-1.21-.29.63-.59 1.48.36 2-.39-.43-.07-1.78.07-1.63-.14.5.15.79-.26 1.44-.41l.82.14c.31-.2 0-.17-.23-.25 1.2.18 3.09-.47 4.77-.37.94-.26.08-.25.48-.51.56.21 1.37-.21 1.9-.3.16 0 .38-.37.2-.46l-1.28.44c0-.18-.21-.41-.68-.28.22.27-.26.26-.79.28s-1.12 0-1.12.37v-.31l-1.67.47h.06a20.84 20.84 0 0 1-2.39.39c.26-.13 1.87-.21.89-.43.68-.25 2-.16 3.22-.49L38 120a10.8 10.8 0 0 1 2.21-.46 15.53 15.53 0 0 0 2.32-.37l-.37.38a2.77 2.77 0 0 0 1.66-.3c-.62.16-.33-.07-.25-.22a8.32 8.32 0 0 1 1.43-.43 15.18 15.18 0 0 0 1.67-.52v.1l1.11-.51a2.26 2.26 0 0 1 1.19 0c.19-.11.68-.28.44-.37a1 1 0 0 0-.29.09c.47-.5.43-.06 1.09-.5-.46.45.31.29.34.56.79-.44-.1-.47 0-.63a17.7 17.7 0 0 0 2.29-.53c0-.18-.76.21-.92.07a1.44 1.44 0 0 0 .65-.32l-.66.15a8.48 8.48 0 0 0 1.61-.53 12.46 12.46 0 0 0 1.54-.89h-.13l.69-.35-.09.4c.34-.25.84-.28.91-.61l-.14.06.39-.37-.29.55c.62-.26 1.1-1.28 2-1.82.47.22-1.45 1.13-1.28 1.66.35-.12.93-.38 1-.62-.12-.1-.34 0-.56.18.68-.72 2-1.2 2.17-2l-.65.31c.59-.54 1.37-.49 1.38-.91l-.15.84c.48-.76 1.34-1.47 1.81-2.19-.2-.24-.87.82-.87.73l.13-.43c1.07-.75.39-.11 1.68-1L63 109c.59-.12 1.26-1.54 1.23-.76l-.41.2.19.16.63-.68.65-.68c0 .26.64-.37.61 0l.4-.61c.46.08-.72 1.13-.59 1.39s.35-.11.46-.23c-.45.73-1.16.52-1.77 1.06l-.15.44L64 109a1.44 1.44 0 0 0-.28.79c-.88.22-1.15 1.19-2.09 1.91.61-.79-.66.21-.6 0-.39.35-1 1.63-1.64 1.59-.33.06.37-.55-.25-.18-.34.3-.51.63-.18.57a26.88 26.88 0 0 1-3 1.9l.15-.31a2.59 2.59 0 0 0-1.46 1.15c-.13 0-.15.05-.11-.11-1 .15-.88.93-2.35 1.48.19.23.85 0 1.25-.35v.35a12.72 12.72 0 0 0 1.85-1 10.58 10.58 0 0 0 1.56-1.09l-.15.24c-.08.12-.16.23-.16.23 1-.1.36-.73 1.38-.77.49-.46-.49.11-.15-.27.45-.17.21.55.89.14a33.76 33.76 0 0 1-8.39 4.4c0 .08.13 0 .29 0a7 7 0 0 1-1.85.75c-.94.25-2.11.51-3.25.76s-2.27.43-3.12.63-1.41.38-1.44.61c-.18-.1.29-.33-.35-.19 0 .07-.2.18 0 .28a12 12 0 0 0-2.83.27 13.62 13.62 0 0 1-3.06.33c.06.14-.37.27-.36.38-.72-.25-1.85.23-2.52.1l.22.15-2 .19c-.05.07.22 0 .38.05-.43.12-.55-.06-.6-.2l-.87.43c-2.68-.39-5.91.73-9 .5a2.87 2.87 0 0 1-1.59.52l.38.07c-.77.28-.05-.14-.71 0-.44.21-.11.44.49.25.39.08.16.19-.11.27a29.07 29.07 0 0 1-6.58-.25zm82.74-13.74c-.3.07.77-.79.06-.59a27.83 27.83 0 0 0-3.3 2.13 17 17 0 0 1-1.94 1.15c-.18.08-.33.17-.52.24l-.58.19a4.57 4.57 0 0 1-1.1.23c-.79 0-1 0-1.7-.11a.2.2 0 0 0 0 .16h-.71A5.68 5.68 0 0 1 84 115a3.35 3.35 0 0 1-1.35-.72c-.23-.08-.51 0-.09.22a2.51 2.51 0 0 1-1.17-1.14 3.18 3.18 0 0 0-.61-.95c.19.53-.49-.32-.21.29-.71-1 .05-1.29-.3-2.07-.08 0-.16 0-.09.13-.16-1-1.5-2.34-1.08-2.69l-.38-.19c0-.42.12-.41-.18-1-.32-.29-.16.13-.32.06.09-.29-.67-1.07-.89-1.61.1-.15.21.1.34.39s.26.64.54.74c.07 0 0-.1 0-.19 1.61 2.21 1.29 4.67 3.11 6.51a1 1 0 0 0 1 .73c-.14-.2-.39-.56-.62-.84s-.47-.5-.67-.37l-.09-.4-.07-.4c-.17-.22.26-.48.27-.62.22.46.92.63.72 0 .36.5.1.56-.18.61s-.57.06-.17.51l.39-.08c-.3-.06.21.86.6 1l-.07-.16a4 4 0 0 0 2.17 1.28 5.29 5.29 0 0 0 2.74-.24 10.48 10.48 0 0 0 2.45-1.32c.76-.51 1.46-1.07 2.12-1.61 1.23.19 1.74-1.81 2.79-1.8.19-.35-.6.13-.15-.44.22-.29.41-.14.44-.08l.19-.28a1 1 0 0 1 .56 1.13 5.2 5.2 0 0 1-1.21 2.43z"/><path class="cls-1" d="M120.07 80.25c.14-.53.85-1.25 1.17-.81-.32-.44-.33-.44 0-1.17.21.3.64-.15.94-.4-.42 0-.81.21-1.57.68-.15 1.11-2.2 1.25-2.16 2.36a5.2 5.2 0 0 1 .86-.18 1.2 1.2 0 0 0 .76-.48zm4.23-.25v-.24l-.44.52-.43.53c.08-.27.69-.97.87-.81z"/><path class="cls-2" d="M127.81 77.4c0 .42.64.45.65.86 0-.4.19-.54.52-.47s.67.22.93.26l.21-.28a3.14 3.14 0 0 1 .21-.26 1.2 1.2 0 0 0-.52-.38 3.08 3.08 0 0 0-.87-.12 5.65 5.65 0 0 0-2 .54l.44-.08a2.82 2.82 0 0 1 .43-.07z"/><path class="cls-1" d="M128.93 77.64a3.42 3.42 0 0 1 .42-.38c-.35.06-1.08.18-.42.38zm-1.09-2.02c-.68.16-.46.17-.24.2s.41.09-.21.34c.4-.24.92-.39.45-.54z"/><path class="cls-2" d="M132.23 78.2L132 78a5 5 0 0 0-.68-.43 3.43 3.43 0 0 0-1.07-.37 3.55 3.55 0 0 1 .71.62h.21a2.33 2.33 0 0 1 .45.12 3.52 3.52 0 0 1 .61.26zm-.85 1.03c-.14-.17-.25-.65.13-.54a1.23 1.23 0 0 0 .45.81.9.9 0 0 1 .34.79 4.76 4.76 0 0 0-.45-.42c-.19.18 0 .33.25.58s.33.5-.09.65c.9.55.49-.9 1.31 0a11.69 11.69 0 0 1-.6-1.35 9.1 9.1 0 0 0-.62-1.33c.06.34.14.43.24.84a4 4 0 0 0-1.82-1.26.75.75 0 0 0 .4.63.92.92 0 0 1 .46.6zm1.15 2.69c.15.64.34 1.62 1.05 1.68.33-.81-.27-.81-.62-1 .07-.22-.08-.88.34-.72-.12.12-.61-.32-.77.04zm.47 2.55l.67.39-.15-.3.43-.1c-.12 0-.93-.15-1-.8-.29.34.13.44.05.81zm3-.32c-.22.57 0 .84.22 1.4-.06-.4-.13-.89-.23-1.33a1.49 1.49 0 0 0-.36-.83h.12a5.14 5.14 0 0 0-1-1.1c.61.71.2 2.26 1.25 1.86zm-.13-1.02l.45.51zm-2.53 3.34s0-.26.06-.52l.05-.52-.16.27v.38c.05.2.05.39.05.39zm1.73-1.41c0 .89.44-.54.5.3.11.23-.17-1.26-.47-1.28-.1.24.47.83-.03.98zm-1.74 2.09l.49.83zm-.23 2.13l.33.16c-.26.84.22 1.95-.46 2.58.4-.16.84.32.94-.42-.22-.11-.22-.37-.48-.32.07-.32.36-.26.47-.47-.37-.53-.11-1.37-.44-1.79.07.21 0 .26 0 .42-.58-.9.8-1.09-.16-1.46.27.31-.3.88-.2 1.3zm2.22-.12l.11-.74c.44.22 0 .9.44 1 .25 0 .36-.79.54-.52-1-.06-.08-1-1.21-.6-.16-1 .62-.31.52-1.34l-.56-.27c.34 1.15-.16 1.31.16 2.47zm-.1 2.84l-.32.36.47-.21c.14 1.57-1.72 2.66-1.33 3.66a2.82 2.82 0 0 1 .41 1.79 4.26 4.26 0 0 0 .23 1.9c.32.22.31.05.26-.18s-.11-.55 0-.62c.82-.1-.23.72.52.74.54-.15.16-1.36.41-1.94-.18-.41-.35-.36-.71-.43.29-.17.32-.65.62-.81a1.34 1.34 0 0 1-.18-1.15 1.52 1.52 0 0 0-.16-1.16c.42-.32.14.69.18.38v-.5l-.07.06a2.61 2.61 0 0 1 .16-2.44c-.14.36-.5.62-.65.2l.51-.36-.77-.9c.45.61-.52 1.48.42 1.61zm.91-1c.25-1.09-.77.15-.55-1.05l.08 1.25z"/><path class="cls-1" d="M135.2 96.11l-.27.58c.67-.41-.41-1.07.27-.58zm.38 1.89l-.7-.1.24.2.25.18z"/><path class="cls-2" d="M135.43 99.9c.46.22.53-.34.28-.7.13.37-.04.69-.28.7z"/><path class="cls-1" d="M136.51 103.32c-.47-.38-.3-.18-.11.11s.41.67-.14.64c.31-.12.98-.07.25-.75z"/><path class="cls-2" d="M140.26 105.95c-.55.18-.79.05-.85-.11a2.37 2.37 0 0 1 .85.11zm-6.83-11.31a1.48 1.48 0 0 1 0-.33c-.01.12-.01.22 0 .33zm0 .22v-.22a2.15 2.15 0 0 1 0 .22zm1.03 7.73a1 1 0 0 1 0-.12zm-7.78-23.71a1.65 1.65 0 0 1-.34.24l.33-.24zm-.88-.56c.23-.37.53-.27.89-.15a1.16 1.16 0 0 0 1.19-.11c-.41.25-.77.5-1.21.81-.92-.23.33-.57-.87-.55zm8.61 3.68c.07.07.04 0 0 0z"/><path class="cls-1" d="M102.41 101.76l.12.14-.66.29.54-.43zm.3.17l.54-.28.53-.28-.75.77-1.71 1.63c-.62.6-1.29 1.15-1.77 1.58l-.81.71v-.34c-.14-.1 1-1 2-1.89s2.14-1.83 1.97-1.9zm.03-.43c-.06-1 1-.58 1.17-1.53-.13.63-.13 1.19-.63 1.42z"/><path class="cls-3" d="M103.32 98.88c.37-.14.43-.68.65-.75.33.5-.38.59-.65.75z"/><path class="cls-2" d="M102.39 96.66a.51.51 0 0 1 .11-.12 1.16 1.16 0 0 0 0 .2zm.08.08l.18.19c-.15.01-.19-.07-.18-.19z"/><path class="cls-2" d="M102.5 96.54a1.56 1.56 0 0 0 .08-.48l-.13.08c.09-.2.18-.6.36-.57-.31.26-.18.39.08.65l.49-.44c.53.68-.44.38-.88.76z"/><path class="cls-3" d="M103.76 94.89l-.09.83c-.48-.19-.08-.65.09-.83z"/><path class="cls-2" d="M104.83 94.54c0 .21-.46.66 0 .52 0 .15-.1.23-.19.32.17-.38-.54-.48.19-.84zm-.22.84a.69.69 0 0 1-.11.16.54.54 0 0 1 .11-.16z"/><path class="cls-3" d="M101.09 102c.11 0 .15 0 .16.11z"/><path class="cls-2" d="M106.12 93.89l.17-.2a1.1 1.1 0 0 0-.12.18z"/><path class="cls-2" d="M92.26 111.41a12.62 12.62 0 0 0 1.5-.54 4.49 4.49 0 0 0 1.56-1.08c-.35-.51.39-.46.11-1.05-.29.21-.16.11.17-.14a14.54 14.54 0 0 0 1.4-1.14c1-.93 2-1.92 1.46-1.69l-.09.43-.13-.72c.6-.3 1.63-.49 1.74-1.07a10.75 10.75 0 0 1-2.06 1.84l-1.52 1.17c-.41.32-.68.49-.61.51-.22-.1.09-.4.58-.93s1.25-1.16 2-1.84 1.48-1.4 2-2a4.23 4.23 0 0 0 .88-1.09l.34.23c.47-1 .53-1.85.93-2.65l.47.2c-.55.33-.44.68-.75 1.28.72-.84 1.07-.77 1.6-1.44-.46-.41-.72.29-.22-.69.4 0 .39.94 1 .18.91-.72.09-1.19.73-1.95l-.63.33c.23-.29.6-.87 1.08-.9-.31.27-.78 1.28-.31 1.68.19-.41 1-.92 1.23-1.23l.17.46c.57 0 .27-.62.9-.76.14-.53-.67-.19-.62-.51.17 0 1-.53 1-1-.84-.41-.53 1-1.59.88l.71-.55c-.32-1-.92 1.06-1.28.37-.28-1.1 1.59-.43 1.08-1.67-.44.18-1.3 1.1-1.44.77.55-.12.28-.77.6-1.31l.82-.32c0-.44-.18-.24-.49-.16 1.16-.53 1.88-2.43 3.48-3.22.56-.81-.22-.36-.16-.9.76 0 1-1 1.39-1.37.14-.09-.06-.68-.32-.72l-.68 1.25a.57.57 0 0 0-.94 0c1 .46-1.81 1-.95 1.88l-.4-.37-.82 1.56h.09c-.13-.12-.65 1.35-1.43 1.93 0-.32 1.22-1.4.16-1.07.21-.74 1.4-1.39 2.05-2.53h-.44c.51-1.38 2.29-2.29 3.23-3.51l.06.68c.49-.28 1.29-.47 1.35-1.13-.46.48-.42 0-.49-.19.45-.82 1.61-1.52 2.36-2.53 0 0 0 .12.12.14s.18-.29.37-.54l.38-.53a2 2 0 0 1 1.37-.23c.12-.19.54-.54.19-.63a.62.62 0 0 0-.26.18c.13-.83.45-.17.84-.94-.17.75.57.38.82.79.58-.76-.47-.7-.52-.94a4.45 4.45 0 0 1 1.19-.41 3.18 3.18 0 0 0 1.13-.53c-.13-.27-.76.37-1 .18.3-.15.59-.42.56-.55l-.7.28a9.55 9.55 0 0 0 3.1-2.16l-.18-.06.71-.49.06.62c.3-.38 1-.27 1-.76l-.17.06.41-.47-.22.78c.37-.11.63-.54 1-1a6.07 6.07 0 0 1 .59-.72 3.06 3.06 0 0 1 .4-.32 2.89 2.89 0 0 1 .62-.31c.18.13 0 .28-.18.48l-.36.28c-.12.09-.26.18-.38.28-.51.38-1 .83-.8 1.27.42-.09 1.1-.3 1.21-.65-.17-.2-.44-.05-.7.09a3.82 3.82 0 0 1 1.92-1.11c.44-.18.87-.3 1.25-.44a2.8 2.8 0 0 0 1-.5l-.65-.08a2.14 2.14 0 0 0-.46 0h-.21a2.13 2.13 0 0 1 1-.08 3.48 3.48 0 0 1 .83.21c.47.18.78.35 1.08.11 0 0-.34.2-.63.4a4.7 4.7 0 0 0-.57.44 3.69 3.69 0 0 1 1.09-.17 4.26 4.26 0 0 1 1.14.19 11.1 11.1 0 0 1 2 .94c.19-.19-.2-.54-.64-.78s-.91-.35-.85-.37a2.66 2.66 0 0 1 .38 0h.38a4.06 4.06 0 0 1 .76.8 1.46 1.46 0 0 1 .21.38c.07.23.28.44.87 1.59l.31-.19c.14 1.17 1.65 2.23.52 2v-.58l-.38.22s.29.48.55 1 .46 1 .46 1c-.36-.1 0 .82-.5.67l.28.31.27.31c-.53.45-1-1.11-1.53-1-.27.11-.14.41-.06.55-.67-.66.25-1.38-.1-2.25l-.55-.24.5-.22a1.5 1.5 0 0 0-1-.5 1.58 1.58 0 0 0-.85-1.41c-.51-.32-1.11-.53-1.77-.87.62.1.51-.09.22-.34s-.76-.42-.63-.46a3.83 3.83 0 0 0-1.66.32c-.6.22-1.1.48-1.48.28s.78-.73-.27-.44c-.68.33-.9.8-.43.84-1.05.7-2.19 1.28-3.18 2v-.46a1.75 1.75 0 0 0-1.34 1.48c-.17-.06-.15.07-.19-.18-1.12.11-.51 1.33-1.76 2.2.39.34.95-.07 1.17-.56l.27.53a17.93 17.93 0 0 0 2.83-2.68l-.16.63c1.19.13.13-1 1.34-.73.44-.52-.55 0-.27-.47.48-.09.43.91 1.08.56a87 87 0 0 0-6.88 5.67c0 .12.17 0 .31 0-.12.64-2.14 1.81-3.83 3.22s-3.27 2.85-2.8 3.45c-.26 0-.12-.56-.53-.08 0 .12 0 .33.3.37-1.7.59-2.39 2.83-4 3.93.22.13.06.54.19.67-.89.12-1.18 1.4-1.85 1.65h.35s-.33.37-.67.73l-.68.72c0 .12.23-.08.36-.16-.19.41-.5.25-.71.11l-.14 1.08a9.1 9.1 0 0 0-3.17 2.83 11.15 11.15 0 0 1-3.36 3.09 2 2 0 0 1-.81 1.6l.4-.11c-.38.82-.19-.18-.61.4-.18.54.34.7.68.09.42-.1.33.18.18.45a11.89 11.89 0 0 1-6.78 2.59zm57.12-10.68c-.34 0 .47-.86-.3-.75a10.14 10.14 0 0 0-2.92 2.44 13.25 13.25 0 0 1-1.79 1.55 7.44 7.44 0 0 1-1.1.64 5.58 5.58 0 0 1-1.39.46h-1.11a5.6 5.6 0 0 1-1-.1.5.5 0 0 0 0 .28 5.64 5.64 0 0 1-1.69-.16 3.23 3.23 0 0 1-1.49-.81c-.27 0-.66.17-.15.38a2.39 2.39 0 0 1-1.38-1.36c-.19-.51-.3-.93-.64-1.13.08.32-.09.26-.25.19s-.29-.13-.15.25c-.79-1.15.49-1.72.29-2.59-.12 0-.25 0-.2.17a4.53 4.53 0 0 0-.44-1.81c-.17-.59-.28-1.09.2-1.22l-.46-.29c.26-.45.48-.38.52-1-.2-.4-.36.06-.53-.07.37-.23.07-1.34.6-1.89.62-.08-.77 1-.15 1.43.12 0 .15-.07.16-.18.05 1.32-.2 2.56-.23 3.83a6 6 0 0 0 .23 1.9 3.6 3.6 0 0 0 1.09 1.67.84.84 0 0 0 1.24.68c-.35-.49-.78-1.71-1.51-1.24v-.98c-.19-.23.59-.64.66-.8.17.49 1.13.43 1.11-.21.31.42-.11.62-.54.77s-.89.25-.46.69l.31-.12.3-.13c-.2 0-.21.26-.09.53a1.54 1.54 0 0 0 .23.39.78.78 0 0 0 .33.21v-.2a3.61 3.61 0 0 0 4.79.78 14 14 0 0 0 3.74-3.71c1.7.41 1.16-2.21 2.6-1.89.09-.4-.75 0-.42-.64.18-.32.49 0 .55 0l.14-.3a3.71 3.71 0 0 1 1.24 1.75 4.27 4.27 0 0 1 .06 2.59z"/><path class="cls-1" d="M166 104a1.9 1.9 0 0 1 .54-.06c.18 0 .32 0 .33.08 0-.16 0-.16.38-.31 0 .1.36.06.57 0a9.11 9.11 0 0 0-1 0 1.49 1.49 0 0 1-.95.07 2.86 2.86 0 0 0-.94 0 2 2 0 0 0 1.07.22zm2.34.43l.06-.08-.43.16a1.81 1.81 0 0 1-.44.12c.18-.03.76-.27.81-.2z"/><path class="cls-2" d="M170.88 103.06c0 .15.41-.08.46 0-.16-.17.52-.51.8-.8v-.24a6.58 6.58 0 0 0-.73.55l-.46.4-.53.33z"/><path class="cls-1" d="M171.53 102.69l.12-.25c-.14.16-.51.5-.12.25zm-.8-.13c-.5.33.35-.14-.13.23.17-.12.32-.3.13-.23z"/><path class="cls-2" d="M172.76 101s-.18.28-.38.56-.41.53-.41.53l.22-.18.21-.19.18-.36zm.34.13c-.11.15-.33.33-.22.09.41-.31.42-.68.76-1l-.19.4c.16 0 .37-.85.57-.69.15-.6-.42.27-.14-.45a7.14 7.14 0 0 1-1.05 1.51 2.73 2.73 0 0 0 .35-.35c-.23.36-.51.87-.83 1.26.32-.1.43-.49.75-.77zm1.21-1.84c.25-.4.55-1.06.42-1.25a.93.93 0 0 0-.24.77c-.09.12-.32.52-.32.3.07-.04-.02.33.14.18zm.81-1.67v-.38.22h-.13a.75.75 0 0 1 0 .71c.08-.17.01-.33.13-.55zm-.78-.38a1.14 1.14 0 0 0 .17-.73c0 .42-.29 1-.27 1.2s-.09.44-.12.79c.1-.5.57-1.29.22-1.26zm-.23.55v-.35zm1.27-1.63s0 .19-.06.37l-.1.35.09-.16a3.62 3.62 0 0 0 .07-.56zm-.64.75c.13-.5-.18.24-.09-.23a3.82 3.82 0 0 0-.13.76c.1-.12.06-.52.22-.53zm.63-1.25a2.06 2.06 0 0 0-.34-.54 2.06 2.06 0 0 1 .34.54zm-.78-1.43h-.15a.92.92 0 0 0-1-.14 9.52 9.52 0 0 0-.81.52c.16 0 0 .33.39 0 0-.1.17-.23.11-.27.21-.12.2 0 .34-.05a.7.7 0 0 1 .66-.11 3 3 0 0 1 .56.31c-.13-.09-.14-.14-.24-.22a.81.81 0 0 1 .48.52c.05.15.07.24.26.3-.19-.18-.28-.65-.6-.86z"/><path class="cls-2" d="M174.28 94.82a1.85 1.85 0 0 1 .21.3c-.17 0-.27-.31-.38-.23s.13.28 0 .25c.2-.23.27.35.42 0 .32.48 0 .25.12.69l.17.13a1.74 1.74 0 0 0-.09-.36 1 1 0 0 0-.1-.27 1.2 1.2 0 0 0-.35-.51zm-1.17.18l-.21.12h.18c-.55.83-1.28 1.27-1.43 1.94a6.23 6.23 0 0 1-.3 1.2 4.45 4.45 0 0 0-.2 1.25c.11.42.07-.4.16-.44.21.13-.14.4 0 .6s.21-.87.36-1.19 0-.31-.09-.42c.11-.06.21-.35.33-.4.06-.66.41-.9.53-1.52.19-.13-.17.44-.07.26l.14-.31a1.93 1.93 0 0 1 .38-.78 2.1 2.1 0 0 1 .28-.3.64.64 0 0 1 .2-.11c-.13.06-.31.11-.18-.09h.21a1.07 1.07 0 0 1 .14-.22.93.93 0 0 1 .22-.19c-.34.21-.76.38-.65.6z"/><path class="cls-2" d="M173.59 94.94c.17 0 .16-.08.15-.14s0-.16.24-.08a.48.48 0 0 0-.27 0 .72.72 0 0 0-.23.13z"/><path class="cls-1" d="M171.85 97.47l-.2.32c.25-.13.16-.79.2-.32zm-.27 1.29l-.18-.22.08.36.1-.14z"/><path class="cls-2" d="M171.29 100c.09.27.18-.06.16-.37-.01.25-.09.37-.16.37z"/><path class="cls-1" d="M171.18 102.08c-.15-.64.09.58-.19.16.1.07.28.36.19-.16z"/><path class="cls-2" d="M171.6 104.3c-.18-.19-.18-.32-.16-.37a3.23 3.23 0 0 1 .16.37zm.2-8.04a1.83 1.83 0 0 1 .09-.2zm-.06.13l.06-.13zm-1.01 4.7zm-.64 2.77a1.45 1.45 0 0 1-.26.13 2.38 2.38 0 0 0 .26-.13zm-.43-.09c.41-.3.61 0 1.28-.53l-.86.62c-.52.04.29-.23-.42-.09zm4.34-5.05s.05-.04 0 0z"/><path class="cls-1" d="M150.59 95.19v.05a2.37 2.37 0 0 0-.44 0 2.38 2.38 0 0 1 .44-.05zm.07.09a1.49 1.49 0 0 1 .35.05 2 2 0 0 1 .33.11 1.81 1.81 0 0 0-.62-.06 2.59 2.59 0 0 0-1.31.53 11.5 11.5 0 0 0-1.18 1l-.52.49.06-.15a8.17 8.17 0 0 1 1.36-1.25 3.8 3.8 0 0 1 1.53-.72zm.2-.09c.47-.19.69.17 1.22.27a6.54 6.54 0 0 1-.94-.16z"/><path class="cls-3" d="M152.47 95.29c.21.17.5.28.6.39-.18.08-.41-.26-.6-.39z"/><path class="cls-2" d="M153.42 95.18l.1.08-.13-.06z"/><path class="cls-2" d="M153.4 95.2l-.05.05c-.05-.07-.02-.07.05-.05zm.13.06a2.51 2.51 0 0 0 .29.14l-.08-.09c.13.09.4.23.42.32-.23-.22-.27-.18-.34-.11l.19.17.18.18c-.24.13-.31-.3-.66-.61z"/><path class="cls-3" d="M154.73 96.3l-.22-.13-.23-.13c-.01-.2.33.12.45.26z"/><path class="cls-2" d="M155.11 97c-.1-.06-.42-.43-.27-.17a.84.84 0 0 1-.2-.18c.25.17.17-.17.47.35zm-.47-.4l-.1-.1z"/><path class="cls-3" d="M149.79 95.21h.05z"/><path class="cls-2" d="M155.63 97.8l.11.14-.1-.11z"/><path class="cls-2" d="M143.47 100.84a6.38 6.38 0 0 0 1.92-1.11c-.12-.13.28-.25.21-.44-.38.29.35-.25 1-.88s1.29-1.31 1-1.08l-.11.21v-.29a4.7 4.7 0 0 0 1.06-.85s-.65.63-1.34 1.28-1.44 1.24-1.37 1.21c-.2 0 .8-.83 1.75-1.8a18.67 18.67 0 0 1 1.4-1.3c.42-.34.76-.5.79-.54l.1.08a2.27 2.27 0 0 1 1.75-.4l.09.18a1.45 1.45 0 0 0-1-.08 1.81 1.81 0 0 1 .8.14c.19.08.35.16.61.28.06-.16-.41-.32.3 0 .14.18-.37.07.19.4.58.51.63.22 1.15.68l-.3-.37a2.52 2.52 0 0 1 .67.72c-.18-.23-.79-.66-.9-.51a7 7 0 0 1 .82.84h-.19c.1.28.34.27.49.6s0-.27.16-.16a2.51 2.51 0 0 0 .57.73c.1-.29-.54-.53-.62-1l.36.49c.45.12-.64-.73-.36-.72.51.17.44.89 1 1-.12-.26-.71-1-.57-.93.14.31.43.36.73.69l.24.48c.2.11.09 0 0-.18a21.31 21.31 0 0 0 2 2.29c.49.39.13 0 .4.09.16.33.69.57 1 .78.08.07.32 0 .28-.06s-.74-.44-.75-.44.07-.22-.18-.4c0 .38-.78-.93-1.06-.72l.12-.11-.85-.7a12.23 12.23 0 0 1-1-1.14c.17.14.78.91.52.36.35.28.79 1 1.43 1.48v-.18c.73.46 1.45 1.35 2.27 1.84h-.31c.25.22.53.59.87.63-.35-.2-.13-.16 0-.18a6.37 6.37 0 0 1 .85.45 8.37 8.37 0 0 0 1 .47l.74.2a2.33 2.33 0 0 1 .6.42c.13 0 .45.1.35 0a.74.74 0 0 0-.18-.06c.41-.06.25.11.73.14-.38 0 .07.22 0 .33.57 0 .09-.23.18-.28a4.78 4.78 0 0 0 1.4.36c0-.08-.48-.07-.52-.16a1.06 1.06 0 0 0 .44 0l-.4-.08a6.15 6.15 0 0 0 1 .11 4.84 4.84 0 0 0 1.06-.17h-.06l.45-.11-.12.19c.23-.11.54 0 .63-.2h-.09l.27-.17s-.24.28-.25.27a1.78 1.78 0 0 0 .62-.37c.23-.15.45-.37.72-.54.12.05-.11.22-.37.41s-.57.31-.56.46c.22-.05.6-.15.69-.28s-.21 0-.35.08c.25-.15.55-.36.85-.53a1.14 1.14 0 0 0 .6-.59l-.38.22c.36-.35.8-.36.83-.58l-.13.47c.15-.23.39-.44.55-.66a4.76 4.76 0 0 0 .47-.72c-.11-.1-.45.58-.45.52l.06-.25c.55-.57.22-.11.86-.85l-.08-.07c.32-.18.52-1.09.59-.66l-.2.19h.12l.26-.51.24-.51c0 .14.26-.35.3-.17l.08-.42c.25-.1-.14.78-.06.88s.17-.15.2-.25c-.12.52-.52.59-.79 1v.27l-.12-.1a1.13 1.13 0 0 0-.1.5c-.46.29-.57.9-1.11 1.42.34-.5-.36.18-.34.06-.26.19-.69 1-1.08 1-.21 0 .28-.31-.13-.09-.24.17-.38.36-.17.31a4 4 0 0 1-.44.29l-.51.22a5.39 5.39 0 0 1-.53.21l-.55.14.14-.14a2 2 0 0 0-.63.17 2.26 2.26 0 0 0-.47.21c-.07 0-.1 0 0-.07-.59-.09-.75.27-1.76.17 0 .17.5.19.82.13l-.09.16a5.68 5.68 0 0 0 2.54-.46l-.29.2c.68.06.37-.3 1-.3.37-.23-.32 0 0-.15s0 .3.52.1a6.42 6.42 0 0 1-1.42.57 7.13 7.13 0 0 1-1.57.28 9.9 9.9 0 0 1-3.16-.33s.06.06.16.1a8.89 8.89 0 0 1-3.24-1.35c-1.33-.79-2.43-1.76-2.65-1.64 0-.11.26 0-.08-.23-.05 0-.17 0-.12.07a33.48 33.48 0 0 1-2.66-2.86c0 .07-.25-.13-.29-.1-.15-.46-.78-.91-1-1.27v.15s-.22-.24-.45-.46-.47-.43-.47-.43.08.11.15.19c-.23-.15-.22-.26-.19-.33s-.55-.19-.55-.19a2.28 2.28 0 0 0-1-.62 1.69 1.69 0 0 0-1.17.14 18.31 18.31 0 0 0-2.23 1.77 2.27 2.27 0 0 1-.64.89l.22-.14c-.31.44-.07 0-.36.31s.07.23.33-.11c.22-.14.14 0 0 .16a9.75 9.75 0 0 1-4.2 2.29z"/><path class="cls-2" d="M177.35 104.33c-.11.17.18-.8-.1-.37a10.13 10.13 0 0 1-.66 1.21 2.78 2.78 0 0 1-1.42 1.18 2.24 2.24 0 0 1-2-.35 3.54 3.54 0 0 1-1-1.1c-.19-.44-.27-.54-.44-.92a.08.08 0 0 0-.06.05c-.1-.22-.27-.49-.39-.77a4 4 0 0 1-.23-.81c-.06-.12-.19-.19-.11.06-.28-.68 0-1.23-.17-1.6 0 .34-.14-.33-.16.08-.06-.73.32-.69.38-1.24 0 0-.06-.07-.07 0a7.51 7.51 0 0 0 .11-1.17c0-.42.13-.74.27-.74l-.05-.27c.16-.23.2-.15.37-.56s-.1 0-.11-.14.37-.82.67-1.06c.17 0-.48.47-.44.86 0 0 .06 0 .08-.09a7.73 7.73 0 0 0-.91 4.64.67.67 0 0 0 .24.72c0-.28 0-1.07-.25-1.06l.13-.49c0-.18.23-.18.26-.26 0 .33.25.67.32.24.08.83-.55-.24-.43.51l.19.09c-.11-.14-.12.54 0 .77v-.11a5.63 5.63 0 0 0 1.44 3.05 2.61 2.61 0 0 0 1.53 1 1.58 1.58 0 0 0 1.43-.87c.35-.11.5-.54.58-.94a2.16 2.16 0 0 1 .31-1c0-.25-.21.32-.19-.15 0-.24.12-.25.15-.23v-.22c.22-.07.42 0 .58.31a3 3 0 0 1 .15 1.75z"/><path class="cls-1" d="M186.69 94.47c-.45.29-1.38.82-1.44.67.05.15.05.15-.55.58-.09-.09-.5.2-.73.48a6.64 6.64 0 0 1 1.39-.76A21.25 21.25 0 0 1 188.2 94l-.66-1.55a2.22 2.22 0 0 0-.37.21l.41-.1.57 1.32a6.89 6.89 0 0 0-1.46.59zM183 96.06v.15a4.83 4.83 0 0 1 .46-.65A4.22 4.22 0 0 1 184 95a8 8 0 0 0-.61.59 3.71 3.71 0 0 1-.39.47z"/><path class="cls-2" d="M181.71 101c-.06-.1-.15.17-.23.38h.16c0-.13.06-.25.09-.24-.22 0-.12-1.26-.14-1.94l-.17-.28a11.18 11.18 0 0 0 0 2.48h.3l.19-1.32z"/><path class="cls-1" d="M181.54 100.46l-.13-.45c.04.38.11 1.26.13.45zm.61.89c.17-1.12-.17.66-.05-.47v.54h-1c0-.06 0-.07 0 0l1.12.05z"/><path class="cls-2" d="M181.59 96.68a6.23 6.23 0 0 0-.22 1.22 11.11 11.11 0 0 0 0 1.22l.06-.5c0-.25.08-.5.08-.5v-.72a6.13 6.13 0 0 1 .08-.72zm.41 0c-.11.28-.29.74-.23.29a4.67 4.67 0 0 1 .83-1.45h-.05a1.36 1.36 0 0 1 .27.38 3.29 3.29 0 0 0-.31-.33h.14l-.16.22s.12-.06.21-.17h-.24c.33.24.75 1 .54 1 .46.91 0-.83.48.43a3.48 3.48 0 0 0-.84-1.66l-.06-.06-.07.07a3.21 3.21 0 0 0-.82 1.23 4.88 4.88 0 0 1 .47-.76 5.15 5.15 0 0 0-.61 2.56 13 13 0 0 1 .45-1.75zm1.28 1.08a6.44 6.44 0 0 1-.07 1.31 4.63 4.63 0 0 0-.14.9 1.46 1.46 0 0 0 .32-.81 3.81 3.81 0 0 0-.05-.53c.07-.23.06-1 .17-.72-.03.09-.19-.51-.23-.15zm-.91 2.74l-.18.21a1.21 1.21 0 0 1-.23.17 1.13 1.13 0 0 0 .32-.16l.1.08.55-1c-.26.3-.25.47-.56.7z"/><path class="cls-2" d="M182.66 101.33a2.46 2.46 0 0 1-1 .24 2.06 2.06 0 0 1-1.12-.25 2 2 0 0 0 2.91-.85v.09a3.6 3.6 0 0 0 .24-.55 3.32 3.32 0 0 0 .14-1 3.06 3.06 0 0 1-.61 1.64c-.38.41-.8.63-.56.68zm1-1.08a2 2 0 0 1-.17.38 2.45 2.45 0 0 1-.23.37 2.45 2.45 0 0 0 .23-.37 2 2 0 0 0 .17-.38z"/><path class="cls-2" d="M180.64 100.08a.75.75 0 0 0 .21.46 1.11 1.11 0 0 0 .47.28 1.1 1.1 0 0 1-.24-.14.86.86 0 0 1-.3-.25.71.71 0 0 1-.14-.35zm.87 1.23c-.31 0-.42-.08-.43-.07s.06.05.15.09.18.07.18.08-.11 0-.42-.08a1.46 1.46 0 0 0 .8.1 1.65 1.65 0 0 0 .7-.23c.18-.12.29-.21.29-.25a2.62 2.62 0 0 1-.66.36c-.28.08-.55.08-.61 0zm-1-1.92l.35.94zm.16 2.45l.07.2A9.68 9.68 0 0 1 180 105c.15-.13.12.46.38-.37 0-.15.05-.45 0-.42.11-.35.18-.26.27-.49a8.31 8.31 0 0 1 .15-1.11 7 7 0 0 0 0-1 2.43 2.43 0 0 1-.06.49 6.81 6.81 0 0 1 .06-1.08.7.7 0 0 0-.1-.62 1.85 1.85 0 0 1 0 .71v.41a2.91 2.91 0 0 0-.03.32z"/><path class="cls-2" d="M181.31 101.79v-.14a1.55 1.55 0 0 0 0-.31v-.46a1.8 1.8 0 0 1 .08.69 1.48 1.48 0 0 0 0 .59c.08 0 .2-1 .22-.63-.28-.12-.07-1.29-.37-.79 0-.58-.08-.68 0-.79s.05-.21-.09-.78l-.27-1.17-.61 1.06-.05.09a2.22 2.22 0 0 0 0 .46 1.9 1.9 0 0 1 .21-.48l.44-.76.21.84a8.42 8.42 0 0 1 .25 1.21c-.06.37.01.76-.02 1.37zm-.71 3.37l-.21.38.19-.19a19.86 19.86 0 0 1-1 2.65h-.06a5.83 5.83 0 0 0 .85-1.18 9.06 9.06 0 0 1 1.09-1.82l.28-.38.14-.18.07-.09c0-.05.06 0 .09 0a4.49 4.49 0 0 1 .7.69c.23.2.16.07 0-.14s-.42-.46-.45-.54.24.09.36.28.22.37.39.44-.12-.4-.52-.81a4.12 4.12 0 0 0-.32-.3l-.18-.14-.09-.07h-.07c-.16.22-.32.42-.44.56-.38.59-.33.62-.36.83s-.49.54-.65.62a19 19 0 0 1-1.18 2l.73.28a5.87 5.87 0 0 0 .09-.61c.2-.31-.16.82-.06.47l.13-.6v.06a12.38 12.38 0 0 1 .85-2.85c-.15.41-.33.67-.24.17l.25-.37v-1.13c-.05.88-.6 1.74-.38 1.97z"/><path class="cls-2" d="M181.17 104c.36-1.3-.24.11.11-1.32l-.14.76a6.81 6.81 0 0 1-.17.75z"/><path class="cls-1" d="M180.37 106.15l.21-.25.22-.25c-.39.19-.65 1.21-.43.5zm1.4-2.15s-.15.54-.14.53l.15-.33.11-.23a.27.27 0 0 1 .08 0z"/><path class="cls-2" d="M183.27 105.54c.34.33.12-.16-.29-.65.35.47.39.7.29.65z"/><path class="cls-1" d="M185.2 108.61c-.75-.84.63.78 0 .29.12.1.59.39 0-.29z"/><path class="cls-2" d="M188 111.24c-.46-.12-.61-.23-.64-.31.28.17.54.23.64.31zm-8.25-3.15l-.43-.17.08-.35-.08.35.43.17zm.13-.21l-.13.21zm3.99-.46v-.08zM181.76 99a4.77 4.77 0 0 1 .1-.51c0 .17-.07.33-.1.5zm.38-.5c-.07.89-.49.88-.61 2.34.05-.59.12-1.2.23-1.83.36-.77-.04.66.38-.51zm1.65-.08z"/><path class="cls-1" d="M180.1 89.92l.03.04-.58.55.55-.59z"/><path class="cls-1" d="M180.24 89.9s.25-.24.5-.45a6.08 6.08 0 0 1 .52-.42c-1.33 1.19-2.35 2.78-3.85 4l-.73.57.25-.89a7.72 7.72 0 0 1 1.24-2.36l-.1.26A10.85 10.85 0 0 0 177 92.7l-.19.62.52-.4a15.78 15.78 0 0 0 2.05-2 10.59 10.59 0 0 0 .86-1.02z"/><path class="cls-1" d="M180.44 89.56a2.21 2.21 0 0 1 .73-.77l.44-.33a3.66 3.66 0 0 0 .51-.4c-.49.43-.75.8-1.23 1.18z"/><path class="cls-3" d="M182.58 88.15a4 4 0 0 1-.32 1.26c-.08-.2.29-.82.32-1.26z"/><path class="cls-2" d="M182.83 89.63a1.54 1.54 0 0 1-.1.21 1.79 1.79 0 0 0 .07-.23z"/><path class="cls-2" d="M182.81 89.61h-.06c.09-.18.09-.13.06 0zm-.07.24c-.07.19-.16.42-.2.53l.11-.17a3.72 3.72 0 0 1-.42.78c.29-.44.25-.49.17-.55l-.23.37-.23.35c-.13-.28.4-.58.8-1.31z"/><path class="cls-3" d="M181.43 92.13l.3-.75c.27-.12-.16.51-.3.75z"/><path class="cls-2" d="M180.83 93c0-.16.33-.8.08-.44a1.67 1.67 0 0 1 .17-.38c-.19.47.12.14-.25.82zm.24-.8l.1-.19z"/><path class="cls-3" d="M179.05 90.79c.08-.06.09 0 .08 0z"/><path class="cls-2" d="M179.54 93l.18-.27-.13.22z"/><path class="cls-2" d="M177 84a10.64 10.64 0 0 1 1.41.63 3.12 3.12 0 0 1 1.2 1c.08-.05.13.06.19.18s.09.27.18.3c-.08-.33 0-.2 0 .21a3.94 3.94 0 0 1-.44 1.8A17.71 17.71 0 0 1 178.5 90c-.29.44-.41.65-.21.4l.16-.37-.09.44a4.87 4.87 0 0 0-1.25 2.08 3.17 3.17 0 0 1 .38-.94 15.33 15.33 0 0 1 1.28-1.91 8.61 8.61 0 0 0 1.12-1.88 2.34 2.34 0 0 0 .22-.84c.1-.19.07.74-.63 1.89s-1.92 2.48-2.29 3.92a11.42 11.42 0 0 0 1.9-2h.16a15.19 15.19 0 0 1 1.85-2.43h.26a4.78 4.78 0 0 0-.65.57c-.15.19-.3.39-.55.68a7.18 7.18 0 0 1 1-1c.27-.23.55-.38 1-.68-.11-.12-.64.31 0-.18l.28-.22v.74c-.15.36-.15-.49-.38.61a11.94 11.94 0 0 0-.44 1.13 3.43 3.43 0 0 1-.46 1l.49-.65a10.36 10.36 0 0 1-.93 1.4c.25-.41.87-1.54.69-1.6-.23.45-.91 1.35-1.1 1.75v-.3c-.34.38-.33.7-.62 1.27-.09.59.27-.3.23 0a2.23 2.23 0 0 0-.22.93V94l.11-.16a3.68 3.68 0 0 0 .34-.59c-.16 0-.3.25-.46.51h.15a1.81 1.81 0 0 1 .35-1.26l-.07.15-.12.33-.09.34a.87.87 0 0 0 0 .16c.11.32.11-.07.22-.49s.33-.86.34-.67c-.05.53-.38 1-.41 1.45l-.52-.15a1.56 1.56 0 0 0 .31-.69c-.11.13-.28.36-.45.6l.83.24c0-.5.27-1 .29-.91a1.29 1.29 0 0 0-.11.91l-1.15-.33a6 6 0 0 1 .29-.54l.31-.36c.15-.18.32-.36.32-.36.19-.37 0-.12-.25.12.3-.34.68-.77 1.06-1.26l.83-1.05.25 1.34a3.86 3.86 0 0 1-.37 2.3 7.13 7.13 0 0 1-1.19 1.79c-.7 1 0 .19-.26.67-.52.39-1.14 1.25-1.64 1.69-.15.12-.32.48-.14.4 0 0 .3-.3.59-.61s.55-.63.55-.63.28 0 .66-.43c-.25.06.18-.35.61-.86s.86-1.14.73-1.29l.12.1a8 8 0 0 0 .45-1.08 4.63 4.63 0 0 0 .23-1.26v.08a.75.75 0 0 0 0-.25 3.46 3.46 0 0 0-.08-.68l-.32-2.1-1.2 1.69c-.37.53-1 1.3-1.34 1.86.08-.31 1.39-1.86.52-1a10.45 10.45 0 0 1 .7-.93l1.4-1.71.41 2.19a3.87 3.87 0 0 1-.14 1.79 9.61 9.61 0 0 1-.68 1.56l.25-.24a13.08 13.08 0 0 1-3.66 4.28l-1.41-1.75.22-.16-.18.21 1.33 1.65.18-.26-.25.17-1.16-1.45a10.18 10.18 0 0 0 1.52-1c-.68.43-.37.15-.28 0a19.89 19.89 0 0 1 3.66-1.85s-.05.06 0 .05.34-.16.68-.3l.69-.29a5.32 5.32 0 0 1 1.35-.25c.24-.1.82-.3.57-.3a2.67 2.67 0 0 0-.34.11c.64-.38.5-.12 1.33-.51-.62.35.27.11.23.26 1-.42 0-.26.11-.36.41-.12.7-.2 1-.26l.79 1.83a15.76 15.76 0 0 0-1.68.62c0 .11.87-.34 1-.3a4.11 4.11 0 0 0-.79.38l.76-.28a19.33 19.33 0 0 0-1.85.78l-.89.45-.23.12-.14.11a2.67 2.67 0 0 0-.28.27h.09a1.9 1.9 0 0 0-.23.25c-.11.13-.21.28-.21.28v-.3c-.21.32-.53.7-.51 1l.07-.14s0 .13-.08.26-.07.27-.07.27v-.58a10.84 10.84 0 0 0-.53 2.92c-.12.12-.07-.43 0-1s.23-1.18.14-1.29a3.61 3.61 0 0 0-.35 1.3c.08 0 .14-.33.21-.61-.1.83-.37 2-.43 2.88l-1.69-.08a2.56 2.56 0 0 0-.13-.59v.6l2 .09.07-.26v.26l-2.06-.1a8.75 8.75 0 0 0 0-1.76l.29.81a11.43 11.43 0 0 1 0-3.51c-.07 0-.17.36-.2.74s0 .74 0 .71v-.51a4.1 4.1 0 0 1 .3-1.1l.15-.37a4.55 4.55 0 0 1 .56-1l-.07-.08.47-.48.58-.59.61.57c.8.74 1.13 1.78.76 1.29a2 2 0 0 0-.09-.29l-.12-.29-.08.11a4.62 4.62 0 0 1 .49 1.16 6.11 6.11 0 0 1 .19 1.19c0-.12-.06.12-.08.34s-.08.43-.13.27a5.23 5.23 0 0 1 0 .9c-.15.18-.06-.24-.05-.7a2.33 2.33 0 0 0-.12-1c-.08 0-.06.42-.06.61V97.3a2.66 2.66 0 0 0-.25-1.26 1.7 1.7 0 0 0-.18-.21l-.2-.19.14-.07a2 2 0 0 0-.37-.33l-.45-.34-.23.35a1.54 1.54 0 0 0-.24.49 2.51 2.51 0 0 0-.7 1.44 16.22 16.22 0 0 0-.16 1.88c-.05-1.18-.17.75-.19.55 0 .42.16 1.23.22 1.87h.82a2.52 2.52 0 0 1 .17-.83c.12-.35 0 .77.16-.08.06-.56 0-.94-.09-.6a7.89 7.89 0 0 1 1.26-3.68l-.08.3a7.24 7.24 0 0 1 1.34-1.36c.13 0 .17-.07.08 0 1-.33 1.13-.82 2.8-1.54-.16-.09-.9.24-1.39.54l.07-.21c-.71.32-1.44.72-2.15 1.09a3.66 3.66 0 0 0-1.33 1.64s.18-.56.19-.55a1.3 1.3 0 0 0-.46.81 1.83 1.83 0 0 1-.34.81c-.17.74.25-.5.14.07s-.25-.22-.49.66a5.54 5.54 0 0 1 2-3.6c.63-.35 1.27-.66 1.91-1l1.92-.9.2.46c-.78.29-1.56.58-2.33.84-.05.05.13 0 .31 0-.38.22-1.83.65-3.5 1.24a16.47 16.47 0 0 0-4.78 2.41l-.27-.33A4.73 4.73 0 0 0 179 96c.16-.09-.16.38.33-.18 0-.07.11-.24 0-.15a7.06 7.06 0 0 0 1.4-1.79 3.63 3.63 0 0 0 .56-2.27l.51.14c-.36.48-.77.91-1.12 1.39.09 0-.15.44-.12.48a3.52 3.52 0 0 0-.36.43l-.7 1 .07-1.13a5.13 5.13 0 0 1 .25-1.31 4 4 0 0 1 .52-1l-.2.17s.3-.53.62-1 .6-1 .6-1l-.25.34c.22-.44.35-.48.44-.49a4.74 4.74 0 0 0 .13-.48 2.64 2.64 0 0 0 .07-.46 2 2 0 0 0 .16-.68l.66.36a8.2 8.2 0 0 0-2.44 2.16 17.58 17.58 0 0 1-2.52 2.72l-1.26 1 .43-1.55a6.54 6.54 0 0 1 1.23-2.26 7.61 7.61 0 0 1 .89-1.62l-.27.31c.38-.77.1 0 .44-.63.14-.44-.09-.24-.39.35-.28.31-.17.07 0-.19a3.24 3.24 0 0 0 .79-2.79c-.38-.79-1.47-1.39-2.47-1.87zm18.92 23.8c.18.28-.94-.94-.5-.25.19.27.39.52.62.87a3.49 3.49 0 0 1 .63 1.56 1.53 1.53 0 0 1-.19.79 1.07 1.07 0 0 1-.28.32 1 1 0 0 1-.35.23 2.19 2.19 0 0 1-.4.15l-.43.06-.43.06h-.38a16.61 16.61 0 0 1-4.78-.17 11.52 11.52 0 0 1-1.64-.62.05.05 0 0 0 0 .08 6.62 6.62 0 0 1-2.34-1.78c-.18-.14-.38-.18-.05.11a17.88 17.88 0 0 1-1.63-2.13c.28.48-.42-.37-.06.19-.77-1-.38-1.16-.86-1.91-.05 0-.1 0 0 .09a2.09 2.09 0 0 0-.4-.57 1.84 1.84 0 0 0-.3-.25l-.08-.05-.1.17c-.26.44-.46.75-.64.77l-.12.41a3.36 3.36 0 0 0-.73.84c-.21.45.1 0 0 .21a6.85 6.85 0 0 0-.74 1l-.26-.1a4.94 4.94 0 0 1 .3-.83c.11 0-.1.39-.27.84l.2.08a2.17 2.17 0 0 0 .41-.69s-.07 0-.14.14c.41-.67.8-1.3 1.23-1.86.22-.31.37-.49.54-.7s.27-.53.49-.19a3.28 3.28 0 0 1 .44.57l.43.7a9.39 9.39 0 0 0 .56.81c.2.26.39.5.61.74a1.84 1.84 0 0 0 .9.91c-.28-.39-1-1.52-1.22-1.39l-.37-.75c-.19-.25 0-.38 0-.52.3.49.89.83.5.18.92 1.15-.71-.06.14.95h.26c-.23-.14.41.82.74 1.11l-.09-.16a10.2 10.2 0 0 0 2 2 5.76 5.76 0 0 0 2.95 1 18.66 18.66 0 0 0 3.18 0c.52 0 1-.08 1.55-.14a2.27 2.27 0 0 0 .74-.16.56.56 0 0 0 .34-.59 1 1 0 0 0-.15-.85 4.19 4.19 0 0 0-.7-.85 7.53 7.53 0 0 1-1.31-1.36c-.37-.23.37.52-.3 0-.34-.24-.3-.35-.26-.37l-.33-.2c0-.26.21-.37.72-.21a6.94 6.94 0 0 1 2.35 1.71zm-158.67 5.76c-.08.07-.27.07-.26 0 .06-.03.39-.17.26 0z"/><path class="cls-1" d="M37.38 113.81c-.09 0 0 0 0-.06h.12s-.07.03-.12.06z"/><path class="cls-2" d="M37.54 114.39h-.14s0-.08.13-.11-.04.1.01.11zm-2.05-.23c0 .1.11.23.28.29v.17a2.06 2.06 0 0 0-.57 0c-.07 0 .18.05 0 .09v-.08c0-.02-.08.17-.46.13l-.12-.08c-.32 0-.65 0-1-.07a5 5 0 0 1-.93-.24c-.13 0-.42-.1-.62-.13-.13 0-.28-.12-.4-.18l-.09-.1c0-.09.33.13.28 0-.2-.17-.44-.11-.59-.29s-.19-.07-.32-.11 0 .06 0 .1c-.43-.27-.29-.5-.64-.74 0 0-.35-.17-.16.12l.16.06v.11c-.1-.07-.27-.22-.28-.17 0-.24-.7-.52-.26-.44.1.18.15.23.3.27a4.82 4.82 0 0 1-.69-1l-.13-.06c.06 0 0-.23-.05-.39s-.07-.16-.09-.13.28.6 0 .38a2.67 2.67 0 0 1-.19-1.15 1.19 1.19 0 0 0 .27.48 4 4 0 0 0 1.21 1.62c0 .06.08.2 0 .2s.18.14.17.23c.43.28.93.6 1.33.82-.06-.17.29 0 .43 0a1.16 1.16 0 0 0 .43.2h.1c-.01 0-.14-.06-.24-.12.08-.08.22.1.38.13h-.1c.27.07.56.32.83.29l-.19-.15a2.51 2.51 0 0 0 .92.1c-.2-.06-.56 0-.53-.16s.26 0 .36 0c.39.13.77-.16 1.2 0z"/><path class="cls-2" d="M34.83 113.93c-.39 0-.21.19-.59.13.05-.07-.12-.15-.25-.17a.88.88 0 0 1-.37 0c-.07 0 0-.11.1-.08.28.13.79 0 1.11.12z"/><path class="cls-1" d="M35.17 114.33c-.21 0-.13-.15-.33-.11.09-.09.11 0 .29 0h-.11z"/><path class="cls-2" d="M33.56 114c-.13 0-.4-.13-.38-.23s0-.05 0-.05c.05.02.36.11.38.28z"/><path class="cls-1" d="M34.07 114.42a1.31 1.31 0 0 1-.27 0 .43.43 0 0 1 .27 0z"/><path class="cls-2" d="M33.36 114.1c0 .07-.11 0-.15 0h-.07a.31.31 0 0 1 .22 0zm-.99-.53c-.16-.09.21 0 0-.1h.12v.12zm-.22-.19a.24.24 0 0 1-.18-.06h.06s.05.04.12.06zm.12.32c-.09 0-.06-.06-.1-.1s.19.12.1.1zm-1.13.18c.12 0 .26.11.43.17a1.65 1.65 0 0 1-.43-.17zm7.16-.99a.25.25 0 0 0 .15-.13zm-.9.47c0 .13.07 0 .24 0a1.56 1.56 0 0 0 .48-.33l.06-.11c-.1 0-.23.13-.37.2a1.92 1.92 0 0 0-.41.24z"/><path class="cls-1" d="M37.46 113.89c.16 0 .31-.18.41-.22l-.52.21s.07.01.11.01z"/><path class="cls-2" d="M39.39 111.53a2.13 2.13 0 0 0-.38.7.64.64 0 0 0 .23-.21.21.21 0 0 1-.08.21 1 1 0 0 0-.21.14c.12-.08 0 .09 0 .18s-.19.18-.31.28l-.39.28a1.15 1.15 0 0 1-.26.2c-.11.05-.19.1-.13.15-.17.09-.24 0-.38 0a.65.65 0 0 1-.58.14.93.93 0 0 0-.61.12c0-.08-.21 0-.29 0s-.64.07-.53.2.39-.11.61 0c.38.11-.36.11-.35.24 0 0 .09.08.25 0-.34.11.16.13 0 .23a.92.92 0 0 1 .62.17c.24-.1.15-.19.2-.27.23-.14.48 0 .69-.14-.09.27.42 0 .67-.14s0-.2.35-.39c.21 0-.25.33 0 .28l.13-.14a2.29 2.29 0 0 1 .14-.39c.06 0 .16-.11.18-.09s0 .15.15.09a.32.32 0 0 0 0-.15c-.37.06.22-.25.28-.5s.22-.33.34-.35.23-.06.35-.36c-.14 0-.1-.06 0-.2a1.55 1.55 0 0 0 .12-.45.76.76 0 0 1 .23-.31v-.21a2.37 2.37 0 0 0-1 .67s-.05.02-.04.02zm-5.28 6.07c0-.1 0-.27.1-.24.03.07-.01.43-.1.24z"/><path class="cls-1" d="M33.83 117.6c0-.08 0 0 .06 0v.12s-.06-.07-.06-.12z"/><path class="cls-2" d="M33.24 117.49a.35.35 0 0 0 0-.12s.06.07 0 .14.03-.05 0-.02zm.83-1.67c-.09 0-.24.06-.35.2l-.15-.07c.09-.1.07-.32.08-.49s-.07.15-.09 0h.08c.02 0-.16-.09-.09-.41l.09-.1a12 12 0 0 1 .13-1.68c-.07-.1 0-.37 0-.54-.07-.1 0-.25 0-.37l.06-.1c.08 0 0 .31.13.22s-.07-.39 0-.58 0-.17 0-.29 0 0-.1 0c0-.42.24-.42.24-.8 0 0-.12-.32-.19 0v.13l-.06.09v-.27c.18-.12-.14-.7.12-.41a.33.33 0 0 0 0 .34c0-.39.12-.73.14-1.05l-.08-.1c.08 0 .14-.16.17-.31s0-.15 0-.13-.06.56-.18.28a3.17 3.17 0 0 1 .27-1 .91.91 0 0 0 .08.47c.08.61 0 1.26.06 1.86-.06 0-.08.17-.14.12s0 .21-.09.24a5.19 5.19 0 0 1-.09 1.4c.15-.1.06.26.11.38a1 1 0 0 0-.08.43s0 .1.06.09a.63.63 0 0 1 .05-.24c.1.05 0 .22 0 .37v-.09c0 .26-.24.54-.16.78l.12-.19c0 .29-.16.63-.06.85.06-.19 0-.51.15-.49s0 .24 0 .34c-.24.37.01.75-.23 1.12z"/><path class="cls-2" d="M34.37 115.23c0-.37-.17-.21-.12-.57.07.05.14-.12.16-.24a1.11 1.11 0 0 1 0-.36c0-.07.11 0 .09.09-.14.32.04.78-.13 1.08z"/><path class="cls-1" d="M33.94 115.51c0-.19.17-.1.14-.29.08.09 0 .1 0 .27v-.1z"/><path class="cls-2" d="M34.33 114c0-.12.07-.39.17-.39s.05 0 0-.05c0 .11-.04.44-.17.44z"/><path class="cls-1" d="M33.9 114.5a1.08 1.08 0 0 1 0-.24.35.35 0 0 1 0 .24z"/><path class="cls-2" d="M34.17 113.84c-.07 0 0-.1 0-.14v-.07a.27.27 0 0 1 0 .21zm.32-1c0-.17.07.19.1 0v.12h-.11zm.12-.26a.25.25 0 0 1 0-.19v.05s.01.07 0 .14zm-.27.2c0-.09 0-.07.07-.12s-.07.21-.07.12zm-.56-.89c.08.09 0 .24 0 .39a1.22 1.22 0 0 1 0-.39zm.31 6.95a.25.25 0 0 0 0 .2zm.12-1.02c-.09-.09-.06.05-.15.19a3.34 3.34 0 0 0 0 .58l.05.12a4.29 4.29 0 0 0 .1-.89z"/><path class="cls-1" d="M33.71 117.63a1.25 1.25 0 0 0 0 .43l.08-.51s-.06.05-.08.08z"/><path class="cls-2" d="M34.06 120.64a1.84 1.84 0 0 0 0-.82 2 2 0 0 0-.09.31c-.13-.15 0-.29 0-.46 0 .14-.09 0-.09-.17a6.12 6.12 0 0 0 .06-.88c0-.13.06-.56-.07-.51 0-.19.11-.2.16-.34-.11-.43.36-.71.22-1.17.08 0 .09-.19.1-.27s.08-.63-.08-.55 0 .39-.1.58 0-.36-.16-.38c0 .05-.1.07-.07.22 0-.32-.16.12-.22-.06-.12.36-.12.32-.3.49 0 .22.13.17.18.24 0 .24-.13.41-.12.61-.19-.17-.19.32-.22.56s.17.12.14.45c-.11.16-.12-.34-.23-.14v.16a1.75 1.75 0 0 1 .23.31v.17s-.11-.1-.16 0a.35.35 0 0 0 .07.12c.24-.26 0 .29.12.49.16.57-.28.29-.21.85.2-.17.08.37.15.56a.61.61 0 0 1-.13.32s0 .16.06.18a1.8 1.8 0 0 0 .76-.89zM52 111c-.11.06-.33.11-.32 0 .04 0 .46-.13.32 0z"/><path class="cls-1" d="M52.11 111.3c-.12 0 0 0 0-.06l.15-.06c.02.02-.1.09-.15.12z"/><path class="cls-2" d="M52.27 111.88h.05-.16s.06-.09.15-.11-.1.1-.04.11zm-2.43.04c0 .1.16.21.37.25v.17a2.31 2.31 0 0 0-.67.09c-.08 0 .22 0 0 .09 0 0 0-.06-.07-.07s-.07.19-.53.2l-.16-.06a8.32 8.32 0 0 1-2.3 0c-.14.07-.51 0-.75 0-.15 0-.35-.1-.52-.13l-.13-.09c0-.09.42.09.32-.06-.28-.15-.55 0-.77-.24s-.23-.06-.39-.12 0 .07 0 .11a1 1 0 0 1-.48-.42 2.09 2.09 0 0 0-.35-.45s-.4-.25-.18.1l.18.1.06.13c-.11-.11-.31-.3-.32-.25 0-.25-.75-.76-.29-.56a.57.57 0 0 0 .32.37 4.81 4.81 0 0 1-.68-1.35l-.12-.1c.07 0 0-.26 0-.46s-.07-.2-.1-.16.21.75 0 .43a3.75 3.75 0 0 1-.13-1.34 1.62 1.62 0 0 0 .24.59 5.15 5.15 0 0 0 1.16 2.14c0 .06.1.23 0 .22s.2.19.19.29a5.85 5.85 0 0 0 1.7.84c-.11-.17.35 0 .5 0a1.55 1.55 0 0 0 .56.12s.13 0 .11-.06a.84.84 0 0 1-.31-.07c.07-.09.29 0 .49.07h-.11c.33 0 .73.24 1 .16l-.25-.11c.38 0 .84.14 1.12 0-.25 0-.67 0-.66-.09s.31 0 .44 0c.56-.02.98-.39 1.51-.28z"/><path class="cls-2" d="M49 111.81c-.47.05-.22.22-.68.22.05-.07-.16-.12-.32-.14a1.82 1.82 0 0 1-.46 0c-.09 0-.07-.1.1-.1.47.21.97-.05 1.36.02z"/><path class="cls-1" d="M49.49 112.14c-.24 0-.17-.12-.41-.06.09-.1.13 0 .35-.06l-.12.07z"/><path class="cls-2" d="M47.5 112c-.16 0-.51-.07-.51-.16s0-.05-.07 0c.08.01.53.04.58.16z"/><path class="cls-1" d="M48.18 112.41a1.78 1.78 0 0 1-.32 0 .61.61 0 0 1 .32 0z"/><path class="cls-2" d="M47.28 112.17c0 .07-.13 0-.18 0h-.09a.45.45 0 0 1 .27 0zm-1.28-.36c-.21-.06.24-.05 0-.1h.15v.12zm-.32-.17a.37.37 0 0 1-.23 0h.07s.07-.01.16 0zm.22.31c-.11 0-.08 0-.15-.09s.25.14.15.09zm-1.28.32a2 2 0 0 1 .55.12 1.85 1.85 0 0 1-.55-.12zm8.71-1.99a.39.39 0 0 0 .2-.15h-.06zm-1.16.55c0 .13.09 0 .28 0a5.85 5.85 0 0 0 .62-.38l.09-.12a9.54 9.54 0 0 0-.99.5z"/><path class="cls-1" d="M52.2 111.38a2.15 2.15 0 0 0 .5-.26l-.63.25s.08.02.13.01z"/><path class="cls-2" d="M54.84 108.76c-.13.24-.42.47-.56.78a1.1 1.1 0 0 0 .31-.22c0 .23-.25.25-.4.39.14-.09 0 .1-.08.21s-.6.42-.93.62c-.12.13-.65.31-.52.39-.22.11-.29 0-.46.08-.44.36-1 .08-1.46.41 0-.09-.26 0-.36 0s-.78.16-.63.28.47-.15.74-.13c.46 0-.43.18-.41.3.06 0 .12.07.3 0-.4.15.2.1 0 .23a1.15 1.15 0 0 1 .74.06c.28-.12.16-.2.22-.29.28-.15.56-.1.8-.23-.12.27.49 0 .78-.17s0-.23.44-.42c.25 0-.34.33 0 .28l.16-.13a2.61 2.61 0 0 1 .21-.41c.08 0 .19-.12.21-.1-.13.12 0 .16.14.09a.51.51 0 0 0 .08-.15c-.44 0 .32-.23.42-.52s.33-.35.45-.38.28 0 .45-.4c-.28.1.2-.49.19-.77a2.2 2.2 0 0 1 .23-.4v-.26c-.28.1-.58.52-1 .84-.06.01-.06.02-.06.02zm-6.89 6.54c0-.12 0-.33.08-.29.03.07-.03.5-.08.29z"/><path class="cls-1" d="M47.67 115.32c0-.1 0 0 .06 0v.14s-.06-.08-.06-.14z"/><path class="cls-2" d="M47.07 115.25a.51.51 0 0 0 0-.15s.06.08 0 .16.03-.06 0-.01zm.71-2.09c-.09 0-.24.1-.33.27l-.16-.07a1.46 1.46 0 0 0 0-.6c0-.08-.06.19-.09 0h.08c.02 0-.16-.09-.12-.49l.08-.13a17.8 17.8 0 0 1 .1-2c-.07-.12 0-.45-.05-.66-.07-.12 0-.31 0-.45l.06-.12c.08 0 0 .37.13.27.09-.27-.07-.47 0-.7s0-.21 0-.35-.05 0-.11 0c0-.51.3-.51.34-1 0 0-.08-.39-.19-.07v.16l-.07.1c0-.12.06-.35 0-.33.2-.14 0-.87.18-.49a.48.48 0 0 0 0 .41c.09-.47.22-.88.28-1.27l-.06-.13c.08 0 .16-.18.21-.36s0-.19 0-.17-.13.67-.22.32a4.33 4.33 0 0 1 .39-1.13 1.37 1.37 0 0 0 0 .58c0 .74-.21 1.51-.18 2.23-.06 0-.11.2-.15.14s0 .24-.12.28c0 .55-.12 1.19-.16 1.68.15-.12.07.31.11.45a1.39 1.39 0 0 0-.07.51s0 .12.06.1a.94.94 0 0 1 0-.29c.1.06 0 .27 0 .45v-.1c0 .31-.23.66-.15.95l.12-.23c0 .35-.15.76 0 1 .05-.23 0-.61.14-.6s0 .28 0 .41c-.13.53.17.97-.05 1.43z"/><path class="cls-2" d="M48 112.43c0-.45-.19-.24-.14-.67.07.06.14-.15.16-.29a1.59 1.59 0 0 1 0-.43c0-.08.11-.07.1.1-.12.39.05.86-.12 1.29z"/><path class="cls-1" d="M47.63 112.8c0-.23.16-.13.12-.36.09.1 0 .12 0 .33v-.12z"/><path class="cls-2" d="M48 111c0-.14.07-.47.16-.47s.05 0 0-.06c-.03.1-.07.47-.16.53z"/><path class="cls-1" d="M47.54 111.59a1.52 1.52 0 0 1 0-.29.49.49 0 0 1 0 .29z"/><path class="cls-2" d="M47.8 110.79c-.07 0 0-.12 0-.16v-.08a.37.37 0 0 1 0 .24zm.3-1.22c0-.21.07.22.1 0v.14h-.11zm.12-.3a.35.35 0 0 1 0-.22v.06s.01.07 0 .16zm-.22.24c0-.1 0-.08.06-.14s-.06.25-.06.14zm-.62-1.06c.08.1 0 .29 0 .48a1.84 1.84 0 0 1 0-.48zm.62 8.34a.36.36 0 0 0 0 .24zm.06-1.24c-.1-.09-.06.07-.14.24a6.41 6.41 0 0 0 0 .69l.06.14a5.14 5.14 0 0 0 .08-1.07z"/><path class="cls-1" d="M47.56 115.37a1.76 1.76 0 0 0 0 .51v-.62s.01.07 0 .11z"/><path class="cls-2" d="M48 119a2.71 2.71 0 0 0-.05-1 2.85 2.85 0 0 0-.07.38c-.13-.17 0-.35 0-.56 0 .17-.09-.05-.1-.2a9 9 0 0 0 0-1.07c-.05-.16 0-.68-.1-.61 0-.22.1-.25.13-.42-.14-.5.31-.88.14-1.42.08 0 .07-.23.08-.33s0-.76-.12-.65 0 .47-.06.7c-.17.4 0-.43-.18-.44 0 .06-.1.09-.06.27-.05-.39-.15.15-.23 0-.09.44-.09.4-.27.62 0 .27.14.2.2.27.06.28-.1.5-.07.75-.2-.19-.17.41-.17.69s.18.13.16.52c-.1.19-.13-.4-.24-.14v.18a1.84 1.84 0 0 1 .24.35v.21c0-.16-.11-.11-.16.06a.42.42 0 0 0 .07.14c.22-.33 0 .35.14.58.18.68-.26.36-.17 1 .19-.2.1.44.17.66a.78.78 0 0 1-.12.38c0 .05 0 .19.07.22.26-.1.51-.53.72-1.09.11-.05.11-.05.05-.05zm-22.33 2.48c-.25 0-.67 0-.6-.17l-.05-.09c.21.01 1.08.01.65.26z"/><path class="cls-1" d="M25.74 122.14c-.21-.05-.05-.09 0-.15H26c.1.09-.14.13-.26.15z"/><path class="cls-2" d="M25.62 123.54h.09a.82.82 0 0 0-.29 0c0-.07.15-.15.32-.12-.04.05-.21.05-.12.12zm-4.26-1.4c0 .22.25.54.61.74l-.11.38c-.27-.17-.78-.05-1.2 0-.16.08.4.1 0 .2 0-.05 0-.15-.11-.18-.36.12-.15.4-1 .35l-.28-.17a23 23 0 0 1-4.12.17c-.23.19-.91.12-1.31.23v-.11c-.23.19-.62-.05-.91 0l-.26-.11c-.1-.18.74-.08.51-.35-.55-.16-.93.24-1.4 0s-.4.08-.69.14c-.07.11.09.11.06.24-1 .08-1.08-.53-2-.45 0 .09-.74.35-.07.47l.31-.13.22.12c-.24 0-.69 0-.64.14-.33-.41-1.66.44-1-.21a.81.81 0 0 0 .81-.11c-.94 0-1.78-.14-2.55-.09l-.21.2c0-.18-.42-.29-.79-.29-.15.06-.36.07-.3.16s.31 0 .57 0 .46.08.15.27a8 8 0 0 1-2.36-.22 2.29 2.29 0 0 0 1.08-.38 9 9 0 0 1 1.09-.25l1.13-.12a19.49 19.49 0 0 0 2.21-.3c.06.13.43.16.32.3.13.09.49 0 .59.16a17.15 17.15 0 0 1 3.38 0c-.27-.33.6-.21.88-.34a2.36 2.36 0 0 0 1 .08c0-.06.24-.08.19-.17a1.61 1.61 0 0 1-.58-.07c.1-.24.54 0 .91 0l-.2.13c.62 0 1.36.43 1.92.19l-.48-.23c.69-.12 1.55.2 2.06-.1-.46-.07-1.23.11-1.22-.2s.56-.16.81-.1c1.2.31 2-.42 2.98.01z"/><path class="cls-2" d="M19.85 121.66c-.89.05-.43.47-1.3.46.1-.17-.32-.3-.61-.31a2.7 2.7 0 0 1-.86 0c-.17 0-.15-.24.18-.25.82.38 1.82-.18 2.59.1z"/><path class="cls-1" d="M20.68 122.55c-.45 0-.3-.35-.74-.23.18-.21.25 0 .66 0l-.23.13z"/><path class="cls-2" d="M17 122.13c-.29 0-1-.07-1-.29 0 0 0-.13-.13-.09.27.07 1.01.09 1.13.38z"/><path class="cls-1" d="M18.28 123a2.6 2.6 0 0 1-.58.05.87.87 0 0 1 .58-.05z"/><path class="cls-2" d="M16.61 122.54c.06.16-.24 0-.33 0l-.17-.07a.67.67 0 0 1 .5.07zm-2.47-.54c-.42-.07.44-.21-.06-.24h.29l.1.26zm-.64-.2a.61.61 0 0 1-.45 0l.12-.09c.07-.02.16.09.33.09zm.5.59c-.2.06-.17-.07-.3-.13.12-.08.55.11.3.13zm-2 1.52c.19-.2.57-.08.94-.13a3.09 3.09 0 0 1-.94.13zm16.69-2.62a.63.63 0 0 0 .49 0l-.09-.07zm-2.51-.1c-.18.24.14.13.49.3s.94-.15 1.4-.14l.28-.13a7.6 7.6 0 0 0-2.17-.03z"/><path class="cls-1" d="M25.84 122.4a3.1 3.1 0 0 0 1-.07c-.42 0-1 0-1.25-.05 0 .05.17.08.25.12z"/><path class="cls-2" d="M33 121.09a5.45 5.45 0 0 0-2 .19 5 5 0 0 0 .76.17c-.34.32-.7 0-1.11 0 .34.07-.1.21-.39.23a15.56 15.56 0 0 0-2.15 0c-.32.12-1.38-.07-1.22.24-.45 0-.52-.21-.86-.28-1 .36-1.82-.66-2.9-.17.06-.19-.48-.14-.69-.15-.46 0-1.56 0-1.3.37s.94-.18 1.43 0c.84.34-.86.18-.85.49.12-.06.2.21.56.1-.77.17.34.33-.05.54.89.15.81.16 1.26.54.52-.08.37-.35.52-.51.56-.18 1 .17 1.5.09-.37.49.82.37 1.39.36.74 0 .25-.43 1-.39.39.23-.8.31-.28.56l.36-.1a3.72 3.72 0 0 1 .7-.57c.17 0 .41 0 .42.06-.32.08-.23.26.12.37a.81.81 0 0 0 .28-.17c-.67-.52.7 0 1.17-.34 1.37-.44.72.64 2.08.34-.43-.43.89-.28 1.32-.48a1.47 1.47 0 0 1 .8.24c.1-.06.39-.1.42-.19a4.28 4.28 0 0 0-2.28-1.57s-.01.02-.01.03z"/></svg>