<svg id="圖層_1" xmlns="http://www.w3.org/2000/svg" viewBox="-71.9 117.8 145.9 66.4"><style>.st0{fill:#24a7e0}.st1{fill:#da1c5d}.st2{fill:#f7961c}</style><title>logo</title><path class="st0" d="M-13.6 129.2c-.2-.3-.4-.5-.7-.7-.5-.4-1.2-.7-1.9-.7-.6 0-1.1.1-1.7.4-.4.2-.8.6-1.1 1-.3.4-.5.9-.6 1.4-.1.6-.2 1.1-.2 1.7 0 .5.1 1.1.2 1.6s.3 1 .6 1.4c.3.4.7.8 1.1 1 .5.3 1.1.4 1.7.4.8 0 1.5-.3 2.1-.8l.5-.5c.3-.9 1.2-1.6 2.2-1.6h1.1c-.1.8-.2 1.5-.6 2.2-.3.6-.7 1.2-1.2 1.7s-1.1.8-1.8 1.1c-.7.3-1.5.4-2.2.4-.9 0-1.9-.2-2.7-.5-.8-.3-1.4-.8-2-1.4-.6-.6-1-1.4-1.3-2.2-.3-.9-.4-1.8-.4-2.7 0-.9.1-1.9.4-2.7.3-.8.7-1.6 1.2-2.2.6-.6 1.2-1.1 2-1.5 1.5-.6 3.2-.7 4.8-.2.6.2 1.2.5 1.7.9s.9.9 1.3 1.5l.3.6c.2.8-.5 1.4-1.5 1.4h-1c0-.4-.2-.8-.3-1zm6.3-3.5c.7 0 1.3.8 1.3 1.8v9.7c0 1-.6 1.8-1.3 1.8s-1.3-.8-1.3-1.8v-9.7c0-1.1.6-1.8 1.3-1.8zm4.8 3.6c.7 0 1.3.8 1.3 1.8v6c0 1-.6 1.8-1.3 1.8s-1.3-.8-1.3-1.8v-6c0-1 .5-1.8 1.3-1.8zm7.9 1.7c-.4 0-.7.1-1.1.3-.3.2-.5.4-.7.7-.2.3-.3.6-.4 1-.1.4-.1.7-.1 1.1 0 .4 0 .7.1 1.1.1.4.2.7.4 1 .2.3.4.5.7.7.3.2.6.3 1 .3.5 0 1.1-.2 1.4-.5l.3-.3c.2-.6 1.1-1.1 2.1-1.1h.9c-.1 1.1-.6 2.2-1.5 2.9-.9.7-2 1-3.1 1-.7 0-1.4-.1-2-.4-.6-.2-1.1-.6-1.5-1-.4-.4-.8-1-1-1.5-.2-.6-.4-1.3-.3-2 0-.7.1-1.4.3-2.1.2-.6.6-1.2 1-1.6.4-.5.9-.8 1.5-1.1.7-.3 1.4-.4 2.1-.4.6 0 1.1.1 1.6.2s1 .4 1.4.7c.4.3.8.7 1 1.1l.3.4c.1.6-.6 1.2-1.6 1.2h-.8c-.1-1-1-1.8-2-1.7zm18.9 5.5c.1.2.3.4.4.5l.6.3c.4.1.9.1 1.3 0 .2 0 .4-.1.6-.2.2-.1.3-.2.4-.4.1-.2.2-.4.2-.6 0-.4-.3-.7-.8-.9-.7-.2-1.4-.4-2.2-.6-.4-.1-.8-.2-1.1-.3-.4-.1-.7-.3-1-.5-.3-.2-.5-.4-.7-.7-.2-.3-.3-.7-.3-1.1 0-.5.1-1.1.4-1.5.2-.4.6-.7 1-.9.4-.2.9-.4 1.3-.5.5-.1 1-.1 1.5-.1s1 0 1.5.2c.5.1.9.3 1.3.5s.7.6.9.9l.4.4c.1.6-.6 1.1-1.6 1.1h-.7c0-.4-.2-.8-.6-1-.4-.2-.8-.3-1.2-.3h-.5c-.2 0-.3.1-.5.1-.1.1-.3.2-.4.3-.1.1-.2.3-.2.5s.1.4.3.6c.2.2.4.3.7.4l.9.3 1.1.2c.4.1.8.2 1.1.3.4.1.7.3 1 .5.3.2.5.5.7.8.2.3.3.7.3 1.1.1 1.1-.5 2.1-1.4 2.6-.4.3-.9.4-1.4.5-.5.1-1.1.2-1.6.2s-1.1-.1-1.6-.2-1-.3-1.4-.6c-.4-.3-.7-.6-1-1l-.3-.4c-.1-.7.6-1.2 1.6-1.2h.7c.1.2.2.4.3.7zm-29-10.9h2.1v.8h-2.1zm2.4 0h2.1v.8h-2.1zm-2.3 1h1.9v2h-1.9zm2.3 0h2v2h-2z"/><path class="st0" d="M-3.3 125.7c-.3-.4-.9-.4-.7-1.2.4-.4 1.4-.3 1.5.3 1-1.4 2.7.2.9.8m-.7 0c-.1.1-.2.1-.3.1m.3-.5c.1-.4.3-.7.6-.8-.5-.1-.9.5-.6.8zm.1.3c.5-.1.9-.5.8-1-.7 0-.8.4-.8 1zm-1.5-1.1c-.7.4.4 1.3.8 1.1-.5-.2-.8-.6-.8-1.1zm1 1.2c-.1-.5-.2-1.1-.8-1.1-.1.7.4.8.8 1.1zm36.2 13.8h.9c0 .4-.2.4-.4.4.1.4.5.6.6 1 1.1-.1 2.3.1 3.3.5-.9.8-2.2.3-3.3.6-.2.3-.4.7-.7.9 0 .3.5-.1.5.2-.1.4-.5.2-.8.3-.5.4-.7 1.5-1.4 1.2.3-.9.7-1.9 1-2.8-.6 0-1.3-.1-1.9-.1-.4.2-.6 1-1.1.7.2-.3.1-.5.3-.8 0-.3-.5 0-.5-.3.1-.1.3-.1.5-.1 0-.3-.2-.6-.2-1 .4 0 .7.5.9.8.7.1 1.3 0 2 0-.1-1-.7-1.8-.8-2.8.5-.1.7.8 1.1 1.3z"/><path class="st1" d="M-28.8 134.5c.8.2 1.7-.3 1.9-1.2l2-6.2c.3-.9 1-1.5 1.6-1.2s1-.3.9-1.3l-.3-5.9c0-1-.6-1.2-1.2-.4l-4 4.5c-.6.7-.7 1.4-.2 1.5.5.1.7.9.4 1.8l-2 6.2c-.3.9.1 1.8.9 2.2zm-.8.7c1 0 1.8.8 1.8 1.8s-.8 1.8-1.8 1.8-1.8-.8-1.8-1.8.8-1.8 1.8-1.8zm-7.2-4.5h-3.8c-.4 0-.7-.3-.7-.7v-3.7c0-.4-.3-.7-.7-.7h-1.6c-.4 0-.7.3-.7.7v11.9c0 .4.3.7.7.7h1.6c.4 0 .7-.3.7-.7v-4.4c0-.4.3-.7.7-.7h3.8v-2.4zm3.1-5h-1.6c-.4 0-.7.3-.7.7v11.9c0 .4.3.7.7.7h1.6c.4 0 .7-.3.7-.7v-11.8c0-.5-.3-.8-.7-.8z"/><path class="st0" d="M14.3 132.2v-5.9c0-.4-.3-.7-.7-.7h-1.3c-.4 0-.7.3-.7.7v11.9c0 .4.3.7.7.7h1.3c.4 0 .7-.3.7-.7v-6zm6.5 6.1l-3.3-4.9c-.2-.3-.1-.7.1-1l2.7-2.6c.3-.3.2-.5-.2-.5h-1.8c-.4 0-.8.2-1.1.5L15 132v2.9c.2-.1.5-.1.7.2l1.9 3.1c.2.3.6.5 1 .6h1.8c.4 0 .6-.2.4-.5zm-43.1 3.5h52.7c.5 0 .7-.7.1-.7h-52.7c-.6 0-.8.7-.1.7z"/><path class="st1" d="M-22.8 141.2h-21.8c-.4 0-1 .6-.4.6h21.8c.5-.1 1.1-.6.4-.6zM-43 152.9c-.9-.9-1.8-1.7-2.9-2.4l1.3-1.4c1.1.8 2 1.5 2.9 2.3l-1.3 1.5zm-.6 8.8l-2-.5c.7-2.4 1.2-4.6 1.7-6.7l2 .7c-.1.4-.2.9-.4 1.3-.6 2.4-1 4.2-1.3 5.2zm1.1-13.8c-.6-.6-1.4-1.3-2.5-2.2.1.1 0 0-.4-.3l1.3-1.4c.5.4 1.5 1.2 2.9 2.3l-1.3 1.6zm2 2.4l-.2-.2c-.3-.4-.7-.8-1.1-1.2 1.6-1.4 2.8-3.2 3.6-5.2l2.1.2c-.3.5-.5.9-.8 1.4h8.8v1.7h-9.7c-.1.1-.1.3-.2.4l-.8 1.1h9.7v1.4c0 1.3-.1 2.3-.1 3.1h1.6v1.7h-1.6l-.1 2.9h1.3v1.6h-1.4c-.1 1.7-1.1 2.6-3 2.6h-2.9c0-.2-.2-.6-.3-1 0-.2-.1-.4-.2-.5.8.1 1.8.1 2.7.1s1.6-.3 1.7-1.1h-7.5l-.1.5h-2l.7-5h-1.5V153h1.7l.5-3.7-.5.5c0 .1-.2.3-.4.5zm7.5 6l-1 1.2h2.8c0-.6.1-1.6.1-2.9h-7.1l-.4 2.9h4.4c-.2-.2-.5-.4-.8-.7-.5-.4-1-.8-1.3-1l1-1.1.8.5c.6.5 1.1.9 1.5 1.1zm-4.7-6.2l-.3 2.9h7c0-1.5 0-2.4.1-2.9h-6.8zm3.8 2.8c-.7-.6-1.4-1.2-2.2-1.7l1.1-1.1c.3.3.8.6 1.4 1 .3.3.5.4.8.6l-1.1 1.2z"/><path class="st0" d="M-26.2 147.4v-1.8h7.7v-2h2.1v2h7.7v1.8h-7.7v1.9h5.9v6.2h-3.9v3.1c0 .7.3 1 1.1 1h1.5c.8 0 1.2-.3 1.3-.9.1-.7.2-1.3.2-2l2 .7c-.2 1.1-.3 1.8-.4 2.2-.3 1.2-1.4 2-2.5 1.8h-2.9c-1.1.2-2.2-.6-2.3-1.7v-4.1H-19c.1 3.2-2 5.3-6.3 6.2-.1-.2-.3-.4-.5-.8s-.4-.7-.7-1.1c3.7-.6 5.5-2 5.4-4.3h-3.4v-6.2h5.9v-1.9h-7.6zm3.7 3.6v2.9h9.9V151h-9.9zm16.8 10.7l-.4-.4c-.6-.7-.9-1.1-1.1-1.3 4-1.9 6.4-5.9 6.2-10.3h-5.6v-2h5.8c0-.4 0-1.1.1-2 0-.6 0-1.3.1-1.9h2.2c0 .8-.1 2.1-.2 3.6v.2h8.4c-.2 3.9-.3 7.1-.4 9.8-.1 2.5-1.3 3.7-3.8 3.7-1.1 0-2.4.1-3.8.1-.1-.6-.2-1.2-.4-1.8 0-.1-.1-.2-.1-.3.8.1 2 .1 3.5.1s2.4-.8 2.3-2.6c.1-1.1.2-2.9.2-5.6.1-.6.1-1 .1-1.3H1.2c0 5.5-2.3 9.5-6.9 12zm17.8-14.3v-1.7h1.3v-1.8h1.9v1.8h3.2v-1.8h1.9v1.8h1.1v1.7h-1.1v8.3h1.3v1.7h-9.8v-1.7h1.4v-8.3h-1.2zm1.3 14.4c-.4-.5-.9-.9-1.4-1.3 1-.9 2-1.9 2.9-3l1.6 1.1c-1.2 1.2-2.2 2.3-3.1 3.2zm1.8-14.4v1.7h3.2v-1.7h-3.2zm0 3.3v1.6h3.2v-1.7l-3.2.1zm0 3.2v1.7h3.2v-1.7h-3.2zm4.4 7.2c-.7-.9-1.5-1.7-2.3-2.6l1.4-1.1c.9.9 1.7 1.6 2.4 2.3 1-1.4 1.4-3.9 1.3-7.4v-7.1c2.3-.2 4.6-.6 6.8-1.1l.7 2c-1.5.3-3.3.5-5.6.8v3.1h5.8v1.9h-1.7v9.6h-1.9v-9.6h-2.2v.6c.1 3.8-.6 6.9-2 9.2-.3-.3-.7-.6-1-.9-.2-.1-.4-.3-.5-.4l.2-.3-1.4 1z"/><path class="st2" d="M-70.5 181.6v.5c-.1.6 0 1.6-.9 1.6-.3 0-.6-.1-.6-.4 0-.3.2-.5.5-.7.2-.1.3-.3.4-.5.1-.2.3-.4.4-.6l.2.1zm1.4-1.4l.1-.9h-2.1l.1-.7h2.1l.1-1h-.8v.4H-71l.4-4.4h1.3v.3h2.7l.4-.5 1.5.4-.5.4-.3 3.7h-1.3v-.3h-.8l-.1 1h1.8l-.1.7h-1.8l-.1.8c.5-.1 1.1-.2 1.7-.3l.1.1c-1.7.8-3.4 1.4-5.2 1.8l-.2-1.3c.7 0 1.6-.1 2.4-.2zm-.5 1.2c.2.5.4 1 .4 1.5 0 .4-.1.6-.5.6-.2 0-.5-.1-.5-.4 0-.2 0-.4.1-.6.2-.4.3-.8.3-1.2l.2.1zm.8-4.5v-.5c-.1.1-.2.1-.3.1-.1 0-.2-.1-.3-.2v-.1c0-.1 0-.2.1-.3 0-.2-.1-.4-.2-.6l-.2 1.6h.9zm.3-2.4h-.8v.5c.3.2.5.4.8.7v-1.2zm0 6.5c.5.4.8 1 .8 1.6 0 .4-.3.5-.7.5s-.5-.2-.4-.4c.1-.3.1-.5.1-.8.1-.2.1-.6.2-.9zm1.8-5.2l-.9.7v.3h.9v-1zm-.7 4.8c.3.2.6.5.9.7.2.2.4.4.4.7 0 .3-.3.6-.6.6h-.1c-.6 0-.5-.4-.5-.9 0-.4-.1-.8-.2-1.1h.1zm.3-5.5l.5.3.1-.8h-.8l-.1 1.4c0-.3.2-.6.3-.9zm2.7 3l.4-4.6h1.5l-.2 1.6h2l-.1.7h-2l-.2 2.5.4-.4 1.5.4-.5.4-.5 5.5h-1.5l.1-.7h-1.2l-.1.7h-1.5l.6-6.2 1.3.1zm1.4.9h-1.2l-.4 3.7h1.2l.4-3.7zm13.8-.1h-10.4l.1-.9h10.4l-.1.9zm12.5-5.1l-.1.8h-4.4l-.3 3.2c.8.1 1.7.3 2.4.7.5.2.8.7.8 1.3-.1.5-.5.8-.9.8-.8 0-.9-.5-1.2-1.1-.1-.3-.3-.5-.4-.8-.2-.3-.4-.5-.7-.7l-.6 5.9H-44l.9-9.5h-4.2l.1-.8h10.5zm7.2 5.2c-.4.7-1 1.3-1.7 1.7l-.1-.1c.4-.3.7-.8.8-1.3-.6 0-1-.4-1-1v-.1c0-.3.2-.6.5-.8.2-.2.6-.3.9-.3.4 0 .7.3.8.6.1.4 0 .9-.2 1.3zm5.5 3.1c1-.9 1.9-2 2.5-3.3l.2.1c0 1.8-.5 3.6-1.6 5l-1.1-1.8zm.6-5.4c.6 0 2 .1 2.4.6.1.2.2.4.2.6 0 .5-.4.8-.9.8-.6 0-.8-.5-1-1-.2-.4-.5-.7-.7-1zm.5-3.1c.7.1 1.9.2 2.3.8.1.2.2.4.2.6-.1.4-.4.8-.9.8-.7 0-.8-.5-.9-1-.2-.4-.4-.8-.8-1.1l.1-.1zm2.7 5l.3-2.3-.7.4-.2-.1c.7-1 1.1-2.1 1.3-3.3h2.1l-.3.7h4.7v.9h-5.2l-.8.8h.9v.3h2.9l.5-.4 1.7.4-.4.4-.3 2.2h.7l-.1.8h-.9l-.3 1.9h.7l-.1.8h-.7c0 .5-.2 1-.4 1.5-.1.2-.4.4-.6.4-.5.1-1.1.2-1.7.2h-.2s0-.4-.3-.7c-.3-.2-.7-.3-1.1-.4v-.1c.6 0 1.2.1 1.8.1.9 0 .7-.1.9-.9h-3.1l-.6.6-1.6-.4.6-.5.4-2.5h-.8l.1-.8h.8zm4.3 2.7l.2-1.9h-3.1l-.3 2 3.2-.1zm.4-2.7l.3-1.8h-3l-.3 1.8h3zm-2.8.9c.6 0 1.1.1 1.6.3.3.2.5.5.5.8 0 .4-.4.6-.9.5-.4 0-.8-.3-.8-.7-.1-.4-.2-.6-.4-.9zm.3-2.5c.5 0 1.1.1 1.5.3.3.1.4.4.4.6-.1.4-.4.6-.8.6-.6-.1-.6-.5-.9-.9 0-.2-.1-.4-.2-.6zm7.8-3.5h2c-.1.5-.3.9-.4 1.4h.7l.5-.6 1.9.4-.6.5c-.1.6-.2 1.3-.3 1.9-.1 2.1-1.3 3.9-3.2 4.9-.8.5-1.7 1-2.7 1.3l-.1-.1c1.3-.9 2.4-2 3.2-3.3-.3.2-.9.3-1.1-.1s-.1-1-.3-1.4l-.3-.6c-.4.3-.8.6-1.1.8h-.1c1.1-1.6 1.7-3.3 1.9-5.1zm1.3 5.1c.1.1.2.2.3.4v.2c.1-.2.1-.4.2-.6.2-.8.3-1.5.4-2.3v-.6h-1c-.3.6-.7 1.1-1.1 1.5l-.4.4c.5.2 1.1.6 1.6 1zm5.2-3.1c.6.4 1.2.9 1.7 1.5s.8 1.4.8 2.2c-.1.6-.4 1.4-1.1 1.4-.2 0-.5 0-.6-.3-.1-.3-.1-.7-.1-1.1.1-1.2-.1-2.3-.7-3.3l-.8 8.2h-1.7l1-10.6h1.7l-.2 2zm8.5-1.5c-.2-.1-.4-.3-.6-.4l.1-.1c.5-.3 1.1-.3 1.7-.3.7.2 1 .4.9.8 0 .2-.1.4-.3.6h4.3l-.1.7H7.5l1.3.3c-.5.6-1.1 1-1.8 1.4h1.4l.6-.6 1.8.4-.8.5-.5 5.7c0 .6-.4 1-1 1.1H7.2c-.5 0-.2-.3-.4-.6-.3-.2-.7-.4-1.2-.4v-.2h1.3c.9 0 .8-.1.9-1l.4-4.1H2.7l-.2 1.8c.6-.5 1.1-1.1 1.5-1.7l1.4.3c-.8.7-1.9 1.3-2.9 1.6l-.4 4.2H.4l.7-7.3h1.7v.3h1c-.1-.1-.2-.2-.2-.3-.2-.4-.1-.8-.5-1.1l-.2-.2.1-.1c.5.1 1.8.1 2.1.6.1.1.2.3.2.5-.1.3-.2.5-.4.6H6c.4-.5.7-1.1 1-1.6H.5l.1-.7H5c-.2-.2.1-.5-.2-.7zm0 5.9v.2h1l.4-.4 1.6.3-.5.4-.2 2.3H5.6v-.4H4.5v.4H3.1l.3-2.8h1.4zm.9 1.8l.1-.8H4.7l-.1.8h1.1zm1.3-2c-.7 0-1.4-.3-1.3-1.1l.1-.6h1.4v.4c0 .2 0 .3.3.3h.6c0 .3-.1.7-.1 1H7zm7.1-1.4v.3h1l.5-.5 1.7.4-.6.5-.5 5h-1.7l.1-.8h-1l-.1.8h-1.7l.6-5.8 1.7.1zm1.8-4.9v.4h3.6l.7-.5 1.9.3-.6.6-.4 3.5h-1.8v-.3h-3.7v.4h-1.8l.4-4.3 1.7-.1zm-1.2 9l.3-3.1h-1l-.3 3.1h1zm4.6-5.9l.2-2h-3.7l-.2 2h3.7zm.2 1.8v.3h.9l.6-.6 1.7.4-.6.6-.5 5.1h-1.7l.1-.8h-1l-.1.8h-1.8l.6-5.8h1.8zm.5 4.1l.3-3.1h-1l-.3 3.1h1zm11-6.8c-.4.7-1 1.3-1.7 1.7.5.4 1.2 1 1.2 1.7-.1.3-.3.6-.6.6-.2 0-.3-.1-.4-.2-.1-.4-.2-.7-.2-1.1-.1-.3-.2-.5-.3-.8l-.3 3.2h-1.2v-.5H27l-.1 1.1h1.7l-.1.7h-1.7l-.2 2.1h-1l.2-2.1h-2l.1-.7h2l.1-1.2h-.4l-.1.5h-1.2l.4-4.7h1.2v.2h.4l.1-1h-1.9l.1-.7h1.9l.1-1.1h1.1l-.1 1.1h1.6l-.1.7h-1.6l-.1 1h.4l.4-.5 1.3.4-.5.4-.1.8c.5-.7.9-1.4 1-2.3h1.3c0 .3-.1.5-.2.7zm-5 2.9h-.4l-.1 1h.5v-1zm.1-1.6h-.4l-.1.9h.4l.1-.9zm1.5 1.6h-.4l-.1 1.1h.4l.1-1.1zm.1-1.6h-.4l-.1.9h.4l.1-.9zm-.2 6.8l.1-.8H30l.2-2.4h-1.5l.1-.8h4.8l-.1.8H32l-.2 2.4H34l-.1.8h-6.4zm1.7-9.2l.1-.8h5.4l-.1.8h-5.4zm2.6 1.9c-.3.3-.7.6-1 .8.3.3.6.5.9.8.2.2.3.5.3.7 0 .4-.1.7-.5.8-.4.1-.7-.3-.7-.7 0-.2-.1-.4-.1-.6-.1-.3-.2-.7-.4-1 .6-.6 1-1.4 1.3-2.2h1.3c-.3.5-.6 1-1.1 1.4zm2.2-.8c-.5.6-1.1 1.2-1.8 1.6.5.3 1.6.9 1.6 1.6 0 .3-.3.6-.6.6-.2 0-.3-.1-.5-.2-.1-.2-.2-.5-.3-.7-.1-.2-.2-.4-.3-.5-.1-.2-.3-.5-.5-.7.6-.7 1.1-1.4 1.5-2.2l1.3.1-.4.4zm2.6 4.4h.8v-.4h-1.6l.1-.8h1.6v-.4h1.6v.4h1.3l-.1.8H39l-.1.9.9.3c.6-.8 1-1.6 1.2-2.6h1.8c-.6 1.1-1.6 2.1-2.7 2.8.2.2.3.3.3.5 0 .3-.3.5-.6.5-.2 0-.5-.1-.6-.4-.1-.2 0-.2-.2-.5l-.2-.2-.3 3H37l.2-2.2c-.5.8-1.1 1-1.7 1.7h-.2c.6-1.1 1-2.2 1.3-3.4zm-.3-3.9h.8l.3-2.6h1.4v.2h3l-.1.6h-3v.3h2.6v.5h-2.6v.3h2.6v.5h-2.6v.3H42l-.1.6h-2.5c-.4.3-.9.6-1.4.7h2.4c0-.1-.3-.3-.4-.4l.2-.2c1 0 1.4.5 1.4 1.1-.1.3-.3.5-.6.5-.4 0-.4-.3-.5-.7-1.1.3-2.2.5-3.4.6l-.3-1c.5 0 1-.3 1.3-.7h-1.7l-.1-.6zm4.1 6.2c.7-.7 1.3-1.4 1.7-2.3l1.8.1c-.8 1-1.7 1.8-2.8 2.4l3-.1c0-.6-.2-.6-.3-1l.2-.1c.3.1.6.3.9.5.3.2.7.4.7.8.1.8 0 1.1-.3 1.2-.3.2-.7.1-.8-.2v-.1c-.1-.2-.1-.4-.1-.6-1.2.4-2.4.7-3.6.9l-.6-1.4c-.1.1 0 0 .2-.1zm6.5-5.2c-1.7.5-3.4.8-5.2.9.1.1 0-.1-.1-.2 1.5-.5 3-1.1 4.4-1.8l.9 1.1zm-.3-3c-1.6.6-3.2.9-4.9.9 1.2-.4 2.4-1 3.6-1.6l1.3.7zm.1 1.3c-1.5.6-3 .9-4.6 1.1v-.1c1.3-.5 2.5-1.1 3.6-1.9l1 .9zm-2.5 2.5c.6.8 1.5 1.4 2.5 1.7l-.1.1c-.9 0-1.3.9-1 1.8l-.1.1c-1-.9-1.7-2.1-1.9-3.5l.6-.2zm4.1 1.5h1.8l.1-1.1h1.7l-.1 1.1h1.7l-.1.8h-1.7l-.2 1.6c.6-.1 1.3-.3 1.9-.4v.1c-1.7 1.1-3.6 1.9-5.6 2.4l-.3-1.4c.7 0 1.5-.1 2.2-.3l.2-2h-1.8l.2-.8zm.5-2.5c.3-.1 1-1.6 1.2-2l.2-.5h-1.6l.1-.8h5.6l-.1.8h-2c-.6.9-1.3 1.6-2.1 2.2l-.5.3c.9 0 1.8-.1 2.7-.1-.1-.4-.3-.9-.5-1.3l.1-.1c.7.3 1.4.8 1.8 1.5.1.2.1.4.1.6 0 .4-.4.8-.8.7-.7 0-.7-.6-.7-1.1-1.2.5-2.5.9-3.8 1.1l-.2-1.3h.5zm6.5 6c.2 0 .6 0 .7-.1 0-.1.1-.2.1-.2l.9-9.1h1.7l-.9 9.6c-.1 1-.9 1-1.7 1.1h-.9c-.2-.1 0-.4-.2-.6-.1-.1-.1-.2-.2-.2-.3-.1-.7-.2-1-.2l.1-.2c.4-.1.9-.1 1.4-.1zm.7-7.9l-.6 6.4h-1.6l.6-6.4H56zm7.1 4.1c.3-.3.7-.6 1.1-.9.6-.4 1.3-.6 2-.7.8 0 1.6.3 2.3.9l.6.4c.6.5 1.3.8 2 .9 1.1-.1 2.1-.6 2.9-1.4l.2.2c-.7 1-1.8 1.6-3.1 1.8-.8 0-1.6-.4-2.2-.9l-.5-.4c-.6-.5-1.3-.8-2.1-.9-1.1 0-2.1.5-2.9 1.2l-.3-.2z"/></svg>