<?xml version="1.0" encoding="utf-8"?>
<!-- Generator: Adobe Illustrator 19.0.0, SVG Export Plug-In . SVG Version: 6.00 Build 0)  -->
<svg version="1.1" id="圖層_1" xmlns="http://www.w3.org/2000/svg" xmlns:xlink="http://www.w3.org/1999/xlink" x="0px" y="0px"
	 viewBox="-71.9 117.8 145.9 66.4" style="enable-background:new -71.9 117.8 145.9 66.4;" xml:space="preserve">
<style type="text/css">
	.st0{fill:#24A7E0;}
	.st1{fill:#DA1C5D;}
	.st2{fill:#F7961C;}
</style>
<title>logo</title>
<path class="st0" d="M-13.6,129.2c-0.2-0.3-0.4-0.5-0.7-0.7c-0.5-0.4-1.2-0.7-1.9-0.7c-0.6,0-1.1,0.1-1.7,0.4
	c-0.4,0.2-0.8,0.6-1.1,1c-0.3,0.4-0.5,0.9-0.6,1.4c-0.1,0.6-0.2,1.1-0.2,1.7c0,0.5,0.1,1.1,0.2,1.6c0.1,0.5,0.3,1,0.6,1.4
	c0.3,0.4,0.7,0.8,1.1,1c0.5,0.3,1.1,0.4,1.7,0.4c0.8,0,1.5-0.3,2.1-0.8l0.5-0.5c0.3-0.9,1.2-1.6,2.2-1.6h1.1
	c-0.1,0.8-0.2,1.5-0.6,2.2c-0.3,0.6-0.7,1.2-1.2,1.7c-0.5,0.5-1.1,0.8-1.8,1.1c-0.7,0.3-1.5,0.4-2.2,0.4c-0.9,0-1.9-0.2-2.7-0.5
	c-0.8-0.3-1.4-0.8-2-1.4c-0.6-0.6-1-1.4-1.3-2.2c-0.3-0.9-0.4-1.8-0.4-2.7c0-0.9,0.1-1.9,0.4-2.7c0.3-0.8,0.7-1.6,1.2-2.2
	c0.6-0.6,1.2-1.1,2-1.5c1.5-0.6,3.2-0.7,4.8-0.2c0.6,0.2,1.2,0.5,1.7,0.9c0.5,0.4,0.9,0.9,1.3,1.5l0.3,0.6c0.2,0.8-0.5,1.4-1.5,1.4
	h-1C-13.3,129.8-13.5,129.4-13.6,129.2z"/>
<path class="st0" d="M-7.3,125.7c0.7,0,1.3,0.8,1.3,1.8v9.7c0,1-0.6,1.8-1.3,1.8s-1.3-0.8-1.3-1.8v-9.7
	C-8.6,126.4-8,125.7-7.3,125.7z"/>
<path class="st0" d="M-2.5,129.3c0.7,0,1.3,0.8,1.3,1.8v6c0,1-0.6,1.8-1.3,1.8s-1.3-0.8-1.3-1.8v-6C-3.8,130.1-3.3,129.3-2.5,129.3z
	"/>
<path class="st0" d="M5.4,131c-0.4,0-0.7,0.1-1.1,0.3c-0.3,0.2-0.5,0.4-0.7,0.7c-0.2,0.3-0.3,0.6-0.4,1c-0.1,0.4-0.1,0.7-0.1,1.1
	c0,0.4,0,0.7,0.1,1.1c0.1,0.4,0.2,0.7,0.4,1c0.2,0.3,0.4,0.5,0.7,0.7c0.3,0.2,0.6,0.3,1,0.3c0.5,0,1.1-0.2,1.4-0.5l0.3-0.3
	c0.2-0.6,1.1-1.1,2.1-1.1H10c-0.1,1.1-0.6,2.2-1.5,2.9c-0.9,0.7-2,1-3.1,1c-0.7,0-1.4-0.1-2-0.4c-0.6-0.2-1.1-0.6-1.5-1
	c-0.4-0.4-0.8-1-1-1.5c-0.2-0.6-0.4-1.3-0.3-2c0-0.7,0.1-1.4,0.3-2.1c0.2-0.6,0.6-1.2,1-1.6c0.4-0.5,0.9-0.8,1.5-1.1
	c0.7-0.3,1.4-0.4,2.1-0.4c0.6,0,1.1,0.1,1.6,0.2c0.5,0.1,1,0.4,1.4,0.7c0.4,0.3,0.8,0.7,1,1.1l0.3,0.4c0.1,0.6-0.6,1.2-1.6,1.2H7.4
	C7.3,131.7,6.4,130.9,5.4,131C5.4,131,5.4,131,5.4,131z"/>
<path class="st0" d="M24.3,136.5c0.1,0.2,0.3,0.4,0.4,0.5c0.2,0.1,0.4,0.2,0.6,0.3c0.4,0.1,0.9,0.1,1.3,0c0.2,0,0.4-0.1,0.6-0.2
	c0.2-0.1,0.3-0.2,0.4-0.4c0.1-0.2,0.2-0.4,0.2-0.6c0-0.4-0.3-0.7-0.8-0.9c-0.7-0.2-1.4-0.4-2.2-0.6c-0.4-0.1-0.8-0.2-1.1-0.3
	c-0.4-0.1-0.7-0.3-1-0.5c-0.3-0.2-0.5-0.4-0.7-0.7c-0.2-0.3-0.3-0.7-0.3-1.1c0-0.5,0.1-1.1,0.4-1.5c0.2-0.4,0.6-0.7,1-0.9
	c0.4-0.2,0.9-0.4,1.3-0.5c0.5-0.1,1-0.1,1.5-0.1c0.5,0,1,0,1.5,0.2c0.5,0.1,0.9,0.3,1.3,0.5c0.4,0.2,0.7,0.6,0.9,0.9L30,131
	c0.1,0.6-0.6,1.1-1.6,1.1h-0.7c0-0.4-0.2-0.8-0.6-1c-0.4-0.2-0.8-0.3-1.2-0.3h-0.5c-0.2,0-0.3,0.1-0.5,0.1c-0.1,0.1-0.3,0.2-0.4,0.3
	c-0.1,0.1-0.2,0.3-0.2,0.5c0,0.2,0.1,0.4,0.3,0.6c0.2,0.2,0.4,0.3,0.7,0.4c0.3,0.1,0.6,0.2,0.9,0.3l1.1,0.2c0.4,0.1,0.8,0.2,1.1,0.3
	c0.4,0.1,0.7,0.3,1,0.5c0.3,0.2,0.5,0.5,0.7,0.8c0.2,0.3,0.3,0.7,0.3,1.1c0.1,1.1-0.5,2.1-1.4,2.6c-0.4,0.3-0.9,0.4-1.4,0.5
	c-0.5,0.1-1.1,0.2-1.6,0.2c-0.5,0-1.1-0.1-1.6-0.2c-0.5-0.1-1-0.3-1.4-0.6c-0.4-0.3-0.7-0.6-1-1l-0.3-0.4c-0.1-0.7,0.6-1.2,1.6-1.2
	h0.7C24.1,136,24.2,136.2,24.3,136.5z"/>
<rect x="-4.7" y="125.6" class="st0" width="2.1" height="0.8"/>
<rect x="-2.3" y="125.6" class="st0" width="2.1" height="0.8"/>
<rect x="-4.6" y="126.6" class="st0" width="1.9" height="2"/>
<rect x="-2.3" y="126.6" class="st0" width="2" height="2"/>
<path class="st0" d="M-3.3,125.7c-0.3-0.4-0.9-0.4-0.7-1.2c0.4-0.4,1.4-0.3,1.5,0.3c1-1.4,2.7,0.2,0.9,0.8 M-2.3,125.6
	c-0.1,0.1-0.2,0.1-0.3,0.1 M-2.3,125.2c0.1-0.4,0.3-0.7,0.6-0.8C-2.2,124.3-2.6,124.9-2.3,125.2z M-2.2,125.5c0.5-0.1,0.9-0.5,0.8-1
	C-2.1,124.5-2.2,124.9-2.2,125.5L-2.2,125.5z M-3.7,124.4c-0.7,0.4,0.4,1.3,0.8,1.1C-3.4,125.3-3.7,124.9-3.7,124.4L-3.7,124.4z
	 M-2.7,125.6c-0.1-0.5-0.2-1.1-0.8-1.1C-3.6,125.2-3.1,125.3-2.7,125.6L-2.7,125.6z"/>
<path class="st0" d="M33.5,139.4c0.3,0,0.6,0,0.9,0c0,0.4-0.2,0.4-0.4,0.4c0.1,0.4,0.5,0.6,0.6,1c1.1-0.1,2.3,0.1,3.3,0.5
	c-0.9,0.8-2.2,0.3-3.3,0.6c-0.2,0.3-0.4,0.7-0.7,0.9c0,0.3,0.5-0.1,0.5,0.2c-0.1,0.4-0.5,0.2-0.8,0.3c-0.5,0.4-0.7,1.5-1.4,1.2
	c0.3-0.9,0.7-1.9,1-2.8c-0.6,0-1.3-0.1-1.9-0.1c-0.4,0.2-0.6,1-1.1,0.7c0.2-0.3,0.1-0.5,0.3-0.8c0-0.3-0.5,0-0.5-0.3
	c0.1-0.1,0.3-0.1,0.5-0.1c0-0.3-0.2-0.6-0.2-1c0.4,0,0.7,0.5,0.9,0.8c0.7,0.1,1.3,0,2,0c-0.1-1-0.7-1.8-0.8-2.8
	C32.9,138,33.1,138.9,33.5,139.4z"/>
<path class="st1" d="M-28.8,134.5c0.8,0.2,1.7-0.3,1.9-1.2c0,0,0,0,0,0l2-6.2c0.3-0.9,1-1.5,1.6-1.2s1-0.3,0.9-1.3l-0.3-5.9
	c0-1-0.6-1.2-1.2-0.4l-4,4.5c-0.6,0.7-0.7,1.4-0.2,1.5c0.5,0.1,0.7,0.9,0.4,1.8l-2,6.2C-30,133.2-29.6,134.1-28.8,134.5z"/>
<path class="st1" d="M-29.6,135.2c1,0,1.8,0.8,1.8,1.8s-0.8,1.8-1.8,1.8c-1,0-1.8-0.8-1.8-1.8C-31.4,136-30.6,135.2-29.6,135.2z"/>
<path class="st1" d="M-36.8,130.7h-3.8c-0.4,0-0.7-0.3-0.7-0.7v-3.7c0-0.4-0.3-0.7-0.7-0.7h-1.6c-0.4,0-0.7,0.3-0.7,0.7v11.9
	c0,0.4,0.3,0.7,0.7,0.7h1.6c0.4,0,0.7-0.3,0.7-0.7v-4.4c0-0.4,0.3-0.7,0.7-0.7h3.8L-36.8,130.7z"/>
<path class="st1" d="M-33.7,125.7h-1.6c-0.4,0-0.7,0.3-0.7,0.7v3.7c0,0.1,0,0.1,0,0.2v3.4c0,0.1,0,0.1,0,0.2v4.4
	c0,0.4,0.3,0.7,0.7,0.7h1.6c0.4,0,0.7-0.3,0.7-0.7v-11.8C-33,126-33.3,125.7-33.7,125.7z"/>
<path class="st0" d="M14.3,132.2c0-0.1,0-0.1,0-0.2v-5.7c0-0.4-0.3-0.7-0.7-0.7h-1.3c-0.4,0-0.7,0.3-0.7,0.7v11.9
	c0,0.4,0.3,0.7,0.7,0.7h1.3c0.4,0,0.7-0.3,0.7-0.7v-2c0-0.1,0-0.1,0-0.2L14.3,132.2z"/>
<path class="st0" d="M20.8,138.3l-3.3-4.9c-0.2-0.3-0.1-0.7,0.1-1l2.7-2.6c0.3-0.3,0.2-0.5-0.2-0.5h-1.8c-0.4,0-0.8,0.2-1.1,0.5
	L15,132v2.9c0.2-0.1,0.5-0.1,0.7,0.2c0,0,0,0,0,0l1.9,3.1c0.2,0.3,0.6,0.5,1,0.6h1.8C20.8,138.8,21,138.6,20.8,138.3z"/>
<path class="st0" d="M-22.3,141.8h52.7c0.5,0,0.7-0.7,0.1-0.7h-52.7C-22.8,141.1-23,141.8-22.3,141.8z"/>
<path class="st1" d="M-22.8,141.2h-21.8c-0.4,0-1,0.6-0.4,0.6h21.8C-22.7,141.7-22.1,141.2-22.8,141.2L-22.8,141.2z"/>
<path class="st1" d="M-43,152.9c-0.9-0.9-1.8-1.7-2.9-2.4l1.3-1.4c1.1,0.8,2,1.5,2.9,2.3L-43,152.9z M-43.6,161.7l-2-0.5
	c0.7-2.4,1.2-4.6,1.7-6.7l2,0.7c-0.1,0.4-0.2,0.9-0.4,1.3C-42.9,158.9-43.3,160.7-43.6,161.7L-43.6,161.7z M-42.5,147.9
	c-0.6-0.6-1.4-1.3-2.5-2.2c0.1,0.1,0,0-0.4-0.3l1.3-1.4c0.5,0.4,1.5,1.2,2.9,2.3L-42.5,147.9z M-40.5,150.3
	c-0.1-0.1-0.1-0.1-0.2-0.2c-0.3-0.4-0.7-0.8-1.1-1.2c1.6-1.4,2.8-3.2,3.6-5.2l2.1,0.2c-0.3,0.5-0.5,0.9-0.8,1.4h8.8v1.7h-9.7
	c-0.1,0.1-0.1,0.3-0.2,0.4l-0.8,1.1h9.7v1.4c0,1.3-0.1,2.3-0.1,3.1h1.6v1.7h-1.6l-0.1,2.9h1.3v1.6h-1.4c-0.1,1.7-1.1,2.6-3,2.6h-2.9
	c0-0.2-0.2-0.6-0.3-1c0-0.2-0.1-0.4-0.2-0.5c0.8,0.1,1.8,0.1,2.7,0.1s1.6-0.3,1.7-1.1h-7.5l-0.1,0.5h-2l0.7-5h-1.5v-1.8h1.7l0.5-3.7
	c-0.2,0.2-0.3,0.3-0.5,0.5C-40.1,149.9-40.3,150.1-40.5,150.3L-40.5,150.3z M-33,156.3l-1,1.2h2.8c0-0.6,0.1-1.6,0.1-2.9h-7.1
	l-0.4,2.9h4.4c-0.2-0.2-0.5-0.4-0.8-0.7c-0.5-0.4-1-0.8-1.3-1l1-1.1l0.8,0.5C-33.9,155.7-33.4,156.1-33,156.3L-33,156.3z
	 M-37.7,150.1l-0.3,2.9h7c0-1.5,0-2.4,0.1-2.9L-37.7,150.1z M-33.9,152.9c-0.7-0.6-1.4-1.2-2.2-1.7l1.1-1.1c0.3,0.3,0.8,0.6,1.4,1
	c0.3,0.3,0.5,0.4,0.8,0.6L-33.9,152.9z"/>
<path class="st0" d="M-26.2,147.4v-1.8h7.7v-2h2.1v2h7.7v1.8h-7.7v1.9h5.9v6.2h-3.9v3.1c0,0.7,0.3,1,1.1,1h1.5
	c0.8,0,1.2-0.3,1.3-0.9c0.1-0.7,0.2-1.3,0.2-2l2,0.7c-0.2,1.1-0.3,1.8-0.4,2.2c-0.3,1.2-1.4,2-2.5,1.8h-2.9
	c-1.1,0.2-2.2-0.6-2.3-1.7c0-0.2,0-0.4,0-0.6v-3.5H-19c0.1,3.2-2,5.3-6.3,6.2c-0.1-0.2-0.3-0.4-0.5-0.8c-0.2-0.4-0.4-0.7-0.7-1.1
	c3.7-0.6,5.5-2,5.4-4.3h-3.4v-6.2h5.9v-1.9H-26.2z M-22.5,151v2.9h9.9V151H-22.5z"/>
<path class="st0" d="M-5.7,161.7c-0.1-0.1-0.3-0.3-0.4-0.4c-0.6-0.7-0.9-1.1-1.1-1.3c4-1.9,6.4-5.9,6.2-10.3h-5.6v-2h5.8
	c0-0.4,0-1.1,0.1-2c0-0.6,0-1.3,0.1-1.9h2.2c0,0.8-0.1,2.1-0.2,3.6v0.2h8.4c-0.2,3.9-0.3,7.1-0.4,9.8c-0.1,2.5-1.3,3.7-3.8,3.7
	c-1.1,0-2.4,0.1-3.8,0.1c-0.1-0.6-0.2-1.2-0.4-1.8c0-0.1-0.1-0.2-0.1-0.3c0.8,0.1,2,0.1,3.5,0.1s2.4-0.8,2.3-2.6
	c0.1-1.1,0.2-2.9,0.2-5.6c0.1-0.6,0.1-1,0.1-1.3H1.2C1.2,155.2-1.1,159.2-5.7,161.7z"/>
<path class="st0" d="M12.1,147.4v-1.7h1.3v-1.8h1.9v1.8h3.2v-1.8h1.9v1.8h1.1v1.7h-1.1v8.3h1.3v1.7h-9.8v-1.7h1.4v-8.3H12.1z
	 M13.4,161.8c-0.4-0.5-0.9-0.9-1.4-1.3c1-0.9,2-1.9,2.9-3l1.6,1.1C15.3,159.8,14.3,160.9,13.4,161.8L13.4,161.8z M15.2,147.4v1.7
	h3.2v-1.7H15.2z M15.2,150.7v1.6h3.2v-1.7L15.2,150.7z M15.2,153.9v1.7h3.2v-1.7H15.2z M19.6,161.1c-0.7-0.9-1.5-1.7-2.3-2.6
	l1.4-1.1c0.9,0.9,1.7,1.6,2.4,2.3c1-1.4,1.4-3.9,1.3-7.4v-7.1c2.3-0.2,4.6-0.6,6.8-1.1l0.7,2c-1.5,0.3-3.3,0.5-5.6,0.8v3.1h5.8v1.9
	h-1.7v9.6h-1.9v-9.6h-2.2v0.6c0.1,3.8-0.6,6.9-2,9.2c-0.3-0.3-0.7-0.6-1-0.9c-0.2-0.1-0.4-0.3-0.5-0.4l0.2-0.3L19.6,161.1z"/>
<path class="st2" d="M-70.5,181.6c0,0.2,0,0.4,0,0.5c-0.1,0.6,0,1.6-0.9,1.6c-0.3,0-0.6-0.1-0.6-0.4c0-0.3,0.2-0.5,0.5-0.7
	c0.2-0.1,0.3-0.3,0.4-0.5c0.1-0.2,0.3-0.4,0.4-0.6L-70.5,181.6z M-69.1,180.2l0.1-0.9h-2.1l0.1-0.7h2.1l0.1-1h-0.8v0.4H-71l0.4-4.4
	h1.3v0.3h2.7l0.4-0.5l1.5,0.4l-0.5,0.4l-0.3,3.7h-1.3v-0.3h-0.8l-0.1,1h1.8l-0.1,0.7h-1.8l-0.1,0.8c0.5-0.1,1.1-0.2,1.7-0.3l0.1,0.1
	c-1.7,0.8-3.4,1.4-5.2,1.8l-0.2-1.3C-70.8,180.4-69.9,180.3-69.1,180.2z M-69.6,181.4c0.2,0.5,0.4,1,0.4,1.5c0,0.4-0.1,0.6-0.5,0.6
	c-0.2,0-0.5-0.1-0.5-0.4c0-0.2,0-0.4,0.1-0.6c0.2-0.4,0.3-0.8,0.3-1.2L-69.6,181.4z M-68.8,176.9v-0.5c-0.1,0.1-0.2,0.1-0.3,0.1
	c-0.1,0-0.2-0.1-0.3-0.2c0,0,0,0,0-0.1c0-0.1,0-0.2,0.1-0.3c0-0.2-0.1-0.4-0.2-0.6l-0.2,1.6L-68.8,176.9z M-68.5,174.5h-0.8v0.5
	c0.3,0.2,0.5,0.4,0.8,0.7L-68.5,174.5z M-68.5,181c0.5,0.4,0.8,1,0.8,1.6c0,0.4-0.3,0.5-0.7,0.5s-0.5-0.2-0.4-0.4
	c0.1-0.3,0.1-0.5,0.1-0.8C-68.6,181.7-68.6,181.3-68.5,181L-68.5,181z M-66.7,175.8l-0.9,0.7v0.3h0.9L-66.7,175.8z M-67.4,180.6
	c0.3,0.2,0.6,0.5,0.9,0.7c0.2,0.2,0.4,0.4,0.4,0.7c0,0.3-0.3,0.6-0.6,0.6c0,0,0,0-0.1,0c-0.6,0-0.5-0.4-0.5-0.9
	c0-0.4-0.1-0.8-0.2-1.1L-67.4,180.6z M-67.1,175.1l0.5,0.3l0.1-0.8h-0.8l-0.1,1.4C-67.4,175.7-67.2,175.4-67.1,175.1L-67.1,175.1z
	 M-64.4,178.1l0.4-4.6h1.5l-0.2,1.6h2l-0.1,0.7h-2l-0.2,2.5l0.4-0.4l1.5,0.4l-0.5,0.4l-0.5,5.5h-1.5l0.1-0.7h-1.2l-0.1,0.7h-1.5
	l0.6-6.2L-64.4,178.1z M-63,179h-1.2l-0.4,3.7h1.2L-63,179z"/>
<path class="st2" d="M-49.2,178.9h-10.4l0.1-0.9h10.4L-49.2,178.9z"/>
<path class="st2" d="M-36.7,173.8l-0.1,0.8h-4.4l-0.3,3.2c0.8,0.1,1.7,0.3,2.4,0.7c0.5,0.2,0.8,0.7,0.8,1.3
	c-0.1,0.5-0.5,0.8-0.9,0.8c-0.8,0-0.9-0.5-1.2-1.1c-0.1-0.3-0.3-0.5-0.4-0.8c-0.2-0.3-0.4-0.5-0.7-0.7l-0.6,5.9H-44l0.9-9.5h-4.2
	l0.1-0.8H-36.7z"/>
<path class="st2" d="M-29.5,179c-0.4,0.7-1,1.3-1.7,1.7l-0.1-0.1c0.4-0.3,0.7-0.8,0.8-1.3c-0.6,0-1-0.4-1-1c0,0,0-0.1,0-0.1
	c0-0.3,0.2-0.6,0.5-0.8c0.2-0.2,0.6-0.3,0.9-0.3c0.4,0,0.7,0.3,0.8,0.6C-29.2,178.1-29.3,178.6-29.5,179z"/>
<path class="st2" d="M-24,182.1c1-0.9,1.9-2,2.5-3.3l0.2,0.1c0,1.8-0.5,3.6-1.6,5L-24,182.1z M-23.4,176.7c0.6,0,2,0.1,2.4,0.6
	c0.1,0.2,0.2,0.4,0.2,0.6c0,0.5-0.4,0.8-0.9,0.8c0,0,0,0,0,0c-0.6,0-0.8-0.5-1-1C-22.9,177.3-23.2,177-23.4,176.7L-23.4,176.7z
	 M-22.9,173.6c0.7,0.1,1.9,0.2,2.3,0.8c0.1,0.2,0.2,0.4,0.2,0.6c-0.1,0.4-0.4,0.8-0.9,0.8c-0.7,0-0.8-0.5-0.9-1
	c-0.2-0.4-0.4-0.8-0.8-1.1L-22.9,173.6z M-20.2,178.6l0.3-2.3l-0.7,0.4l-0.2-0.1c0.7-1,1.1-2.1,1.3-3.3h2.1l-0.3,0.7h4.7v0.9h-5.2
	c-0.3,0.3-0.5,0.5-0.8,0.8h0.9l0,0.3h2.9l0.5-0.4l1.7,0.4l-0.4,0.4l-0.3,2.2h0.7l-0.1,0.8H-14l-0.3,1.9h0.7l-0.1,0.8h-0.7
	c0,0.5-0.2,1-0.4,1.5c-0.1,0.2-0.4,0.4-0.6,0.4c-0.5,0.1-1.1,0.2-1.7,0.2c0,0-0.2,0-0.2,0s0-0.4-0.3-0.7c-0.3-0.2-0.7-0.3-1.1-0.4
	V183c0.6,0,1.2,0.1,1.8,0.1c0.9,0,0.7-0.1,0.9-0.9h-3.1l-0.6,0.6l-1.6-0.4l0.6-0.5l0.4-2.5h-0.8l0.1-0.8L-20.2,178.6z M-15.9,181.3
	l0.2-1.9h-3.1l-0.3,2L-15.9,181.3z M-15.5,178.6l0.3-1.8h-3l-0.3,1.8H-15.5z M-18.3,179.5c0.6,0,1.1,0.1,1.6,0.3
	c0.3,0.2,0.5,0.5,0.5,0.8c0,0.4-0.4,0.6-0.9,0.5c-0.4,0-0.8-0.3-0.8-0.7C-18,180-18.1,179.8-18.3,179.5L-18.3,179.5z M-18,177
	c0.5,0,1.1,0.1,1.5,0.3c0.3,0.1,0.4,0.4,0.4,0.6c-0.1,0.4-0.4,0.6-0.8,0.6c-0.6-0.1-0.6-0.5-0.9-0.9C-17.8,177.4-17.9,177.2-18,177
	L-18,177z"/>
<path class="st2" d="M-10.2,173.5h2c-0.1,0.5-0.3,0.9-0.4,1.4h0.7l0.5-0.6l1.9,0.4l-0.6,0.5c-0.1,0.6-0.2,1.3-0.3,1.9
	c-0.1,2.1-1.3,3.9-3.2,4.9c-0.8,0.5-1.7,1-2.7,1.3l-0.1-0.1c1.3-0.9,2.4-2,3.2-3.3c-0.3,0.2-0.9,0.3-1.1-0.1s-0.1-1-0.3-1.4
	c-0.1-0.2-0.2-0.4-0.3-0.6c-0.4,0.3-0.8,0.6-1.1,0.8h-0.1C-11,177-10.4,175.3-10.2,173.5z M-8.9,178.6c0.1,0.1,0.2,0.2,0.3,0.4v0.2
	c0.1-0.2,0.1-0.4,0.2-0.6c0.2-0.8,0.3-1.5,0.4-2.3c0-0.2,0-0.4,0-0.6H-9c-0.3,0.6-0.7,1.1-1.1,1.5l-0.4,0.4
	C-10,177.8-9.4,178.2-8.9,178.6L-8.9,178.6z M-3.7,175.5c0.6,0.4,1.2,0.9,1.7,1.5c0.5,0.6,0.8,1.4,0.8,2.2c-0.1,0.6-0.4,1.4-1.1,1.4
	c-0.2,0-0.5,0-0.6-0.3C-3,180-3,179.6-3,179.2c0.1-1.2-0.1-2.3-0.7-3.3l-0.8,8.2h-1.7l1-10.6h1.7L-3.7,175.5z"/>
<path class="st2" d="M4.8,174c-0.2-0.1-0.4-0.3-0.6-0.4l0.1-0.1c0.5-0.3,1.1-0.3,1.7-0.3c0.7,0.2,1,0.4,0.9,0.8
	c0,0.2-0.1,0.4-0.3,0.6h4.3l-0.1,0.7H7.5l1.3,0.3c-0.5,0.6-1.1,1-1.8,1.4h1.4l0.6-0.6l1.8,0.4l-0.8,0.5L9.5,183c0,0.6-0.4,1-1,1.1
	c-0.4,0-0.8,0-1.3,0c-0.5,0-0.2-0.3-0.4-0.6c-0.3-0.2-0.7-0.4-1.2-0.4v-0.2c0.4,0,0.9,0,1.3,0c0.9,0,0.8-0.1,0.9-1l0.4-4.1H2.7
	l-0.2,1.8c0.6-0.5,1.1-1.1,1.5-1.7l1.4,0.3c-0.8,0.7-1.9,1.3-2.9,1.6L2.1,184H0.4l0.7-7.3h1.7v0.3h1c-0.1-0.1-0.2-0.2-0.2-0.3
	c-0.2-0.4-0.1-0.8-0.5-1.1l-0.2-0.2l0.1-0.1c0.5,0.1,1.8,0.1,2.1,0.6c0.1,0.1,0.2,0.3,0.2,0.5c-0.1,0.3-0.2,0.5-0.4,0.6H6
	c0.4-0.5,0.7-1.1,1-1.6H0.5l0.1-0.7H5C4.8,174.5,5.1,174.2,4.8,174z M4.8,179.9v0.2h1l0.4-0.4l1.6,0.3l-0.5,0.4l-0.2,2.3H5.6v-0.4
	H4.5v0.4H3.1l0.3-2.8L4.8,179.9z M5.7,181.7l0.1-0.8H4.7l-0.1,0.8H5.7z M7,179.7c-0.7,0-1.4-0.3-1.3-1.1l0.1-0.6h1.4v0.4
	c0,0.2,0,0.3,0.3,0.3h0.6c0,0.3-0.1,0.7-0.1,1C7.7,179.7,7.4,179.7,7,179.7L7,179.7z"/>
<path class="st2" d="M14.1,178.3v0.3h1l0.5-0.5l1.7,0.4l-0.6,0.5l-0.5,5h-1.7l0.1-0.8h-1l-0.1,0.8h-1.7l0.6-5.8L14.1,178.3z
	 M15.9,173.4v0.4h3.6l0.7-0.5l1.9,0.3l-0.6,0.6l-0.4,3.5h-1.8v-0.3h-3.7v0.4h-1.8l0.4-4.3L15.9,173.4z M14.7,182.4l0.3-3.1h-1
	l-0.3,3.1H14.7z M19.3,176.5l0.2-2h-3.7l-0.2,2H19.3z M19.5,178.3v0.3h0.9L21,178l1.7,0.4l-0.6,0.6l-0.5,5.1h-1.7l0.1-0.8h-1
	l-0.1,0.8h-1.8l0.6-5.8H19.5z M20,182.4l0.3-3.1h-1l-0.3,3.1H20z"/>
<path class="st2" d="M31,175.6c-0.4,0.7-1,1.3-1.7,1.7c0.5,0.4,1.2,1,1.2,1.7c-0.1,0.3-0.3,0.6-0.6,0.6c-0.2,0-0.3-0.1-0.4-0.2
	c-0.1-0.4-0.2-0.7-0.2-1.1c-0.1-0.3-0.2-0.5-0.3-0.8l-0.3,3.2h-1.2v-0.5H27l-0.1,1.1h1.7l-0.1,0.7h-1.7l-0.2,2.1h-1l0.2-2.1h-2
	l0.1-0.7h2l0.1-1.2h-0.4l-0.1,0.5h-1.2l0.4-4.7h1.2v0.2h0.4l0.1-1h-1.9l0.1-0.7h1.9l0.1-1.1h1.1l-0.1,1.1h1.6l-0.1,0.7h-1.6l-0.1,1
	h0.4l0.4-0.5l1.3,0.4l-0.5,0.4l-0.1,0.8c0.5-0.7,0.9-1.4,1-2.3h1.3C31.2,175.2,31.1,175.4,31,175.6z M26,178.5h-0.4l-0.1,1H26V178.5
	z M26.1,176.9h-0.4l-0.1,0.9h0.4L26.1,176.9z M27.6,178.5h-0.4l-0.1,1.1h0.4L27.6,178.5z M27.7,176.9h-0.4l-0.1,0.9h0.4L27.7,176.9z
	 M27.5,183.7l0.1-0.8H30l0.2-2.4h-1.5l0.1-0.8h4.8l-0.1,0.8H32l-0.2,2.4H34l-0.1,0.8H27.5z M29.2,174.5l0.1-0.8h5.4l-0.1,0.8H29.2z
	 M31.8,176.4c-0.3,0.3-0.7,0.6-1,0.8c0.3,0.3,0.6,0.5,0.9,0.8c0.2,0.2,0.3,0.5,0.3,0.7c0,0.4-0.1,0.7-0.5,0.8
	c-0.4,0.1-0.7-0.3-0.7-0.7c0-0.2-0.1-0.4-0.1-0.6c-0.1-0.3-0.2-0.7-0.4-1c0.6-0.6,1-1.4,1.3-2.2h1.3C32.6,175.5,32.3,176,31.8,176.4
	L31.8,176.4z M34,175.6c-0.5,0.6-1.1,1.2-1.8,1.6c0.5,0.3,1.6,0.9,1.6,1.6c0,0.3-0.3,0.6-0.6,0.6c0,0,0,0,0,0
	c-0.2,0-0.3-0.1-0.5-0.2c-0.1-0.2-0.2-0.5-0.3-0.7c-0.1-0.2-0.2-0.4-0.3-0.5c-0.1-0.2-0.3-0.5-0.5-0.7c0.6-0.7,1.1-1.4,1.5-2.2
	l1.3,0.1C34.3,175.3,34.2,175.4,34,175.6L34,175.6z"/>
<path class="st2" d="M36.6,180h0.8v-0.4h-1.6l0.1-0.8h1.6v-0.4h1.6v0.4h1.3l-0.1,0.8H39l-0.1,0.9l0.9,0.3c0.6-0.8,1-1.6,1.2-2.6h1.8
	c-0.6,1.1-1.6,2.1-2.7,2.8c0.2,0.2,0.3,0.3,0.3,0.5c0,0.3-0.3,0.5-0.6,0.5c-0.2,0-0.5-0.1-0.6-0.4c-0.1-0.2,0-0.2-0.2-0.5l-0.2-0.2
	l-0.3,3H37l0.2-2.2c-0.5,0.8-1.1,1-1.7,1.7h-0.2C35.9,182.3,36.3,181.2,36.6,180z M36.3,176.1h0.8l0.3-2.6h1.4v0.2h3l-0.1,0.6h-3
	v0.3h2.6v0.5h-2.6v0.3h2.6v0.5h-2.6v0.3H42l-0.1,0.6h-2.5c-0.4,0.3-0.9,0.6-1.4,0.7h0.6c0.5,0,1.3,0,1.8,0c0-0.1-0.3-0.3-0.4-0.4
	l0.2-0.2c1,0,1.4,0.5,1.4,1.1c-0.1,0.3-0.3,0.5-0.6,0.5c-0.4,0-0.4-0.3-0.5-0.7c-1.1,0.3-2.2,0.5-3.4,0.6l-0.3-1
	c0.5,0,1-0.3,1.3-0.7h-1.7L36.3,176.1z M40.4,182.3c0.7-0.7,1.3-1.4,1.7-2.3l1.8,0.1c-0.8,1-1.7,1.8-2.8,2.4l3-0.1
	c0-0.6-0.2-0.6-0.3-1l0.2-0.1c0.3,0.1,0.6,0.3,0.9,0.5c0.3,0.2,0.7,0.4,0.7,0.8c0.1,0.8,0,1.1-0.3,1.2c-0.3,0.2-0.7,0.1-0.8-0.2
	c0,0,0-0.1,0-0.1c-0.1-0.2-0.1-0.4-0.1-0.6c-1.2,0.4-2.4,0.7-3.6,0.9l-0.6-1.4C40.1,182.5,40.2,182.4,40.4,182.3L40.4,182.3z
	 M46.9,177.1c-1.7,0.5-3.4,0.8-5.2,0.9c0.1,0.1,0-0.1-0.1-0.2c1.5-0.5,3-1.1,4.4-1.8L46.9,177.1z M46.6,174.1
	c-1.6,0.6-3.2,0.9-4.9,0.9V175c1.2-0.4,2.4-1,3.6-1.6L46.6,174.1z M46.7,175.4c-1.5,0.6-3,0.9-4.6,1.1v-0.1c1.3-0.5,2.5-1.1,3.6-1.9
	L46.7,175.4z M44.2,177.9c0.6,0.8,1.5,1.4,2.5,1.7l-0.1,0.1c-0.9,0-1.3,0.9-1,1.8l-0.1,0.1c-1-0.9-1.7-2.1-1.9-3.5L44.2,177.9z"/>
<path class="st2" d="M48.3,179.4h1.8l0.1-1.1h1.7l-0.1,1.1h1.7l-0.1,0.8h-1.7l-0.2,1.6c0.6-0.1,1.3-0.3,1.9-0.4v0.1
	c-1.7,1.1-3.6,1.9-5.6,2.4l-0.3-1.4c0.7,0,1.5-0.1,2.2-0.3l0.2-2h-1.8L48.3,179.4z M48.8,176.9c0.3-0.1,1-1.6,1.2-2l0.2-0.5h-1.6
	l0.1-0.8h5.6l-0.1,0.8h-2c-0.6,0.9-1.3,1.6-2.1,2.2l-0.5,0.3c0.9,0,1.8-0.1,2.7-0.1c-0.1-0.4-0.3-0.9-0.5-1.3l0.1-0.1
	c0.7,0.3,1.4,0.8,1.8,1.5c0.1,0.2,0.1,0.4,0.1,0.6c0,0.4-0.4,0.8-0.8,0.7c-0.7,0-0.7-0.6-0.7-1.1c-1.2,0.5-2.5,0.9-3.8,1.1l-0.2-1.3
	C48.5,176.9,48.7,176.9,48.8,176.9z M55.3,182.9c0.2,0,0.6,0,0.7-0.1c0-0.1,0.1-0.2,0.1-0.2l0.9-9.1h1.7l-0.9,9.6
	c-0.1,1-0.9,1-1.7,1.1h-0.5c-0.1,0-0.3,0-0.4,0c-0.2-0.1,0-0.4-0.2-0.6c-0.1-0.1-0.1-0.2-0.2-0.2c-0.3-0.1-0.7-0.2-1-0.2l0.1-0.2
	C54.3,182.9,54.8,182.9,55.3,182.9L55.3,182.9z M56,175l-0.6,6.4h-1.6l0.6-6.4H56z"/>
<path class="st2" d="M63.1,179.1c0.3-0.3,0.7-0.6,1.1-0.9c0.6-0.4,1.3-0.6,2-0.7c0.8,0,1.6,0.3,2.3,0.9l0.6,0.4
	c0.6,0.5,1.3,0.8,2,0.9c1.1-0.1,2.1-0.6,2.9-1.4l0.2,0.2c-0.7,1-1.8,1.6-3.1,1.8c-0.8,0-1.6-0.4-2.2-0.9l-0.5-0.4
	c-0.6-0.5-1.3-0.8-2.1-0.9c-1.1,0-2.1,0.5-2.9,1.2L63.1,179.1z"/>
</svg>
