<svg id="圖層_1" data-name="圖層 1" xmlns="http://www.w3.org/2000/svg" viewBox="0 0 187.99 110.95"><defs><style>.cls-1{fill:#efc2ab;}</style></defs><title>工作區域 1</title><path class="cls-1" d="M12.47,21.22c3.47.94,7,.24,10.52-.32,2.77-.45,6.76-.5,8.66-2.89,1.28-1.61,1.92-3.46,1-5.48a5,5,0,0,0-4.58-3.08,52.45,52.45,0,0,0-7.87,1.47c-3,.7-6.21,1.4-8.69,3.29s-2.56,6.08.92,7Z"/><path class="cls-1" d="M19.73,4.91a110.69,110.69,0,0,0-2.38,14,75.9,75.9,0,0,0,.33,14.36,88.75,88.75,0,0,0,8.09,28.08c1,2.12,4,2.67,5.95,1.56A4.45,4.45,0,0,0,33.28,57a107,107,0,0,1-8.06-25.13C23.59,23.34,22.43,14,23.14,5.38c.16-1.94-3-2.38-3.41-.46Z"/><path class="cls-1" d="M19.1,23c-2.46,1.41-4.3,3.65-6.21,5.71-2.05,2.22-4,4.54-6.15,6.65l6-.77a4.49,4.49,0,0,0-3.81-.5,5,5,0,0,0-2.18,8.26A5,5,0,0,0,15,40.14c1.73-5.32,5.17-10.7,5.53-16.34A1,1,0,0,0,19.1,23Z"/><path class="cls-1" d="M25.8,27.2a4.16,4.16,0,0,0-.45,1.38,4.86,4.86,0,0,0,.1,1.75A3.35,3.35,0,0,0,26,31.57l.61.79a2.94,2.94,0,0,0,1.26.81,4.43,4.43,0,0,0,1.61.34,3.7,3.7,0,0,0,3-1.51,2.88,2.88,0,0,0,.69-1.3,3.85,3.85,0,0,0,0-2,3.92,3.92,0,0,0-1.88-2.49,4.58,4.58,0,0,0-2.28-.65A3.82,3.82,0,0,0,27,26,3.23,3.23,0,0,0,25.8,27.2Z"/><path class="cls-1" d="M38.73.8c-.83,3-1.88,6-3,8.93s-2.55,5.88-3.08,8.91l4.9-.64a15.89,15.89,0,0,0-1.2-1.44,1,1,0,0,0-1.22-.16,13.53,13.53,0,0,0-1.25.63c-4,2.36,2,7.93,3.94,3,1.11-2.86,1.3-6.26,1.71-9.28s.78-6.27,1.31-9.39c.23-1.38-1.76-2-2.15-.59Z"/><path class="cls-1" d="M36.46,15.25c1.45,1.58,3.55,1,5.39.55,2.56-.6,5.1-1.27,7.66-1.82a48.8,48.8,0,0,1,14.86-1c3.5.3,6.09-3.39,5.67-6.54a5.77,5.77,0,0,0-7.2-4.8A124.63,124.63,0,0,0,46.23,6.75a37.61,37.61,0,0,0-7.49,3.76c-1.19.82-3.82,3.06-2.28,4.74Z"/><path class="cls-1" d="M42.07,20.64c-3.37,3.92-4.91,9.05-5.91,14s-2,10.3-.9,15.24c2.3,10.72,13.6,12.3,22.75,10.81a34.17,34.17,0,0,0,13.77-5.17c1.73-1.21,4.12-2.82,4.08-5.22,0-2.2-2.24-3.05-4.15-2.6-2.18.52-4.32,2-6.33,3a33.69,33.69,0,0,1-7.07,2.43c-3.94.91-8.79,1.49-12.58-.3C41,50.6,41.38,44.16,41.56,39.75c.25-6.21,2-12.32,1.9-18.53a.82.82,0,0,0-1.39-.58Z"/><path class="cls-1" d="M47,19.26l.62-.2-1-.26c.69.79,1.68.63,2.62.68a8.76,8.76,0,0,1,3.68,1,14.33,14.33,0,0,1,5.37,5.72,29.19,29.19,0,0,1,3.84,15.14,23.07,23.07,0,0,1-4.86,14.17,12.36,12.36,0,0,1-5.66,4.12,11.74,11.74,0,0,1-3.74.58c-1.45,0-2.79-.53-4.26-.49a4.76,4.76,0,0,0-4.48,3.41c-.59,2.15.48,4,2.13,5.24,3.13,2.39,8.67,1.82,12.16.61a22.06,22.06,0,0,0,9.64-6.65c5-5.93,7.2-14.05,6.86-21.72a33.84,33.84,0,0,0-8-20.44c-2.28-2.72-5.26-5.11-8.87-5.57a8.31,8.31,0,0,0-5,.83,3.73,3.73,0,0,0-1.66,1.49,1.68,1.68,0,0,0-.23.85q.28.66-.17.35A.79.79,0,0,0,47,19.26Z"/><path class="cls-1" d="M51.4,26.25A46.48,46.48,0,0,1,49.53,39c-1,3.8-2.27,8.51-5,11.46l6,2.47,0-.7c.14-5-7.87-4.37-7,.95l.11.68c.58,3.49,5.93,3.16,6.73,0,1.19-4.7,3.18-9,3.79-13.83a45.54,45.54,0,0,0-.76-14c-.2-1.13-2-.85-2,.27Z"/><path class="cls-1" d="M1.46,59.2C9.71,51.37,19.84,47.45,29.7,45.1c10.9-2.6,22.29-3.24,33.36-3.24a54.17,54.17,0,0,1,9.51.8c3.07.55,6.18,1.91,9.29,1.4,1.22-.2,2.43-2.42,1.17-3.76-2.34-2.47-5-3.12-7.87-3.62a63.4,63.4,0,0,0-8.81-.8c-5.94-.19-11.88,0-17.81.37C37.31,37,25.78,39,15.37,44.92A62.48,62.48,0,0,0,.3,57.2c-.84.91.27,2.85,1.16,2Z"/><path class="cls-1" d="M88.41,23.4A18.08,18.08,0,0,0,87,35.32c.8,3.52,3,8.56,7,9.3a1.16,1.16,0,0,0,1.4-1.4c-.8-3.12-3.3-5.62-4.3-8.71a20.32,20.32,0,0,1-.73-10.26c.22-1.13-1.43-2-2-.84Z"/><path class="cls-1" d="M102.89,19.37c1.21.32,6.38,1.79,6,3.65-.27,1.45-4.44,2.09-5.59,2.79s-1,2.67.38,2.93c3.92.72,7.37,4.35,6.66,8.55-.35,2.1-2.12,4.16-4.39,3.09-2-1-2.65-3.51-4.63-4.4-1.45-.65-3.55.08-3.43,2,.21,3.44,4.16,6.68,7.39,7.33a7.4,7.4,0,0,0,8.31-5.1c2.18-6.38-2.86-13.16-9.06-14.52l.38,2.93c2.73-1.52,8.22-1.77,7.28-6.4-.73-3.59-6-4.93-9.07-4.75a1,1,0,0,0-.26,2Z"/><path class="cls-1" d="M97.63,33.2c3.43,1.79,7.78,2.05,11.59,2a50.84,50.84,0,0,0,6-.46c2.05-.27,4.17-.33,5.73-1.79a2.25,2.25,0,0,0-1-3.73c-2-.51-3.8.36-5.73.74a48.22,48.22,0,0,1-5.43.75c-3.64.31-7.35,0-10.95.49a1.1,1.1,0,0,0-.26,2Z"/><path class="cls-1" d="M85.48,26.83c4,1.4,10.42.22,10.61-5,.07-1.82-1.85-2.47-3.26-1.87-2.44,1-4,3.65-6.92,3.72a1.61,1.61,0,0,0-.43,3.15Z"/><path class="cls-1" d="M135.44,26.17c-1.87-1-3.45-1.34-5.47-.43a6.3,6.3,0,0,0-3.61,5.51c-.15,5.59,5.14,9.1,10.32,8.2s9.66-6.74,7.18-12c-2.62-5.58-10.19-6.39-15.37-4.35a3.13,3.13,0,0,0-.74,5.63,4,4,0,0,0,2.47.81,2.17,2.17,0,0,0,2-1.54,4.3,4.3,0,0,0,0-2.74l-3,3.9c2.62-.27,5.81-1.8,8.3-.29,2.28,1.38.47,4-1.46,4.61a3.42,3.42,0,0,1-4.46-2.11,3.55,3.55,0,0,1,3.55-4.45c.39,0,.52-.55.2-.72Z"/><path class="cls-1" d="M145.13,25.11c.92-.15,2.17.07,3.14,0s1.86-.17,2.8-.19A17.84,17.84,0,0,1,158,26a12.22,12.22,0,0,1,7.28,7.49A8.73,8.73,0,0,1,163,42.3a7.23,7.23,0,0,1-3.54,1.77c-.57.13-1-.26-.5.13-.63-.46-.87-1.06-1.6-1.5a5.41,5.41,0,0,0-1.15-.57c-2-.62-3.84.93-4.42,2.83-.76,2.54,1,5,3.22,6.07,4.09,2.08,9.12,0,12.23-2.88,5.9-5.51,6.07-14.56,1.36-20.84a17.66,17.66,0,0,0-11.19-6.85,19.34,19.34,0,0,0-6.89.08,14,14,0,0,0-3.17,1,8.33,8.33,0,0,0-1.53.8c-.5.36-.79.93-1.28,1.28a.83.83,0,0,0,.64,1.51Z"/><path class="cls-1" d="M158.78,13.12c-4.78,12-9,24.2-15,35.68a143,143,0,0,1-9.37,16,23.22,23.22,0,0,1-11.79,8.65,32.58,32.58,0,0,1-9.05,1.67,30.09,30.09,0,0,1-4.73-.08,23.65,23.65,0,0,0-4.95-.38c-1.38.14-2.69,2-1.3,3.15,2.45,1.94,5.57,2.51,8.47,3.49a33.29,33.29,0,0,0,9.57,1.64c6.82.2,13.06-3.42,17-8.82S144.3,62.82,147,56.85c2.91-6.51,5.71-13.1,8.12-19.82a145.16,145.16,0,0,0,6.65-23.11,1.53,1.53,0,0,0-2.95-.81Z"/><path class="cls-1" d="M175.75,16.82a9.42,9.42,0,0,0-6.58,11.71,9.84,9.84,0,0,0,13.07,6.09c5.06-2.27,7.39-8.61,4.45-13.45-2.11-3.48-9.33-8.27-13.18-5a2,2,0,0,0-.31,2.4c1.55,2.4,5.24,2.31,7.44,4s2.63,4.76.29,6.64-5.67.43-7-2.09c-1.47-2.84.13-6.68,2.58-8.42.9-.64.4-2.24-.79-1.89Z"/><path class="cls-1" d="M84.42,59.12a8.2,8.2,0,0,1,6.11-2.6c1.62.14.41,1.25-.19,1.94a3.59,3.59,0,0,0-1.28,2.35.82.82,0,0,0,.81.81c3.28-.19,6.4-5.45,2.52-7.22-3.27-1.49-7.39,1.18-9,3.94a.64.64,0,0,0,1,.77Z"/><path class="cls-1" d="M86.62,60.76c1.16,2.35,4.89,3.69,7.21,2.41a.63.63,0,0,0,.13-1,8.24,8.24,0,0,0-7-2.38.64.64,0,0,0-.38.93Z"/><path class="cls-1" d="M98.07,56.09c1.84,1.93,4.28,1.83,6.72,1.33.31-.06,1.84-.22,2-.49l-.34-.79-.13.43c-.18.25-.26.62-.42.89-.64,1.12-1.61,2-2.21,3.19a.63.63,0,0,0,.53.93,4.54,4.54,0,0,0,3.86-2.32c.76-1.14,1.77-3,.83-4.33-1.06-1.45-2.94-.73-4.34-.32a11.27,11.27,0,0,1-5.87.45.62.62,0,0,0-.6,1Z"/><path class="cls-1" d="M101.9,59a5.56,5.56,0,0,1,.3,3c-.14.82-.64,1.85-.33,2.66a.68.68,0,0,0,.63.48c1.41,0,2-1.82,2.06-3a5.26,5.26,0,0,0-1.49-3.86c-.45-.5-1.45,0-1.18.69Z"/><path class="cls-1" d="M117.24,55A4.84,4.84,0,0,1,122,56.85c1.07,1.59-1,3.29-1.83,4.61a.7.7,0,0,0,.59,1,4.65,4.65,0,0,0,4.45-2,4.53,4.53,0,0,0-.35-5,6.59,6.59,0,0,0-8.21-2c-.89.41-.21,1.63.63,1.48Z"/><path class="cls-1" d="M121.64,51.82a22.48,22.48,0,0,1-5.73,6.67,28.77,28.77,0,0,1-3.54,2.4c-1.17.72-2.44,1.18-3,2.48a.69.69,0,0,0,.24.92c2.72,1.45,6.46-1.7,8.35-3.46a19.45,19.45,0,0,0,5-8.45.71.71,0,0,0-1.29-.54Z"/><path class="cls-1" d="M10.45,31.4s-5.1,3.85-5.11,7.3L15,40.14l4.26-10.62Z"/><path class="cls-1" d="M105.56,94.5c-1.61-4.08-4.62-7.46-9.12-8.28-4.8-.87-10.53,2.11-12.46,6.6a.61.61,0,0,0,1.05.62c5.09-7.75,15.6-7.1,19,1.69a.87.87,0,0,0,.81.57,2.13,2.13,0,0,1,.45,2c-.4.92-1.21.17-1.89.33a.77.77,0,0,0-.42.28,6.27,6.27,0,0,1-1.58.86,3.27,3.27,0,0,1-2.24-.2.66.66,0,0,0-.93-.18A6.06,6.06,0,0,1,95.28,100a5.37,5.37,0,0,1-2.68-.73v-.06a.88.88,0,0,0-1.69-.47c-.21.72-1.39.83-2,.59-.9-.34-.71-1.48-.72-2.25A.61.61,0,0,0,87,96.91a4.23,4.23,0,0,0-.23.76l-.1,0a2.86,2.86,0,0,1-2.23-.37,2,2,0,0,1,0-2.55c.41-.5-.15-1.46-.76-1A3.27,3.27,0,0,0,82.75,98a2.81,2.81,0,0,0,1.76,1.34c.9,2.46,2,4.67,2.34,7.33a4.52,4.52,0,0,1,.57,1c3.74,4.38,12.16,4.58,15.56-.31a.71.71,0,0,0,.08-.65c.7-.81.75-2.42,1-3.36A22.9,22.9,0,0,1,105,101a3.71,3.71,0,0,0,.43-1.21,2.63,2.63,0,0,0,1.48-1.6A3.32,3.32,0,0,0,105.56,94.5Zm-2.45,5.75a14,14,0,0,0-.85,2.08c-.39,1.09-1.24,2.88-.8,4.08-.53.37-1,.74-1.52,1.06.32-2.26,1-4.39,1.45-6.64l.31-.06A6.65,6.65,0,0,0,103.11,100.25Zm-6.39,1.14a4.73,4.73,0,0,0,2-1,3.33,3.33,0,0,0,1.35.5,17.16,17.16,0,0,0-2,7.59,6.89,6.89,0,0,1-.95.28C97.13,106.31,96.9,103.82,96.72,101.39Zm-5.1-.74c.39,2.64,1,5.24,1.21,7.91a12.61,12.61,0,0,1-1.81-.69,10.64,10.64,0,0,0-.46-3.5,15.17,15.17,0,0,0-1-3.21A3.9,3.9,0,0,0,91.62,100.65ZM86.09,99.5c.25,0,.5,0,.74,0a2.28,2.28,0,0,0,1.37,1.47c.14,1.24.46,2.44.71,3.66.16.77.21,1.61.38,2.4l-.93-.53A16.75,16.75,0,0,0,86.09,99.5Zm8.35,9.37a35.59,35.59,0,0,0-1.35-7.67,6,6,0,0,0,2.45.37,31.43,31.43,0,0,0,.09,7.34A8.88,8.88,0,0,1,94.44,108.87Z"/><path class="cls-1" d="M100,98a5.53,5.53,0,0,1,1.42-.91c.48-.24,1.14-.34,1.5-.58a.63.63,0,0,0,.13-1,1.24,1.24,0,0,0-1.31-.22,1.51,1.51,0,0,0-1.89-1.2,1.49,1.49,0,0,0-.94,2.12,1.2,1.2,0,0,0,.57.49,3.81,3.81,0,0,0-.42.53C98.7,97.84,99.56,98.47,100,98Z"/><path class="cls-1" d="M88.53,95.57a1.47,1.47,0,0,0,2.31-1.18,1.7,1.7,0,0,0-2.08-1.57c-.85.23-.93,1.06-.66,1.78A1.27,1.27,0,0,0,88.53,95.57Z"/><path class="cls-1" d="M145.43,92.74a1.92,1.92,0,0,0-1.85-1.45.71.71,0,0,0-.06-.37,2.36,2.36,0,0,0-3.29-1.5.62.62,0,0,0-.51-.66,3.81,3.81,0,0,0-3.25.49.72.72,0,0,0-.74-.34,4,4,0,0,0-1.52.58.55.55,0,0,0-.41-.18c-4.13,0-6.85,6.7-8.19,9.69-1,2.14-2.12,4.48-1.1,6.81,1.11,2.54,4,3.56,6.44,4.38,1,.33,1.37-1.18.42-1.52a17.93,17.93,0,0,1-3.67-1.59l-.32-.41a9.85,9.85,0,0,0,7,1.77,3.4,3.4,0,0,1-1.32.27.88.88,0,0,0,0,1.76c4.07,0,6.15-4.23,8.29-7.13C143.2,100.84,146.81,96.27,145.43,92.74Zm-2.32,4.8a23.7,23.7,0,0,1-2.56,4,40.7,40.7,0,0,1-4.05,5.38.66.66,0,0,0-.76-.27c-3.68,1-6.35-.32-9.15-2.59a.57.57,0,0,0-.5-.12A5.24,5.24,0,0,1,127,99.8a39.82,39.82,0,0,1,2.16-4.5,14.89,14.89,0,0,1,2.6-3.2c-.2.31-.39.62-.56.91a46,46,0,0,0-4.75,10.12.52.52,0,0,0,.95.4c1.38-2.47,2.44-5.12,3.78-7.62.95-1.77,2.08-4.36,4-5.36a13.23,13.23,0,0,0-.94,1.52c-2.15,4-4.15,8-6.12,12.07-.34.7.67,1.31,1.05.62,1.36-2.43,2.66-4.9,4-7.36,1.08-2.06,2.87-7.69,6.08-7.27a4.38,4.38,0,0,0-.38.42,42.56,42.56,0,0,0-3.67,6.59c-1.49,2.86-3,5.72-4.28,8.69a.57.57,0,0,0,1,.57c1.86-2.88,3.36-6,4.95-9,.69-1.31,1.37-2.63,2.1-3.93.3-.53,2.25-4.19,3-2.12a.83.83,0,0,0,.26.36,5.38,5.38,0,0,0-1.39,1.15c-3,3.45-5.14,8.87-7,13a.56.56,0,0,0,1,.56c1.5-2.18,2.75-4.54,4-6.85.32-.57,3.51-7.67,5.17-5.8C144.4,94.27,143.32,97.06,143.11,97.54Z"/><path class="cls-1" d="M64.74,96.21c-1.25.42-2.74.9-4.35,1.32a12.86,12.86,0,0,0,2.83-1.15c.65-.36.08-1.31-.58-1-4.16,2.11-8.45,1.53-12.9,1-.58-.07-.71.91-.14,1a25.63,25.63,0,0,0,10,.32C54.24,99,47.76,99.47,44.54,95a.69.69,0,0,0-.38-.27,1.38,1.38,0,0,1,.15-1,.56.56,0,0,0,.29-.06c5.46-2.84,14.8-3.56,19,1.8.47.6,1.35-.16,1-.79C61.32,88.36,49.1,88.77,44,92.58a.54.54,0,0,0-.39.08,2,2,0,0,0-.88,2.21c-.64,2.23-.85,5.12.37,7.13a.59.59,0,0,0,.22.21,4.11,4.11,0,0,0,.17,2.37,3.55,3.55,0,0,0,1.4,2.06.73.73,0,0,0,.33.07.51.51,0,0,0,.23.25,18.38,18.38,0,0,0,18.35-.3.71.71,0,0,0,.23-.21C67,104,67.34,99,65.8,95.8,65.51,95.21,64.62,95.62,64.74,96.21Zm.28,5.22a14.36,14.36,0,0,1-1.94,4.14c-2.89,1.28-5.62,2.33-8.85,2.25-2.93-.07-5.52-1.07-8.29-1.9h-.07a7.23,7.23,0,0,0-.86-1.69,4.3,4.3,0,0,1-.49-2,.5.5,0,0,0-.2-.44.62.62,0,0,0,0-.1c-.09-1.11-.44-2.18-.52-3.3a14.1,14.1,0,0,1,0-2.06c3.86,5.87,16.06,4.19,21.22,1.22A10.16,10.16,0,0,1,65,101.44Z"/><path class="cls-1" d="M50,102.72l-.08,0a.63.63,0,1,0,0,1.1l.08,0A.59.59,0,0,0,50,102.72Z"/><path class="cls-1" d="M51.23,103.41a.51.51,0,0,0,0,1A.51.51,0,0,0,51.23,103.41Z"/><path class="cls-1" d="M58.55,102.5a3.06,3.06,0,0,0-.58.39c-.64.5.29,1.48.91.91a3,3,0,0,0,.45-.52C59.68,102.76,59,102.28,58.55,102.5Z"/><path class="cls-1" d="M61.42,101.28a1.19,1.19,0,0,0-.16.66.69.69,0,0,0,1.38,0,1.19,1.19,0,0,0-.16-.66A.62.62,0,0,0,61.42,101.28Z"/><path class="cls-1" d="M46.23,94.28c-.29-.6-1.16-.07-.89.52A4,4,0,0,0,47.62,97c.56.2,1-.73.41-1A3.48,3.48,0,0,1,46.23,94.28Z"/></svg>