<svg id="圖層_1" xmlns="http://www.w3.org/2000/svg" viewBox="25.1 114.1 367.9 286.2"><style>.st0{fill:#010101}</style><title>logo</title><path class="st0" d="M93.9 316.5c5-7.2 9.6-14.8 13.8-22.5 7.3-13.6 14-27.6 22.4-40.5 4.7-7.2 10.9-12.4 19.6-14.3 1.2-.4 2.4-.7 2.9.9-.2-.1-.5 0-.6.2-11.2 8.1-17.8 19.2-20.8 32.4-2.9 12.7-6.2 25.2-9.9 37.6-1.7 5.6-3.4 11.2-4 17.4 2.5-1.1 3.1-3.1 4.3-4.6 14.2-19.7 27.8-39.9 44.7-57.4 9.4-9.7 19.5-18.7 31-25.8.9-.6 2.2-2.3 3.4-.6 1 1.5-.9 1.8-1.7 2.4-8.4 7.4-15.7 15.9-21.6 25.4-10.9 16.8-20.3 34.3-23.9 54.3-1.3 7.2-.4 14 5 19.5 1.6 1.6 3 4.3 5.7 2.7 2.3-1.5.9-4 .1-5.8-2.9-6.3-2.4-12.6-.6-19 7.8-26.2 20.2-50.7 36.6-72.5 3.2-4.3 7.1-8 11.6-10.9 3.3-2.3 7.2-3.6 11.2-3.8 4.1-.2 7.9.3 10.8 3.9.9-2.1.3-3.3-1.4-3.9-3.7-1.3-7.4-2.5-11.5-1.9-10.4 1.7-20.3 4.8-29.2 10.7-20.3 13.4-36.8 30.5-50.8 50.3-2.8 4-5.8 7.9-8.7 11.9-.4-1.5-.2-3.1.4-4.5 4.4-12.4 9.1-24.6 12.4-37.3 1.8-7 4.4-13.5 9.1-19.1 1.5-1.4 5-1 4.8-3.4-.1-1.6-3.1-2-4.9-2.8-23-9.4-47.1-12.6-71.7-11.7-11.6.4-19 6.3-21.3 15.4C56 258 71.8 273.7 92.2 270c7.9-1.4 15.8-3.3 18.8-12.3 1.2-1.4 1.4-3.3.6-4.9-1.3.4-1.5 1.5-1.9 2.5-5.8 7.8-13.6 10.7-23.1 9.9-13.1-1.1-21.1-9.3-20.7-20.9s7.6-17.8 21.7-17.9c10.7-.1 21.3.7 31.8 2.4 10.1 1.4 20 3.8 29.6 7.3-9 1.3-15 5.9-20.2 11.8-5.7 6.5-10.1 14-14.2 21.6-8 15-17.3 29.2-27.8 42.5-8 9.9-17.7 17.5-30.7 20-11.3 2.1-21.6-3-24.4-12.1-4.6-15.1 8.7-28.8 25.7-27 9 1 15.5 5.5 20.9 13.9-.5-5.5-2.3-8.8-5.2-11.7-12.3-12.1-38-8-45.9 7.4-5.9 11.4-1.1 29.6 14.9 32.4 6.3 1.1 12.6.9 18.9.4 14.1-1.2 24.9-7.3 32.9-18.8z"/><path class="st0" d="M222.6 284.5c-4.2 2.7-7.6 6.6-9.7 11.1-3.4 7-6.6 14.1-10 21.1-1.5 3.2-3.5 6.1-7 7.5-4.6 1.9-7.6.1-7.9-4.9-.5-5.3.8-10.7 3.7-15.2 3-4.4 5.5-9.1 7.4-14.1.7-1.7 1-3.5.6-5.4-.2-1-.4-2.2-1.5-2.3-1.4-.2-1.3 1.1-1.6 2.1-1.5 5-4.8 9.1-7.7 13.3-2.1 3-4.6 5.8-5.6 9.4-1.8 5.8-2.7 11.8.6 17.4 2.7 4.6 7.4 4 12.3 3.4-1.8 3.1-3.2 5.7-4.8 8.2-10.9 17.6-22 35-38.8 47.7-12.8 9.6-27.1 14.8-43.3 12.5-8.6-1.2-14.2-6.6-15.9-14.4-1.7-7.9 1.7-16 8.5-20.2 11.2-7.2 25.9-5.5 35.2 4.1.6.6.9 2 2.6 1.1-.9-4.2-3.4-7.3-6.9-9.6-12.2-8.2-30.5-5.3-39.7 6.3-9.8 12.4-3.6 31.6 11.7 35.5 2.9.7 5.9 1.1 8.9 1.3 19.3.9 35.8-6.3 50.1-18.6 23.9-20.5 39.5-46.8 52-75.2 3.5-7.9 6.4-16 12.3-23.3-2.5-.8-4 .3-5.5 1.2zm124.7 18.7c3.4-4.6 3-3.7 5.9-8.1 4.3.5 3.7-.1 8.2.4-4.7 5.4-8.6 11.5-11.4 18.1-2 4.8-1 10.3 2.1 12.9 3.3 2.7 8.3 2.5 12.9-1 6.3-4.8 11-11.1 14.9-17.9.4-.6.3-1.4-.3-1.9-2.2.1-2.6 2.2-3.6 3.5-3.7 5.1-7.1 10.5-12.2 14.4-2 1.5-4 2.7-6.3 1.2s-1.4-3.8-.8-5.9c3.1-12.3 10-22.3 18.6-31.3 1-1 2.7-2 1.2-3.7s-2.7.2-3.6 1c-3.6 3.4-8.6 5-13.6 4.3.8-1.4 1.4-2.9 2-4.4.6-2.2-.3-3.9-2-5.3-1.1-1.1-2.7-1.4-4.2-.9-5 1.9-7.5 7.7-4.9 14.8-3.8 6.7-6.4 9.6-10.6 15.2-3.9 5.2-4.8 7-8.2 11.4-1.7 2.2-5.3 7.3-8.1 5.7-3.1-1.8-1.4-5.4-.5-8.2 3.3-10.2 8.9-19.3 14.4-28.4.8-1.3 2.3-2.4 1.9-4.4-2.7-.4-5.4.1-7.7 1.5-.9.5-1.4 1.5-2.7-.1-4.7-5.8-9.3-6.8-16-3.2-9.2 4.9-16.2 13.2-19.3 23.2-2.8 8.5-8.8 14-16.2 18-6.2 3.3-9.6.8-9.2-6.1.2-2.8.9-5.6 2.3-8.1 2.5-4.7 5.3-9.3 7.4-14.1 2.7-5.9 5.6-10.8 13.4-8.6 1.1.3 2.6-.3 3.9-.7 6-2 7.3-6.1 4.1-11.9-4.3 6.3-6.4 7.3-12.9 5.9 2-3.3 3.9-6.6 6-9.8 10.3-15.6 20.5-31.1 35.5-42.8 12.1-9.4 25.7-14.6 41.2-13.6 10.2.7 17.1 6.8 18.7 15.7 1.7 9.4-2.9 18-12.3 22.2-10.6 4.7-20.4 3.2-29.3-4.2-1.4-1.1-2.2-3.7-4.7-2.6 1.6 5 4.7 8.9 9.7 10.6 12.5 4.2 24.4 3.1 34.6-6 7.3-6.5 8.9-15 6.3-24.2-2.3-8.4-8.7-12.3-16.7-13.7-19.9-3.6-37.5 2.2-53.4 14-17.5 12.9-30.1 30-41.1 48.4-2.5 4.3-5 7-10.2 6.5-2.4-.1-4.7.6-6.5 2.1-3.6 2.7-3.9 6.6-.6 10 2-4.4 5.3-6.5 9.9-6.4-4.5 13.3-11.2 24.9-24.8 32.4 5.7-8.1 3.5-14.8-1.2-21.7-4.1-5.9-3.5-12.1.6-15.9 1.4-1.2 2.9-2.3 4.5-3.4-4.7-1.6-7.3.2-9.7 3.1-7 8.2-13.4 17-21.4 24.4-.6.5-1.6.9-1.1 1.9.8 1.3 1.7.4 2.5 0 5.8-3.2 9.6-8.6 14.1-13.3 1.2-1.3 1.9-3.5 4.5-3.6-.9 5.9 1.2 11 2.4 16.4 1.9 7.9-3 15.9-10.9 17.9-.6.1-1.2.3-1.9.3-4.8.5-6.8-1.9-5.5-6.6 1.7-6.3 6.3-8.9 13.9-7.8-7.2-4.5-14.5-2.2-18.3 5.7-3.4 7.2-.8 11.5 7.2 11.8 6.7.2 12.7-1.7 18.7-4.6s10.6-7.2 16.1-11.5c-.3 1.9-.6 3-.8 4.1-.9 8.6 4.1 13.4 12.6 11.9 2.4-.5 4.7-1.5 6.8-3 3.7-2.7 7-5.7 10-9.2 1.9 12 9.8 15.5 24 5.7 2.1 8.6 10.5 9.6 16 3.3 4.5-5.6 12.4-17.3 15.7-21.8zm6.1-18.9c.1-.1 1.2-1.2 2.1-.4 1.4 1.1-.8 3-1.5 4.4-1.5-1.7-1.5-3-.6-4zm-39.8 2.3c2-1.8 4.6-3.2 7.3-1.6 2.5 1.5 2.3 4.4 1.9 6.8-1.4 10.1-5.4 19.6-11.6 27.7-.7.9-1.6 1.7-2.6 2.3-2.4 1.6-4.9 3.2-7.8 1.8-3.2-1.5-2.8-4.6-2.9-8.2 1.3-11.2 6.8-20.9 15.7-28.8z"/><path d="M186.9 196.9c-2.6-3.8-10.9-15.5-12.6-19.1-2.4-5.5-5.1-11.7-3.5-17.7 1.3-4.6 4.3-8.4 9.1-8.9 5.7-.5 11.4.2 16.8 2-.6 1.4-1 2.9-1 4.5 0 7.9 3.6 13.8 10.8 17.1 3.8 1.6 7.7 2.8 11.8 3.8 4.1 1.1 8.2 1.9 12 4 1.9.9 3.3 2.6 3.9 4.7.8 3.1-.4 6.4-3.2 8.1-5.8 4.1-11.9 3.9-18 .6-5.4-2.9-8.6-7.6-11.1-13l-1.6-3.3c-2.1 1.1-2.9 2.6-2.5 4.8.7 2.4 1.8 4.7 3.3 6.7 4.3 6.3 6.7 7.8 12.5 10.6 6.4 3.1 19.4 1.4 24.9-5.6 4.2-5.8 2.9-13.8-2.9-18-.6-.4-1.2-.8-1.9-1.1-2.3-1.1-4.7-2.1-7.1-2.8-5.7-1.9-11.5-3.5-17.3-5.4-6.2-1.9-10.3-7.8-10-14.3 0-.7.2-1.3.6-1.9.8-.7.8-2 0-2.7-1.2-1.3-2.5-2.6-3.9-3.7-3.9-2.8-8.5-4.6-13.2-5.1-9.4-1.2-16.7.9-22.7 10.3-1.7 3.1-2.6 6.5-2.8 10 .1 7.4 2.6 12.4 6.6 18.7 2.3 3.3 1.3 2.6 7.4 8.5 2.9 2.8 10.7 7.5 13.4 8.7 2.7 1.2 3.6 1.6 2.2-.5z"/><path d="M287.4 155.9c-1.3-5.9-5.5-9.8-10.6-12.7-5.4-3.1-11.3-2.9-17.2-1.6-4.5 1-8.6 3-12.2 5.9-1.4-1.4-3-2.8-4.6-4-2.7-1.9-5.7-3.3-8.8-4.1-.9-.3-4.4-1.1-4.4-1.1l-.4-1.2c-.7-2.1-1-2.9-1.7-5.3-.4-1.3-.3-2 .9-2.8 2.3-1.5 4.5-3.4 6.7-5h-9.2c-.5 0-.9 0-1.4-1.6-.9-2.7-1.7-5.4-2.7-8.5-.3.8-.5 1.3-.6 1.8-.7 2.2-1.3 4.4-2 6.6-.5 1.5-.3 1.6-1.4 1.7-1.8.1-7.2.1-7.2.1h-2.1c2.6 1.9 4.8 3.6 7 5.2.9.6 1.2.9.8 1.9l-2.8 8.2c-1 .4-2 .8-2.9 1.3-3.3 1.6-5.7 4.6-6.6 8.2-1.1 5.2.8 9.4 4.8 12.7 2.4 2 5.4 2.9 8.4 3.8 5.5 1.7 11.2 3.1 16.6 5.1 8.7 3.1 13.1 10.3 12.5 19.5-.1.8-.2 1.7-.3 2.6l.5.3c0-.2.1-.5.2-.7 5.6-7.6 5-15.6-1-22.2-3.3-3.7-7.9-5.4-12.5-6.8-6.1-1.9-12.2-3.5-18.3-5.2-2.2-.4-3.8-2.3-3.9-4.5-.2-2.4.4-4.6 2.6-5.9 4.3-2.4 8.9-3.9 13.9-3.1 3.6.6 7.1 1.6 10.7 2.5 2.6.7 5.2 1.4 7.9 2.2l-.4.8c-1 2.1-.6 2.6 1.7 2.7 1.7.1 4.3-.3 6-.4 3.8-.2 7.3-.4 11.1-.4 4 .1 7.6 2.4 9.5 5.9 1.7 3.4 1.3 7.2.8 11-.7 5.5-3.7 10.4-6.6 14.9-2.6 4.1-5.4 8-8.1 12-.5.8-.9 1.5-1.3 2.3l.3.3c.5-.1.9-.2 1.3-.4 1.2-.5 2.4-1 3.5-1.6 12.8-7.1 21.7-17.1 23.8-32 .4-2.6.3-5.5-.3-8.4zm-73-16.5c1.4-1 2.7-2 4-2.9 1.9-1.4 2.9-2.3 3.3-2.3s1.3.9 3.3 2.3c.8.5 1.5 1.1 2.3 1.7-4.3-.4-8.7 0-12.9 1.2z"/></svg>